<svg xmlns="http://www.w3.org/2000/svg" width="2374" height="1012" viewBox="0 0 2374 1012"><defs><linearGradient id="s7tna" x1="1187" x2="1187" y1="1012" y2="0" gradientUnits="userSpaceOnUse"><stop offset="0" stop-color="#e8f4f9" stop-opacity="0"/><stop offset="1" stop-color="#e8f4f9"/></linearGradient><linearGradient id="s7tnb" x1="1187" x2="1187" y1="1012" y2="0" gradientUnits="userSpaceOnUse"><stop offset="0" stop-color="#fff"/><stop offset=".01" stop-color="#fff"/><stop offset=".49" stop-color="#fff"/><stop offset="1" stop-color="#f3f4ff"/></linearGradient></defs><g><g><path fill="url(#s7tna)" d="M0 88.77s90.504-38.045 236.17-38.045c149.158 0 356.154 114.135 583.044 114.135 118.558 0 242.548-126.816 366.556-126.816 129.123 0 258.266 76.09 381.316 76.09 236.082 0 449.738-114.136 597.805-114.136C2294.621-.002 2374 50.725 2374 50.725v961.273H0z"/><path fill="url(#s7tnb)" d="M0 88.77s90.504-38.045 236.17-38.045c149.158 0 356.154 114.135 583.044 114.135 118.558 0 242.548-126.816 366.556-126.816 129.123 0 258.266 76.09 381.316 76.09 236.082 0 449.738-114.136 597.805-114.136C2294.621-.002 2374 50.725 2374 50.725v961.273H0z"/></g></g></svg>