<?xml version="1.0" encoding="utf-8"?>
<!-- Generator: Adobe Illustrator 19.2.0, SVG Export Plug-In . SVG Version: 6.00 Build 0)  -->
<svg version="1.1" id="Слой_1" xmlns="http://www.w3.org/2000/svg" xmlns:xlink="http://www.w3.org/1999/xlink" x="0px" y="0px"
	 viewBox="0 0 149.9 126.1" style="enable-background:new 0 0 149.9 126.1;" xml:space="preserve">
<style type="text/css">
	.st0{clip-path:url(#SVGID_2_);}
</style>
<g>
	<defs>
		<path id="SVGID_1_" d="M13.9,8.2C7.5,14.4,5.1,34.8,7,43.6C14.5,78.7-4.9,81.5,1.2,106c3.1,12.5,11.9,21.8,27.4,19.9
			c19.6-2.5,33.1-16,52.8-15.9c9.1,0,18,1.1,26.9,2.7c22.1,3.9,40.5-14.6,41.5-34c1.1-21.5-14.8-34.8-28.1-38.5
			c-8.5-2.4-35.5-8.7-43.1-12.4C64.3,20.4,48.5,0,31.5,0C25.8,0,19.9,2.3,13.9,8.2"/>
	</defs>
	<clipPath id="SVGID_2_">
		<use xlink:href="#SVGID_1_"  style="overflow:visible;"/>
	</clipPath>
	
		<linearGradient id="SVGID_3_" gradientUnits="userSpaceOnUse" x1="0" y1="126.0874" x2="1" y2="126.0874" gradientTransform="matrix(149.9319 0 0 -149.9319 0 18968.4082)">
		<stop  offset="0" style="stop-color:#F8EC3B"/>
		<stop  offset="3.603270e-003" style="stop-color:#F8EC3B"/>
		<stop  offset="1" style="stop-color:#F4855C"/>
	</linearGradient>
	<rect x="-4.9" class="st0" width="155.9" height="127.8"/>
</g>
</svg>
