<svg id="Слой_1" data-name="Слой 1" xmlns="http://www.w3.org/2000/svg" xmlns:xlink="http://www.w3.org/1999/xlink" viewBox="0 0 110.68 37.27"><defs><clipPath id="clip-path" transform="translate(0 0)"><rect width="110.68" height="37.27" style="fill:none"/></clipPath></defs><title>Векторный смарт-объект6</title><g style="clip-path:url(#clip-path)"><path d="M108.83,0.29A67.88,67.88,0,0,1,92.11,12.58a1.07,1.07,0,0,0,.82,2l6.17-1.85C92.67,21.82,83,27.78,72.39,31.27c-10.9,3.59-28.12,7.9-37.15-1.56A10.17,10.17,0,0,1,34,28.09c5-.38,10.57-1.78,13.57-5.93,2.45-3.39,2.72-8.61-.87-11.34C37.42,3.76,27.45,17.34,30.51,26.1,18.85,25.93,8,19.73,1.2,10.29a0.64,0.64,0,0,0-1.1.64A36.43,36.43,0,0,0,31.44,28.19c6.09,11.53,22.8,9.67,33.53,7.32C79,32.45,92.46,25.79,100.82,14q0,3.25-.08,6.5c0,1,1.55,1.55,2,.54q4.23-9.73,7.89-19.69a1.08,1.08,0,0,0-1.79-1M41.49,11.38c7.55,0,6.58,8.63,2,11.77-3,2-7,2.7-10.5,2.9-2.35-6.28.67-14.63,8.51-14.67M102.23,10a1,1,0,0,0-.9-0.17l-0.88.26A69.39,69.39,0,0,0,107,4.94q-2,5.11-4.05,10.17,0-2.09.05-4.17a1,1,0,0,0-.75-1" transform="translate(0 0)"/></g></svg>