<svg id="Layer_5" data-name="Layer 5" xmlns="http://www.w3.org/2000/svg" xmlns:xlink="http://www.w3.org/1999/xlink" viewBox="0 0 512 512"><defs><style>.cls-1{fill:url(#Безымянный_градиент_17);}.cls-2{fill:url(#Безымянный_градиент_17-2);}.cls-3{fill:url(#Безымянный_градиент_17-3);}.cls-4{fill:url(#Безымянный_градиент_17-4);}</style><linearGradient id="Безымянный_градиент_17" x1="8" y1="256" x2="504" y2="256" gradientUnits="userSpaceOnUse"><stop offset="0" stop-color="#fc0b1f"/><stop offset="1" stop-color="#ff7800"/></linearGradient><linearGradient id="Безымянный_градиент_17-2" x1="56" y1="352" x2="104" y2="352" xlink:href="#Безымянный_градиент_17"/><linearGradient id="Безымянный_градиент_17-3" x1="152" y1="400" x2="200" y2="400" xlink:href="#Безымянный_градиент_17"/><linearGradient id="Безымянный_градиент_17-4" x1="81.22" y1="376" x2="174.78" y2="376" xlink:href="#Безымянный_градиент_17"/></defs><title>3</title><path class="cls-1" d="M330.73,254.51l32.56-18.61A23.92,23.92,0,0,0,384,248H504V40H384a24,24,0,0,0-19.67,10.32l-29.14-25A72.05,72.05,0,0,0,288.33,8H144a24,24,0,0,0-24,24,39.59,39.59,0,0,0,8.21,24H72A32,32,0,0,0,40,88a31.67,31.67,0,0,0,4.45,16H40a32,32,0,1,0,0,64H58.58l28.3,70.74-54,70.18A120.61,120.61,0,0,0,8,382.1V384A120.14,120.14,0,0,0,128,504H504V488H448V294.1l25.86,31,12.29-10.24L440,259.5l-46.14,55.38,12.29,10.24,25.86-31V488H336V358.1l25.86,31,12.29-10.24L328,323.5l-46.14,55.38,12.29,10.24,25.86-31V488H187.61A120,120,0,0,0,248,384v-1.9a120.61,120.61,0,0,0-24.89-73.17L188.55,264H295a72.12,72.12,0,0,0,35.73-9.49ZM376,64a8,8,0,0,1,8-8H488V232H384a8,8,0,0,1-8-8ZM24,136a16,16,0,0,1,16-16H184v20.49l-36.58-5.22L136,158.11l-11.82-23.63L62.88,152H40A16,16,0,0,1,24,136Zm91.82,17.51L136,193.89l20.58-41.15,38.88,5.55L155.25,232H101.42l-26.7-66.74ZM232,382.1V384a104,104,0,0,1-208,0v-1.9a104.53,104.53,0,0,1,21.57-63.41L99.94,248h56.13l54.37,70.68A104.57,104.57,0,0,1,232,382.1ZM169.52,239.26,184,212.7a35.07,35.07,0,0,0,10.34,25l11.31-11.31A19.46,19.46,0,0,1,200,212.69V183.38l20.54-37.66L200,142.78V107.31a19.46,19.46,0,0,1,5.66-13.66L194.34,82.34a35,35,0,0,0-10,21.66H72a16,16,0,0,1,0-32H212.69L225,84.29A39.73,39.73,0,0,0,253.26,96H272V80H253.26a24.16,24.16,0,0,1-17-7l-17-17H160a24,24,0,0,1-24-24,8,8,0,0,1,8-8H288.33a56.07,56.07,0,0,1,36.45,13.48L360,67.68V219.36l-37.21,21.26A56.16,56.16,0,0,1,295,248H176.25Z"/><path class="cls-2" d="M104,352a24,24,0,1,0-24,24A24,24,0,0,0,104,352Zm-24,8a8,8,0,1,1,8-8A8,8,0,0,1,80,360Z"/><path class="cls-3" d="M152,400a24,24,0,1,0,24-24A24,24,0,0,0,152,400Zm24-8a8,8,0,1,1-8,8A8,8,0,0,1,176,392Z"/><path class="cls-4" d="M81.22,435.76l80-128,13.57,8.48-80,128Z"/></svg>