<svg id="Capa_1" data-name="Capa 1" xmlns="http://www.w3.org/2000/svg" xmlns:xlink="http://www.w3.org/1999/xlink" viewBox="0 0 512 512"><defs><style>.cls-1{fill:url(#Безымянный_градиент_17);}.cls-2{fill:url(#Безымянный_градиент_17-2);}.cls-3{fill:url(#Безымянный_градиент_17-3);}.cls-4{fill:url(#Безымянный_градиент_17-4);}.cls-5{fill:url(#Безымянный_градиент_17-5);}.cls-6{fill:url(#Безымянный_градиент_17-6);}.cls-7{fill:url(#Безымянный_градиент_17-7);}.cls-8{fill:url(#Безымянный_градиент_17-8);}.cls-9{fill:url(#Безымянный_градиент_17-9);}.cls-10{fill:url(#Безымянный_градиент_17-10);}.cls-11{fill:url(#Безымянный_градиент_17-11);}.cls-12{fill:url(#Безымянный_градиент_17-12);}.cls-13{fill:url(#Безымянный_градиент_17-13);}.cls-14{fill:url(#Безымянный_градиент_17-14);}.cls-15{fill:url(#Безымянный_градиент_17-15);}.cls-16{fill:url(#Безымянный_градиент_17-16);}.cls-17{fill:url(#Безымянный_градиент_17-17);}</style><linearGradient id="Безымянный_градиент_17" x1="31.37" y1="141.71" x2="125.47" y2="141.71" gradientUnits="userSpaceOnUse"><stop offset="0" stop-color="#fc0b1f"/><stop offset="1" stop-color="#ff7800"/></linearGradient><linearGradient id="Безымянный_градиент_17-2" x1="76.51" y1="192.82" x2="122.76" y2="192.82" xlink:href="#Безымянный_градиент_17"/><linearGradient id="Безымянный_градиент_17-3" x1="0" y1="229.83" x2="91.51" y2="229.83" xlink:href="#Безымянный_градиент_17"/><linearGradient id="Безымянный_градиент_17-4" x1="31.37" y1="370.29" x2="125.47" y2="370.29" xlink:href="#Безымянный_градиент_17"/><linearGradient id="Безымянный_градиент_17-5" x1="76.51" y1="319.18" x2="122.76" y2="319.18" xlink:href="#Безымянный_градиент_17"/><linearGradient id="Безымянный_градиент_17-6" x1="0" y1="282.17" x2="91.51" y2="282.17" xlink:href="#Безымянный_градиент_17"/><linearGradient id="Безымянный_градиент_17-7" x1="312.03" y1="152.61" x2="327.03" y2="152.61" xlink:href="#Безымянный_градиент_17"/><linearGradient id="Безымянный_градиент_17-8" x1="381.09" y1="182.89" x2="404.19" y2="182.89" xlink:href="#Безымянный_градиент_17"/><linearGradient id="Безымянный_градиент_17-9" x1="409.7" y1="256" x2="436.15" y2="256" xlink:href="#Безымянный_градиент_17"/><linearGradient id="Безымянный_градиент_17-10" x1="381.09" y1="329.11" x2="404.19" y2="329.11" xlink:href="#Безымянный_градиент_17"/><linearGradient id="Безымянный_градиент_17-11" x1="312.03" y1="359.39" x2="327.03" y2="359.39" xlink:href="#Безымянный_градиент_17"/><linearGradient id="Безымянный_градиент_17-12" x1="234.87" y1="329.11" x2="257.96" y2="329.11" xlink:href="#Безымянный_градиент_17"/><linearGradient id="Безымянный_градиент_17-13" x1="202.91" y1="256" x2="229.36" y2="256" xlink:href="#Безымянный_градиент_17"/><linearGradient id="Безымянный_градиент_17-14" x1="234.87" y1="182.89" x2="257.97" y2="182.89" xlink:href="#Безымянный_градиент_17"/><linearGradient id="Безымянный_градиент_17-15" x1="312.03" y1="224.41" x2="359.86" y2="224.41" xlink:href="#Безымянный_градиент_17"/><linearGradient id="Безымянный_градиент_17-16" x1="170" y1="256" x2="468.79" y2="256" xlink:href="#Безымянный_градиент_17"/><linearGradient id="Безымянный_градиент_17-17" x1="103.68" y1="256" x2="512" y2="256" xlink:href="#Безымянный_градиент_17"/></defs><title>2</title><path class="cls-1" d="M38.87,149.21H118a7.5,7.5,0,1,0,0-15H38.87a7.5,7.5,0,0,0,0,15Z"/><path class="cls-2" d="M115.26,185.32H84a7.5,7.5,0,0,0,0,15h31.25a7.5,7.5,0,0,0,0-15Z"/><path class="cls-3" d="M7.5,237.33H84a7.5,7.5,0,0,0,0-15H7.5a7.5,7.5,0,0,0,0,15Z"/><path class="cls-4" d="M125.47,370.29a7.5,7.5,0,0,0-7.5-7.5H38.87a7.5,7.5,0,0,0,0,15H118A7.5,7.5,0,0,0,125.47,370.29Z"/><path class="cls-5" d="M115.26,311.68H84a7.5,7.5,0,1,0,0,15h31.25a7.5,7.5,0,1,0,0-15Z"/><path class="cls-6" d="M91.51,282.17a7.5,7.5,0,0,0-7.5-7.5H7.5a7.5,7.5,0,0,0,0,15H84A7.5,7.5,0,0,0,91.51,282.17Z"/><path class="cls-7" d="M319.53,165.83a7.5,7.5,0,0,0,7.5-7.5V146.88a7.5,7.5,0,0,0-15,0v11.45A7.5,7.5,0,0,0,319.53,165.83Z"/><path class="cls-8" d="M402,173.54a7.5,7.5,0,0,0-10.61,0l-8.1,8.1a7.5,7.5,0,0,0,10.61,10.61l8.1-8.1A7.5,7.5,0,0,0,402,173.54Z"/><path class="cls-9" d="M417.2,248.5a7.5,7.5,0,0,0,0,15h11.45a7.5,7.5,0,1,0,0-15Z"/><path class="cls-10" d="M393.89,319.76a7.5,7.5,0,0,0-10.61,10.61l8.1,8.1A7.5,7.5,0,0,0,402,327.85Z"/><path class="cls-11" d="M312,353.67v11.45a7.5,7.5,0,1,0,15,0V353.67a7.5,7.5,0,0,0-15,0Z"/><path class="cls-12" d="M245.16,319.76l-8.1,8.1a7.5,7.5,0,0,0,10.61,10.61l8.1-8.1a7.5,7.5,0,0,0-10.61-10.61Z"/><path class="cls-13" d="M210.41,248.5a7.5,7.5,0,0,0,0,15h11.45a7.5,7.5,0,0,0,0-15Z"/><path class="cls-14" d="M255.77,181.63l-8.1-8.1a7.5,7.5,0,1,0-10.61,10.61l8.1,8.1a7.5,7.5,0,0,0,10.61-10.61Z"/><path class="cls-15" d="M359.86,256a7.5,7.5,0,0,0-7.5-7.5H327V192.82a7.5,7.5,0,1,0-15,0V256a7.5,7.5,0,0,0,7.5,7.5h32.83A7.5,7.5,0,0,0,359.86,256Z"/><path class="cls-16" d="M461.74,254.76a7.5,7.5,0,0,0,7-7.94c-4.77-78.7-70.33-140.35-149.24-140.35C237.08,106.47,170,173.55,170,256s67.08,149.53,149.53,149.53A149.6,149.6,0,0,0,467.39,278.38a7.5,7.5,0,1,0-14.83-2.23,134.6,134.6,0,0,1-133,114.38C245.35,390.53,185,330.18,185,256s60.35-134.53,134.53-134.53c71,0,130,55.46,134.27,126.26a7.5,7.5,0,0,0,7.94,7Z"/><path class="cls-17" d="M319.53,63.53a192.4,192.4,0,0,0-76,15.71H111.18a7.5,7.5,0,0,0,0,15H215.29a192.27,192.27,0,0,0-38.46,32.6,7.5,7.5,0,0,0,11.12,10.07A177.85,177.85,0,0,1,319.53,78.53C417.39,78.53,497,158.14,497,256S417.39,433.47,319.53,433.47,142.06,353.86,142.06,256a176.82,176.82,0,0,1,28.31-96.19,7.5,7.5,0,0,0-12.6-8.14,192.42,192.42,0,0,0,57.58,266.09H111.18a7.5,7.5,0,1,0,0,15H243.41a191.37,191.37,0,0,0,76.12,15.71C425.66,448.47,512,362.13,512,256S425.66,63.53,319.53,63.53Z"/></svg>