<svg id="Слой_1" data-name="Слой 1" xmlns="http://www.w3.org/2000/svg" xmlns:xlink="http://www.w3.org/1999/xlink" viewBox="0 0 512 512"><defs><style>.cls-1{fill:url(#Безымянный_градиент_17);}.cls-2{fill:url(#Безымянный_градиент_17-2);}.cls-3{fill:url(#Безымянный_градиент_17-3);}.cls-4{fill:url(#Безымянный_градиент_17-4);}.cls-5{fill:url(#Безымянный_градиент_17-5);}.cls-6{fill:url(#Безымянный_градиент_17-6);}.cls-7{fill:url(#Безымянный_градиент_17-7);}.cls-8{fill:url(#Безымянный_градиент_17-8);}.cls-9{fill:url(#Безымянный_градиент_17-9);}.cls-10{fill:url(#Безымянный_градиент_17-10);}.cls-11{fill:url(#Безымянный_градиент_17-11);}.cls-12{fill:url(#Безымянный_градиент_17-12);}.cls-13{fill:url(#Безымянный_градиент_17-13);}.cls-14{fill:url(#Безымянный_градиент_17-14);}.cls-15{fill:url(#Безымянный_градиент_17-15);}.cls-16{fill:url(#Безымянный_градиент_17-16);}.cls-17{fill:url(#Безымянный_градиент_17-17);}.cls-18{fill:url(#Безымянный_градиент_17-18);}.cls-19{fill:url(#Безымянный_градиент_17-19);}.cls-20{fill:url(#Безымянный_градиент_17-20);}.cls-21{fill:url(#Безымянный_градиент_17-21);}.cls-22{fill:url(#Безымянный_градиент_17-22);}.cls-23{fill:url(#Безымянный_градиент_17-23);}.cls-24{fill:url(#Безымянный_градиент_17-24);}.cls-25{fill:url(#Безымянный_градиент_17-25);}.cls-26{fill:url(#Безымянный_градиент_17-26);}.cls-27{fill:url(#Безымянный_градиент_17-27);}</style><linearGradient id="Безымянный_градиент_17" x1="232" y1="264" x2="280" y2="264" gradientUnits="userSpaceOnUse"><stop offset="0" stop-color="#fc0b1f"/><stop offset="1" stop-color="#ff7800"/></linearGradient><linearGradient id="Безымянный_градиент_17-2" x1="152" y1="184.02" x2="360" y2="184.02" xlink:href="#Безымянный_градиент_17"/><linearGradient id="Безымянный_градиент_17-3" x1="32" y1="24" x2="48" y2="24" xlink:href="#Безымянный_градиент_17"/><linearGradient id="Безымянный_градиент_17-4" x1="32" y1="56" x2="48" y2="56" xlink:href="#Безымянный_градиент_17"/><linearGradient id="Безымянный_градиент_17-5" x1="16" y1="40" x2="32" y2="40" xlink:href="#Безымянный_градиент_17"/><linearGradient id="Безымянный_градиент_17-6" x1="48" y1="40" x2="64" y2="40" xlink:href="#Безымянный_градиент_17"/><linearGradient id="Безымянный_градиент_17-7" x1="80" y1="120" x2="96" y2="120" xlink:href="#Безымянный_градиент_17"/><linearGradient id="Безымянный_градиент_17-8" x1="80" y1="152" x2="96" y2="152" xlink:href="#Безымянный_градиент_17"/><linearGradient id="Безымянный_градиент_17-9" x1="64" y1="136" x2="80" y2="136" xlink:href="#Безымянный_градиент_17"/><linearGradient id="Безымянный_градиент_17-10" x1="96" y1="136" x2="112" y2="136" xlink:href="#Безымянный_градиент_17"/><linearGradient id="Безымянный_градиент_17-11" x1="32" y1="216" x2="48" y2="216" xlink:href="#Безымянный_градиент_17"/><linearGradient id="Безымянный_градиент_17-12" x1="32" y1="248" x2="48" y2="248" xlink:href="#Безымянный_градиент_17"/><linearGradient id="Безымянный_градиент_17-13" x1="16" y1="232" x2="32" y2="232" xlink:href="#Безымянный_градиент_17"/><linearGradient id="Безымянный_градиент_17-14" x1="48" y1="232" x2="64" y2="232" xlink:href="#Безымянный_градиент_17"/><linearGradient id="Безымянный_градиент_17-15" x1="464" y1="24" x2="480" y2="24" xlink:href="#Безымянный_градиент_17"/><linearGradient id="Безымянный_градиент_17-16" x1="464" y1="56" x2="480" y2="56" xlink:href="#Безымянный_градиент_17"/><linearGradient id="Безымянный_градиент_17-17" x1="480" y1="40" x2="496" y2="40" xlink:href="#Безымянный_градиент_17"/><linearGradient id="Безымянный_градиент_17-18" x1="448" y1="40" x2="464" y2="40" xlink:href="#Безымянный_градиент_17"/><linearGradient id="Безымянный_градиент_17-19" x1="416" y1="120" x2="432" y2="120" xlink:href="#Безымянный_градиент_17"/><linearGradient id="Безымянный_градиент_17-20" x1="416" y1="152" x2="432" y2="152" xlink:href="#Безымянный_градиент_17"/><linearGradient id="Безымянный_градиент_17-21" x1="432" y1="136" x2="448" y2="136" xlink:href="#Безымянный_градиент_17"/><linearGradient id="Безымянный_градиент_17-22" x1="400" y1="136" x2="416" y2="136" xlink:href="#Безымянный_градиент_17"/><linearGradient id="Безымянный_градиент_17-23" x1="464" y1="216" x2="480" y2="216" xlink:href="#Безымянный_градиент_17"/><linearGradient id="Безымянный_градиент_17-24" x1="464" y1="248" x2="480" y2="248" xlink:href="#Безымянный_градиент_17"/><linearGradient id="Безымянный_градиент_17-25" x1="480" y1="232" x2="496" y2="232" xlink:href="#Безымянный_градиент_17"/><linearGradient id="Безымянный_градиент_17-26" x1="448" y1="232" x2="464" y2="232" xlink:href="#Безымянный_градиент_17"/><linearGradient id="Безымянный_градиент_17-27" x1="16" y1="400" x2="500.17" y2="400" xlink:href="#Безымянный_градиент_17"/></defs><title>1</title><g id="money-grow-grown-protect-hand"><path class="cls-1" d="M248,216v9.47A23.94,23.94,0,0,0,256,272a8,8,0,1,1-8,8H232a24,24,0,0,0,16,22.53V312h16v-9.47A23.94,23.94,0,0,0,256,256a8,8,0,1,1,8-8h16a24,24,0,0,0-16-22.53V216Z"/><path class="cls-2" d="M304,160a56.06,56.06,0,0,0,56-56,8,8,0,0,0-8-8H304a55.76,55.76,0,0,0-40,16.88V80h40a56.06,56.06,0,0,0,56-56,8,8,0,0,0-8-8H304a55.89,55.89,0,0,0-48,27.28A55.89,55.89,0,0,0,208,16H160a8,8,0,0,0-8,8,56.06,56.06,0,0,0,56,56h40v32.88A55.76,55.76,0,0,0,208,96H160a8,8,0,0,0-8,8,56.06,56.06,0,0,0,56,56h40v16.4a88,88,0,1,0,16,0V160Zm0-48h39.2A40.07,40.07,0,0,1,304,144H264.8A40.07,40.07,0,0,1,304,112Zm0-80h39.2A40.07,40.07,0,0,1,304,64H264.8A40.07,40.07,0,0,1,304,32ZM208,64a40.07,40.07,0,0,1-39.2-32H208a40.07,40.07,0,0,1,39.2,32Zm0,80a40.07,40.07,0,0,1-39.2-32H208a40.07,40.07,0,0,1,39.2,32ZM328,264a72,72,0,1,1-72-72A72,72,0,0,1,328,264Z"/><path class="cls-3" d="M32,16H48V32H32Z"/><path class="cls-4" d="M32,48H48V64H32Z"/><path class="cls-5" d="M16,32H32V48H16Z"/><path class="cls-6" d="M48,32H64V48H48Z"/><path class="cls-7" d="M80,112H96v16H80Z"/><path class="cls-8" d="M80,144H96v16H80Z"/><path class="cls-9" d="M64,128H80v16H64Z"/><path class="cls-10" d="M96,128h16v16H96Z"/><path class="cls-11" d="M32,208H48v16H32Z"/><path class="cls-12" d="M32,240H48v16H32Z"/><path class="cls-13" d="M16,224H32v16H16Z"/><path class="cls-14" d="M48,224H64v16H48Z"/><path class="cls-15" d="M464,16h16V32H464Z"/><path class="cls-16" d="M464,48h16V64H464Z"/><path class="cls-17" d="M480,32h16V48H480Z"/><path class="cls-18" d="M448,32h16V48H448Z"/><path class="cls-19" d="M416,112h16v16H416Z"/><path class="cls-20" d="M416,144h16v16H416Z"/><path class="cls-21" d="M432,128h16v16H432Z"/><path class="cls-22" d="M400,128h16v16H400Z"/><path class="cls-23" d="M464,208h16v16H464Z"/><path class="cls-24" d="M464,240h16v16H464Z"/><path class="cls-25" d="M480,224h16v16H480Z"/><path class="cls-26" d="M448,224h16v16H448Z"/><path class="cls-27" d="M494.8,336.32a40.16,40.16,0,0,0-54.64-14.72L340,379.44A40.07,40.07,0,0,0,312,368H219.28l-23.52-23.6A56,56,0,0,0,156.08,328H80V312a8,8,0,0,0-8-8H24a8,8,0,0,0-8,8V488a8,8,0,0,0,8,8H72a8,8,0,0,0,8-8V466.64l97.52,27.84a41.67,41.67,0,0,0,11,1.52h99a39.86,39.86,0,0,0,20-5.36L480.16,391A40,40,0,0,0,494.8,336.32ZM64,480H32V320H64ZM483.36,362.48A23.89,23.89,0,0,1,472.16,377L299.44,476.8a24.5,24.5,0,0,1-12,3.2h-99a22.44,22.44,0,0,1-6.56-1L80,450V344h76.08a39.56,39.56,0,0,1,28.32,11.76l25.92,25.92A8.26,8.26,0,0,0,216,384h96a23.65,23.65,0,0,1,16.8,6.88,35.83,35.83,0,0,1,2.88,3.36A24.36,24.36,0,0,1,336,408a24.07,24.07,0,0,1-24,24H216v16h96a39.76,39.76,0,0,0,36.88-55.2l99.28-57.28a24,24,0,0,1,35.2,27Z"/></g></svg>