<svg id="Слой_1" data-name="Слой 1" xmlns="http://www.w3.org/2000/svg" viewBox="0 0 512 512"><title>inst</title><path d="M437,0H75A75.09,75.09,0,0,0,0,75V437a75.09,75.09,0,0,0,75,75H437a75.09,75.09,0,0,0,75-75V75A75.09,75.09,0,0,0,437,0ZM257,390c-74.44,0-135-60.56-135-135s60.56-135,135-135,135,60.56,135,135S331.44,390,257,390ZM407,150a45,45,0,1,1,45-45A45.05,45.05,0,0,1,407,150Z" transform="translate(0 0)"/><path d="M407,90a15,15,0,1,0,15,15A15,15,0,0,0,407,90Z" transform="translate(0 0)"/><path d="M257,150A105,105,0,1,0,362,255,105.13,105.13,0,0,0,257,150Z" transform="translate(0 0)"/></svg>