<svg id="Слой_1" data-name="Слой 1" xmlns="http://www.w3.org/2000/svg" xmlns:xlink="http://www.w3.org/1999/xlink" viewBox="0 0 2322.34 1595.14"><defs><clipPath id="clip-path" transform="translate(0 0)"><path d="M526.84,331.33a303.59,303.59,0,0,0,49.21,166.26h502.44a303.58,303.58,0,0,0,49.21-166.26c0-167.4-134.51-303.11-300.43-303.11S526.84,163.92,526.84,331.33" style="fill:none"/></clipPath><linearGradient id="Безымянный_градиент" y1="1595.14" x2="1" y2="1595.14" gradientTransform="matrix(600.86, 0, 0, -600.86, 526.84, 958719.38)" gradientUnits="userSpaceOnUse"><stop offset="0" stop-color="#ffe310"/><stop offset="0.5" stop-color="#fee18b"/><stop offset="1" stop-color="#ffcc09"/></linearGradient><clipPath id="clip-path-2" transform="translate(0 0)"><rect width="2322.34" height="1595.14" style="fill:none"/></clipPath></defs><title>logo</title><g style="clip-path:url(#clip-path)"><rect x="526.84" y="28.21" width="600.86" height="469.36" style="fill:url(#Безымянный_градиент)"/></g><g style="clip-path:url(#clip-path-2)"><path d="M827.72,33.81c162.24,0,293.76,131.52,293.76,293.76a292.36,292.36,0,0,1-48.12,161.13H582.07A292.36,292.36,0,0,1,534,327.57C534,165.33,665.48,33.81,827.72,33.81Z" transform="translate(0 0)" style="fill:none;stroke:#fc0b1f;stroke-miterlimit:22.926000595092773;stroke-width:8.503999710083008px"/><path d="M1334.55,1358.8c-29.51,32.93-59.93,54.92-107.29,79.11-132.36,67.6-489.75,93.33-659,76.9,161.24-44.79,406.12-29.36,587.22-108.16,60.4-26.28,179.47-99.59,172.34-174.1-9.29-97-37.75-206.68-43.34-305.18,9.23,12.91,69.74,255.16,80.19,294.09,16.77,62.44,4.06,99.23-30.09,137.35M1207,617.87c79.62-15.47,96.67,103.65,22.8,117.38-80,14.86-99.57-102.46-22.8-117.38M260.36,575.23c75.78-18.56,103.24,99,26.38,116.64-75.86,17.46-105.79-97.19-26.38-116.64M353,636.63c-1.08-88.38-106.89-110.17-148-44.8-9,14.27-14,34.94-10.45,55.29,6.13,34.69,12.56,15.61-8.89,44.95C94.7,816.44-2.37,1004.42,0,1179.57c1.12,80.81,24.84,154.78,60.1,209.67,35.94,56,73.22,100.23,139.86,129.66,127.61,56.34,305.84,74.26,460.89,76,155.83,1.77,348.83-6.08,486.52-52.49,128-43.16,250.19-126.86,278.1-260.8,33.78-162.12-46-403.28-119-541-12.54-23.66-17.26-20.1-10.82-46.58,4.88-20.06.7-40.59-8-56.23-35.88-64.69-136.45-53.9-149.8,34-69.39,27.38-323,33.45-408.5,30.3-68.63-2.53-136.54-7.94-202.4-19.12-31.68-5.38-61.16-11.7-91.68-19.61-29.21-7.57-56.72-19.65-82.34-26.69" transform="translate(0 0)" style="fill:#fc0b1f;fill-rule:evenodd"/><path d="M1119.17,474.78c25.39-.08,60.7,2.9,85.78,6.54,31.65,4.6,45,15.89,63,30.87-22.33-4.94-25.14-12.25-69.65-18.34-26.64-3.65-56.73-4.05-84.51-4.69-0.72-5.86,2.77-9.23,5.37-14.39m-874.64.58c11.11-2.5,32.76-18.36,51.73-21.55,14-2.35,201.48,2.81,226.42,3.08l7.51,15.06c-41.79,0-224.45-7.52-255.91-2.8-10.2,1.53-20.72,5.49-29.76,6.22m832.55,12.24c7.66-21.85,23.21-42.87,32.47-73.35,61.63-202.93-108.23-412-328.38-379.16C666.8,52.12,582.71,132.19,548.45,222c-21.62,56.69-26.56,119.88-9.94,182.25,22.33,83.79,16.89,71.55,137.39,71.65,4.5,0.28,9.78.53,13.47,0.72Zm-569.75-76c-57.33-.37-115.18-3-172.62-3.69-66-.79-99.09,6.77-137,40.9-40.46,36.41-41.48,61.6-49.43,129.09-3.9,33.13-17.94,133.6-15.4,161.33,19-48.66,37.14-97.14,54.43-146.83,14.57-41.89,70.24-79.47,125.06-78.84,132.74,1.53,261.79,6.69,393.07,12.82,133,6.21,266.13-.32,400.32,7.54,68.62,4,123.58,0,164.2,40.61,40.31,40.29,49.48,73,66.18,139,4.26-11.09,4-95.78,3-113.31-1.93-33.56-11.08-73.29-22.85-100.25-24.34-55.74-103.36-68-178.19-69.57,11-66.5,23.67-94.44,8.55-168.2C1118.38,124.36,998.2,6.53,837.27.81,674.34-5,546.9,104.54,508.63,243.24c-19.25,69.78-8.77,101.11-1.3,168.34" transform="translate(0 0)" style="fill:#fc0b1f;fill-rule:evenodd"/><path d="M437.53,575.92c10.16,5.41,264.92,17.8,298.31,18.56,100.45,2.27,215.65,1.95,315.67-2.87-29.76-5.06-248.2-14.77-297.39-17.51-95.48-5.33-220.13-2-316.59,1.82" transform="translate(0 0)" style="fill:#fc0b1f;fill-rule:evenodd"/><path d="M709.15,870.16c1.67-52.69-58.55-88.33-150.87-91.26l-189.06-6-9.6,302.33,205.31,6.52c93.05,3,155.45-29.65,157.16-83.64,0.88-27.64-21.19-54.28-62-72,35.87-12.26,48.5-37.37,49.09-55.94M491,895.66l1.65-51.83,52.43,1.67c23.63,0.75,38.8,12,37.54,28.43-1.21,14.66-17,24.1-39.18,23.4Zm-3.68,115.75,1.7-53.56,69.42,2.21c21.42,0.68,38,12.45,37.52,28.86-0.49,15.55-17.81,25.38-39.23,24.7ZM922.4,859.2L1073.06,864l2.18-68.67L797.56,786.5,788,1088.83l283.59,9,2.29-72.13-156.57-5,1.56-49.24,137.36,4.36,2.2-69.11L921,902.39ZM475.62,1426.52l4.68-147.28,216.07,156.45,36.93,1.17L743,1132.37l-127.76-4.06-4.58,144.26L397.42,1118.8l-39.88-1.27-9.68,304.93Zm481.55-218.6,150.66,4.78L1110,1144l-277.68-8.82-9.6,302.33,283.59,9,2.29-72.13-156.56-5,1.56-49.24,137.36,4.36,2.19-69.11-137.36-4.36Z" transform="translate(0 0)" style="fill:#fff;fill-rule:evenodd"/><path d="M1968.71,758.68H1757.89v-107h210.83v107Zm-247.18-107V755.57c-42.75,0-68,1.9-75.64,5.89-7.79,4-11.6,15.23-11.6,33.75v21.64h87.24v107h-49.85v549.4h-204.6V923.82h-41.54v-107h41.54c0-44.48,1.56-74.26,4.5-89.14,3.12-15.06,10.73-28.39,22.68-40,12.12-11.77,28.91-20.77,50.71-26.83q32.46-9.09,101.26-9.17h75.3Zm247.18,821.5H1757.89v-673h210.83v673Zm288.2-762.3V816.84H2314v107h-57.12v359.86c0,44.14,2.42,68.89,7.1,73.91s24.06,7.62,58.33,7.62v108h-82.91q-70.1,0-100.22-5.89a106.26,106.26,0,0,1-52.79-26.83c-15.23-14-24.75-29.95-28.56-48.12q-5.45-27-5.54-127.22V923.82H2008.7v-107h43.62V710.91h204.6Z" transform="translate(0 0)" style="fill:#fc0b1f;fill-rule:evenodd"/><path d="M530,471.81s-56-60.52-28.58-210.59S649-20.28,862.16,2.61s300.11,200.29,294.13,322.26-42.49,164.3-42.49,164.3l-39.47-1.57s69.11-110,39.51-216.3-92-217.88-268-236.28-289,136.72-301.52,207S511.41,382.3,576.11,473.51c-21.78-.71-46.15-1.7-46.15-1.7" transform="translate(0 0)" style="fill:#fc0b1f;fill-rule:evenodd"/><path d="M737.17,179.74V312.55h-51v56.28h51v12H687.74v55.87h49.44v1.09h0.06v27.57h82.41V436.74H889V380.88H819.61V369.53h35.74c66.71,0,111.5-36.19,111.5-93,2.38-58-42.41-96.74-111.5-96.74H737.17Zm81,132.56V238.08h37.17c19.54,0,32.88,14.77,32.88,36.55,0,22.52-13.34,37.66-32.88,37.66H818.18Z" transform="translate(0 0)" style="fill:#fc0b1f;fill-rule:evenodd"/><path d="M647.84,158c-9.73-9.28-22.26-8.59-31.77,1.38l-19.47,20.42L652.44,233l21.14-22.17c9.58-10.05,9.51-22.75-.46-32.26a21.42,21.42,0,0,0-19.54-5.38c1.18-6.19-2.31-11.95-5.74-15.22m-16.37,29.15L621.9,178l5.4-5.66c2.43-2.55,6-2.33,9,.64,2.64,2.67,2.87,6.09.59,8.48Zm21.38,20.38L643,198.07l7.15-7.5c2.21-2.31,6-2.17,9.06.72,2.87,2.74,3,6.4.83,8.71Zm99.39-48.83L769.1,150,733.94,81.36,717.07,90Zm-73-49.17,10.55,20.6,7.36-3.77c13.73-7,27.63-2.63,34.91,11.59,7.59,14.81,3.88,29.09-10.34,36.38L697.4,186.75l-35.12-68.56Zm17.89,35.66,7.65-3.92c4-2.06,8.58.06,11.34,5.46,2.66,5.2,1.67,10-2.35,12.1l-7.65,3.92Zm98.09-55.93,22.3-2.83L815.32,68.9l-41.11,5.22,9.72,76.53,18.8-2.39Zm107.13,28.15c4.18-23.43-6.26-41.42-26.11-45s-36.1,9.67-40.28,33.11,6.37,41.44,26.33,45,35.88-9.71,40.07-33.15m-47.73-8.53c2.17-12.15,9.5-19.35,18.29-17.78,8.57,1.53,12.74,10.78,10.57,22.93s-9.3,19.5-17.87,18c-8.79-1.57-13.15-11-11-23.12m93.52-14.33,41.69,21.35-27.38,53.46,5.59,2.86-12.26,23.93-15.69-8,4.47-8.73-28.35-14.52-4.47,8.73-15.5-7.94L908.5,141.7c6,3.07,8.36,1.81,12.42-4.66Zm6.63,22.84L937,146c-1.51,2.7-4.25,6.37-7.31,7l15.6,8L965,122.58Zm56.09,122.89,0.88-.84L1047.26,165l-6.54-6.86-76.21,31.7-0.88.84,13.76,14.44,9.3-4.14,15.13,15.87L997.25,226Zm-9.11-46.13A198,198,0,0,0,1021.42,183a130.14,130.14,0,0,0-12,19.2Z" transform="translate(0 0)" style="fill:#fc0b1f;fill-rule:evenodd"/></g></svg>