<svg id="Слой_1" data-name="Слой 1" xmlns="http://www.w3.org/2000/svg" xmlns:xlink="http://www.w3.org/1999/xlink" viewBox="0 0 522 509.3"><defs><clipPath id="clip-path"><path d="M432.6,165.2l-54.4-54.6a8.62,8.62,0,0,1-2.5-6.1,8.8,8.8,0,0,1,2.5-6.1,8.69,8.69,0,0,1,12.2,0L444.8,153a8.63,8.63,0,0,1,2.5,6.1,8.8,8.8,0,0,1-2.5,6.1,8.62,8.62,0,0,1-6.1,2.5,8.8,8.8,0,0,1-6.1-2.5m-65-77.3a23.37,23.37,0,0,0-6.9,16.7,23.78,23.78,0,0,0,6.9,16.7l54.5,54.5a23.36,23.36,0,0,0,16.7,6.9,23.79,23.79,0,0,0,16.7-6.9,23.37,23.37,0,0,0,6.9-16.7,23.78,23.78,0,0,0-6.9-16.7L401,87.9A23.74,23.74,0,0,0,384.26,81a23.48,23.48,0,0,0-16.66,6.9" style="fill:none"/></clipPath><linearGradient id="Безымянный_градиент" y1="509.3" x2="1" y2="509.3" gradientTransform="translate(360.7 -51663.96) scale(101.7)" gradientUnits="userSpaceOnUse"><stop offset="0" stop-color="#8800bf"/><stop offset="1" stop-color="#4000aa"/></linearGradient><clipPath id="clip-path-2"><path d="M44.7,298h0.4c3.4,0.1,6.7.1,10.1,0.2-3,8.1-6,16.2-8.9,24.3-0.7-9.2-1.2-17.5-1.6-24.5m412.1,0.1c3.4-.1,6.7-0.1,10.1-0.2h0.5c-0.4,7.1-.9,15.3-1.6,24.5-3.1-8.1-6-16.2-9-24.3M438.9,429.5c-22.1-56.3-43.1-113.9-62.3-171.3a17.29,17.29,0,0,1,8.3-20.8,64.7,64.7,0,0,1,14.9-5.4,15.53,15.53,0,0,1,3.7-.4,17.39,17.39,0,0,1,16,11c22.1,56.3,43.1,113.9,62.3,171.3a17.07,17.07,0,0,1-8.3,20.8,64.71,64.71,0,0,1-14.9,5.4,16.39,16.39,0,0,1-3.74.43,17.23,17.23,0,0,1-16-11M53.3,440.1a65.67,65.67,0,0,1-14.8-5.4,17.18,17.18,0,0,1-8.3-20.8c19.2-57.2,40.2-114.8,62.3-171.3A17.23,17.23,0,0,1,112.2,232a64.72,64.72,0,0,1,14.9,5.4,17.18,17.18,0,0,1,8.3,20.8c-12.6,37.4-26,75.3-39.8,112.4a7.47,7.47,0,0,0,14,5.2c9.4-25.3,18.6-50.9,27.6-76.5,39.4,0.4,79.1.6,118.8,0.6s79.4-.2,118.8-0.6c15.8,45.5,32.6,91,50.2,135.7a32.62,32.62,0,0,0,22.3,19.6,67.64,67.64,0,0,1-61.2,39.6H125.9a67.53,67.53,0,0,1-61.2-39.6A32.2,32.2,0,0,0,87,435c4.3-11,8.2-21.2,12-31a7.5,7.5,0,0,0-14-5.4c-3.7,9.8-7.7,19.9-12,30.9a17.38,17.38,0,0,1-16,11,16.15,16.15,0,0,1-3.7-.43m-14.7-158a29.88,29.88,0,0,1-22-23,76.26,76.26,0,0,1,0-30.1,30.09,30.09,0,0,1,28.7-23.9c139.9-2.7,281.7-2.7,421.6,0A30.09,30.09,0,0,1,495.6,229a78.16,78.16,0,0,1-.1,30.1,29.86,29.86,0,0,1-22.1,23,35,35,0,0,1-6.6.9h-0.2l-15.4.3q-8.7-23.1-17.7-46.1a32.29,32.29,0,0,0-37.1-19.7,84.32,84.32,0,0,0-18.2,6.6A32.26,32.26,0,0,0,362.4,263c2.4,7.1,4.8,14.3,7.3,21.4-75.5.8-151.8,0.8-227.3,0,2.4-7.1,4.9-14.3,7.3-21.4a32.15,32.15,0,0,0-15.8-38.9,84.32,84.32,0,0,0-18.2-6.6,32.29,32.29,0,0,0-37.1,19.7q-9,23-17.7,46.1L45.5,283H45.3a25.17,25.17,0,0,1-6.7-.9M157.5,119a796.14,796.14,0,0,1,158.9,0c2.4,23,3.7,46.3,4,69.2-55.6-.3-111.4-0.2-166.9.3,0.3-23.1,1.6-46.4,4-69.5M68.9,187.4c-3.8-20.2-5.6-42.1-6.3-53.3a16,16,0,0,1,2.2-9.4c14.3-24.9,42-42.2,48.8-46.3h56.6a173.21,173.21,0,0,1,29.7,22.5c-16.7.8-33.4,2-50.1,3.8a7.54,7.54,0,0,0-6.7,6.6,744,744,0,0,0-4.7,77.3c-23,.2-46,0.6-69,0.9a20.93,20.93,0,0,0-.5-2.1M119.2,50.3h45.6V63.4H119.2V50.3Zm-6.3-28.7a5.7,5.7,0,0,1,5.7-5.7h46.6a5.76,5.76,0,0,1,5.7,5.7V35.3h-58V21.6Zm162,49.7a7.43,7.43,0,0,0,6.2-7.4,6.62,6.62,0,0,0-.1-1.4c-3.7-25.3.4-41,4.1-45.3a6.11,6.11,0,0,1,5-2.3c17.3,0,17.9,34.4,17.9,34.7a7.53,7.53,0,0,0,14.4,3c5.4-12.1,20.5-36.1,33-32.6a5.66,5.66,0,0,1,3.8,3.3c3.2,6.5,1.5,20.9-4.1,35.6a335.28,335.28,0,0,0-58.4,43.2c-18.1-1.3-36.2-2-54.3-2.2-10.5-32.6-8-57.5-2.6-65.1a3.37,3.37,0,0,1,2.1-1.7c5.4,0,16.7,15.4,24.8,33.7a7.45,7.45,0,0,0,6.91,4.61,7.63,7.63,0,0,0,1.29-.11M290.1,0a20.84,20.84,0,0,0-16.3,7.5c-5.5,6.4-7.9,16.3-8.8,26.2-6.6-8.6-14.5-15.6-23.1-15.6-5.6,0-10.7,2.8-14.3,8-9.7,13.6-9.8,43.1-.8,74-2.2,0-4.5.1-6.7,0.1-14.7-17.1-32.5-28.9-40.2-33.7V50.1a7.52,7.52,0,0,0,6.2-7.4V21.6A20.74,20.74,0,0,0,165.4.9H118.8A20.74,20.74,0,0,0,98.1,21.6V42.8a7.52,7.52,0,0,0,6.2,7.4V66.6C94,72.7,66.9,90.9,51.8,117.2A31.27,31.27,0,0,0,47.7,135a481.67,481.67,0,0,0,6.4,54.9c-3.1.1-6.1,0.1-9.2,0.2A45.14,45.14,0,0,0,1.8,226,91.94,91.94,0,0,0,0,243.9v0.29a92,92,0,0,0,1.8,17.9A45.15,45.15,0,0,0,29.5,295c0.8,15.3,2.2,37,4.5,61.7-6.2,17.5-12.3,35.1-18.1,52.6a32.15,32.15,0,0,0,15.8,38.9,84.28,84.28,0,0,0,16.7,6.3,82.29,82.29,0,0,0,77.5,54.8H386a82.2,82.2,0,0,0,77.5-54.9,82,82,0,0,0,16.7-6.3A32.26,32.26,0,0,0,496,409.2c-5.9-17.5-11.9-35.1-18.1-52.6,2.3-24.7,3.7-46.4,4.5-61.7A44.94,44.94,0,0,0,510.1,262a89.11,89.11,0,0,0,.1-36,45.1,45.1,0,0,0-28.6-33.2c35.5-59.2,40.4-114.6,12-143C481.1,37.3,463.1,31,441.4,31.4A7.62,7.62,0,0,0,434,39a7.53,7.53,0,0,0,7.5,7.4h0.1c17.8-.3,31.7,4.4,41.3,14,14.9,14.9,15.3,37.5,13,53.9-3.2,23.2-13.7,49.3-30.3,75.7q-65-1.2-130.2-1.7c-0.3-25.5-1.9-51.4-4.7-77a7.55,7.55,0,0,0-6.7-6.6c-2.2-.2-4.5-0.5-6.7-0.7C349,77.3,382.8,58.4,414,50.4a7.48,7.48,0,1,0-3.7-14.5,207,207,0,0,0-36.6,13.5c2.4-10.5,3.6-23.1-1-32.4A20.45,20.45,0,0,0,359.4,5.9c-8.8-2.6-22.4-1.3-37.5,18.6-0.7,1-1.4,1.9-2.1,2.9l-0.3-.9C316.5,16.6,308.8,0,290.1,0Z" style="fill:none"/></clipPath><linearGradient id="Безымянный_градиент_2" y1="509.3" x2="1" y2="509.3" gradientTransform="translate(0 -260500.66) scale(511.99)" xlink:href="#Безымянный_градиент"/><clipPath id="clip-path-3"><path d="M139.8,417.4c-0.6-20-.6-40.4,0-60.4a16.83,16.83,0,0,1,16.6-16.3h0.4A16.83,16.83,0,0,1,173.4,357c0.6,20,.6,40.3,0,60.4a16.83,16.83,0,0,1-16.6,16.3h-0.4a16.83,16.83,0,0,1-16.6-16.3m16.6-91.7a31.66,31.66,0,0,0-31.6,30.9c-0.6,20.3-.6,41,0,61.3a31.66,31.66,0,0,0,31.6,30.9h0.5a31.65,31.65,0,0,0,31.6-30.9c0.6-20.3.6-41,0-61.3a31.72,31.72,0,0,0-31.6-30.9h-0.5Z" style="fill:none"/></clipPath><linearGradient id="Безымянный_градиент_3" y1="509.3" x2="1" y2="509.3" gradientTransform="translate(124.35 -32478.84) scale(64.53)" xlink:href="#Безымянный_градиент"/><clipPath id="clip-path-4"><path d="M239.2,417.4c-0.6-20-.6-40.4,0-60.4a16.83,16.83,0,0,1,16.6-16.3h0.4A16.83,16.83,0,0,1,272.8,357c0.6,20,.6,40.3,0,60.4a16.83,16.83,0,0,1-16.6,16.3h-0.4a16.83,16.83,0,0,1-16.6-16.3m16.6-91.7a31.65,31.65,0,0,0-31.6,30.9c-0.6,20.3-.6,41,0,61.3a31.66,31.66,0,0,0,31.6,30.9h0.5a31.65,31.65,0,0,0,31.6-30.9c0.6-20.3.6-41,0-61.3a31.72,31.72,0,0,0-31.6-30.9h-0.5Z" style="fill:none"/></clipPath><linearGradient id="Безымянный_градиент_4" y1="509.3" x2="1" y2="509.3" gradientTransform="translate(223.75 -32478.85) scale(64.53)" xlink:href="#Безымянный_градиент"/><clipPath id="clip-path-5"><path d="M338.6,417.4c-0.6-20-.6-40.4,0-60.4a16.83,16.83,0,0,1,16.6-16.3h0.4A16.83,16.83,0,0,1,372.2,357c0.6,20,.6,40.3,0,60.4a16.83,16.83,0,0,1-16.6,16.3h-0.4a16.83,16.83,0,0,1-16.6-16.3m16.5-91.7a31.65,31.65,0,0,0-31.6,30.9c-0.6,20.3-.6,41,0,61.3a31.66,31.66,0,0,0,31.6,30.9h0.5a31.65,31.65,0,0,0,31.6-30.9c0.6-20.3.6-41,0-61.3a31.59,31.59,0,0,0-31.6-30.9h-0.5Z" style="fill:none"/></clipPath><linearGradient id="Безымянный_градиент_5" y1="509.3" x2="1" y2="509.3" gradientTransform="translate(323.13 -32478.84) scale(64.53)" xlink:href="#Безымянный_градиент"/></defs><title>offers__item-icon-34</title><g style="clip-path:url(#clip-path)"><rect x="360.7" y="81" width="101.7" height="101.7" style="fill:url(#Безымянный_градиент)"/></g><g style="clip-path:url(#clip-path-2)"><rect width="522" height="509.3" style="fill:url(#Безымянный_градиент_2)"/></g><g style="clip-path:url(#clip-path-3)"><rect x="124.2" y="325.7" width="64.9" height="123.1" style="fill:url(#Безымянный_градиент_3)"/></g><g style="clip-path:url(#clip-path-4)"><rect x="223.6" y="325.7" width="64.9" height="123.1" style="fill:url(#Безымянный_градиент_4)"/></g><g style="clip-path:url(#clip-path-5)"><rect x="322.9" y="325.7" width="64.9" height="123.1" style="fill:url(#Безымянный_градиент_5)"/></g></svg>