<svg id="Слой_1" data-name="Слой 1" xmlns="http://www.w3.org/2000/svg" xmlns:xlink="http://www.w3.org/1999/xlink" viewBox="0 0 512 386.7"><defs><clipPath id="clip-path"><path d="M185.8,85.5A7.52,7.52,0,0,0,194,98.1,113.87,113.87,0,1,1,169.2,120a7.52,7.52,0,0,0-11.5-9.7,128.56,128.56,0,1,0,28.1-24.8" style="fill:none"/></clipPath><linearGradient id="Безымянный_градиент" y1="386.7" x2="1" y2="386.7" gradientTransform="translate(127.3 -99343.19) scale(257.4)" gradientUnits="userSpaceOnUse"><stop offset="0" stop-color="#8800bf"/><stop offset="1" stop-color="#4000aa"/></linearGradient><clipPath id="clip-path-2"><path d="M91.8,193.4c0-90.5,73.6-164.2,164.2-164.2s164.2,73.6,164.2,164.2S346.6,357.6,256,357.6,91.8,283.9,91.8,193.4m-15,0c0,98.8,80.4,179.2,179.2,179.2s179.2-80.4,179.2-179.2S354.8,14.2,256,14.2,76.8,94.6,76.8,193.4" style="fill:none"/></clipPath><linearGradient id="Безымянный_градиент_2" y1="386.7" x2="1" y2="386.7" gradientTransform="translate(76.8 -138399.89) scale(358.4)" xlink:href="#Безымянный_градиент"/><clipPath id="clip-path-3"><path d="M437.2,75.2V44.9a29.9,29.9,0,1,1,59.8,0V75.2a29.9,29.9,0,0,1-59.8,0M467.1,0a45,45,0,0,0-44.9,44.9V75.2a44.84,44.84,0,0,0,37.4,44.2V252.5H457a17.63,17.63,0,0,0-17.6,17.6v99A17.62,17.62,0,0,0,457,386.7h20.2a17.63,17.63,0,0,0,17.6-17.6V319.8a7.5,7.5,0,0,0-15,0v49.3a2.65,2.65,0,0,1-2.6,2.6H457a2.65,2.65,0,0,1-2.6-2.6v-99a2.65,2.65,0,0,1,2.6-2.6h20.2a2.65,2.65,0,0,1,2.6,2.6v14.7a7.5,7.5,0,1,0,15,0V270.1a17.63,17.63,0,0,0-17.6-17.6h-2.6V119.4A44.91,44.91,0,0,0,512,75.2V44.9A45,45,0,0,0,467.1,0Z" style="fill:none"/></clipPath><linearGradient id="Безымянный_градиент_3" y1="386.7" x2="1" y2="386.7" gradientTransform="translate(422.2 -34532.31) scale(89.8)" xlink:href="#Безымянный_градиент"/><clipPath id="clip-path-4"><path d="M16,82.7H73.8a29.84,29.84,0,0,1-57.8,0M82.3,0a7.55,7.55,0,0,0-7.5,7.5V67.7H52.4V7.5a7.5,7.5,0,0,0-15,0V67.7H15V7.5A7.55,7.55,0,0,0,7.5,0,7.55,7.55,0,0,0,0,7.5V75.2a44.84,44.84,0,0,0,37.4,44.2V252.5H34.8a17.63,17.63,0,0,0-17.6,17.6v14.7a7.5,7.5,0,1,0,15,0V270.1a2.65,2.65,0,0,1,2.6-2.6H55a2.65,2.65,0,0,1,2.6,2.6v99a2.65,2.65,0,0,1-2.6,2.6H34.8a2.65,2.65,0,0,1-2.6-2.6V319.8a7.5,7.5,0,0,0-15,0v49.3a17.63,17.63,0,0,0,17.6,17.6H55a17.63,17.63,0,0,0,17.6-17.6v-99A17.63,17.63,0,0,0,55,252.5H52.4V119.4A44.84,44.84,0,0,0,89.8,75.2V7.5A7.55,7.55,0,0,0,82.3,0Z" style="fill:none"/></clipPath><linearGradient id="Безымянный_градиент_4" y1="386.7" x2="1" y2="386.7" gradientTransform="translate(0 -34532.31) scale(89.8)" xlink:href="#Безымянный_градиент"/></defs><title>offers__item-icon-6</title><g style="clip-path:url(#clip-path)"><rect x="127.3" y="64.7" width="257.4" height="257.4" style="fill:url(#Безымянный_градиент)"/></g><g style="clip-path:url(#clip-path-2)"><rect x="76.8" y="14.2" width="358.4" height="358.4" style="fill:url(#Безымянный_градиент_2)"/></g><g style="clip-path:url(#clip-path-3)"><rect x="422.2" width="89.8" height="386.7" style="fill:url(#Безымянный_градиент_3)"/></g><g style="clip-path:url(#clip-path-4)"><rect width="89.8" height="386.7" style="fill:url(#Безымянный_градиент_4)"/></g></svg>