<svg id="Слой_1" data-name="Слой 1" xmlns="http://www.w3.org/2000/svg" xmlns:xlink="http://www.w3.org/1999/xlink" viewBox="0 0 456.5 480"><defs><clipPath id="clip-path" transform="translate(8.48 0)"><path d="M199.92,56a8,8,0,1,1,8,8,8,8,0,0,1-8-8m-16,0a24,24,0,1,0,24-24,23.94,23.94,0,0,0-24,24" style="fill:none"/></clipPath><linearGradient id="Безымянный_градиент" y1="480" x2="1" y2="480" gradientTransform="translate(192.4 -22984.1) scale(48)" gradientUnits="userSpaceOnUse"><stop offset="0" stop-color="#8800bf"/><stop offset="1" stop-color="#4000aa"/></linearGradient><clipPath id="clip-path-2" transform="translate(8.48 0)"><path d="M384,296a8,8,0,1,0,0,16h24a8,8,0,0,0,0-16H384Z" style="fill:none"/></clipPath><linearGradient id="Безымянный_градиент_2" x1="0" y1="480" x2="1" y2="480" gradientTransform="translate(384.5 -18896.08) scale(40)" xlink:href="#Безымянный_градиент"/><clipPath id="clip-path-3" transform="translate(8.48 0)"><path d="M384,328a8,8,0,1,0,0,16h24a8,8,0,0,0,0-16H384Z" style="fill:none"/></clipPath><linearGradient id="Безымянный_градиент_3" x1="0" y1="480" x2="1" y2="480" gradientTransform="translate(384.5 -18864.08) scale(40)" xlink:href="#Безымянный_градиент"/><clipPath id="clip-path-4" transform="translate(8.48 0)"><path d="M384,360a8,8,0,1,0,0,16h24a8,8,0,1,0,0-16H384Z" style="fill:none"/></clipPath><linearGradient id="Безымянный_градиент_4" x1="0" y1="480" x2="1" y2="480" gradientTransform="translate(384.5 -18832.08) scale(40)" xlink:href="#Безымянный_градиент"/><clipPath id="clip-path-5" transform="translate(8.48 0)"><path d="M384,392a8,8,0,1,0,0,16h24a8,8,0,0,0,0-16H384Z" style="fill:none"/></clipPath><linearGradient id="Безымянный_градиент_5" x1="0" y1="480" x2="1" y2="480" gradientTransform="translate(384.5 -18800.08) scale(40)" xlink:href="#Безымянный_градиент"/><clipPath id="clip-path-6" transform="translate(8.48 0)"><path d="M384,424a8,8,0,1,0,0,16h24a8,8,0,1,0,0-16H384Z" style="fill:none"/></clipPath><linearGradient id="Безымянный_градиент_6" x1="0" y1="480" x2="1" y2="480" gradientTransform="translate(384.5 -18768.08) scale(40)" xlink:href="#Безымянный_градиент"/><clipPath id="clip-path-7" transform="translate(8.48 0)"><path d="M48,384a24,24,0,1,1,24,24,23.94,23.94,0,0,1-24-24m100-40c9.6,0,18.7,7.4,23.8,19.2a8.1,8.1,0,0,0,7.3,4.8H216a16,16,0,0,1,0,32h-36.8a7.89,7.89,0,0,0-7.3,4.8c-5.1,11.8-14.3,19.2-23.8,19.2a18.09,18.09,0,0,1-4-.4V344.4H144a18,18,0,0,1,4-.4M21.42,407.9A56,56,0,0,1,48,333.3,56.76,56.76,0,0,1,72,328a55.38,55.38,0,0,1,24,5.4V352a40,40,0,1,0,0,63.9v18.6a55.45,55.45,0,0,1-23.92,5.43,56.18,56.18,0,0,1-50.68-32M112,456V312a8,8,0,0,1,16,0V456a8,8,0,0,1-16,0m176-16V312a56,56,0,0,1,56-56h32a56,56,0,0,1,56,56V440a24.07,24.07,0,0,1-24,24H312a24.07,24.07,0,0,1-24-24m16-216a16,16,0,0,1,16-16h80a16,16,0,0,1,0,32H320a16,16,0,0,1-16-16m-160.1-48a64,64,0,1,1,64,64,64,64,0,0,1-64-64M320,187.9c0-9.6,7.4-18.7,19.2-23.8a8.1,8.1,0,0,0,4.8-7.3V120a16,16,0,1,1,32,0v36.8a7.89,7.89,0,0,0,4.8,7.3c11.8,5.1,19.2,14.3,19.2,23.8a18,18,0,0,1-.4,4h-79.2a18,18,0,0,1-.4-4M167.92,56a40,40,0,0,1,40-40h8.5a119,119,0,0,1,74.5,25.9,120.45,120.45,0,0,1,41.2,62.4A32,32,0,0,0,328,120v31.8c-14.9,8.1-24,21.6-24,36.2a34.53,34.53,0,0,0,.9,7.8,32,32,0,0,0-13.1,43.3,32.32,32.32,0,0,0,12.6,12.8A72,72,0,0,0,272,312V440a41.24,41.24,0,0,0,3.1,15.5,120.45,120.45,0,0,1-44.4,8.5H185a119.19,119.19,0,0,1-41-7.2v-17a26.8,26.8,0,0,0,4,.2c14.5,0,28-9.1,36.2-24H216a32,32,0,0,0,0-64h-31.8c-8.1-14.9-21.6-24-36.2-24-1.3,0-2.7.1-4,.2V312a24,24,0,0,0-48,0v4.1A72.5,72.5,0,0,0,72,312c-1.7,0-3.4.1-5.1,0.2l12.7-184.5A120.36,120.36,0,0,1,164,21.3a55.83,55.83,0,0,0,9.1,78.5c1.1,0.9,2.3,1.7,3.5,2.5a80.23,80.23,0,1,0,31.3-6.3,40,40,0,0,1-40-40m31.5-56A136,136,0,0,0,63.72,126.6l-13,188.6A72,72,0,1,0,96,451.9V456a24,24,0,0,0,42.2,15.7,136.33,136.33,0,0,0,46.9,8.3h46.56a133.73,133.73,0,0,0,52.84-11A39.74,39.74,0,0,0,312,480h96a40,40,0,0,0,40-40V312a72,72,0,0,0-32.4-60.1,32,32,0,0,0,12.3-43.5,32.32,32.32,0,0,0-12.8-12.6,34.53,34.53,0,0,0,.9-7.8c0-14.5-9.1-28-24-36.2V120a32,32,0,0,0-32-32,32.61,32.61,0,0,0-15,3.7A136.05,136.05,0,0,0,216.42,0h-17Z" style="fill:none"/></clipPath><linearGradient id="Безымянный_градиент_7" x1="0" y1="480" x2="1" y2="480" gradientTransform="translate(8.48 -214809.35) scale(448.02)" xlink:href="#Безымянный_градиент"/></defs><title>offers__item-icon-10</title><g style="clip-path:url(#clip-path)"><rect x="192.4" y="32" width="48" height="48" style="fill:url(#Безымянный_градиент)"/></g><g style="clip-path:url(#clip-path-2)"><rect x="384.5" y="296" width="40" height="16" style="fill:url(#Безымянный_градиент_2)"/></g><g style="clip-path:url(#clip-path-3)"><rect x="384.5" y="328" width="40" height="16" style="fill:url(#Безымянный_градиент_3)"/></g><g style="clip-path:url(#clip-path-4)"><rect x="384.5" y="360" width="40" height="16" style="fill:url(#Безымянный_градиент_4)"/></g><g style="clip-path:url(#clip-path-5)"><rect x="384.5" y="392" width="40" height="16" style="fill:url(#Безымянный_градиент_5)"/></g><g style="clip-path:url(#clip-path-6)"><rect x="384.5" y="424" width="40" height="16" style="fill:url(#Безымянный_градиент_6)"/></g><g style="clip-path:url(#clip-path-7)"><rect width="456.5" height="480" style="fill:url(#Безымянный_градиент_7)"/></g></svg>