<svg id="Слой_1" data-name="Слой 1" xmlns="http://www.w3.org/2000/svg" xmlns:xlink="http://www.w3.org/1999/xlink" viewBox="0 0 496 487.9"><defs><clipPath id="clip-path" transform="translate(0 7.88)"><path d="M166.7,167.62l-13.5-9.7a3.72,3.72,0,0,1-1.3-2.8c0-1.7,1.1-3.2,2.4-3.2h27.2c1.3,0,2.4,1.4,2.4,3.2a3.41,3.41,0,0,1-1.3,2.8l-13.6,9.7a2,2,0,0,1-2.3,0m-12.4-31.7c-10.2,0-18.4,8.6-18.4,19.2a19.47,19.47,0,0,0,8,15.8l13.6,9.7,2.4,1.5v25.4c-22.7-2.9-40-17.7-40-35.5a8,8,0,0,0-16,0c0,28.7,28.7,52,64,52s64-23.3,64-52a8,8,0,0,0-16,0c0,17.8-17.3,32.6-40,35.5v-25.4a12,12,0,0,0,2.4-1.5l13.6-9.7a19.34,19.34,0,0,0,8-15.8c0-10.6-8.3-19.2-18.4-19.2H154.3Z" style="fill:none"/></clipPath><linearGradient id="Безымянный_градиент" y1="480.02" x2="1" y2="480.02" gradientTransform="translate(103.9 -61255.09) scale(128)" gradientUnits="userSpaceOnUse"><stop offset="0" stop-color="#fc0b1f"/><stop offset="1" stop-color="#ff7800"/></linearGradient><clipPath id="clip-path-2" transform="translate(0 7.88)"><path d="M207.9,128a8,8,0,1,0,8-8,8,8,0,0,0-8,8" style="fill:none"/></clipPath><linearGradient id="Безымянный_градиент_2" x1="0" y1="480.02" y2="480.02" gradientTransform="translate(207.9 -7544.47) scale(16)" xlink:href="#Безымянный_градиент"/><clipPath id="clip-path-3" transform="translate(0 7.88)"><path d="M111.9,128a8,8,0,1,0,8-8,8,8,0,0,0-8,8" style="fill:none"/></clipPath><linearGradient id="Безымянный_градиент_3" x1="0" y1="480.02" y2="480.02" gradientTransform="translate(111.9 -7544.46) scale(16)" xlink:href="#Безымянный_градиент"/><clipPath id="clip-path-4" transform="translate(0 7.88)"><path d="M360,264a16,16,0,1,1,16,16,16,16,0,0,1-16-16m-16,0a32,32,0,1,0,32-32,32,32,0,0,0-32,32" style="fill:none"/></clipPath><linearGradient id="Безымянный_градиент_4" x1="0" y1="480.02" y2="480.02" gradientTransform="translate(344 -30449.57) scale(64)" xlink:href="#Безымянный_градиент"/><clipPath id="clip-path-5" transform="translate(0 7.88)"><path d="M304,373.22A47.68,47.68,0,0,0,323.6,360H336v32H310.4a78.74,78.74,0,0,0-6.4-18.8M40,408c0-30.9,21.5-56,48-56s48,25.1,48,56-21.5,56-48,56-48-25.1-48-56m160,0c0-30.9,21.5-56,48-56s48,25.1,48,56-21.5,56-48,56-48-25.1-48-56m135.8-76.8v-1.1l-0.1-2.1H368v96H310.4a78.24,78.24,0,0,0,1.6-16h32a8,8,0,0,0,8-8V352a8,8,0,0,0-8-8H333.2a42.91,42.91,0,0,0,2.6-12.8M384,328h96v96H384V328Zm-175-69.3c18.1,18.2,29.3,46.6,30.8,77.9-31.4,4.5-55.8,34.8-55.8,71.4a79.5,79.5,0,0,0,7.7,34.2,51.32,51.32,0,0,1-47.4,0A79.17,79.17,0,0,0,152,408c0-36.6-24.4-66.9-55.8-71.4,1.5-31.2,12.7-59.7,30.7-77.9a157.43,157.43,0,0,0,41,5.3H169a154.09,154.09,0,0,0,40-5.3m46.8,77.9c-1.5-32.5-12.4-62.6-30.3-83.6a116.88,116.88,0,0,0,31-19.3c36.7,17.5,58.3,47.4,62.6,86.7l0.7,10.3a32,32,0,0,1-24.8,28.5c-10-12.2-23.8-20.5-39.2-22.6M16,330.72l0.7-10.3c4.3-39.3,25.9-69.2,62.5-86.8A115.74,115.74,0,0,0,110.4,253c-17.9,21-28.8,51.1-30.3,83.5C64.7,338.72,51,347,41,359.22a32,32,0,0,1-25-28.5M328,288V216h96v96H334.1a132.05,132.05,0,0,0-6.1-24m48-146.1L416.6,200H335.3ZM85.4,217.52C66.4,198.82,56,172.72,56,144s10.4-54.8,29.4-73.5C105.7,50.52,134.2,40,168,40s62.3,10.6,82.6,30.5c19,18.7,29.4,44.8,29.4,73.5s-10.5,54.8-29.4,73.5c-20.3,20-48.8,30.5-82.6,30.5s-62.3-10.6-82.6-30.5M31.9,56a40,40,0,0,1,75-19.4,117,117,0,0,0-32.7,22.5,112.53,112.53,0,0,0-22.4,31.4A39.89,39.89,0,0,1,31.9,56m229.8,3.2A114.89,114.89,0,0,0,229,36.72a40,40,0,1,1,55.1,53.9,112.45,112.45,0,0,0-22.4-31.4M263.83,0A56,56,0,0,0,214,30.82a149.4,149.4,0,0,0-46-6.7,155.68,155.68,0,0,0-46,6.7,56.06,56.06,0,1,0-76.3,74.8A128.15,128.15,0,0,0,39.9,144c0,29.5,9.7,56.7,27.5,77.7C28.5,242,5.5,275.42.8,318.82v0.3l-0.8,11v1.1a48.26,48.26,0,0,0,31.9,42.1,78.8,78.8,0,0,0-8,34.7c0,39.7,28.7,72,64,72,19,0,36.1-9.4,47.8-24.2a67.5,67.5,0,0,0,64.4,0C211.9,470.62,229,480,248,480c25.1,0,46.8-16.3,57.3-40H488a8,8,0,0,0,8-8V320a8,8,0,0,0-8-8H440V208a7.89,7.89,0,0,0-1.5-4.6l-56-80a8,8,0,0,0-11.1-2,7.59,7.59,0,0,0-2,2l-56,80A8.06,8.06,0,0,0,312,208v50.1c-11-14.7-25.6-26.9-43.6-36.4,17.8-20.9,27.5-48.2,27.5-77.7a126.25,126.25,0,0,0-5.9-38.5A56,56,0,0,0,264,0h-0.19Z" style="fill:none"/></clipPath><linearGradient id="Безымянный_градиент_5" x1="0" y1="480.02" y2="480.02" gradientTransform="translate(0 -237843.52) scale(496)" xlink:href="#Безымянный_градиент"/><clipPath id="clip-path-6" transform="translate(0 7.88)"><path d="M432,369.92L443.1,392H421Zm-3.5-25.1a8.33,8.33,0,0,0-3.6,3.6l-24,48a7.88,7.88,0,0,0,3.6,10.7,7,7,0,0,0,3.5.9h48a8,8,0,0,0,8-8,9,9,0,0,0-.8-3.6l-24-48a8,8,0,0,0-7.15-4.46,7.77,7.77,0,0,0-3.55.86" style="fill:none"/></clipPath><linearGradient id="Безымянный_градиент_6" x1="0" y1="480.02" y2="480.02" gradientTransform="translate(400.04 -30318.9) scale(63.96)" xlink:href="#Безымянный_градиент"/></defs><title>offers__item-icon-9</title><g style="clip-path:url(#clip-path)"><rect x="103.9" y="143.8" width="128" height="88.1" style="fill:url(#Безымянный_градиент)"/></g><g style="clip-path:url(#clip-path-2)"><rect x="207.9" y="127.9" width="16" height="16" style="fill:url(#Безымянный_градиент_2)"/></g><g style="clip-path:url(#clip-path-3)"><rect x="111.9" y="127.9" width="16" height="16" style="fill:url(#Безымянный_градиент_3)"/></g><g style="clip-path:url(#clip-path-4)"><rect x="344" y="239.9" width="64" height="64" style="fill:url(#Безымянный_градиент_4)"/></g><g style="clip-path:url(#clip-path-5)"><rect width="496" height="487.9" style="fill:url(#Безымянный_градиент_5)"/></g><g style="clip-path:url(#clip-path-6)"><rect x="398.9" y="351.84" width="65.1" height="64.06" style="fill:url(#Безымянный_градиент_6)"/></g></svg>