<svg id="Слой_1" data-name="Слой 1" xmlns="http://www.w3.org/2000/svg" xmlns:xlink="http://www.w3.org/1999/xlink" viewBox="0 0 512 459.5"><defs><clipPath id="clip-path" transform="translate(0 0)"><path d="M15,173.2V159.1a2.65,2.65,0,0,1,2.6-2.6H145.8a7.49,7.49,0,0,0,5.3-2.2l98-98a9.66,9.66,0,0,1,13.6,0l98,98a7.49,7.49,0,0,0,5.3,2.2H494.2a2.65,2.65,0,0,1,2.6,2.6l0.2,14.1a2.65,2.65,0,0,1-2.6,2.6H359a9.52,9.52,0,0,1-6.8-2.8L261.3,82.1a7.49,7.49,0,0,0-10.6,0L159.8,173a9.69,9.69,0,0,1-6.8,2.8H17.6a2.65,2.65,0,0,1-2.6-2.6M82.4,23.3A12.64,12.64,0,0,1,94.3,15H417.7a12.64,12.64,0,0,1,11.9,8.3l43.9,118.1H369.3L273.5,45.6a24.62,24.62,0,0,0-34.8,0l-95.8,95.8H38.5ZM94.3,0a27.91,27.91,0,0,0-26,18.1L22.5,141.5H17.6A17.63,17.63,0,0,0,0,159.1v14.1a17.63,17.63,0,0,0,17.6,17.6h2.6V355.2a7.5,7.5,0,1,0,15,0V190.8H153a24.51,24.51,0,0,0,17.4-7.2L256,98l85.6,85.6a24.44,24.44,0,0,0,17.4,7.2H476.8v19.9a7.5,7.5,0,1,0,15,0V190.8h2.6A17.63,17.63,0,0,0,512,173.2V159.1a17.63,17.63,0,0,0-17.6-17.6h-4.9L443.7,18.1A27.81,27.81,0,0,0,417.7,0H94.3Z" style="fill:none"/></clipPath><linearGradient id="Безымянный_градиент" y1="459.5" x2="1" y2="459.5" gradientTransform="translate(0 -235082.65) scale(512)" gradientUnits="userSpaceOnUse"><stop offset="0" stop-color="#fc0b1f"/><stop offset="1" stop-color="#ff7800"/></linearGradient><clipPath id="clip-path-2" transform="translate(0 0)"><path d="M357.5,366.6h86v17.3h-86V366.6Zm0-50.5H393v35.5H357.5V316.1Zm50.5,0h35.5v35.5H408V316.1Zm-50.5-50.5H393v35.5H357.5V265.6Zm50.5,0h35.5v35.5H408V265.6Zm-58-15a7.56,7.56,0,0,0-7.5,7.5V391.4a7.55,7.55,0,0,0,7.5,7.5H451a7.55,7.55,0,0,0,7.5-7.5V258.1a7.56,7.56,0,0,0-7.5-7.5H350Z" style="fill:none"/></clipPath><linearGradient id="Безымянный_градиент_2" y1="459.5" y2="459.5" gradientTransform="translate(342.5 -52977.25) scale(116)" xlink:href="#Безымянный_градиент"/><clipPath id="clip-path-3" transform="translate(0 0)"><path d="M68.6,366.6h86v17.3h-86V366.6Zm-0.1-50.5H104v35.5H68.5V316.1Zm50.5,0h35.5v35.5H119V316.1ZM68.5,265.6H104v35.5H68.5V265.6Zm50.5,0h35.5v35.5H119V265.6Zm-58-15a7.55,7.55,0,0,0-7.5,7.5V391.4a7.55,7.55,0,0,0,7.5,7.5H162.1a7.55,7.55,0,0,0,7.5-7.5V258.1a7.55,7.55,0,0,0-7.5-7.5H61Z" style="fill:none"/></clipPath><linearGradient id="Безымянный_градиент_3" y1="459.5" y2="459.5" gradientTransform="translate(53.5 -53023.2) scale(116.1)" xlink:href="#Безымянный_градиент"/><clipPath id="clip-path-4" transform="translate(0 0)"><path d="M239.2,297.9h33.5v17.3H239.2V297.9Zm-7.5-15a7.56,7.56,0,0,0-7.5,7.5v32.3a7.56,7.56,0,0,0,7.5,7.5h48.5a7.56,7.56,0,0,0,7.5-7.5V290.4a7.49,7.49,0,0,0-7.5-7.5H231.7Z" style="fill:none"/></clipPath><linearGradient id="Безымянный_градиент_4" y1="459.5" y2="459.5" gradientTransform="translate(224.2 -28871.7) scale(63.5)" xlink:href="#Безымянный_градиент"/><clipPath id="clip-path-5" transform="translate(0 0)"><path d="M231.2,188.4A24.8,24.8,0,1,1,256,213.2a24.8,24.8,0,0,1-24.8-24.8m-15,0A39.8,39.8,0,1,0,256,148.6a39.9,39.9,0,0,0-39.8,39.8" style="fill:none"/></clipPath><linearGradient id="Безымянный_градиент_5" y1="459.5" y2="459.5" gradientTransform="translate(216.2 -36387.8) scale(79.6)" xlink:href="#Безымянный_градиент"/><clipPath id="clip-path-6" transform="translate(0 0)"><path d="M15,425.2H497v19.3H15V425.2ZM206.9,265.6H305V410.2H206.9V355.5h10.7a7.5,7.5,0,0,0,0-15H206.9V265.6Zm269.9-19.8V410.2H320.1V258.1a7.55,7.55,0,0,0-7.5-7.5H199.4a7.55,7.55,0,0,0-7.5,7.5V410.2H35.2V390.3a7.5,7.5,0,1,0-15,0v19.9H7.5A7.55,7.55,0,0,0,0,417.7V452a7.55,7.55,0,0,0,7.5,7.5h497A7.55,7.55,0,0,0,512,452V417.7a7.49,7.49,0,0,0-7.5-7.5H491.8V245.8a7.5,7.5,0,1,0-15,0" style="fill:none"/></clipPath><linearGradient id="Безымянный_градиент_6" y1="459.5" y2="459.5" gradientTransform="translate(0 -234915.1) scale(512)" xlink:href="#Безымянный_градиент"/></defs><title>offers__item-icon-1</title><g style="clip-path:url(#clip-path)"><rect width="512" height="362.7" style="fill:url(#Безымянный_градиент)"/></g><g style="clip-path:url(#clip-path-2)"><rect x="342.5" y="250.6" width="116" height="148.3" style="fill:url(#Безымянный_градиент_2)"/></g><g style="clip-path:url(#clip-path-3)"><rect x="53.5" y="250.6" width="116.1" height="148.3" style="fill:url(#Безымянный_градиент_3)"/></g><g style="clip-path:url(#clip-path-4)"><rect x="224.2" y="282.9" width="63.5" height="47.3" style="fill:url(#Безымянный_градиент_4)"/></g><g style="clip-path:url(#clip-path-5)"><rect x="216.2" y="148.6" width="79.6" height="79.6" style="fill:url(#Безымянный_градиент_5)"/></g><g style="clip-path:url(#clip-path-6)"><rect y="238.3" width="512" height="221.2" style="fill:url(#Безымянный_градиент_6)"/></g></svg>