<svg id="Слой_1" data-name="Слой 1" xmlns="http://www.w3.org/2000/svg" xmlns:xlink="http://www.w3.org/1999/xlink" viewBox="0 0 480 479.65"><defs><clipPath id="clip-path"><path d="M200,119.65a40,40,0,1,1,40,40,40,40,0,0,1-40-40m-16,0a56,56,0,1,0,56-56,56,56,0,0,0-56,56" style="fill:none"/></clipPath><linearGradient id="Безымянный_градиент" y1="479.65" x2="1" y2="479.65" gradientTransform="translate(184 -53601.15) scale(112)" gradientUnits="userSpaceOnUse"><stop offset="0" stop-color="#fc0b1f"/><stop offset="1" stop-color="#ff7800"/></linearGradient><clipPath id="clip-path-2"><path d="M328,199.65a40,40,0,1,1,40,40,40,40,0,0,1-40-40m-16,0a56,56,0,1,0,56-56,56,56,0,0,0-56,56" style="fill:none"/></clipPath><linearGradient id="Безымянный_градиент_2" x1="0" y1="479.65" x2="1" y2="479.65" gradientTransform="translate(312 -53521.15) scale(112)" xlink:href="#Безымянный_градиент"/><clipPath id="clip-path-3"><path d="M360,335.65a32,32,0,1,1,32,32,32.09,32.09,0,0,1-32-32m-16,0a48,48,0,1,0,48-48,48,48,0,0,0-48,48" style="fill:none"/></clipPath><linearGradient id="Безымянный_градиент_3" x1="0" y1="479.65" x2="1" y2="479.65" gradientTransform="translate(344 -45710.75) scale(96)" xlink:href="#Безымянный_градиент"/><clipPath id="clip-path-4"><path d="M16,439.65H48v24H16v-24Zm94,15.2L87.2,267.25a219.2,219.2,0,0,1,14.1-107.5h37.3a219.18,219.18,0,0,1,14.1,107.5L130,454.85a10.08,10.08,0,0,1-20,0m-46-31.8V114c2.6-3,5.3-5.8,8.1-8.6,0.6,20.1,10.5,39.3,15,47A234.79,234.79,0,0,0,71.4,269l20.4,168.1A66.77,66.77,0,0,1,64,423.05M16,63.65H48v360H16v-360Zm72,40c0-13.2,17.8-37,32-52.4,14.2,15.5,32,39.2,32,52.4,0,16.2-8.4,32.9-12.5,40h-39c-4.1-7.1-12.5-23.8-12.5-40M168.6,269a234.5,234.5,0,0,0-15.7-116.6c4.7-8,15.1-28.1,15.1-48.8,0-14.3-11.1-32.2-21.9-46.3A251.31,251.31,0,0,1,240,39.65c125.6,0,224,87.8,224,200,0,200-72.3,200-96,200-35,0-47.3-43.6-60.3-89.8s-26.6-94.2-67.7-94.2-54.6,47.9-67.7,94.2c-6,21.2-12.1,42.8-20.7,59.5ZM32,25.55l11.1,22.1H20.9ZM32,0A7.8,7.8,0,0,0,24.9,4L0.9,52a7.68,7.68,0,0,0-.9,3.6v416a8,8,0,0,0,8,8H56a8,8,0,0,0,8-8v-28.7A85,85,0,0,0,93.8,454l0.3,2.7a26.1,26.1,0,0,0,51.8,0l1.8-15.2c20.5-18.8,30.5-53.5,40-87.3,12-42.5,23.3-82.6,52.3-82.6s40.3,40.1,52.3,82.5c13.4,47.6,28.6,101.5,75.7,101.5,75.4,0,112-70.7,112-216,0-121.1-105.4-216-240-216a267.5,267.5,0,0,0-104.6,20.8c-4.8-5.4-8.6-9.3-9.8-10.5a8,8,0,0,0-11.3,0c-3,3-21.5,21.9-33,42A225.69,225.69,0,0,0,64,90.85V55.65a9,9,0,0,0-.8-3.6L39.2,4a7.8,7.8,0,0,0-7.09-4H32Z" style="fill:none"/></clipPath><linearGradient id="Безымянный_градиент_4" x1="0" y1="479.65" x2="1" y2="479.65" gradientTransform="translate(0 -229992.17) scale(480)" xlink:href="#Безымянный_градиент"/></defs><title>offers__item-icon-7</title><g style="clip-path:url(#clip-path)"><rect x="184" y="63.65" width="112" height="112" style="fill:url(#Безымянный_градиент)"/></g><g style="clip-path:url(#clip-path-2)"><rect x="312" y="143.65" width="112" height="112" style="fill:url(#Безымянный_градиент_2)"/></g><g style="clip-path:url(#clip-path-3)"><rect x="344" y="287.65" width="96" height="96" style="fill:url(#Безымянный_градиент_3)"/></g><g style="clip-path:url(#clip-path-4)"><rect width="480" height="479.65" style="fill:url(#Безымянный_градиент_4)"/></g></svg>