<svg id="Слой_1" data-name="Слой 1" xmlns="http://www.w3.org/2000/svg" xmlns:xlink="http://www.w3.org/1999/xlink" viewBox="0 0 492.8 512"><defs><clipPath id="clip-path" transform="translate(1.04 -0.5)"><path d="M301.56,326.4a8.5,8.5,0,1,1,8.5,8.5,8.49,8.49,0,0,1-8.5-8.5m110,0a8.5,8.5,0,1,1,8.5,8.5,8.49,8.49,0,0,1-8.5-8.5m-15-.1a23.66,23.66,0,0,0,16,22.3v39.3a47.5,47.5,0,1,1-95,0V348.6a23.5,23.5,0,1,0-15,0v39.3a62.5,62.5,0,1,0,125,0V348.6a23.51,23.51,0,1,0-31-22.3" style="fill:none"/></clipPath><linearGradient id="Безымянный_градиент" y1="513" x2="1" y2="513" gradientTransform="translate(287.6 -80164.9) scale(157)" gradientUnits="userSpaceOnUse"><stop offset="0" stop-color="#8800bf"/><stop offset="1" stop-color="#4000aa"/></linearGradient><clipPath id="clip-path-2" transform="translate(1.04 -0.5)"><rect width="491.17" height="513" style="fill:none"/></clipPath><linearGradient id="Безымянный_градиент_2" x1="0" y1="513" x2="1" y2="513" gradientTransform="matrix(158, 0, 0, -158, 286.06, 81430.6)" xlink:href="#Безымянный_градиент"/><clipPath id="clip-path-3" transform="translate(1.04 -0.5)"><path d="M88.86,213.7a9.4,9.4,0,1,1,9.4,9.4,9.39,9.39,0,0,1-9.4-9.4m193.6,0a9.4,9.4,0,1,1,9.4,9.4,9.39,9.39,0,0,1-9.4-9.4M105.76,104.8a89.3,89.3,0,1,1,178.6,0v42.8h-71.8a7.5,7.5,0,0,0,0,15h71.8v27.9a24.4,24.4,0,1,0,15,0V162.6h29.8a11.16,11.16,0,0,1,11.1,9.9l11.4,104.1h-71.3a19.29,19.29,0,0,0-19.2,17.2l-21.6,197.3a22.26,22.26,0,0,0,.4,6.4H26.66a11.17,11.17,0,0,1-11.1-12.4l34.3-312.6A11.08,11.08,0,0,1,61,162.6h29.8v27.9a24.4,24.4,0,1,0,15,0V162.6h71.8a7.5,7.5,0,1,0,0-15h-71.8V104.8Zm-15,0v42.8H61a26,26,0,0,0-26,23.3L0.66,483.5a26.12,26.12,0,0,0,26,29h444.7a19.34,19.34,0,0,0,19.2-21.4l-8.8-79.9a7.5,7.5,0,0,0-14.9,1.7l8.8,79.9a4.33,4.33,0,0,1-4.3,4.8H258.76a4.4,4.4,0,0,1-4.3-4.8l21.6-197.4a4.25,4.25,0,0,1,4.3-3.8h169.4a4.32,4.32,0,0,1,4.3,3.8l9,82.5a7.5,7.5,0,1,0,14.9-1.7l-9-82.5a19.29,19.29,0,0,0-19.2-17.2h-83l-11.6-105.7a26.11,26.11,0,0,0-26-23.3h-29.8V104.7c0-57.4-46.8-104.2-104.3-104.2A104.43,104.43,0,0,0,90.76,104.8" style="fill:none"/></clipPath><linearGradient id="Безымянный_градиент_3" x1="0" y1="513" x2="1" y2="513" gradientTransform="translate(1.54 -251200.26) scale(490.17)" xlink:href="#Безымянный_градиент"/><linearGradient id="Безымянный_градиент_4" x1="0" y1="513" x2="1" y2="513" gradientTransform="matrix(491.17, 0, 0, -491.17, 0, 252225.68)" xlink:href="#Безымянный_градиент"/></defs><title>offers__item-icon-12</title><g style="clip-path:url(#clip-path)"><rect x="287.6" y="302.3" width="157" height="147.6" style="fill:url(#Безымянный_градиент)"/></g><g style="clip-path:url(#clip-path-2)"><path d="M365.06,450.4h0a62.52,62.52,0,0,0,62.5-62.5V348.6a23.5,23.5,0,1,0-15,0v39.3a47.5,47.5,0,0,1-95,0V348.6a23.5,23.5,0,1,0-15,0v39.3a62.52,62.52,0,0,0,62.5,62.5h0a62.52,62.52,0,0,1-62.5-62.5V348.6a23.5,23.5,0,1,1,15,0v39.3a47.5,47.5,0,0,0,95,0V348.6a23.5,23.5,0,1,1,15,0v39.3a62.52,62.52,0,0,1-62.5,62.5h0Zm55-132.5h0a8.5,8.5,0,1,1-8.5,8.5,8.49,8.49,0,0,1,8.5-8.5h0a8.5,8.5,0,1,0,8.5,8.5,8.49,8.49,0,0,0-8.5-8.5h0Zm-110,0h0a8.5,8.5,0,1,1-8.5,8.5,8.49,8.49,0,0,1,8.5-8.5h0a8.5,8.5,0,1,0,8.5,8.5,8.49,8.49,0,0,0-8.5-8.5h0Z" transform="translate(1.04 -0.5)" style="fill:url(#Безымянный_градиент_2)"/></g><g style="clip-path:url(#clip-path-3)"><rect width="492.8" height="512" style="fill:url(#Безымянный_градиент_3)"/></g><g style="clip-path:url(#clip-path-2)"><path d="M26.66,512.5h444.7a19.34,19.34,0,0,0,19.31-19.34,19.71,19.71,0,0,0-.11-2.06l-8.8-79.9a7.47,7.47,0,0,0-7.39-6.65,7.72,7.72,0,0,0-.91.05A7.53,7.53,0,0,0,466.8,412a7.36,7.36,0,0,0,.05.89l8.8,79.9a4.18,4.18,0,0,1,0,.5,4.34,4.34,0,0,1-4.33,4.3H258.76a4.38,4.38,0,0,1-4.31-4.44q0-.18,0-0.36l21.6-197.4a4.25,4.25,0,0,1,4.3-3.8h169.4a4.32,4.32,0,0,1,4.3,3.8l9,82.5a7.47,7.47,0,0,0,7.39,6.65,7.71,7.71,0,0,0,.91-0.05,7.53,7.53,0,0,0,6.66-7.41,7.4,7.4,0,0,0-.05-0.89l-9-82.5a19.29,19.29,0,0,0-19.2-17.2h-83l-11.6-105.7a26.11,26.11,0,0,0-26-23.3h-29.8V104.7c0-57.4-46.8-104.2-104.3-104.2A104.43,104.43,0,0,0,90.76,104.8v42.8H61a26,26,0,0,0-26,23.3L0.66,483.5a26.65,26.65,0,0,0-.16,2.91A26.13,26.13,0,0,0,26.66,512.5h0A26.13,26.13,0,0,1,.5,486.41a26.65,26.65,0,0,1,.16-2.91L35,170.9a26,26,0,0,1,26-23.3h29.8V104.8A104.43,104.43,0,0,1,195.06.5c57.5,0,104.3,46.8,104.3,104.2v42.8h29.8a26.11,26.11,0,0,1,26,23.3l11.6,105.7h83A19.29,19.29,0,0,1,469,293.7l9,82.5a7.39,7.39,0,0,1,.05.89,7.53,7.53,0,0,1-6.66,7.41,7.71,7.71,0,0,1-.91.05,7.47,7.47,0,0,1-7.39-6.65l-9-82.5a4.32,4.32,0,0,0-4.3-3.8H280.36a4.25,4.25,0,0,0-4.3,3.8l-21.6,197.4q0,0.18,0,.36a4.38,4.38,0,0,0,4.31,4.44h212.6a4.34,4.34,0,0,0,4.33-4.3,4.19,4.19,0,0,0,0-.5l-8.8-79.9a7.35,7.35,0,0,1-.05-0.89,7.53,7.53,0,0,1,6.66-7.41,7.72,7.72,0,0,1,.91-0.05,7.47,7.47,0,0,1,7.39,6.65l8.8,79.9a19.7,19.7,0,0,1,.11,2.06,19.34,19.34,0,0,1-19.31,19.34H26.66Zm-11.1-27.4h0l34.3-312.6A11.08,11.08,0,0,1,61,162.6h29.8v27.9a24.4,24.4,0,1,0,15,0V162.6h71.8a7.5,7.5,0,0,0,0-15h-71.8V104.8a89.3,89.3,0,0,1,178.6,0v42.8h-71.8a7.5,7.5,0,0,0,0,15h71.8v27.9a24.4,24.4,0,1,0,15,0V162.6h29.8a11.16,11.16,0,0,1,11.1,9.9l11.4,104.1h-71.3a19.29,19.29,0,0,0-19.2,17.2l-21.6,197.3c-0.05.56-.08,1.15-0.08,1.75a22.47,22.47,0,0,0,.48,4.65H26.66A11.16,11.16,0,0,1,15.5,486.31a11.49,11.49,0,0,1,.06-1.21h0a11.49,11.49,0,0,0-.06,1.21A11.16,11.16,0,0,0,26.66,497.5H240a22.47,22.47,0,0,1-.48-4.65c0-.6,0-1.19.08-1.75l21.6-197.3a19.29,19.29,0,0,1,19.2-17.2h71.3l-11.4-104.1a11.16,11.16,0,0,0-11.1-9.9h-29.8v27.9a24.4,24.4,0,1,1-15,0V162.6h-71.8a7.5,7.5,0,0,1,0-15h71.8V104.8a89.3,89.3,0,0,0-178.6,0v42.8h71.8a7.5,7.5,0,0,1,0,15h-71.8v27.9a24.4,24.4,0,1,1-15,0V162.6H61a11.08,11.08,0,0,0-11.1,9.9L15.56,485.1h0Zm82.7-280.8h0a9.4,9.4,0,1,1-9.4,9.4,9.39,9.39,0,0,1,9.4-9.4h0a9.4,9.4,0,1,0,9.4,9.4,9.39,9.39,0,0,0-9.4-9.4h0Zm193.6,0h0a9.4,9.4,0,1,1-9.4,9.4,9.39,9.39,0,0,1,9.4-9.4h0a9.4,9.4,0,1,0,9.4,9.4,9.39,9.39,0,0,0-9.4-9.4h0Z" transform="translate(1.04 -0.5)" style="fill:url(#Безымянный_градиент_4)"/></g></svg>