<svg id="Слой_1" data-name="Слой 1" xmlns="http://www.w3.org/2000/svg" xmlns:xlink="http://www.w3.org/1999/xlink" viewBox="0 0 512 512"><defs><clipPath id="clip-path" transform="translate(-0.5 -0.5)"><path d="M191.4,269.5a312.54,312.54,0,0,0-56.2-74,11.62,11.62,0,0,1-3.1-11.7c2.5-8.6,13.5-11.9,19.9-5.2a428.47,428.47,0,0,1,59.8,79.3c5.42,9.19-2.72,17.63-10.75,17.64a10.73,10.73,0,0,1-9.65-6m-73.8-89.8a26.77,26.77,0,0,0,7,26.6,289.74,289.74,0,0,1,53.6,70.4c16.8,30.8,64.4,4,46.5-26.4a445.74,445.74,0,0,0-61.9-82,26.05,26.05,0,0,0-19-8.11,27.11,27.11,0,0,0-26.2,19.51" style="fill:none"/></clipPath><linearGradient id="Безымянный_градиент" y1="513.08" x2="1" y2="513.08" gradientTransform="translate(116.05 -57285.89) scale(112.11)" gradientUnits="userSpaceOnUse"><stop offset="0" stop-color="#fc0b1f"/><stop offset="1" stop-color="#ff7800"/></linearGradient><clipPath id="clip-path-2" transform="translate(-0.5 -0.5)"><rect width="513" height="513" style="fill:none"/></clipPath><linearGradient id="Безымянный_градиент_2" y1="513" y2="513" gradientTransform="matrix(113.11, 0, 0, -113.11, 116.06, 58249.16)" xlink:href="#Безымянный_градиент"/><clipPath id="clip-path-3" transform="translate(-0.5 -0.5)"><path d="M48.5,439.7V182.2c0-22.6,35.1-22.6,35.1,0v24.2A32.5,32.5,0,0,0,89.4,225l64.2,92.1A32.67,32.67,0,0,0,180.3,331h46.2a17.53,17.53,0,0,1,16.7,12.1c6.2,19.3,17.2,57.3,21.2,94.8a17.72,17.72,0,0,1-17.5,19.3H66a17.52,17.52,0,0,1-17.5-17.5m-15-257.5V439.7A32.56,32.56,0,0,0,66,472.2H246.9c19,0,34.4-17,32.4-35.9-4.1-38.8-15.5-77.9-21.9-97.8a32.35,32.35,0,0,0-31-22.5H180.2a17.64,17.64,0,0,1-14.4-7.5l-64.2-92a17.24,17.24,0,0,1-3.2-10V182.3a32.45,32.45,0,1,0-64.9-.1" style="fill:none"/></clipPath><linearGradient id="Безымянный_градиент_3" y1="513" y2="513" gradientTransform="translate(33 -125874.78) scale(245.98)" xlink:href="#Безымянный_градиент"/><linearGradient id="Безымянный_градиент_4" y1="513" y2="513" gradientTransform="matrix(246.98, 0, 0, -246.98, 33, 127009.13)" xlink:href="#Безымянный_градиент"/><clipPath id="clip-path-5" transform="translate(-0.5 -0.5)"><path d="M402.5,444.3a7.64,7.64,0,0,0,3.9-6.3,15.59,15.59,0,0,1,30.6-3.6,7.47,7.47,0,0,0,5,5.2,7.14,7.14,0,0,0,7-1.4,22.92,22.92,0,0,1,14.4-5.2,22.6,22.6,0,0,1,22.7,22.6,23.41,23.41,0,0,1-4.9,14.4H356.8a26,26,0,0,1-.3-4,25.53,25.53,0,0,1,38.6-21.9,7.37,7.37,0,0,0,3.85,1.08,7.68,7.68,0,0,0,3.55-.88M317,480.6v-4A479.72,479.72,0,0,0,306.5,377h147v42.3a44.38,44.38,0,0,0-6.1,2.2,30.62,30.62,0,0,0-53.9,5.7,40.4,40.4,0,0,0-52,38.8,33.85,33.85,0,0,0,.3,4.5H334a7.55,7.55,0,0,0-7.5,7.5v19.5H312.1a31.52,31.52,0,0,0,4.9-16.9m-50.5-268a36.08,36.08,0,0,1,16.4-30.3l45.7-29.8h62.9l45.7,29.8a36.08,36.08,0,0,1,16.4,30.3v31.3H266.5V212.6ZM32.8,85.8h90.9v20.6H32.8V85.8Zm301.4,9.5h0.1a9.82,9.82,0,0,1,9.8-9.8h31.7a9.82,9.82,0,0,1,9.8,9.8v42.2H334.2V95.3ZM47.6,23.6a8.07,8.07,0,0,1,8.1-8.1h45.2a8.07,8.07,0,0,1,8.1,8.1V69.7H47.6V23.6ZM55.7,0.5A23.17,23.17,0,0,0,32.6,23.6V70.8H25.3a7.56,7.56,0,0,0-7.5,7.5v33.2A35.78,35.78,0,0,0,.5,142.1v47.4c0,9.6,15,9.6,15,0V142.1a20.74,20.74,0,0,1,20.7-20.7h81.9a46.88,46.88,0,0,1,31.3,12A462.81,462.81,0,0,1,302.1,476.5c0.3,10.5-4.9,20.9-16.9,20.9H32.4a16.94,16.94,0,0,1-16.9-16.9v-249c0-9.6-15-9.6-15,0V480.6a31.92,31.92,0,0,0,31.9,31.9H359.5c9.6,0,9.6-15,0-15h-18v-12h156v12h-94c-9.6,0-9.6,15,0,15H505a7.56,7.56,0,0,0,7.5-7.5V478a7.56,7.56,0,0,0-7.5-7.5h-6.8a39.26,39.26,0,0,0,3-14.9,37.58,37.58,0,0,0-32.6-37.3V345.5c0-9.6-15-9.6-15,0V362H303a474.49,474.49,0,0,0-36.5-98.8V259h187v44.5c0,9.6,15,9.6,15,0V212.7a51.12,51.12,0,0,0-23.2-42.9l-44.6-29.1V95.3a24.8,24.8,0,0,0-24.8-24.8H344.2a24.8,24.8,0,0,0-24.8,24.8v45.3l-44.6,29.1a51.11,51.11,0,0,0-23.2,42.9v22.9a476,476,0,0,0-92.1-113.2A62,62,0,0,0,138.9,110V78.3a7.56,7.56,0,0,0-7.5-7.5h-7.3V23.6A23.17,23.17,0,0,0,101,.5H55.7Z" style="fill:none"/></clipPath><linearGradient id="Безымянный_градиент_5" y1="513" y2="513" gradientTransform="translate(0 -262400) scale(512)" xlink:href="#Безымянный_градиент"/><linearGradient id="Безымянный_градиент_6" y1="513" y2="513" gradientTransform="matrix(513, 0, 0, -513, 0, 263425.5)" xlink:href="#Безымянный_градиент"/></defs><title>offers__item-icon-3</title><g style="clip-path:url(#clip-path)"><rect x="114.4" y="159.69" width="127.7" height="147.31" style="fill:url(#Безымянный_градиент)"/></g><g style="clip-path:url(#clip-path-2)"><path d="M178.2,276.7h0c5.27,9.65,13.56,13.65,21.91,13.65,14.19,0,28.55-11.53,28.55-26.45a26.67,26.67,0,0,0-4-13.6,445.74,445.74,0,0,0-61.9-82,26.05,26.05,0,0,0-19-8.11,26.94,26.94,0,0,0-27.25,27,26.59,26.59,0,0,0,8,19.12,289.74,289.74,0,0,1,53.6,70.4h0a289.74,289.74,0,0,0-53.6-70.4,26.59,26.59,0,0,1-8-19.12,26.94,26.94,0,0,1,27.25-27,26.05,26.05,0,0,1,19,8.11,445.74,445.74,0,0,1,61.9,82,26.67,26.67,0,0,1,4,13.6c0,14.91-14.37,26.45-28.55,26.45-8.35,0-16.64-4-21.91-13.65h0Zm-46.1-92.9h0A12.19,12.19,0,0,1,143.75,175,11.27,11.27,0,0,1,152,178.6a428.44,428.44,0,0,1,59.8,79.3,11.79,11.79,0,0,1,1.76,6c0,6.55-6.28,11.62-12.51,11.62a10.73,10.73,0,0,1-9.65-6,312.52,312.52,0,0,0-56.2-74,11.55,11.55,0,0,1-3.57-8.36,12.15,12.15,0,0,1,.47-3.34h0a12.15,12.15,0,0,0-.47,3.34,11.55,11.55,0,0,0,3.57,8.36,312.52,312.52,0,0,1,56.2,74,10.73,10.73,0,0,0,9.65,6c6.22,0,12.51-5.06,12.51-11.62a11.79,11.79,0,0,0-1.76-6A428.44,428.44,0,0,0,152,178.6a11.27,11.27,0,0,0-8.25-3.57,12.19,12.19,0,0,0-11.65,8.77h0Z" transform="translate(-0.5 -0.5)" style="fill:url(#Безымянный_градиент_2)"/></g><g style="clip-path:url(#clip-path-3)"><rect x="33" y="149.2" width="247.8" height="322.5" style="fill:url(#Безымянный_градиент_3)"/></g><g style="clip-path:url(#clip-path-2)"><path d="M66,149.7h0a32.56,32.56,0,0,0-32.5,32.5V439.7A32.56,32.56,0,0,0,66,472.2H246.9c17.88,0,32.58-15.06,32.58-32.59a31.52,31.52,0,0,0-.18-3.31c-4.1-38.8-15.5-77.9-21.9-97.8a32.35,32.35,0,0,0-31-22.5H180.2a17.64,17.64,0,0,1-14.4-7.5l-64.2-92a17.24,17.24,0,0,1-3.2-10V182.3q0-.18,0-0.37A32.31,32.31,0,0,0,66,149.7h0a32.31,32.31,0,0,1,32.4,32.23q0,0.18,0,.37v24.2a17.24,17.24,0,0,0,3.2,10l64.2,92a17.64,17.64,0,0,0,14.4,7.5h46.2a32.35,32.35,0,0,1,31,22.5c6.4,19.9,17.8,59,21.9,97.8a31.51,31.51,0,0,1,.18,3.31c0,17.53-14.69,32.59-32.58,32.59H66a32.56,32.56,0,0,1-32.5-32.5V182.2A32.56,32.56,0,0,1,66,149.7h0Zm87.6,167.4h0A32.67,32.67,0,0,0,180.3,331h46.2a17.53,17.53,0,0,1,16.7,12.1c6.2,19.3,17.2,57.3,21.2,94.8a16.8,16.8,0,0,1,.1,1.8,17.77,17.77,0,0,1-17.6,17.5H66a17.52,17.52,0,0,1-17.5-17.5V182.2c0-11.3,8.77-17,17.55-17s17.55,5.65,17.55,17v24.2A32.5,32.5,0,0,0,89.4,225l64.2,92.1h0L89.4,225a32.5,32.5,0,0,1-5.8-18.6V182.2c0-11.3-8.78-17-17.55-17s-17.55,5.65-17.55,17V439.7A17.52,17.52,0,0,0,66,457.2H246.9a17.77,17.77,0,0,0,17.6-17.5,16.81,16.81,0,0,0-.1-1.8c-4-37.5-15-75.5-21.2-94.8A17.53,17.53,0,0,0,226.5,331H180.3a32.67,32.67,0,0,1-26.7-13.9h0Z" transform="translate(-0.5 -0.5)" style="fill:url(#Безымянный_градиент_4)"/></g><g style="clip-path:url(#clip-path-5)"><rect width="512" height="512" style="fill:url(#Безымянный_градиент_5)"/></g><g style="clip-path:url(#clip-path-2)"><path d="M505,470.5h-6.8a39.24,39.24,0,0,0,3-14.9,37.58,37.58,0,0,0-32.6-37.3V345.5c0-4.8-3.75-7.2-7.5-7.2s-7.5,2.4-7.5,7.2V362H303a474.47,474.47,0,0,0-36.5-98.8V259h187v44.5c0,4.8,3.75,7.2,7.5,7.2s7.5-2.4,7.5-7.2V212.7a51.11,51.11,0,0,0-23.2-42.9l-44.6-29.1V95.3a24.8,24.8,0,0,0-24.8-24.8H344.2a24.8,24.8,0,0,0-24.8,24.8v45.3l-44.6,29.1a51.11,51.11,0,0,0-23.2,42.9v22.9a476,476,0,0,0-92.1-113.2A62,62,0,0,0,138.9,110V78.3a7.55,7.55,0,0,0-7.5-7.5h-7.3V23.6A23.17,23.17,0,0,0,101,.5H55.7A23.17,23.17,0,0,0,32.6,23.6V70.8H25.3a7.55,7.55,0,0,0-7.5,7.5v33.2A35.78,35.78,0,0,0,.5,142.1v47.4c0,4.8,3.75,7.2,7.5,7.2s7.5-2.4,7.5-7.2V142.1a20.74,20.74,0,0,1,20.7-20.7h81.9a46.88,46.88,0,0,1,31.3,12A462.81,462.81,0,0,1,302.1,476.5q0,0.43,0,.86c0,10.2-5.24,20-16.91,20H32.4a16.94,16.94,0,0,1-16.9-16.9v-249c0-4.8-3.75-7.2-7.5-7.2s-7.5,2.4-7.5,7.2V480.6a31.92,31.92,0,0,0,31.9,31.9H359.5c4.8,0,7.2-3.75,7.2-7.5s-2.4-7.5-7.2-7.5h-18v-12h156v12h-94c-4.8,0-7.2,3.75-7.2,7.5s2.4,7.5,7.2,7.5H505a7.55,7.55,0,0,0,7.5-7.5V478a7.55,7.55,0,0,0-7.5-7.5h0a7.55,7.55,0,0,1,7.5,7.5v27a7.55,7.55,0,0,1-7.5,7.5H403.5c-4.8,0-7.2-3.75-7.2-7.5s2.4-7.5,7.2-7.5h94v-12h-156v12h18c4.8,0,7.2,3.75,7.2,7.5s-2.4,7.5-7.2,7.5H32.4A31.92,31.92,0,0,1,.5,480.6V231.5c0-4.8,3.75-7.2,7.5-7.2s7.5,2.4,7.5,7.2v249a16.94,16.94,0,0,0,16.9,16.9H285.2c11.67,0,16.91-9.84,16.91-20q0-.43,0-0.86A462.81,462.81,0,0,0,149.4,133.4a46.88,46.88,0,0,0-31.3-12H36.2a20.74,20.74,0,0,0-20.7,20.7v47.4c0,4.8-3.75,7.2-7.5,7.2s-7.5-2.4-7.5-7.2V142.1a35.78,35.78,0,0,1,17.3-30.6V78.3a7.55,7.55,0,0,1,7.5-7.5h7.3V23.6A23.17,23.17,0,0,1,55.7.5H101a23.17,23.17,0,0,1,23.1,23.1V70.8h7.3a7.55,7.55,0,0,1,7.5,7.5V110a62,62,0,0,1,20.6,12.3,476,476,0,0,1,92.1,113.2V212.6a51.11,51.11,0,0,1,23.2-42.9l44.6-29.1V95.3a24.8,24.8,0,0,1,24.8-24.8h31.7a24.8,24.8,0,0,1,24.8,24.8v45.4l44.6,29.1a51.11,51.11,0,0,1,23.2,42.9v90.8c0,4.8-3.75,7.2-7.5,7.2s-7.5-2.4-7.5-7.2V259h-187v4.2A474.47,474.47,0,0,1,303,362H453.6V345.5c0-4.8,3.75-7.2,7.5-7.2s7.5,2.4,7.5,7.2v72.8a37.58,37.58,0,0,1,32.6,37.3,39.24,39.24,0,0,1-3,14.9H505ZM47.6,23.6h0a8.07,8.07,0,0,1,8.1-8.1h45.2a8.07,8.07,0,0,1,8.1,8.1V69.7H47.6V23.6h0V69.7H109V23.6a8.07,8.07,0,0,0-8.1-8.1H55.7a8.07,8.07,0,0,0-8.1,8.1h0ZM36.2,106.4H32.8V85.8h90.9v20.6h0V85.8H32.8v20.6h3.4ZM486.1,455.6h0a23.41,23.41,0,0,1-4.9,14.4H356.8a25.94,25.94,0,0,1-.3-4,25.53,25.53,0,0,1,38.6-21.9,7.37,7.37,0,0,0,3.85,1.08A7.4,7.4,0,0,0,406.4,438a15.59,15.59,0,0,1,30.6-3.6,7.47,7.47,0,0,0,5,5.2,7.26,7.26,0,0,0,2.3.37,7,7,0,0,0,4.7-1.77,22.91,22.91,0,0,1,14.4-5.2h0.18a22.6,22.6,0,0,1,22.52,22.6h0A22.6,22.6,0,0,0,463.58,433H463.4a22.91,22.91,0,0,0-14.4,5.2,7,7,0,0,1-4.7,1.77,7.26,7.26,0,0,1-2.3-.37,7.47,7.47,0,0,1-5-5.2,15.59,15.59,0,0,0-30.6,3.6,7.4,7.4,0,0,1-7.45,7.18,7.37,7.37,0,0,1-3.85-1.08A25.53,25.53,0,0,0,356.5,466a26,26,0,0,0,.3,4H481.2a23.41,23.41,0,0,0,4.9-14.4h0ZM334.3,95.3h0a9.82,9.82,0,0,1,9.8-9.8h31.7a9.82,9.82,0,0,1,9.8,9.8v42.2H334.2V95.3h0v42.2h51.4V95.3a9.82,9.82,0,0,0-9.8-9.8H344.1a9.82,9.82,0,0,0-9.8,9.8h0Zm-51.4,87h0l45.7-29.8h62.9l45.7,29.8a36.08,36.08,0,0,1,16.4,30.3v31.3H266.5V212.6a36.08,36.08,0,0,1,16.4-30.3h0a36.08,36.08,0,0,0-16.4,30.3v31.3H453.6V212.6a36.08,36.08,0,0,0-16.4-30.3l-45.7-29.8H328.6l-45.7,29.8h0ZM334,470.5h0a7.55,7.55,0,0,0-7.5,7.5v19.5H312.1a31.52,31.52,0,0,0,4.9-16.9v-4A479.78,479.78,0,0,0,306.5,377h147v42.3a44.4,44.4,0,0,0-6.1,2.2,30.62,30.62,0,0,0-53.9,5.7,40.4,40.4,0,0,0-52,38.8,34,34,0,0,0,.3,4.5h0a34,34,0,0,1-.3-4.5,40.4,40.4,0,0,1,52-38.8,30.62,30.62,0,0,1,53.9-5.7,44.4,44.4,0,0,1,6.1-2.2V377h-147A479.78,479.78,0,0,1,317,476.6v4a31.52,31.52,0,0,1-4.9,16.9h14.4V478a7.55,7.55,0,0,1,7.5-7.5h0Z" transform="translate(-0.5 -0.5)" style="fill:url(#Безымянный_градиент_6)"/></g></svg>