<svg id="Слой_1" data-name="Слой 1" xmlns="http://www.w3.org/2000/svg" xmlns:xlink="http://www.w3.org/1999/xlink" viewBox="0 0 384 480.01"><defs><clipPath id="clip-path"><path d="M192,0a8,8,0,0,0-8,8V40a8,8,0,0,0,16,0V8A8,8,0,0,0,192,0Z" style="fill:none"/></clipPath><linearGradient id="Безымянный_градиент" y1="480" x2="1" y2="480" gradientTransform="matrix(16, 0, 0, -16, 184, 7704.08)" gradientUnits="userSpaceOnUse"><stop offset="0" stop-color="#fc0b1f"/><stop offset="1" stop-color="#ff7800"/></linearGradient><clipPath id="clip-path-2"><path d="M96,25.65a8,8,0,0,0-3,10.91l0.05,0.09,16,27.7A8,8,0,0,0,123,56.45l-0.05-.09-16-27.7a8,8,0,0,0-10.91-3" style="fill:none"/></clipPath><linearGradient id="Безымянный_градиент_2" y1="479.99" y2="479.99" gradientTransform="matrix(32.06, 0, 0, -32.06, 91.97, 15433.65)" xlink:href="#Безымянный_градиент"/><clipPath id="clip-path-3"><path d="M25.71,95.93a8,8,0,0,0,2.86,10.95l0.09,0.05,27.7,16a8,8,0,0,0,8.09-13.8l-0.09-.05-27.7-16a8,8,0,0,0-10.95,2.86" style="fill:none"/></clipPath><linearGradient id="Безымянный_градиент_3" y1="479.99" y2="479.99" gradientTransform="matrix(43.8, 0, 0, -43.8, 24.61, 21131.32)" xlink:href="#Безымянный_градиент"/><clipPath id="clip-path-4"><path d="M8,184a8,8,0,0,0,0,16H40a8,8,0,0,0,0-16H8Z" style="fill:none"/></clipPath><linearGradient id="Безымянный_градиент_4" y1="480.01" y2="480.01" gradientTransform="matrix(48, 0, 0, -48, 0, 23232.24)" xlink:href="#Безымянный_градиент"/><clipPath id="clip-path-5"><path d="M56.45,261l-0.09.06-27.7,16A8,8,0,0,0,36.56,291l0.09-.05,27.7-16A8,8,0,1,0,56.45,261" style="fill:none"/></clipPath><linearGradient id="Безымянный_градиент_5" y1="479.99" y2="479.99" gradientTransform="matrix(43.8, 0, 0, -43.8, 24.61, 21299.9)" xlink:href="#Безымянный_градиент"/><clipPath id="clip-path-6"><path d="M316.69,263.93a8,8,0,0,0,2.85,10.95l0.09,0.05,27.7,16a8,8,0,1,0,8.1-13.8l-0.09-.05-27.7-16a8,8,0,0,0-10.95,2.85" style="fill:none"/></clipPath><linearGradient id="Безымянный_градиент_6" y1="479.99" y2="479.99" gradientTransform="matrix(43.8, 0, 0, -43.8, 315.59, 21300.02)" xlink:href="#Безымянный_градиент"/><clipPath id="clip-path-7"><path d="M344,184a8,8,0,0,0,0,16h32a8,8,0,0,0,0-16H344Z" style="fill:none"/></clipPath><linearGradient id="Безымянный_градиент_7" y1="480.01" y2="480.01" gradientTransform="matrix(48, 0, 0, -48, 336, 23232.24)" xlink:href="#Безымянный_градиент"/><clipPath id="clip-path-8"><path d="M347.44,93l-0.09.05-27.7,16a8,8,0,0,0,8,13.86l27.7-16A8,8,0,1,0,347.44,93" style="fill:none"/></clipPath><linearGradient id="Безымянный_градиент_8" y1="480" y2="480" gradientTransform="matrix(43.75, 0, 0, -43.75, 315.65, 21109.72)" xlink:href="#Безымянный_градиент"/><clipPath id="clip-path-9"><path d="M277.13,28.56l-0.05.09-16,27.7A8,8,0,0,0,264,67.29h0a8,8,0,0,0,10.93-2.93h0l16-27.7a8,8,0,1,0-13.8-8.09" style="fill:none"/></clipPath><linearGradient id="Безымянный_градиент_9" y1="479.99" y2="479.99" gradientTransform="matrix(32.03, 0, 0, -32.03, 259.99, 15422.26)" xlink:href="#Безымянный_градиент"/><clipPath id="clip-path-10"><path d="M136,192a16,16,0,1,1,32,0v16H152a16,16,0,0,1-16-16m80,0a16,16,0,1,1,16,16H216V192Zm-16,0v16H184V192a32,32,0,1,0-32,32h16v88a8,8,0,0,0,16,0V224h16v88a8,8,0,0,0,16,0V224h16a32,32,0,1,0-32-32" style="fill:none"/></clipPath><linearGradient id="Безымянный_градиент_10" y1="480.01" y2="480.01" gradientTransform="matrix(144, 0, 0, -144, 120, 69360.72)" xlink:href="#Безымянный_градиент"/><clipPath id="clip-path-11"><path d="M64.22,185.86a128,128,0,0,0,46.64,105.08,23.85,23.85,0,0,1,9.14,18.3V328a24,24,0,0,0,16,22.53V360a23.85,23.85,0,0,0,6.24,16,23.63,23.63,0,0,0,0,32A23.9,23.9,0,0,0,160,448a7.8,7.8,0,0,0,6.58-12.3,8.42,8.42,0,0,0-.9-1.38,8.27,8.27,0,0,0-2.22-1.46c-0.23-.12-0.46-0.22-0.7-0.31a8.45,8.45,0,0,0-2.52-.5c-0.08,0-.15,0-0.23,0a8,8,0,1,1,0-16h32a8,8,0,0,0,0-16H160a8,8,0,1,1,0-16h32a8,8,0,0,0,0-16H160a8,8,0,0,1-8-8v-8h40a8,8,0,0,0,0-16H144a8,8,0,0,1-8-8V309.24a39.77,39.77,0,0,0-15-30.68,112,112,0,0,1,76.46-198.4A113.29,113.29,0,0,1,304,191.32,111.34,111.34,0,0,1,262.44,279,39.66,39.66,0,0,0,248,310.17V328a8,8,0,0,1-8,8H216a8,8,0,0,0,0,16h16v8a8,8,0,0,1-8,8h-8a8,8,0,0,0,0,16h8a8,8,0,1,1,0,16h-8a8,8,0,0,0,0,16h8a8,8,0,1,1,0,16H184a8,8,0,1,0,0,16h30.63a24,24,0,0,1-40.57,7.94,8,8,0,1,0-12,10.64A39.81,39.81,0,0,0,191.83,480h0.29a39.91,39.91,0,0,0,39.2-33.27A23.77,23.77,0,0,0,241.76,408a23.63,23.63,0,0,0,0-32A23.84,23.84,0,0,0,248,360v-9.47A24,24,0,0,0,264,328V310.17a24.05,24.05,0,0,1,8.49-18.7A127.23,127.23,0,0,0,320,191.2a129.49,129.49,0,0,0-121.78-127Q195.08,64,192,64A128,128,0,0,0,64.22,185.86" style="fill:none"/></clipPath><linearGradient id="Безымянный_градиент_11" y1="480.01" y2="480.01" gradientTransform="matrix(255.93, 0, 0, -255.93, 64.07, 123120.49)" xlink:href="#Безымянный_градиент"/></defs><title>offers__item-icon-5</title><g style="clip-path:url(#clip-path)"><rect x="184" width="16" height="48" style="fill:url(#Безымянный_градиент)"/></g><g style="clip-path:url(#clip-path-2)"><rect x="90.83" y="24.61" width="34.33" height="44.94" style="fill:url(#Безымянный_градиент_2)"/></g><g style="clip-path:url(#clip-path-3)"><rect x="23.47" y="91.97" width="46.07" height="33.19" style="fill:url(#Безымянный_градиент_3)"/></g><g style="clip-path:url(#clip-path-4)"><rect y="184" width="48" height="16" style="fill:url(#Безымянный_градиент_4)"/></g><g style="clip-path:url(#clip-path-5)"><rect x="23.47" y="259.97" width="46.07" height="33.19" style="fill:url(#Безымянный_градиент_5)"/></g><g style="clip-path:url(#clip-path-6)"><rect x="314.46" y="259.97" width="46.07" height="33.19" style="fill:url(#Безымянный_градиент_6)"/></g><g style="clip-path:url(#clip-path-7)"><rect x="336" y="184" width="48" height="16" style="fill:url(#Безымянный_градиент_7)"/></g><g style="clip-path:url(#clip-path-8)"><rect x="314.51" y="91.97" width="46.03" height="32.03" style="fill:url(#Безымянный_градиент_8)"/></g><g style="clip-path:url(#clip-path-9)"><rect x="258.86" y="24.61" width="34.3" height="44.9" style="fill:url(#Безымянный_градиент_9)"/></g><g style="clip-path:url(#clip-path-10)"><rect x="120" y="160" width="144" height="160" style="fill:url(#Безымянный_градиент_10)"/></g><g style="clip-path:url(#clip-path-11)"><rect x="62.28" y="64" width="258.06" height="416.01" style="fill:url(#Безымянный_градиент_11)"/></g></svg>