<svg id="Слой_1" data-name="Слой 1" xmlns="http://www.w3.org/2000/svg" xmlns:xlink="http://www.w3.org/1999/xlink" viewBox="0 0 366.1 455.46"><defs><clipPath id="clip-path" transform="translate(-0.5 -0.5)"><path d="M240.4,116.16a8.34,8.34,0,0,0,.8-1.2l28-57.5h61a24.07,24.07,0,0,1,24,24v338.1a24.07,24.07,0,0,1-24,24H189.7V81.26l42.2,35.6a6,6,0,0,0,3.86,1.4,6.17,6.17,0,0,0,4.64-2.1M13.1,419.56V81.36a24.07,24.07,0,0,1,24-24h61l28,57.5a6,6,0,0,0,8,2.8,5,5,0,0,0,1.2-.8l42.2-35.6,0.2,362.3H37.1a24.07,24.07,0,0,1-24-24m87.6-384.5,72,34.7-39.1,33Zm93.9,34.7,72.1-34.7-33,67.7Zm-90.2-46.2a304.69,304.69,0,0,1,158.6.1l-79.3,38.1Zm-18.5-7.2a0.2,0.2,0,0,0-.2.1H85.6a6,6,0,0,0-3.7,7.6l0.3,0.6,10,20.6H37a36,36,0,0,0-36,36v338.2a36,36,0,0,0,36,36H330.1a36,36,0,0,0,36-36V81.36a36,36,0,0,0-35.9-36H275l10-20.6a6,6,0,0,0-4.6-8.6,317.45,317.45,0,0,0-194.5.2" style="fill:none"/></clipPath><linearGradient id="Безымянный_градиент" y1="456.46" x2="1" y2="456.46" gradientTransform="matrix(365.1, 0, 0, -365.1, 0.5, 166882.59)" gradientUnits="userSpaceOnUse"><stop offset="0" stop-color="#8800bf"/><stop offset="1" stop-color="#4000aa"/></linearGradient><clipPath id="clip-path-2" transform="translate(-0.5 -0.5)"><rect width="367.1" height="456.46" style="fill:none"/></clipPath><linearGradient id="Безымянный_градиент_2" y1="456.46" x2="1" y2="456.46" gradientTransform="matrix(367.1, 0, 0, -367.1, 0, 167795.81)" xlink:href="#Безымянный_градиент"/><clipPath id="clip-path-3" transform="translate(-0.5 -0.5)"><path d="M232.2,249.66v-44h81v43.9l-40.5,25Zm63.8-79.5a6,6,0,1,0,0,12h17.2v11.5h-81v-11.5H270a6,6,0,0,0,0-12H226.2a6,6,0,0,0-6,6V253a6,6,0,0,0,2.9,5.1l46.5,28.6a6,6,0,0,0,6.3,0l46.5-28.6a6,6,0,0,0,2.9-5.1v-76.8a6.17,6.17,0,0,0-6.1-6H296Z" style="fill:none"/></clipPath><linearGradient id="Безымянный_градиент_3" y1="456.46" x2="1" y2="456.46" gradientTransform="matrix(105.1, 0, 0, -105.1, 219.7, 48202.61)" xlink:href="#Безымянный_градиент"/><linearGradient id="Безымянный_градиент_4" y1="456.46" x2="1" y2="456.46" gradientTransform="matrix(107.1, 0, 0, -107.1, 219.2, 49116.05)" xlink:href="#Безымянный_градиент"/><clipPath id="clip-path-5" transform="translate(-0.5 -0.5)"><path d="M144.7,142.36a6,6,0,0,0,0,12h17a6,6,0,1,0,0-12h-17Z" style="fill:none"/></clipPath><linearGradient id="Безымянный_градиент_5" y1="456.46" x2="1" y2="456.46" gradientTransform="matrix(29, 0, 0, -29, 138.2, 13385.29)" xlink:href="#Безымянный_градиент"/><linearGradient id="Безымянный_градиент_6" y1="456.46" x2="1" y2="456.46" gradientTransform="matrix(31, 0, 0, -31, 137.7, 14298.72)" xlink:href="#Безымянный_градиент"/><clipPath id="clip-path-7" transform="translate(-0.5 -0.5)"><path d="M144.7,202.36a6,6,0,0,0,0,12h17a6,6,0,1,0,0-12h-17Z" style="fill:none"/></clipPath><linearGradient id="Безымянный_градиент_7" y1="456.46" x2="1" y2="456.46" gradientTransform="matrix(29, 0, 0, -29, 138.2, 13445.29)" xlink:href="#Безымянный_градиент"/><linearGradient id="Безымянный_градиент_8" y1="456.46" x2="1" y2="456.46" gradientTransform="matrix(31, 0, 0, -31, 137.7, 14358.72)" xlink:href="#Безымянный_градиент"/><clipPath id="clip-path-9" transform="translate(-0.5 -0.5)"><path d="M144.7,252.36a6,6,0,0,0,0,12h17a6,6,0,1,0,0-12h-17Z" style="fill:none"/></clipPath><linearGradient id="Безымянный_градиент_9" y1="456.46" x2="1" y2="456.46" gradientTransform="matrix(29, 0, 0, -29, 138.2, 13495.29)" xlink:href="#Безымянный_градиент"/><linearGradient id="Безымянный_градиент_10" y1="456.46" x2="1" y2="456.46" gradientTransform="matrix(31, 0, 0, -31, 137.7, 14408.72)" xlink:href="#Безымянный_градиент"/><clipPath id="clip-path-11" transform="translate(-0.5 -0.5)"><path d="M144.7,312.36a6,6,0,0,0,0,12h17a6,6,0,1,0,0-12h-17Z" style="fill:none"/></clipPath><linearGradient id="Безымянный_градиент_11" y1="456.46" x2="1" y2="456.46" gradientTransform="matrix(29, 0, 0, -29, 138.2, 13555.29)" xlink:href="#Безымянный_градиент"/><linearGradient id="Безымянный_градиент_12" y1="456.46" x2="1" y2="456.46" gradientTransform="matrix(31, 0, 0, -31, 137.7, 14468.72)" xlink:href="#Безымянный_градиент"/><clipPath id="clip-path-13" transform="translate(-0.5 -0.5)"><path d="M144.7,372.36a6,6,0,0,0,0,12h17a6,6,0,1,0,0-12h-17Z" style="fill:none"/></clipPath><linearGradient id="Безымянный_градиент_13" y1="456.46" x2="1" y2="456.46" gradientTransform="matrix(29, 0, 0, -29, 138.2, 13615.29)" xlink:href="#Безымянный_градиент"/><linearGradient id="Безымянный_градиент_14" y1="456.46" x2="1" y2="456.46" gradientTransform="matrix(31, 0, 0, -31, 137.7, 14528.72)" xlink:href="#Безымянный_градиент"/><clipPath id="clip-path-15" transform="translate(-0.5 -0.5)"><path d="M41.1,137.56v12.8a6,6,0,0,0,12,0v-12.8a6,6,0,0,0-6-6,6,6,0,0,0-6,6" style="fill:none"/></clipPath><linearGradient id="Безымянный_градиент_15" y1="456.46" x2="1" y2="456.46" gradientTransform="matrix(12, 0, 0, -12, 40.6, 5621.02)" xlink:href="#Безымянный_градиент"/><linearGradient id="Безымянный_градиент_16" y1="456.46" x2="1" y2="456.46" gradientTransform="matrix(14, 0, 0, -14, 40.1, 6534.45)" xlink:href="#Безымянный_градиент"/><clipPath id="clip-path-17" transform="translate(-0.5 -0.5)"><path d="M41.1,169.36v78a6,6,0,0,0,12,0v-78a6,6,0,0,0-6-6,6,6,0,0,0-6,6" style="fill:none"/></clipPath><linearGradient id="Безымянный_градиент_17" y1="456.46" x2="1" y2="456.46" gradientTransform="matrix(12, 0, 0, -12, 40.6, 5685.42)" xlink:href="#Безымянный_градиент"/><linearGradient id="Безымянный_градиент_18" y1="456.46" x2="1" y2="456.46" gradientTransform="matrix(14, 0, 0, -14, 40.1, 6598.85)" xlink:href="#Безымянный_градиент"/></defs><title>offers__item-icon-2</title><g style="clip-path:url(#clip-path)"><rect x="0.5" y="0.5" width="365.2" height="454.46" style="fill:url(#Безымянный_градиент)"/></g><g style="clip-path:url(#clip-path-2)"><path d="M330.2,45.36v0.5h-56l10.35-21.32h0a5.45,5.45,0,0,0-2.47-7.33h0a5.53,5.53,0,0,0-1.75-.55h-0.08a317,317,0,0,0-194.19.2l-0.07,0H85.9v-0.2l0.15,0.15-0.15,0v-0.2l0.15,0.15L85.91,17H85.6v-0.5l0.17,0.47a5.55,5.55,0,0,0-3.7,5.19,5.29,5.29,0,0,0,.31,1.77l-0.47.17,0.45-.22,0.3,0.6h0L93,45.76H37A35.48,35.48,0,0,0,1.5,81.26v338.2A35.48,35.48,0,0,0,37,455H330.1a35.48,35.48,0,0,0,35.5-35.5V81.36h0V81.18a35.46,35.46,0,0,0-35.4-35.32h0v-1a36.46,36.46,0,0,1,36.4,36.32v0.19h0v338.1A36.52,36.52,0,0,1,330.1,456H37A36.52,36.52,0,0,1,.5,419.46V81.26A36.52,36.52,0,0,1,37,44.76H91.4L81.75,24.88l0.45-.22-0.45.22-0.3-.6V24.23a6.3,6.3,0,0,1-.36-2.11A6.55,6.55,0,0,1,85.43,16l0.08,0H85.7v0.5l-0.35-.35a0.8,0.8,0,0,1,.55-0.25v0.5l-0.15-.48a318,318,0,0,1,194.81-.2l-0.15.48,0.07-.49a6.54,6.54,0,0,1,2.05.65l-0.22.45,0.22-.45A6.45,6.45,0,0,1,285.45,25L285,24.76,285.45,25,275.8,44.86h54.4v0.5ZM177.7,443.56v0.5H37.1a24.57,24.57,0,0,1-24.5-24.5V81.36a24.57,24.57,0,0,1,24.5-24.5H98.41l28.14,57.78-0.45.22,0.45-.22a5.53,5.53,0,0,0,5,3.11,5.63,5.63,0,0,0,2.38-.54l0.21,0.45-0.22-.45a4.6,4.6,0,0,0,1.07-.71l0,0,43-36.31,0.2,363.88h-0.5v-0.5h-0.5L177,82.34l-41.38,34.91-0.32-.38,0.35,0.35a5.46,5.46,0,0,1-1.33.89h0a6.63,6.63,0,0,1-2.81.63,6.53,6.53,0,0,1-5.85-3.66h0L97.79,57.86H37.1a23.6,23.6,0,0,0-23.5,23.5v338.2a23.6,23.6,0,0,0,23.5,23.5H177.7v0.5h0Zm-77-408.5,0.22-.45,72.69,35-40.18,33.91L99.62,34l1.3,0.62-0.22.45,0.45-.22L133.77,102l38-32.09L100.48,35.51l0.22-.45,0.45-.22Zm3.7-11.5-0.13-.48a303.69,303.69,0,0,1,79.11-10.47,306.78,306.78,0,0,1,79.75,10.57l1.3,0.35L183.7,62.32,103,23.43l1.3-.35,0.13,0.48,0.22-.45,79.08,38.1,79.08-38L263,23.66l-0.13.48a305.78,305.78,0,0,0-79.49-10.53A302.7,302.7,0,0,0,104.53,24l-0.13-.48,0.22-.45Zm162.3,11.5,0.45,0.22-33.28,68.28L193.69,69.65,267.78,34l-0.63,1.29-0.45-.22,0.22,0.45-71.4,34.37,38,32.09,32.72-67.12,0.45,0.22,0.22,0.45Zm87.5,384.5h0.5a24.57,24.57,0,0,1-24.5,24.5h-141V80.19l43,36.29a5.48,5.48,0,0,0,3.54,1.28,5.67,5.67,0,0,0,4.26-1.93l0.38,0.33-0.4-.3a7.94,7.94,0,0,0,.75-1.12L241.2,115l-0.45-.22L268.89,57H330.2a24.57,24.57,0,0,1,24.5,24.5v338.1h-1V81.46A23.6,23.6,0,0,0,330.2,58H269.51l-27.86,57.22h0a8.76,8.76,0,0,1-.85,1.28v0h0a6.67,6.67,0,0,1-5,2.27,6.48,6.48,0,0,1-4.18-1.51L190.2,82.34V443.06h140a23.6,23.6,0,0,0,23.5-23.5h0.5Z" transform="translate(-0.5 -0.5)" style="fill:url(#Безымянный_градиент_2)"/></g><g style="clip-path:url(#clip-path-3)"><rect x="219.7" y="169.66" width="105.1" height="117.7" style="fill:url(#Безымянный_градиент_3)"/></g><g style="clip-path:url(#clip-path-2)"><path d="M319.2,170.16v0.5H296a5.5,5.5,0,1,0,0,11h17.7v12.5h-82v-12.5H270a5.5,5.5,0,0,0,0-11H226.2a5.53,5.53,0,0,0-5.5,5.5V253a5.46,5.46,0,0,0,2.66,4.67h0l46.5,28.6h0a5.46,5.46,0,0,0,5.77,0h0l46.5-28.6A5.46,5.46,0,0,0,324.8,253v-76.8h0.5l-0.5,0a5.67,5.67,0,0,0-5.6-5.52v-1a6.67,6.67,0,0,1,6.6,6.48h0V253a6.46,6.46,0,0,1-3.14,5.53l-46.5,28.6-0.26-.43,0.27,0.42a6.46,6.46,0,0,1-6.83,0l0.27-.42-0.26.43-46.5-28.6h0A6.46,6.46,0,0,1,219.7,253v-76.8a6.52,6.52,0,0,1,6.5-6.5H270a6.5,6.5,0,0,1,0,13H232.7v10.5h80v-10.5H296a6.5,6.5,0,1,1,0-13h23.2v0.5Zm-6,79.4,0.26,0.43L272.7,275.15l-41-25.21V205.16h82v44.68l-0.24.15-0.26-.43h-0.5v-43.4h-80v43.22l40,24.59,40.24-24.84,0.26,0.43h0Z" transform="translate(-0.5 -0.5)" style="fill:url(#Безымянный_градиент_4)"/></g><g style="clip-path:url(#clip-path-5)"><rect x="138.2" y="141.86" width="29" height="12" style="fill:url(#Безымянный_градиент_5)"/></g><g style="clip-path:url(#clip-path-2)"><path d="M144.7,154.36v-0.5h17a5.5,5.5,0,0,0,0-11h-17a5.5,5.5,0,0,0,0,11v1a6.5,6.5,0,1,1,0-13h17a6.5,6.5,0,1,1,0,13h-17v-0.5Z" transform="translate(-0.5 -0.5)" style="fill:url(#Безымянный_градиент_6)"/></g><g style="clip-path:url(#clip-path-7)"><rect x="138.2" y="201.86" width="29" height="12" style="fill:url(#Безымянный_градиент_7)"/></g><g style="clip-path:url(#clip-path-2)"><path d="M144.7,214.36v-0.5h17a5.5,5.5,0,0,0,0-11h-17a5.5,5.5,0,1,0,0,11v1a6.5,6.5,0,1,1,0-13h17a6.5,6.5,0,0,1,0,13h-17v-0.5Z" transform="translate(-0.5 -0.5)" style="fill:url(#Безымянный_градиент_8)"/></g><g style="clip-path:url(#clip-path-9)"><rect x="138.2" y="251.86" width="29" height="12" style="fill:url(#Безымянный_градиент_9)"/></g><g style="clip-path:url(#clip-path-2)"><path d="M144.7,264.36v-0.5h17a5.5,5.5,0,0,0,0-11h-17a5.5,5.5,0,1,0,0,11v1a6.5,6.5,0,1,1,0-13h17a6.5,6.5,0,0,1,0,13h-17v-0.5Z" transform="translate(-0.5 -0.5)" style="fill:url(#Безымянный_градиент_10)"/></g><g style="clip-path:url(#clip-path-11)"><rect x="138.2" y="311.86" width="29" height="12" style="fill:url(#Безымянный_градиент_11)"/></g><g style="clip-path:url(#clip-path-2)"><path d="M144.7,324.36v-0.5h17a5.5,5.5,0,0,0,0-11h-17a5.5,5.5,0,1,0,0,11v1a6.5,6.5,0,1,1,0-13h17a6.5,6.5,0,0,1,0,13h-17v-0.5Z" transform="translate(-0.5 -0.5)" style="fill:url(#Безымянный_градиент_12)"/></g><g style="clip-path:url(#clip-path-13)"><rect x="138.2" y="371.86" width="29" height="12" style="fill:url(#Безымянный_градиент_13)"/></g><g style="clip-path:url(#clip-path-2)"><path d="M144.7,384.36v-0.5h17a5.5,5.5,0,0,0,0-11h-17a5.5,5.5,0,1,0,0,11v1a6.5,6.5,0,1,1,0-13h17a6.5,6.5,0,0,1,0,13h-17v-0.5Z" transform="translate(-0.5 -0.5)" style="fill:url(#Безымянный_градиент_14)"/></g><g style="clip-path:url(#clip-path-15)"><rect x="40.6" y="131.06" width="12" height="24.8" style="fill:url(#Безымянный_градиент_15)"/></g><g style="clip-path:url(#clip-path-2)"><path d="M47.1,131.56v0.5a5.53,5.53,0,0,0-5.5,5.5v12.8a5.5,5.5,0,1,0,11,0v-12.8a5.45,5.45,0,0,0-5.5-5.5v-1a6.47,6.47,0,0,1,6.5,6.5v12.8a6.5,6.5,0,1,1-13,0v-12.8a6.52,6.52,0,0,1,6.5-6.5v0.5Z" transform="translate(-0.5 -0.5)" style="fill:url(#Безымянный_градиент_16)"/></g><g style="clip-path:url(#clip-path-17)"><rect x="40.6" y="162.86" width="12" height="90" style="fill:url(#Безымянный_градиент_17)"/></g><g style="clip-path:url(#clip-path-2)"><path d="M47.1,163.36v0.5a5.53,5.53,0,0,0-5.5,5.5v78a5.5,5.5,0,1,0,11,0v-78a5.45,5.45,0,0,0-5.5-5.5v-1a6.47,6.47,0,0,1,6.5,6.5v78a6.5,6.5,0,1,1-13,0v-78a6.52,6.52,0,0,1,6.5-6.5v0.5Z" transform="translate(-0.5 -0.5)" style="fill:url(#Безымянный_градиент_18)"/></g></svg>