<svg id="Слой_1" data-name="Слой 1" xmlns="http://www.w3.org/2000/svg" xmlns:xlink="http://www.w3.org/1999/xlink" viewBox="0 0 523.6 516.31"><defs><clipPath id="clip-path" transform="translate(3.85 -0.54)"><path d="M146.45,316.85L317,146.45a62.47,62.47,0,0,0,15-61.6,54,54,0,1,1,105.8-13.8,7.27,7.27,0,0,0,2,5.1,7.11,7.11,0,0,0,5.1,2.1A54,54,0,1,1,431,184.05a62.24,62.24,0,0,0-61.6,15l-170.5,170.4a62.47,62.47,0,0,0-15,61.6,54,54,0,0,1-91.7,51.5,54.49,54.49,0,0,1-14-37.7,7,7,0,0,0-6.8-7.2h-0.4a54.08,54.08,0,0,1-41.5-17.8,54.51,54.51,0,0,1,.3-72.5,53.73,53.73,0,0,1,55-15.5,62.25,62.25,0,0,0,61.6-15M338,19.55a67.72,67.72,0,0,0-19.5,69.2,48.33,48.33,0,0,1-11.4,47.8l-170.5,170.5a48.38,48.38,0,0,1-47.8,11.4A67.72,67.72,0,0,0,19.55,338a67.94,67.94,0,0,0,44.9,113.5,68,68,0,1,0,135.5-10.7,69.26,69.26,0,0,0-2.5-13.6,48.33,48.33,0,0,1,11.4-47.8L379.25,209a48.38,48.38,0,0,1,47.8-11.4,67.72,67.72,0,0,0,69.2-19.5,67.94,67.94,0,0,0-44.8-113.6,67.3,67.3,0,0,0-22.3-45.2,68.46,68.46,0,0,0-91.2.3" style="fill:none"/></clipPath><linearGradient id="Безымянный_градиент" y1="516.07" x2="1" y2="516.07" gradientTransform="matrix(511.89, 0, 0, -511.89, 5.85, 264428.2)" gradientUnits="userSpaceOnUse"><stop offset="0" stop-color="#fc0b1f"/><stop offset="1" stop-color="#ff7800"/></linearGradient><clipPath id="clip-path-2" transform="translate(3.85 -0.54)"><rect width="515.89" height="516.07" style="fill:none"/></clipPath><linearGradient id="Безымянный_градиент_2" y1="516.07" y2="516.07" gradientTransform="matrix(515.89, 0, 0, -515.89, 0, 266492.86)" xlink:href="#Безымянный_градиент"/><clipPath id="clip-path-3" transform="translate(3.85 -0.54)"><path d="M456.45,113.55a7,7,0,0,0-.5,9.9,13.5,13.5,0,0,1-.1,17.6,13.33,13.33,0,0,1-13.5,3.8,7,7,0,0,0-3.9,13.5,27.94,27.94,0,0,0,7.6,1.1,26.89,26.89,0,0,0,20.1-8.9,27.68,27.68,0,0,0,.1-36.4,6.63,6.63,0,0,0-5.13-2.41,7,7,0,0,0-4.67,1.81" style="fill:none"/></clipPath><linearGradient id="Безымянный_градиент_3" y1="516.07" y2="516.07" gradientTransform="matrix(39.57, 0, 0, -39.57, 437.41, 20557.42)" xlink:href="#Безымянный_градиент"/><linearGradient id="Безымянный_градиент_4" y1="516.07" y2="516.07" gradientTransform="matrix(43.52, 0, 0, -43.52, 431.5, 22597.22)" xlink:href="#Безымянный_градиент"/></defs><title>offers__item-icon-11</title><g style="clip-path:url(#clip-path)"><rect y="1.46" width="523.6" height="514.85" style="fill:url(#Безымянный_градиент)"/></g><g style="clip-path:url(#clip-path-2)"><path d="M496.65,86.75l-1.11,1a67.11,67.11,0,0,0-44.21-21.81l-1.28-.1L450,64.56a65.79,65.79,0,0,0-21.8-44.19h0c-13.28-11.75-30-16.83-46.72-16.84-15.2,0-30.32,6.19-42.49,17.13h0a66.2,66.2,0,0,0-19.07,67.67l-1.44.42,1.43-.44a49.81,49.81,0,0,1-11.76,49.29h0L137.6,308.12h0a49.81,49.81,0,0,1-49.28,11.75l0.44-1.43-0.42,1.44A66.2,66.2,0,0,0,20.66,339h0a67,67,0,0,0-.29,89.2l-1.12,1,1.11-1A67.1,67.1,0,0,0,64.57,450l1.27,0.1,0.1,1.27a66.5,66.5,0,0,0,66.12,61.24q2.66,0,5.37-.22a66.5,66.5,0,0,0,61.24-66.12q0-2.66-.22-5.37h0a67.86,67.86,0,0,0-2.44-13.3l1.44-.43-1.43.44a49.81,49.81,0,0,1,11.76-49.29h0L378.2,207.88h0a49.81,49.81,0,0,1,49.28-11.75L427,197.55l0.42-1.44A66.2,66.2,0,0,0,495.14,177h0a67,67,0,0,0,.39-89.3l1.12-1-1.11,1,1.11-1,1.12-1a70,70,0,0,1-.41,93.3h0A69.2,69.2,0,0,1,426.63,199h0a46.53,46.53,0,0,0-13.77-2.08A47,47,0,0,0,380.29,210l-1-1.08,1.06,1.06-170.4,170.4-1.06-1.06,1.08,1a46.81,46.81,0,0,0-11,46.31h0a70.84,70.84,0,0,1,2.56,13.9h0q0.23,2.82.23,5.61a69.5,69.5,0,0,1-64,69.11h0q-2.82.23-5.61,0.23h0a69.5,69.5,0,0,1-69.11-64l1.5-.12-0.12,1.5a70.1,70.1,0,0,1-46.19-22.79h0a70,70,0,0,1,.31-93.2h0A69.2,69.2,0,0,1,89.17,317h0A46.53,46.53,0,0,0,103,319.1,47,47,0,0,0,135.51,306l1,1.08L135.49,306,306,135.49l1.06,1.06-1.08-1a46.81,46.81,0,0,0,11-46.31h0a69.2,69.2,0,0,1,19.93-70.73h0C349.61,7,365.41.54,381.44,0.54c17.27,0,34.8,5.28,48.71,17.59h0a68.79,68.79,0,0,1,22.8,46.21l-1.5.11,0.12-1.5a70.1,70.1,0,0,1,46.19,22.79h0ZM486,168.55l1.11,1a55.27,55.27,0,0,1-56.54,15.93h0a60.74,60.74,0,0,0-60.12,14.64l-1-1.07,1.06,1.06L200,370.51l-1.06-1.06,1.08,1A61.14,61.14,0,0,0,182.77,413a60.43,60.43,0,0,0,2.62,17.6h0a55.27,55.27,0,0,1-15.93,56.54h0a55.42,55.42,0,0,1-78.32-3.6h0A56,56,0,0,1,76.74,446q0-.61,0-1.21h0v-0.15a5.53,5.53,0,0,0-5.34-5.52l0-1.5v1.5H71v-1.5l0,1.5-1.41,0a55.58,55.58,0,0,1-41.23-18.31h0a56,56,0,0,1,.31-74.5h0a55.27,55.27,0,0,1,56.54-15.93h0a60.74,60.74,0,0,0,60.12-14.64l1,1.07-1.06-1.06,170.5-170.4,1.06,1.06-1.08-1a61.14,61.14,0,0,0,17.26-42.52,60.44,60.44,0,0,0-2.62-17.6h0a55.27,55.27,0,0,1,15.93-56.53h0a55.46,55.46,0,0,1,92.82,41.13q0,0.61,0,1.21l-1.5,0h1.5a5.78,5.78,0,0,0,1.56,4,5.6,5.6,0,0,0,4,1.66v1.5l0-1.5,1.52,0a55.38,55.38,0,0,1,55.32,54h0q0,0.61,0,1.21a55.86,55.86,0,0,1-14.51,37.63h0l-1.11-1-1.11-1a52.86,52.86,0,0,0,13.72-35.61q0-.57,0-1.15h0a52.38,52.38,0,0,0-52.32-51.06l-1.44,0h0a8.62,8.62,0,0,1-6.16-2.54,8.75,8.75,0,0,1-2.44-6.16v0q0-.58,0-1.15A52.45,52.45,0,0,0,348.46,31h0a52.27,52.27,0,0,0-15.07,53.47l-1.44.42,1.44-.44a63.44,63.44,0,0,1,2.75,18.47A64.14,64.14,0,0,1,318,147.49h0L147.5,317.92h0a63.74,63.74,0,0,1-63.08,15.36l0.44-1.44-0.42,1.44A52.27,52.27,0,0,0,31,348.36h0a53,53,0,0,0-.29,70.5l-1.12,1,1.11-1a52.58,52.58,0,0,0,39,17.32l1.34,0h0.48a8.52,8.52,0,0,1,8.26,8.52v0.22h0q0,0.58,0,1.15a53,53,0,0,0,13.63,35.51h0a52.42,52.42,0,0,0,74.08,3.4h0a52.27,52.27,0,0,0,15.07-53.46l1.44-.42-1.44.44A63.43,63.43,0,0,1,179.77,413a64.14,64.14,0,0,1,18.1-44.61h0L368.4,198h0a63.74,63.74,0,0,1,63.08-15.36L431,184.05l0.42-1.44a52.27,52.27,0,0,0,53.46-15.07h0Z" transform="translate(3.85 -0.54)" style="fill:url(#Безымянный_градиент_2)"/></g><g style="clip-path:url(#clip-path-3)"><rect x="436.6" y="111.2" width="42.6" height="47.71" style="fill:url(#Безымянный_градиент_3)"/></g><g style="clip-path:url(#clip-path-2)"><path d="M456.45,113.55l1,1.12a5.42,5.42,0,0,0-1.82,4.06,5.55,5.55,0,0,0,1.44,3.72v0l0,0A15,15,0,0,1,457,142l0,0,0,0a14.83,14.83,0,0,1-15,4.23l0.41-1.44L442,146.3a5.45,5.45,0,0,0-1.42-.19,5.54,5.54,0,0,0-5.34,4,5.65,5.65,0,0,0-.2,1.48,5.53,5.53,0,0,0,3.89,5.3l-0.44,1.43,0.4-1.44a26.43,26.43,0,0,0,7.2,1,25.39,25.39,0,0,0,19-8.4l1.12,1-1.13-1a26.18,26.18,0,0,0,.1-34.43h0a5.13,5.13,0,0,0-4-1.87,5.48,5.48,0,0,0-3.66,1.43l-1-1.12-1-1.12a8.48,8.48,0,0,1,5.66-2.19,8.14,8.14,0,0,1,6.29,3l-1.15,1,1.13-1a29.18,29.18,0,0,1-.1,38.37h0a28.39,28.39,0,0,1-21.22,9.4,29.43,29.43,0,0,1-8-1.16h0a8.53,8.53,0,0,1-6-8.17,8.65,8.65,0,0,1,.3-2.26,8.53,8.53,0,0,1,10.44-6h0a11.83,11.83,0,0,0,12-3.37l1.1,1-1.14-1a12,12,0,0,0,.09-15.65l1.15-1-1.12,1a8.56,8.56,0,0,1-2.2-5.72,8.43,8.43,0,0,1,2.82-6.3Z" transform="translate(3.85 -0.54)" style="fill:url(#Безымянный_градиент_4)"/></g></svg>