<svg id="Слой_1" data-name="Слой 1" xmlns="http://www.w3.org/2000/svg" xmlns:xlink="http://www.w3.org/1999/xlink" viewBox="0 0 414.2 490.56"><defs><clipPath id="clip-path" transform="translate(-0.02 -0.5)"><path d="M214.22,115.86a6,6,0,1,0,6.5,10.1,79.13,79.13,0,1,1-16.3,13.7,6,6,0,0,0-8.9-8.1,91.95,91.95,0,1,0,18.7-15.7" style="fill:none"/></clipPath><linearGradient id="Безымянный_градиент" y1="491.49" x2="1" y2="491.49" gradientTransform="translate(171.93 -89532.19) scale(182.57)" gradientUnits="userSpaceOnUse"><stop offset="0" stop-color="#8800bf"/><stop offset="1" stop-color="#4000aa"/></linearGradient><clipPath id="clip-path-2" transform="translate(-0.02 -0.5)"><rect width="414.72" height="491.46" style="fill:none"/></clipPath><linearGradient id="Безымянный_градиент_2" y1="491.46" y2="491.46" gradientTransform="matrix(183.57, 0, 0, -183.57, 171.46, 90408.76)" xlink:href="#Безымянный_градиент"/><clipPath id="clip-path-3" transform="translate(-0.02 -0.5)"><path d="M142.32,341h241v17H343a6,6,0,0,0,0,12h58.9a47.86,47.86,0,0,1-14.1,28.6,48.9,48.9,0,0,1-34.6,14.4h-180a49.19,49.19,0,0,1-48.6-43h189a6,6,0,0,0,0-12H142.32V341Zm171-32.7V329h-100v-20.7c15,6.9,32.7,10.5,50,10.5a126.61,126.61,0,0,0,50-10.5M209.92,294a114.16,114.16,0,0,1-60.5-100.8c0-62.8,51.1-114,113.9-114a113.9,113.9,0,0,1,0,227.8c-18.6,0-37-5-53.4-13m-72.4-101.1c0,45.4,23.8,87,63.8,109.4V329h-64.6c-3.3,0-6.4,2.6-6.4,5.9V358h-12.1a6,6,0,0,0-6,6,61,61,0,0,0,61,61h180a61.07,61.07,0,0,0,61-61.1,6,6,0,0,0-6-5.9h-12.9v-23.1a5.58,5.58,0,0,0-5.2-5.9h-64.8v-26.7a125.8,125.8,0,0,0-62.1-235.2c-69.4,0-125.7,56.5-125.7,125.8" style="fill:none"/></clipPath><linearGradient id="Безымянный_градиент_3" y1="491.46" y2="491.46" gradientTransform="translate(112.2 -148176.32) scale(302)" xlink:href="#Безымянный_градиент"/><linearGradient id="Безымянный_градиент_4" y1="491.46" y2="491.46" gradientTransform="matrix(303, 0, 0, -303, 111.72, 149159.3)" xlink:href="#Безымянный_градиент"/><clipPath id="clip-path-5" transform="translate(-0.02 -0.5)"><path d="M36.22,113.16a52.35,52.35,0,0,1,45.7,0L79.22,207H63a6,6,0,1,0,0,12h15.8l-7,248a12.32,12.32,0,0,1-12.4,12h-0.1a12.47,12.47,0,0,1-12.5-12l-7.5-248h4.5a6,6,0,0,0,0-12H39Zm-22.9-86.8a82.74,82.74,0,0,1,91.5,0l-19.4,75.3c-0.9-.4-1.8-0.8-2.8-1.2l7.3-50.4a6,6,0,0,0-5.1-6.8,6.06,6.06,0,0,0-6.8,5L71,97q-3-.6-6-0.9V77.56a5.8,5.8,0,0,0-5.8-5.8H59a5.85,5.85,0,0,0-6,5.8v18.5a57.45,57.45,0,0,0-5.8.8L40.92,61a6,6,0,0,0-11.8,2l6.6,37.3c-1,.4-2,0.8-2.9,1.2ZM5.72,17l-2.6,1.8a5.88,5.88,0,0,0-2.4,6.5l23.7,91.5L35,467.36A24.25,24.25,0,0,0,59.32,491h0.2a24.36,24.36,0,0,0,24.4-23.7l9.9-350.7,0.2,0.1,23.5-91.5a6,6,0,0,0-2.5-6.4l-2.6-1.8A94.68,94.68,0,0,0,5.72,17" style="fill:none"/></clipPath><linearGradient id="Безымянный_градиент_5" y1="491.46" y2="491.46" gradientTransform="translate(0.48 -57351.24) scale(117.19)" xlink:href="#Безымянный_градиент"/><linearGradient id="Безымянный_градиент_6" y1="491.46" y2="491.46" gradientTransform="matrix(118.19, 0, 0, -118.19, 0, 58333.71)" xlink:href="#Безымянный_градиент"/></defs><title>offers__item-icon-8</title><g style="clip-path:url(#clip-path)"><rect x="161.7" y="101.06" width="192.8" height="192.9" style="fill:url(#Безымянный_градиент)"/></g><g style="clip-path:url(#clip-path-2)"><path d="M354.52,192.86h0a91.26,91.26,0,0,0-140.3-77,6,6,0,1,0,6.5,10.1,78.87,78.87,0,1,1-16.3,13.7,6.07,6.07,0,0,0,1.52-4,5.94,5.94,0,0,0-2-4.48,6.06,6.06,0,0,0-4-1.53,5.92,5.92,0,0,0-4.38,1.93,91.33,91.33,0,1,0,159,61.3h0a91.28,91.28,0,1,1-159-61.3,5.92,5.92,0,0,1,4.38-1.93,6.06,6.06,0,0,1,4,1.53,5.94,5.94,0,0,1,2,4.48,6.07,6.07,0,0,1-1.52,4,80.06,80.06,0,1,0,16.3-13.7,6,6,0,1,1-6.5-10.1,91.26,91.26,0,0,1,140.3,77h0Z" transform="translate(-0.02 -0.5)" style="fill:url(#Безымянный_градиент_2)"/></g><g style="clip-path:url(#clip-path-3)"><rect x="112.2" y="66.56" width="302" height="357.9" style="fill:url(#Безымянный_градиент_3)"/></g><g style="clip-path:url(#clip-path-2)"><path d="M408.22,358h-12.9v-23.1q0-.18,0-0.36a5.59,5.59,0,0,0-5.21-5.54h-64.8v-26.7a125.8,125.8,0,0,0-62.1-235.2c-69.4,0-125.7,56.5-125.7,125.8,0,45.4,23.8,87,63.8,109.4V329h-64.6c-3.3,0-6.4,2.6-6.4,5.9V358h-12.1a6,6,0,0,0-6,6,61,61,0,0,0,61,61h180a61.07,61.07,0,0,0,61-61.1,6,6,0,0,0-6-5.9h0a6,6,0,0,1,6,5.9,61.07,61.07,0,0,1-61,61.1h-180a61,61,0,0,1-61-61,6,6,0,0,1,6-6h12.1v-23.1c0-3.3,3.1-5.9,6.4-5.9h64.6v-26.7c-40-22.4-63.8-64-63.8-109.4,0-69.3,56.3-125.8,125.7-125.8a125.8,125.8,0,0,1,62.1,235.2V329h64.8a5.59,5.59,0,0,1,5.21,5.54q0,0.18,0,.36V358h12.9Zm-258.8-164.8h0c0-62.8,51.1-114,113.9-114A113.91,113.91,0,0,1,376.72,193q0,0.28,0,.55A113.89,113.89,0,0,1,263.32,307c-18.6,0-37-5-53.4-13a114.16,114.16,0,0,1-60.5-100.8h0A114.16,114.16,0,0,0,209.92,294c16.4,8,34.8,13,53.4,13a113.89,113.89,0,0,0,113.4-113.4q0-.28,0-0.55A113.91,113.91,0,0,0,263.32,79.16c-62.8,0-113.9,51.2-113.9,114h0Zm163.9,115.1h0V329h-100v-20.7c15,6.9,32.7,10.5,50,10.5a126.59,126.59,0,0,0,50-10.5h0a126.59,126.59,0,0,1-50,10.5c-17.3,0-35-3.6-50-10.5V329h100v-20.7h0Zm74.5,90.3h0a48.9,48.9,0,0,1-34.6,14.4h-180a49.18,49.18,0,0,1-48.6-43h189a6,6,0,0,0,0-12H142.32V341h241v17H343a6,6,0,0,0,0,12h58.9a47.86,47.86,0,0,1-14.1,28.6h0a47.86,47.86,0,0,0,14.1-28.6H343a6,6,0,0,1,0-12h40.3V341h-241v17h171.3a6,6,0,0,1,0,12h-189a49.18,49.18,0,0,0,48.6,43h180a48.9,48.9,0,0,0,34.6-14.4h0Z" transform="translate(-0.02 -0.5)" style="fill:url(#Безымянный_градиент_4)"/></g><g style="clip-path:url(#clip-path-5)"><rect width="118.1" height="490.56" style="fill:url(#Безымянный_градиент_5)"/></g><g style="clip-path:url(#clip-path-2)"><path d="M115,18.76h0l-2.6-1.8A94.68,94.68,0,0,0,5.72,17l-2.6,1.8A5.88,5.88,0,0,0,.5,23.66a6,6,0,0,0,.22,1.61l23.7,91.5L35,467.36A24.25,24.25,0,0,0,59.32,491h0.38a24.36,24.36,0,0,0,24.22-23.7l9.9-350.7,0.2,0.1,23.5-91.5a5.79,5.79,0,0,0,.17-1.4,6,6,0,0,0-2.67-5h0a6,6,0,0,1,2.67,5,5.79,5.79,0,0,1-.17,1.4L94,116.66l-0.2-.1-9.9,350.7A24.36,24.36,0,0,1,59.71,491H59.32A24.25,24.25,0,0,1,35,467.36l-10.6-350.6L0.72,25.26A6,6,0,0,1,.5,23.66a5.88,5.88,0,0,1,2.62-4.89L5.72,17a94.68,94.68,0,0,1,106.7,0l2.6,1.8h0ZM79.22,207H63a6,6,0,0,0,0,12h15.8l-7,248A12.32,12.32,0,0,1,59.6,479H59.32a12.47,12.47,0,0,1-12.5-12l-7.5-248h4.5a6,6,0,1,0,0-12H39l-2.8-93.8a52.35,52.35,0,0,1,45.7,0L79.22,207h0l2.7-93.8a52.35,52.35,0,0,0-45.7,0L39,207h4.8a6,6,0,1,1,0,12h-4.5l7.5,248a12.47,12.47,0,0,0,12.5,12H59.6a12.32,12.32,0,0,0,12.22-12l7-248H63a6,6,0,0,1,0-12h16.2Zm6.2-105.3h0c-0.9-.4-1.8-0.8-2.8-1.2l7.3-50.4a6,6,0,0,0-5.1-6.8,6.43,6.43,0,0,0-.77,0,6,6,0,0,0-6,5L71,97q-3-.6-6-0.9V77.56a5.8,5.8,0,0,0-5.8-5.8H58.84A5.85,5.85,0,0,0,53,77.56v18.5a57.72,57.72,0,0,0-5.8.8L40.92,61a6,6,0,0,0-6-5,6.12,6.12,0,0,0-.94.07,6.06,6.06,0,0,0-4.9,6.9l6.6,37.3c-1,.4-2,0.8-2.9,1.2l-19.5-75.1a82.74,82.74,0,0,1,91.5,0l-19.4,75.3h0l19.4-75.3a82.74,82.74,0,0,0-91.5,0l19.5,75.1c0.9-.4,1.9-0.8,2.9-1.2L29.12,63a6,6,0,0,1,11.8-2l6.3,35.9a57.71,57.71,0,0,1,5.8-.8V77.56a5.85,5.85,0,0,1,5.82-5.8h0.38a5.8,5.8,0,0,1,5.8,5.8v18.5q3,0.3,6,.9l7-48.7a6,6,0,0,1,6-5,6.44,6.44,0,0,1,.77,0,6,6,0,0,1,5.1,6.8l-7.3,50.4c1,0.4,1.9.8,2.8,1.2h0Z" transform="translate(-0.02 -0.5)" style="fill:url(#Безымянный_градиент_6)"/></g></svg>