<svg id="Слой_1" data-name="Слой 1" xmlns="http://www.w3.org/2000/svg" viewBox="0 0 121.6 103.6"><title>slider-spot2</title><g id="dykyb"><path d="M0,0H121.6V103.6H0V0Z" style="fill:#fff"/><path d="M64.55,8.49C73.46,7.54,88.18-2.2,99.2,4.35c5.23,2.73,8.71,8.57,9.84,15.94,1.41,7.23.47,16,3.18,21.51,5,11.28,13.59,15.14.29,29.07-10.38,11.76-42.68,33.6-52,31-6.53-.11-10.4-3.46-16.36-7.05-5.67-3.7-13.43-7.65-20.7-11.33C7,75.84-1.08,69.69,2.43,56.24,4.56,44,10.54,20.07,23.94,12.55c12.46-9.69,32.32-3,40.61-4.06h0Z"/></g><path d="M64.55,8.49C73.46,7.54,88.18-2.2,99.2,4.35c5.23,2.73,8.71,8.57,9.84,15.94,1.41,7.23.47,16,3.18,21.51,5,11.28,13.59,15.14.29,29.07-10.38,11.76-42.68,33.6-52,31-6.53-.11-10.4-3.46-16.36-7.05-5.67-3.7-13.43-7.65-20.7-11.33C7,75.84-1.08,69.69,2.43,56.24,4.56,44,10.54,20.07,23.94,12.55c12.46-9.69,32.32-3,40.61-4.06h0Z" style="fill:none;stroke:#fff;stroke-opacity:0.23000000417232513;stroke-width:2.5999999046325684px"/><path d="M64.55,8.49C73.46,7.54,88.18-2.2,99.2,4.35c5.23,2.73,8.71,8.57,9.84,15.94,1.41,7.23.47,16,3.18,21.51,5,11.28,13.59,15.14.29,29.07-10.38,11.76-42.68,33.6-52,31-6.53-.11-10.4-3.46-16.36-7.05-5.67-3.7-13.43-7.65-20.7-11.33C7,75.84-1.08,69.69,2.43,56.24,4.56,44,10.54,20.07,23.94,12.55c12.46-9.69,32.32-3,40.61-4.06h0Z" style="fill:#fff;fill-opacity:0.23000000417232513"/><path d="M64.55,8.49C73.46,7.54,88.18-2.2,99.2,4.35c5.23,2.73,8.71,8.57,9.84,15.94,1.41,7.23.47,16,3.18,21.51,5,11.28,13.59,15.14.29,29.07-10.38,11.76-42.68,33.6-52,31-6.53-.11-10.4-3.46-16.36-7.05-5.67-3.7-13.43-7.65-20.7-11.33C7,75.84-1.08,69.69,2.43,56.24,4.56,44,10.54,20.07,23.94,12.55c12.46-9.69,32.32-3,40.61-4.06h0Z" style="fill:#fff"/></svg>