<svg xmlns="http://www.w3.org/2000/svg" width="134" height="116" viewBox="0 0 134 116"><defs><mask id="1y8ub" width="2.02" height="2.03" x="-1.01" y="-1.01"><path fill="#fff" d="M6.7 3.7h120.6v102.6H6.7z"/><path d="M70.952 11.412c8.91-.948 23.627-10.688 34.65-4.144 5.23 2.729 8.708 8.57 9.84 15.937 1.407 7.234.468 15.99 3.18 21.507 4.973 11.284 13.593 15.141.288 29.066-10.38 11.766-42.682 33.598-52.022 30.975-6.533-.11-10.396-3.458-16.36-7.054-5.666-3.7-13.434-7.647-20.7-11.331C13.41 78.758 5.32 72.614 8.834 59.165c2.125-12.259 8.113-36.174 21.507-43.69 12.458-9.686 32.323-2.973 40.612-4.063z"/></mask><filter id="1y8ua" width="158" height="143" x="-12" y="-15" filterUnits="userSpaceOnUse"><feOffset dy="3" in="SourceGraphic" result="FeOffset1023Out"/><feGaussianBlur in="FeOffset1023Out" result="FeGaussianBlur1024Out" stdDeviation="3.4799999999999995 3.4799999999999995"/></filter></defs><g><g><g filter="url(#1y8ua)"><path fill="none" stroke="#fd3712" stroke-opacity=".23" stroke-width="2.6" d="M70.952 11.412c8.91-.948 23.627-10.688 34.65-4.144 5.23 2.729 8.708 8.57 9.84 15.937 1.407 7.234.468 15.99 3.18 21.507 4.973 11.284 13.593 15.141.288 29.066-10.38 11.766-42.682 33.598-52.022 30.975-6.533-.11-10.396-3.458-16.36-7.054-5.666-3.7-13.434-7.647-20.7-11.331C13.41 78.758 5.32 72.614 8.834 59.165c2.125-12.259 8.113-36.174 21.507-43.69 12.458-9.686 32.323-2.973 40.612-4.063z" mask="url(&quot;#1y8ub&quot;)"/><path fill="#fd3712" fill-opacity=".23" d="M70.952 11.412c8.91-.948 23.627-10.688 34.65-4.144 5.23 2.729 8.708 8.57 9.84 15.937 1.407 7.234.468 15.99 3.18 21.507 4.973 11.284 13.593 15.141.288 29.066-10.38 11.766-42.682 33.598-52.022 30.975-6.533-.11-10.396-3.458-16.36-7.054-5.666-3.7-13.434-7.647-20.7-11.331C13.41 78.758 5.32 72.614 8.834 59.165c2.125-12.259 8.113-36.174 21.507-43.69 12.458-9.686 32.323-2.973 40.612-4.063z"/></g><path fill="#fff" d="M70.952 11.412c8.91-.948 23.627-10.688 34.65-4.144 5.23 2.729 8.708 8.57 9.84 15.937 1.407 7.234.468 15.99 3.18 21.507 4.973 11.284 13.593 15.141.288 29.066-10.38 11.766-42.682 33.598-52.022 30.975-6.533-.11-10.396-3.458-16.36-7.054-5.666-3.7-13.434-7.647-20.7-11.331C13.41 78.758 5.32 72.614 8.834 59.165c2.125-12.259 8.113-36.174 21.507-43.69 12.458-9.686 32.323-2.973 40.612-4.063z"/></g></g></svg>