<?xml version="1.0" encoding="utf-8"?><svg xmlns="http://www.w3.org/2000/svg" xmlns:xlink="http://www.w3.org/1999/xlink"><symbol viewBox="0 0 86.67 86.67" id="advantages-circle" xmlns="http://www.w3.org/2000/svg"><defs><clipPath id="aa"><path d="M0 0h86.67v86.67H0z"/></clipPath></defs><g clip-path="url(#aa)" stroke-linecap="round" stroke-linejoin="round" stroke-width="1.5"><circle cx="43.33" cy="43.33" r="42.58"/><circle cx="43.33" cy="43.33" r="34.79"/><circle cx="43.33" cy="43.33" r="24.47"/><circle cx="43.33" cy="43.33" r="15.77"/></g></symbol><symbol viewBox="0 0 155.89 127.78" id="advantages-spot" xmlns="http://www.w3.org/2000/svg"><defs><clipPath id="ba" transform="translate(4.9)"><path d="M13.9 8.15C7.5 14.4 5.11 34.81 7 43.56 14.47 78.65-4.9 81.47 1.21 106c3.12 12.49 11.93 21.8 27.37 19.86 19.56-2.46 33.11-16 52.83-15.93a156.42 156.42 0 0126.95 2.7c22.06 3.91 40.51-14.6 41.51-34 1.11-21.52-14.78-34.84-28.07-38.54-8.49-2.36-35.54-8.66-43.1-12.45C64.28 20.41 48.54 0 31.49 0 25.78 0 19.91 2.3 13.9 8.15"/></clipPath></defs><g clip-path="url(#ba)"><path d="M0 0h155.89v127.78H0z"/></g></symbol><symbol viewBox="0 0 306 188.7" id="arrow" xmlns="http://www.w3.org/2000/svg"><path d="M306 35.7L270.3 0 153 117.3 35.7 0 0 35.7l153 153 153-153z"/></symbol><symbol viewBox="0 0 268.83 185" id="arrow-blog" xmlns="http://www.w3.org/2000/svg"><defs><clipPath id="da"><path d="M0 0h268.83v185H0z"/></clipPath></defs><g clip-path="url(#da)"><path d="M265.17 83.66l-80-80a12.502 12.502 0 00-17.68 17.68L226.15 80H12.5a12.5 12.5 0 000 25h213.65l-58.66 58.66a12.502 12.502 0 0017.68 17.68l80-80a12.5 12.5 0 000-17.68"/></g></symbol><symbol viewBox="0 0 512.008 512.008" id="arrow-right_slider" xmlns="http://www.w3.org/2000/svg"><path d="M381.048 248.633L146.381 3.299C143.36.153 138.735-.868 134.693.778a10.655 10.655 0 00-6.688 9.896v42.667c0 2.729 1.042 5.354 2.917 7.333l185.063 195.333-185.062 195.334a10.659 10.659 0 00-2.917 7.333v42.667c0 4.354 2.646 8.281 6.688 9.896a10.64 10.64 0 003.979.771c2.854 0 5.646-1.146 7.708-3.292l234.667-245.333c3.938-4.125 3.938-10.625 0-14.75z"/></symbol><symbol viewBox="0 0 356.95 357.89" id="call" xmlns="http://www.w3.org/2000/svg"><path d="M340.273 275.083l-53.755-53.761c-10.707-10.664-28.438-10.34-39.518.744l-27.082 27.076a792.327 792.327 0 01-5.344-2.973c-17.102-9.476-40.509-22.464-65.14-47.113-24.704-24.701-37.704-48.144-47.209-65.257-1.003-1.813-1.964-3.561-2.913-5.221l18.176-18.149 8.936-8.947c11.097-11.1 11.403-28.826.721-39.521L73.39 8.194c-10.682-10.68-28.421-10.356-39.518.744l-15.15 15.237.414.411c-5.08 6.482-9.325 13.958-12.484 22.02C3.74 54.28 1.927 61.603 1.098 68.941-6 127.785 20.89 181.564 93.866 254.541c100.875 100.868 182.167 93.248 185.674 92.876 7.638-.913 14.958-2.738 22.397-5.627 7.992-3.122 15.463-7.361 21.941-12.43l.331.294 15.348-15.029c11.074-11.098 11.393-28.83.716-39.542z"/></symbol><symbol viewBox="0 0 512 512" id="clock" xmlns="http://www.w3.org/2000/svg"><path d="M437.02 74.981C388.668 26.629 324.38 0 256 0S123.332 26.629 74.98 74.981C26.628 123.333 0 187.62 0 256s26.628 132.668 74.98 181.019C123.332 485.37 187.62 512 256 512s132.668-26.629 181.02-74.981C485.372 388.667 512 324.38 512 256s-26.628-132.668-74.98-181.019zM256 461.752c-113.453 0-205.752-92.3-205.752-205.752 0-.186.006-.37.007-.554 0-.047-.007-.092-.007-.139 0-.079.01-.155.012-.233.499-112.093 91.086-203.29 202.944-204.79.234-.011.466-.035.703-.035.142 0 .28.017.421.021.558-.004 1.114-.021 1.673-.021 113.453 0 205.752 92.3 205.752 205.752S369.453 461.752 256 461.752z"/><path d="M412.287 268.36c-8.366 0-15.148-6.782-15.148-15.148s6.782-15.148 15.148-15.148h18.259c-8.576-84.076-76.762-150.773-161.492-157.035v15.895c0 8.366-6.782 15.148-15.148 15.148s-15.148-6.782-15.148-15.148V81.391c-83.476 8.18-149.969 75.102-157.492 158.766h16.352c8.366 0 15.148 6.782 15.148 15.148s-6.782 15.148-15.148 15.148H81.142c6.965 85.011 74.791 153.045 159.71 160.342v-19.203c0-8.366 6.782-15.148 15.148-15.148s15.148 6.782 15.148 15.148v19.203c85.614-7.357 153.853-76.451 159.867-162.435h-18.728zm-94.967-52.258l-50.608 50.609a15.146 15.146 0 01-21.422 0l-88.093-88.093c-5.916-5.915-5.916-15.506 0-21.422 5.915-5.916 15.506-5.916 21.422 0l77.383 77.382L295.9 194.68c5.915-5.916 15.506-5.916 21.422 0 5.914 5.915 5.914 15.507-.002 21.422z"/></symbol><symbol viewBox="0 0 370.85 512" id="map" xmlns="http://www.w3.org/2000/svg"><defs><clipPath id="ha"><path d="M0 0h370.85v512H0z"/></clipPath></defs><g clip-path="url(#ha)"><path d="M185.43 0C83.18 0 0 83.18 0 185.43c0 126.89 165.94 313.17 173 321a16.7 16.7 0 0024.85 0c7.07-7.87 173-194.15 173-321C370.85 83.18 287.67 0 185.43 0m0 278.72a93.29 93.29 0 1193.29-93.29 93.4 93.4 0 01-93.29 93.29"/></g></symbol><symbol viewBox="0 0 550.8 432.77" id="message" xmlns="http://www.w3.org/2000/svg"><defs><clipPath id="ia"><path d="M0 0h550.79v432.77H0z"/></clipPath></defs><g clip-path="url(#ia)"><path d="M501.61 432.77a47.08 47.08 0 0032.23-12.16l-156-156.06c-3.74 2.68-7.37 5.29-10.8 7.77q-17.52 12.9-28.43 20.13t-29 14.75q-18.14 7.53-33.81 7.53h-.61q-15.68 0-33.81-7.53t-29-14.75q-10.92-7.22-28.43-20.13c-3.26-2.39-6.87-5-10.77-7.81L16.95 420.61a47.09 47.09 0 0032.23 12.16h452.43zM31 166.29a163 163 0 01-31-26.75V377l137.54-137.57Q96.27 210.61 31 166.29m489.06 0q-62.8 42.5-106.75 73.19L550.79 377V139.54a169.56 169.56 0 01-30.74 26.74"/><path d="M501.61 0H49.18Q25.51 0 12.76 16T0 55.94q0 19.36 16.9 42t36 35.5q10.45 7.38 63 43.8c18.92 13.11 35.37 24.54 49.5 34.4 12.05 8.39 22.44 15.67 31 21.7 1 .69 2.53 1.8 4.59 3.27l8.48 6.11q10 7.22 16.6 11.68t16 10a93.25 93.25 0 0017.67 8.3 48.91 48.91 0 0015.37 2.77h.61a48.92 48.92 0 0015.37-2.77 93 93 0 0017.67-8.3q9.37-5.54 16-10t16.6-11.68c3.45-2.5 6.25-4.52 8.47-6.1 2.06-1.48 3.61-2.58 4.6-3.27l31.1-21.62q38.22-26.56 112.74-78.28a146.19 146.19 0 0037.5-37.8q15-22.12 15.05-46.41a47.16 47.16 0 00-14.6-34.74Q521.59 0 501.61 0"/></g></symbol></svg>