<svg xmlns="http://www.w3.org/2000/svg" width="127" height="111" viewBox="0 0 127 111"><defs><mask id="m681b" width="2.03" height="2.04" x="-1.02" y="-1.02"><path fill="#fff" d="M9.3 6.3h108.4v92.4H9.3z"/><path d="M67.006 13.705c7.933-.844 21.035-9.515 30.848-3.69 4.657 2.43 7.754 7.63 8.762 14.188 1.252 6.44.417 14.237 2.831 19.148 4.428 10.045 12.101 13.48.257 25.877-9.242 10.475-38.001 29.912-46.316 27.576-5.817-.097-9.255-3.078-14.566-6.28-5.044-3.294-11.96-6.809-18.428-10.088-14.619-6.775-21.82-12.245-18.693-24.217 1.893-10.914 7.224-32.206 19.148-38.898 11.092-8.622 28.777-2.646 36.157-3.616z"/></mask><filter id="m681a" width="151" height="138" x="-12" y="-15" filterUnits="userSpaceOnUse"><feOffset dy="3" in="SourceGraphic" result="FeOffset1043Out"/><feGaussianBlur in="FeOffset1043Out" result="FeGaussianBlur1044Out" stdDeviation="4.5200000000000005 4.5200000000000005"/></filter></defs><g><g><g filter="url(#m681a)"><path fill="none" stroke="#878787" stroke-opacity=".23" stroke-width="3.4" d="M67.006 13.705c7.933-.844 21.035-9.515 30.848-3.69 4.657 2.43 7.754 7.63 8.762 14.188 1.252 6.44.417 14.237 2.831 19.148 4.428 10.045 12.101 13.48.257 25.877-9.242 10.475-38.001 29.912-46.316 27.576-5.817-.097-9.255-3.078-14.566-6.28-5.044-3.294-11.96-6.809-18.428-10.088-14.619-6.775-21.82-12.245-18.693-24.217 1.893-10.914 7.224-32.206 19.148-38.898 11.092-8.622 28.777-2.646 36.157-3.616z" mask="url(&quot;#m681b&quot;)"/><path fill="#878787" fill-opacity=".23" d="M67.006 13.705c7.933-.844 21.035-9.515 30.848-3.69 4.657 2.43 7.754 7.63 8.762 14.188 1.252 6.44.417 14.237 2.831 19.148 4.428 10.045 12.101 13.48.257 25.877-9.242 10.475-38.001 29.912-46.316 27.576-5.817-.097-9.255-3.078-14.566-6.28-5.044-3.294-11.96-6.809-18.428-10.088-14.619-6.775-21.82-12.245-18.693-24.217 1.893-10.914 7.224-32.206 19.148-38.898 11.092-8.622 28.777-2.646 36.157-3.616z"/></g><path fill="#fff" d="M67.006 13.705c7.933-.844 21.035-9.515 30.848-3.69 4.657 2.43 7.754 7.63 8.762 14.188 1.252 6.44.417 14.237 2.831 19.148 4.428 10.045 12.101 13.48.257 25.877-9.242 10.475-38.001 29.912-46.316 27.576-5.817-.097-9.255-3.078-14.566-6.28-5.044-3.294-11.96-6.809-18.428-10.088-14.619-6.775-21.82-12.245-18.693-24.217 1.893-10.914 7.224-32.206 19.148-38.898 11.092-8.622 28.777-2.646 36.157-3.616z"/></g></g></svg>