<svg xmlns="http://www.w3.org/2000/svg" width="135" height="117" viewBox="0 0 135 117"><defs><mask id="2lzcb" width="2.02" height="2.03" x="-1.01" y="-1.01"><path fill="#fff" d="M6.7 3.7h121.6v103.6H6.7z"/><path d="M71.25 12.189c8.911-.948 23.628-10.687 34.65-4.144 5.23 2.729 8.708 8.57 9.84 15.937 1.408 7.234.469 15.99 3.18 21.507 4.974 11.283 13.593 15.141.29 29.066-10.38 11.766-42.684 33.598-52.024 30.975-6.533-.11-10.395-3.458-16.36-7.054-5.666-3.7-13.434-7.648-20.699-11.331-16.42-7.61-24.508-13.754-20.996-27.202 2.126-12.259 8.114-36.175 21.507-43.692 12.46-9.685 32.323-2.972 40.613-4.062z"/></mask><filter id="2lzca" width="159" height="144" x="-12" y="-15" filterUnits="userSpaceOnUse"><feOffset dy="3" in="SourceGraphic" result="FeOffset1063Out"/><feGaussianBlur in="FeOffset1063Out" result="FeGaussianBlur1064Out" stdDeviation="3.4799999999999995 3.4799999999999995"/></filter></defs><g><g><g filter="url(#2lzca)"><path fill="none" stroke="#fd3712" stroke-opacity=".23" stroke-width="2.6" d="M71.25 12.189c8.911-.948 23.628-10.687 34.65-4.144 5.23 2.729 8.708 8.57 9.84 15.937 1.408 7.234.469 15.99 3.18 21.507 4.974 11.283 13.593 15.141.29 29.066-10.38 11.766-42.684 33.598-52.024 30.975-6.533-.11-10.395-3.458-16.36-7.054-5.666-3.7-13.434-7.648-20.699-11.331-16.42-7.61-24.508-13.754-20.996-27.202 2.126-12.259 8.114-36.175 21.507-43.692 12.46-9.685 32.323-2.972 40.613-4.062z" mask="url(&quot;#2lzcb&quot;)"/><path fill="#fd3712" fill-opacity=".23" d="M71.25 12.189c8.911-.948 23.628-10.687 34.65-4.144 5.23 2.729 8.708 8.57 9.84 15.937 1.408 7.234.469 15.99 3.18 21.507 4.974 11.283 13.593 15.141.29 29.066-10.38 11.766-42.684 33.598-52.024 30.975-6.533-.11-10.395-3.458-16.36-7.054-5.666-3.7-13.434-7.648-20.699-11.331-16.42-7.61-24.508-13.754-20.996-27.202 2.126-12.259 8.114-36.175 21.507-43.692 12.46-9.685 32.323-2.972 40.613-4.062z"/></g><path fill="#fff" d="M71.25 12.189c8.911-.948 23.628-10.687 34.65-4.144 5.23 2.729 8.708 8.57 9.84 15.937 1.408 7.234.469 15.99 3.18 21.507 4.974 11.283 13.593 15.141.29 29.066-10.38 11.766-42.684 33.598-52.024 30.975-6.533-.11-10.395-3.458-16.36-7.054-5.666-3.7-13.434-7.648-20.699-11.331-16.42-7.61-24.508-13.754-20.996-27.202 2.126-12.259 8.114-36.175 21.507-43.692 12.46-9.685 32.323-2.972 40.613-4.062z"/></g></g></svg>