<svg id="Bold" xmlns="http://www.w3.org/2000/svg" viewBox="0 0 511.98 298.67"><title>vk</title><path d="M424.85,171.26c-8.28-10.45-5.91-15.1,0-24.45,0.11-.11,68.44-94.53,75.48-126.55l0,0C503.87,8.58,500.37,0,483.46,0h-56c-14.25,0-20.82,7.36-24.34,15.59,0,0-28.5,68.22-68.82,112.45-13,12.78-19,16.87-26.13,16.87-3.5,0-8.94-4.1-8.94-15.77V20.25c0-14-4-20.25-15.79-20.25h-88c-8.94,0-14.25,6.53-14.25,12.61,0,13.27,20.16,16.32,22.25,53.65v81c0,17.75-3.22,21-10.37,21-19,0-65.22-68.5-92.59-146.9C95,6.17,89.56,0,75.2,0h-56C3.22,0,0,7.38,0,15.62c0,14.55,19,86.89,88.49,182.46C134.78,263.32,200,298.67,259.29,298.67c35.65,0,40-7.85,40-21.35,0-62.34-3.22-68.22,14.63-68.22,8.28,0,22.53,4.1,55.81,35.56,38,37.31,44.29,54,65.58,54h56c16,0,24-7.85,19.39-23.34C500,242.75,428.1,175.74,424.85,171.26Z" transform="translate(0)"/></svg>