<svg id="Слой_1" data-name="Слой 1" xmlns="http://www.w3.org/2000/svg" viewBox="0 0 639.37 447.66"><title>yt</title><path d="M626.18,70a80.1,80.1,0,0,0-56.35-56.36C519.8,0,319.66,0,319.66,0S119.53,0,69.5,13.17C42.64,20.54,20.51,42.66,13.15,70,0,120.08,0,223.83,0,223.83S0,328.11,13.15,377.62A80.11,80.11,0,0,0,69.5,434c50.56,13.69,250.17,13.69,250.17,13.69s200.13,0,250.16-13.17a80.11,80.11,0,0,0,56.36-56.35c13.16-50,13.16-153.78,13.16-153.78S639.88,120.08,626.18,70ZM255.94,319.68V128l166.42,95.85Z" transform="translate(0.02)"/></svg>