<svg id="Слой_1" data-name="Слой 1" xmlns="http://www.w3.org/2000/svg" xmlns:xlink="http://www.w3.org/1999/xlink" viewBox="0 0 550.8 432.77"><defs><clipPath id="clip-path" transform="translate(0)"><rect width="550.79" height="432.77" style="fill:none"/></clipPath></defs><title>message</title><g style="clip-path:url(#clip-path)"><path d="M501.61,432.77a47.08,47.08,0,0,0,32.23-12.16l-156-156.06c-3.74,2.68-7.37,5.29-10.8,7.77q-17.52,12.9-28.43,20.13t-29,14.75q-18.14,7.53-33.81,7.53h-0.61q-15.68,0-33.81-7.53t-29-14.75q-10.92-7.22-28.43-20.13c-3.26-2.39-6.87-5-10.77-7.81L16.95,420.61a47.09,47.09,0,0,0,32.23,12.16H501.61Z" transform="translate(0)"/><path d="M31,166.29A163,163,0,0,1,0,139.54V377L137.54,239.43Q96.27,210.61,31,166.29" transform="translate(0)"/><path d="M520.06,166.29q-62.8,42.5-106.75,73.19L550.79,377V139.54a169.56,169.56,0,0,1-30.74,26.74" transform="translate(0)"/><path d="M501.61,0H49.18Q25.51,0,12.76,16T0,55.94q0,19.36,16.9,42t36,35.5q10.45,7.38,63,43.8c18.92,13.11,35.37,24.54,49.5,34.4,12.05,8.39,22.44,15.67,31,21.7,1,0.69,2.53,1.8,4.59,3.27l8.48,6.11q10,7.22,16.6,11.68t16,10a93.25,93.25,0,0,0,17.67,8.3,48.91,48.91,0,0,0,15.37,2.77h0.61a48.92,48.92,0,0,0,15.37-2.77,93,93,0,0,0,17.67-8.3q9.37-5.54,16-10t16.6-11.68c3.45-2.5,6.25-4.52,8.47-6.1,2.06-1.48,3.61-2.58,4.6-3.27l31.1-21.62q38.22-26.56,112.74-78.28a146.19,146.19,0,0,0,37.5-37.8q15-22.12,15.05-46.41a47.16,47.16,0,0,0-14.6-34.74Q521.59,0,501.61,0" transform="translate(0)"/></g></svg>