<svg xmlns="http://www.w3.org/2000/svg" width="32" height="32" viewBox="0 0 32 32"><g><g><path fill="#ffe44c" d="M31.063 30.18a.937.937 0 1 1 0 1.875H.937a.937.937 0 1 1 0-1.876h.99A33.128 33.128 0 0 0 .54 21.467l-.438-1.461a.939.939 0 0 1 1.435-1.038l.618.433a14.136 14.136 0 0 1 3.808 3.976 35.82 35.82 0 0 0-3.914-11.95.939.939 0 0 1 1.388-1.196 26.077 26.077 0 0 1 8.045 10.012A58.621 58.621 0 0 0 5.786 1.396.938.938 0 0 1 7.288.313l.125.126A42.958 42.958 0 0 1 16 12.696 42.939 42.939 0 0 1 24.587.44l.125-.126a.938.938 0 0 1 1.501 1.083 58.626 58.626 0 0 0-5.695 18.847 26.078 26.078 0 0 1 8.045-10.012.937.937 0 0 1 1.388 1.195 35.81 35.81 0 0 0-3.914 11.95c.984-1.541 2.27-2.899 3.808-3.975l.618-.433a.936.936 0 0 1 1.435 1.038l-.438 1.461a33.128 33.128 0 0 0-1.386 8.712zm-1.784-7.864a12.293 12.293 0 0 0-3.565 7.863h2.483a35.007 35.007 0 0 1 1.082-7.863zm-2.927-7.546c-3.815 4.2-6.08 9.682-6.276 15.41h3.736v-1.836c0-4.639.87-9.256 2.54-13.574zm-4.278-8.582a41.124 41.124 0 0 0-5.06 8.857 43.33 43.33 0 0 1 1.637 4.979 60.238 60.238 0 0 1 1.145-6.383 60.24 60.24 0 0 1 2.278-7.453zM9.92 6.173a60.221 60.221 0 0 1 3.892 21.293v2.713h4.368c-.168-8.774-3.055-17.1-8.26-24.006zM5.648 14.77a37.704 37.704 0 0 1 2.54 13.574v1.835h3.735c-.196-5.727-2.46-11.21-6.275-15.409zM2.72 22.316a35.007 35.007 0 0 1 1.082 7.863h2.482a12.292 12.292 0 0 0-3.564-7.863z"/></g></g></svg>