<svg xmlns="http://www.w3.org/2000/svg" width="33" height="32" viewBox="0 0 33 32"><g><g><path fill="#ffe44c" d="M32.444 30.937a.936.936 0 0 1-.931 1.056H1.363a.939.939 0 0 1-.936-1.006L1.74 13.182a.939.939 0 0 1 .285-.607l3.768-3.62L6.88.819a.938.938 0 0 1 .93-.813h7.038c.482 0 .886.365.933.845l1.193 11.962h2.191l5.613-1.703a.939.939 0 0 1 1.147.555l2.429 6.187 2.165 1.165a.939.939 0 0 1 .486.706zm-30.072-.819h9.145l1.75-8.436a.936.936 0 0 1 .378-.576l3.55-2.502.925-3.916h-1.995a.939.939 0 0 1-.934-.845L14.142 3.326 12.58 5.28v6.075a.938.938 0 0 1-1.877 0V4.952c0-.213.073-.42.206-.585l1.988-2.487H8.632L7.609 9.527a.937.937 0 0 1-.28.551l-3.27 3.143L7.05 15.86a.937.937 0 1 1-1.242 1.405l-2.335-2.06zm21.76 0v-8.246c0-.204.066-.401.189-.564l2.22-2.94-2.047-5.213-4.4 1.336-1.153 4.889a.937.937 0 0 1-.373.55l-2.724 1.92 2.615 1.741a.936.936 0 0 1 .418.78v3.124a.937.937 0 0 1-1.877 0v-2.623l-2.178-1.45-1.389 6.697zm6.314 0l-1.241-9.68-1.335-.717-1.862 2.465v7.933zM28.698 7.504a3.755 3.755 0 0 1-3.753-3.749A3.755 3.755 0 0 1 28.698.006a3.755 3.755 0 0 1 3.753 3.748 3.755 3.755 0 0 1-3.753 3.749zm0-5.623a1.878 1.878 0 0 0-1.877 1.874 1.877 1.877 0 0 0 3.753 0 1.878 1.878 0 0 0-1.876-1.874z"/></g></g></svg>