<svg xmlns="http://www.w3.org/2000/svg" width="32" height="32" viewBox="0 0 32 32"><g><g><path fill="#ffe44c" d="M30.125 18.265A8.398 8.398 0 0 1 32 23.562c0 4.652-3.785 8.437-8.438 8.437a8.436 8.436 0 0 1-7.012-3.75H.937A.938.938 0 0 1 0 27.312V2.875c0-.518.42-.938.937-.938h4.75v-1a.938.938 0 1 1 1.875 0v1h3.75v-1a.938.938 0 1 1 1.875 0v1h3.75v-1a.938.938 0 1 1 1.875 0v1h3.75v-1a.938.938 0 1 1 1.875 0v1h4.75c.518 0 .938.42.938.938zM1.875 3.812v3.75H28.25v-3.75h-3.813v.937a.938.938 0 1 1-1.875 0v-.937h-3.75v.937a.938.938 0 1 1-1.875 0v-.937h-3.75v.937a.938.938 0 1 1-1.875 0v-.937h-3.75v.937a.938.938 0 1 1-1.875 0v-.937zm13.733 22.563a8.352 8.352 0 0 1-.43-1.876h-.99a.937.937 0 1 1 0-1.874h.99c.071-.65.218-1.279.43-1.875h-1.42a.938.938 0 0 1 0-1.875h1.874c.152 0 .295.036.422.1a8.438 8.438 0 0 1 7.078-3.85 8.39 8.39 0 0 1 4.688 1.425V9.437H1.875v16.938zm7.954 3.75a6.57 6.57 0 0 0 6.563-6.563A6.57 6.57 0 0 0 23.562 17 6.57 6.57 0 0 0 17 23.562a6.57 6.57 0 0 0 6.562 6.562zm3.75-7.5a.937.937 0 1 1 0 1.874h-3.75a.937.937 0 0 1-.937-.937v-3.75a.937.937 0 0 1 1.875 0v2.813zM8.5 11.375a.938.938 0 0 1 0 1.874H6.625a.937.937 0 1 1 0-1.875zm0 3.75A.938.938 0 0 1 8.5 17H6.625a.938.938 0 0 1 0-1.876zm0 3.75a.938.938 0 0 1 0 1.875H6.625a.938.938 0 0 1 0-1.876zm5.687-5.626a.937.937 0 1 1 0-1.875h1.875a.938.938 0 0 1 0 1.875zm0 3.75a.938.938 0 0 1 0-1.875h1.875a.937.937 0 1 1 0 1.876zM8.5 22.626a.938.938 0 0 1 0 1.874H6.625a.937.937 0 1 1 0-1.874zm13.187-9.376a.937.937 0 1 1 0-1.875h1.875a.938.938 0 0 1 0 1.875z"/></g></g></svg>