<svg xmlns="http://www.w3.org/2000/svg" xmlns:xlink="http://www.w3.org/1999/xlink" viewBox="0 0 62.51 58.64"><defs><linearGradient id="linear-gradient" x1="5.57" y1="45.27" x2="47.9" y2="2.94" gradientUnits="userSpaceOnUse"><stop offset="0" stop-color="#008200"/><stop offset="1" stop-color="#77c600"/></linearGradient><linearGradient id="linear-gradient-2" x1="29.58" y1="69.28" x2="71.91" y2="26.95" xlink:href="#linear-gradient"/><linearGradient id="linear-gradient-3" x1="-0.63" y1="39.07" x2="41.7" y2="-3.26" xlink:href="#linear-gradient"/><linearGradient id="linear-gradient-4" x1="-1.51" y1="38.19" x2="40.82" y2="-4.14" xlink:href="#linear-gradient"/><linearGradient id="linear-gradient-5" x1="24.65" y1="64.35" x2="66.98" y2="22.02" xlink:href="#linear-gradient"/><linearGradient id="linear-gradient-6" x1="10.82" y1="51.69" x2="54.4" y2="8.11" xlink:href="#linear-gradient"/></defs><title>advantages-wrap-icon</title><g style="isolation:isolate"><g id="Layer_1" data-name="Layer 1"><g style="opacity:0.30000000000000004;mix-blend-mode:multiply"><circle cx="22.84" cy="39.67" r="17" style="fill:#fff"/><circle cx="23.11" cy="39.4" r="17" style="fill:#f7f7f7"/><circle cx="23.38" cy="39.13" r="17" style="fill:#efefef"/><circle cx="23.65" cy="38.86" r="17" style="fill:#e6e6e6"/><circle cx="23.92" cy="38.59" r="17" style="fill:#dedede"/><circle cx="24.2" cy="38.32" r="17" style="fill:#d6d6d6"/><circle cx="24.47" cy="38.04" r="17" style="fill:#cecece"/><circle cx="24.74" cy="37.77" r="17" style="fill:#c5c5c5"/><circle cx="25.01" cy="37.5" r="17" style="fill:#bdbdbd"/><circle cx="25.28" cy="37.23" r="17" style="fill:#b5b5b5"/><circle cx="25.55" cy="36.96" r="17" style="fill:#adadad"/><circle cx="25.83" cy="36.69" r="17" style="fill:#a5a5a5"/><circle cx="26.1" cy="36.42" r="17" style="fill:#9c9c9c"/><circle cx="26.37" cy="36.14" r="17" style="fill:#949494"/><circle cx="26.64" cy="35.87" r="17" style="fill:#8c8c8c"/><circle cx="26.91" cy="35.6" r="17" style="fill:#848484"/><circle cx="27.18" cy="35.33" r="17" style="fill:#7b7b7b"/><circle cx="27.45" cy="35.06" r="17" style="fill:#737373"/><circle cx="27.73" cy="34.79" r="17" style="fill:#6b6b6b"/><circle cx="28" cy="34.51" r="17" style="fill:#636363"/><circle cx="28.27" cy="34.24" r="17" style="fill:#5a5a5a"/><circle cx="28.54" cy="33.97" r="17" style="fill:#525252"/><circle cx="28.81" cy="33.7" r="17" style="fill:#4a4a4a"/><circle cx="29.08" cy="33.43" r="17" style="fill:#424242"/><circle cx="29.36" cy="33.16" r="17" style="fill:#3a3a3a"/><circle cx="29.63" cy="32.89" r="17" style="fill:#313131"/><circle cx="29.9" cy="32.61" r="17" style="fill:#292929"/><circle cx="30.17" cy="32.34" r="17" style="fill:#212121"/><circle cx="30.44" cy="32.07" r="17" style="fill:#191919"/><circle cx="30.71" cy="31.8" r="17" style="fill:#101010"/><circle cx="30.98" cy="31.53" r="17" style="fill:#080808"/><circle cx="31.26" cy="31.26" r="17"/></g><path d="M2.77,31.26q0-.86.05-1.71l-2.77-.16Q0,30.31,0,31.26A31.13,31.13,0,0,0,14.56,57.68L16,55.34A28.37,28.37,0,0,1,2.77,31.26Z" style="fill:url(#linear-gradient)"/><path d="M59.74,31.26A28.51,28.51,0,0,1,45,56.21l1.34,2.43A31.29,31.29,0,0,0,62.51,31.26H59.74Z" style="fill:url(#linear-gradient-2)"/><path d="M49.51,5.88A31.29,31.29,0,0,0,17.84,3L19,5.52A28.52,28.52,0,0,1,47.89,8.13Z" style="fill:url(#linear-gradient-3)"/><path d="M35.41,10L35.94,7.3a24.47,24.47,0,0,0-29.05,22l2.76,0.22A21.7,21.7,0,0,1,35.41,10Z" style="fill:url(#linear-gradient-4)"/><path d="M52.7,28.19A21.7,21.7,0,0,1,34.37,52.75a22.23,22.23,0,0,1-2.42.22L32,55.73a24.8,24.8,0,0,0,2.73-.24,24.47,24.47,0,0,0,20.68-27.7Z" style="fill:url(#linear-gradient-5)"/><circle cx="31.26" cy="31.26" r="17" style="fill:url(#linear-gradient-6)"/><path d="M31.26,50A18.73,18.73,0,1,1,50,31.26,18.75,18.75,0,0,1,31.26,50Zm0-34A15.26,15.26,0,1,0,46.52,31.26,15.28,15.28,0,0,0,31.26,16Z" style="fill:#fff"/></g></g></svg>