<svg xmlns="http://www.w3.org/2000/svg" width="25" height="33" viewBox="0 0 25 33"><g><g><path fill="#ffe44c" d="M24.658 12.004c.37.385.37.995 0 1.38l-2.425 2.515.489 3.466a.992.992 0 0 1-.809 1.116l-2.748.484v10.73a.992.992 0 0 1-1.43.888l-5.33-2.674-5.328 2.674a.979.979 0 0 1-.961-.044.992.992 0 0 1-.47-.843v-10.73l-2.748-.485a.992.992 0 0 1-.808-1.116l.488-3.466-2.425-2.515a.995.995 0 0 1 0-1.38l2.425-2.515-.488-3.466a.992.992 0 0 1 .808-1.116l3.434-.604 1.634-3.092A.988.988 0 0 1 9.273.784l3.133 1.537L15.538.784a.987.987 0 0 1 1.307.427l1.635 3.092 3.433.604a.992.992 0 0 1 .809 1.116l-.489 3.466zm-7.47 18.087v-6.562l-.343.649a.987.987 0 0 1-1.307.426l-3.132-1.538-3.133 1.538a.986.986 0 0 1-1.307-.426l-.343-.65v6.563l4.34-2.179a.987.987 0 0 1 .885 0zm5.383-17.397l-2.095-2.175a.994.994 0 0 1-.268-.828l.422-2.996-2.968-.521a.991.991 0 0 1-.702-.512l-1.413-2.673-2.707 1.328a.985.985 0 0 1-.868 0L9.264 2.989 7.852 5.662a.992.992 0 0 1-.703.512l-2.968.522.422 2.995a.996.996 0 0 1-.268.828l-2.096 2.175 2.096 2.174c.211.22.31.526.268.829l-.422 2.996 2.968.523c.3.052.56.241.703.512l1.412 2.67 2.708-1.327a.979.979 0 0 1 .868 0l2.707 1.328 1.413-2.672a.987.987 0 0 1 .702-.511l2.968-.523-.422-2.996a.994.994 0 0 1 .268-.83zM12.406 5.91c3.726 0 6.758 3.043 6.758 6.784 0 3.742-3.032 6.786-6.758 6.786-3.727 0-6.76-3.044-6.76-6.786 0-3.74 3.033-6.784 6.76-6.784zm0 11.586c2.637 0 4.782-2.155 4.782-4.802s-2.145-4.8-4.782-4.8c-2.638 0-4.783 2.153-4.783 4.8s2.145 4.802 4.783 4.802zm2.015-7.32a.986.986 0 0 1 1.397.001.995.995 0 0 1 0 1.403L12.2 15.21a.983.983 0 0 1-1.397.001l-1.81-1.814a.995.995 0 0 1 0-1.404.986.986 0 0 1 1.397 0l1.111 1.114z"/></g></g></svg>