<svg xmlns="http://www.w3.org/2000/svg" width="28" height="32" viewBox="0 0 28 32"><g><g><path fill="#ffe44c" d="M7.075 17.038a8.496 8.496 0 0 1-1.513-4.85V6.561v-.015-.004A6.57 6.57 0 0 1 12.126 0h3.75a6.57 6.57 0 0 1 6.562 6.543v5.644c0 1.802-.56 3.474-1.513 4.851 4.038.631 7.138 4.157 7.138 8.4v5.624c0 .518-.42.937-.937.937H.875a.937.937 0 0 1-.938-.937v-5.625c0-4.242 3.1-7.768 7.138-8.399zm19.112 13.087V28.25h-2.812a2.816 2.816 0 0 1-2.813-2.813V19.38c0-.176.05-.34.133-.48a6.54 6.54 0 0 0-1.07-.088h-.345c-.191.155-.389.301-.593.44v4.31a2.815 2.815 0 0 1-2.812 2.812h-3.75a2.815 2.815 0 0 1-2.813-2.812v-4.31a8.259 8.259 0 0 1-.592-.44h-.345c-.364 0-.722.03-1.07.088.084.14.132.304.132.48v6.057a2.816 2.816 0 0 1-2.812 2.813H1.812v1.875zM7.437 9.658v2.53c0 3.652 2.944 6.624 6.563 6.624 3.618 0 6.562-2.972 6.562-6.625V9.658l-1.198 1.798a2.805 2.805 0 0 1-3.15 1.12 7.416 7.416 0 0 0-4.429 0 2.805 2.805 0 0 1-3.149-1.12zm2.76.758a.91.91 0 0 0 1.03.37 9.273 9.273 0 0 1 5.545 0 .91.91 0 0 0 1.032-.37L19.748 7.5H8.252zm.99 13.146c0 .517.421.937.938.937h3.75c.517 0 .937-.42.937-.937V20.2a8.347 8.347 0 0 1-2.812.486 8.347 8.347 0 0 1-2.813-.486zm11.25-4.11v5.985c0 .517.421.937.938.937h2.812v-.937a6.639 6.639 0 0 0-3.75-5.985zM7.532 5.625h12.936a4.696 4.696 0 0 0-4.593-3.75h-3.75a4.696 4.696 0 0 0-4.593 3.75zm-5.72 19.812v.937h2.813c.517 0 .937-.42.937-.937v-5.985a6.638 6.638 0 0 0-3.75 5.985z"/></g></g></svg>