<svg xmlns="http://www.w3.org/2000/svg" width="40" height="32" viewBox="0 0 40 32"><g><g><path fill="#ffe44c" d="M9.637 13.713c5.042 0 9.144 4.102 9.144 9.145 0 5.042-4.102 9.144-9.144 9.144S.493 27.9.493 22.858c0-5.043 4.102-9.145 9.144-9.145zm0 16.002a6.866 6.866 0 0 0 6.858-6.857A6.866 6.866 0 0 0 9.637 16a6.866 6.866 0 0 0-6.858 6.858 6.866 6.866 0 0 0 6.858 6.857zm0-10.286c1.89 0 3.429 1.538 3.429 3.429a3.433 3.433 0 0 1-3.43 3.428 3.433 3.433 0 0 1-3.428-3.428c0-1.891 1.538-3.43 3.429-3.43zm0 4.572c.63 0 1.143-.514 1.143-1.143 0-.63-.513-1.144-1.143-1.144s-1.143.513-1.143 1.144c0 .63.513 1.143 1.143 1.143zm27.584-3.965a6.843 6.843 0 0 1 2.286 5.108 6.866 6.866 0 0 1-6.858 6.858c-3.392 0-6.216-2.476-6.762-5.716h-4.82v-3.428c0-6.303-5.128-11.43-11.43-11.43-2.65 0-5.234.927-7.274 2.611L.908 12.277a13.714 13.714 0 0 1 5.3-2.698V2.283H3.922V-.003H22.21v2.286h-1.893l2.743 9.145h5.017V5.712c0-1.89 1.538-3.429 3.43-3.429V4.57c-.631 0-1.144.513-1.144 1.143v5.716h2.286a4.577 4.577 0 0 1 4.572 4.571zM8.494 9.19a13.677 13.677 0 0 1 8.716 2.238h3.464L17.93 2.283H8.494zm11.357 4.523a13.734 13.734 0 0 1 2.717 4.572H32.65c.801 0 1.57.139 2.286.393V16a2.288 2.288 0 0 0-2.286-2.287zm3.31 6.859c.126.744.192 1.507.192 2.286V24h2.534a6.836 6.836 0 0 1 1.655-3.43zm9.488 9.143a4.577 4.577 0 0 0 4.572-4.571 4.577 4.577 0 0 0-4.572-4.572 4.577 4.577 0 0 0-4.572 4.572 4.577 4.577 0 0 0 4.572 4.571zm0-3.429a1.143 1.143 0 1 1 0-2.285 1.143 1.143 0 0 1 0 2.285z"/></g></g></svg>