<svg xmlns="http://www.w3.org/2000/svg" width="32" height="32" viewBox="0 0 32 32"><g><g><path fill="#ffe44c" d="M16 .006c8.84 0 15.994 7.154 15.994 15.993 0 8.84-7.154 15.994-15.994 15.994S.006 24.839.006 15.999 7.16.006 16 .006zm14.12 15.993C30.12 8.214 23.784 1.88 16 1.88a14.06 14.06 0 0 0-9.294 3.5l5.683 5.684c.996-2.482 2.878-4.194 2.986-4.29a.937.937 0 0 1 1.25 0c.133.12 2.988 2.714 3.51 6.182 2.285-.793 4.596-.477 4.712-.46.473.067.819.48.803.957-.005.173-.167 4.26-2.863 6.522a6.404 6.404 0 0 1-.873.613l4.705 4.706a14.06 14.06 0 0 0 3.5-9.295zM16 19.645c.519.004.89.385.94.835.239.486.981 1.813 2.177 2.248.762.278 1.616.16 2.265-.02l-7.847-7.849a.937.937 0 0 1-1.28.327c-1.32-.778-2.938-.901-3.928-.89.186 1.135.7 3.076 2.09 4.243.426.357.944.648 1.54.864a.938.938 0 0 1 .077 1.73c-.725.34-1.266.994-1.613 1.528.664.204 1.599.368 2.426.067 1.323-.482 2.092-2.057 2.234-2.37.1-.402.457-.71.919-.713zm3.746-4.459a.938.938 0 0 1-1.412-.86c.114-2.01-1.006-4.001-2.334-5.505-.67.76-1.697 2.118-2.134 3.72l6.662 6.661c.395-.185.749-.406 1.054-.663 1.391-1.167 1.905-3.107 2.091-4.243-.99-.013-2.607.111-3.927.89zM1.88 16c0 7.786 6.334 14.12 14.119 14.12 3.556 0 6.809-1.323 9.294-3.5l-2.442-2.442c-.83.347-2.657.939-4.376.312a4.82 4.82 0 0 1-1.542-.937v.974a.937.937 0 0 1-1.874 0v-1c-.957.857-2.002 1.238-3.208 1.238-1.679 0-3.115-.755-3.193-.797a.937.937 0 0 1-.428-1.175 7.648 7.648 0 0 1 1.6-2.36 6.39 6.39 0 0 1-.618-.457c-2.696-2.262-2.858-6.349-2.864-6.522a.937.937 0 0 1 .804-.958c.11-.016 2.2-.3 4.368.351l-6.14-6.14a14.059 14.059 0 0 0-3.5 9.293z"/></g></g></svg>