<svg xmlns="http://www.w3.org/2000/svg" width="32" height="32" viewBox="0 0 32 32"><g><g><path fill="#ffe44c" d="M15.066.006h1.875V5.69h-1.875zM4.73 4.186L6.057 2.86l3.106 3.105L7.838 7.29zM22.84 5.966l3.106-3.105 1.326 1.325-3.107 3.105zM.006 16.134l4.228-6.695h23.539l4.22 6.695-15.99 15.86zm11.735.802l4.262 11.118 4.263-11.118zm7.625-1.874l-3.363-3.36-3.362 3.36zm-.926 11.874l10.084-10h-6.25zM29.1 15.062l-2.012-3.193-3.195 3.193zm-4.108-3.749h-6.725l3.362 3.36zm-11.252 0H7.015l3.362 3.36zm-8.822.555l-2.017 3.194h5.213zm-1.44 5.068l10.09 10.002-3.835-10.002z"/></g></g></svg>