<svg xmlns="http://www.w3.org/2000/svg" width="20" height="20" viewBox="0 0 20 20"><g><g><path fill="#101809" d="M18.842 11.418a5.258 5.258 0 0 1 1.174 3.316 5.288 5.288 0 0 1-5.282 5.281 5.28 5.28 0 0 1-4.39-2.347H.571a.587.587 0 0 1-.587-.587V1.783c0-.324.263-.586.587-.586h2.973V.57a.587.587 0 1 1 1.174 0v.626h2.348V.57a.587.587 0 1 1 1.173 0v.626h2.348V.57a.587.587 0 1 1 1.174 0v.626h2.347V.57a.587.587 0 1 1 1.174 0v.626h2.973c.324 0 .587.262.587.586zM1.158 2.37v2.347h16.51V2.37h-2.386v.586a.587.587 0 0 1-1.174 0v-.586h-2.347v.586a.587.587 0 0 1-1.174 0v-.586H8.239v.586a.587.587 0 0 1-1.173 0v-.586H4.718v.586a.587.587 0 0 1-1.174 0v-.586zm8.596 14.123a5.225 5.225 0 0 1-.269-1.173h-.62a.587.587 0 1 1 0-1.174h.62c.045-.407.137-.8.27-1.174h-.89a.587.587 0 1 1 0-1.174h1.174c.095 0 .185.023.264.064a5.283 5.283 0 0 1 4.431-2.411c1.085 0 2.095.329 2.934.892V5.891H1.158v10.603zm4.98 2.348a4.112 4.112 0 0 0 4.108-4.108 4.113 4.113 0 0 0-4.108-4.108 4.113 4.113 0 0 0-4.108 4.108 4.112 4.112 0 0 0 4.108 4.108zm2.348-4.695a.587.587 0 0 1 0 1.174h-2.348a.587.587 0 0 1-.587-.587v-2.348a.587.587 0 1 1 1.174 0v1.76zM5.305 7.104a.587.587 0 0 1 0 1.174H4.131a.587.587 0 1 1 0-1.174zm0 2.348a.587.587 0 0 1 0 1.174H4.131a.587.587 0 0 1 0-1.174zm0 2.347a.587.587 0 1 1 0 1.174H4.131a.587.587 0 1 1 0-1.174zm3.56-3.521a.587.587 0 1 1 0-1.174h1.174a.587.587 0 0 1 0 1.174zm0 2.348a.587.587 0 0 1 0-1.174h1.174a.587.587 0 0 1 0 1.174zm-3.56 3.52a.587.587 0 0 1 0 1.175H4.131a.587.587 0 1 1 0-1.174zm8.255-5.868a.587.587 0 1 1 0-1.174h1.174a.587.587 0 0 1 0 1.174z"/></g></g></svg>