<svg xmlns="http://www.w3.org/2000/svg" width="38" height="33" viewBox="0 0 38 33"><g><g><path fill="#ffe44c" d="M32.363 16.301l-1.932 1.793 1.705 1.7a2.988 2.988 0 0 1-1.323 4.994 2.965 2.965 0 0 1-.864 2.318 2.978 2.978 0 0 1-2.485.851 2.974 2.974 0 0 1-.734 1.214 2.97 2.97 0 0 1-2.11.876h-.004c-.245 0-.486-.029-.718-.086a2.987 2.987 0 0 1-4.858 1.032l-.228-.201a3.82 3.82 0 0 1-.074.079l-.78.777a2.903 2.903 0 0 1-2.064.853h-.003c-.78 0-1.514-.305-2.065-.857a2.917 2.917 0 0 1-.629-.938 2.912 2.912 0 0 1-3.589-2.49 2.909 2.909 0 0 1-2.565-2.821A2.9 2.9 0 0 1 5.58 24.6a2.899 2.899 0 0 1-.853-2.065c0-.78.305-1.513.858-2.064l1.39-1.386c.076-.076.156-.147.238-.213l-1.598-2.665-.917.891-4.796-4.928L11.908.497l4.796 4.929-1.28 1.244.893.672a3.967 3.967 0 0 1 1.945-.516h3.834l.488-.485-1.05-1.07 4.832-4.74 11.731 11.948-4.832 4.74zM26.336 3.693l-1.632 1.6 8.59 8.764 1.64-1.608zm-23.27 8.521l1.67 1.715 8.804-8.547-1.675-1.722zm3.898 10.323c0 .183.07.355.2.484.129.129.3.2.483.2s.354-.07.483-.2l1.39-1.385a.68.68 0 0 0 .001-.966.678.678 0 0 0-.967-.001l-1.39 1.385c-.128.13-.2.3-.2.483zm2.514 3.265c.266.267.7.267.966.002l1.622-1.618a.679.679 0 0 0 .001-.966.679.679 0 0 0-.967-.001l-1.39 1.386-.231.231a.683.683 0 0 0-.001.966zm3.512 2.552l1.622-1.617a.683.683 0 0 0-.966-.968l-1.622 1.618a.683.683 0 0 0 .966.967zm4.368.45a.678.678 0 0 0-.684-.683.68.68 0 0 0-.482.199l-.78.778a.68.68 0 0 0-.002.966.68.68 0 0 0 .967.001l.78-.778c.13-.128.2-.3.201-.483zm11.431-9.188l-.003.002-6.692-6.689H19.32l-2.39 2.433c-.59.6-1.377.93-2.217.933h-.008a3.095 3.095 0 0 1-2.213-.921 3.124 3.124 0 0 1-.001-4.39l2.115-2.131-.805-.605-6.538 6.357 2.193 3.657a2.898 2.898 0 0 1 1.65.827c.467.47.755 1.068.831 1.716a2.897 2.897 0 0 1 1.714.835c.468.469.756 1.069.832 1.717a2.906 2.906 0 0 1 2.544 2.55 2.902 2.902 0 0 1 1.716.834c.474.475.764 1.085.835 1.744l1.016.898a.75.75 0 0 0 1.059-1.06l-2.238-2.232-.855-.852 1.58-1.583 3.093 3.084.854.852a.746.746 0 0 0 1.06-.001.75.75 0 0 0-.002-1.06L21.2 22.597l1.58-1.583 1.435 1.43 3.092 3.084a.75.75 0 0 0 1.058-1.06l-.446-.445-.002-.002-4.078-4.068 1.58-1.583 1.434 1.431 2.646 2.638a.743.743 0 0 0 .528.218.75.75 0 0 0 .528-1.278zm1.473-5.455L24.15 7.937l-1.132 1.126h-4.757c-.453 0-.896.184-1.215.506l-2.967 2.99a.882.882 0 0 0 .625 1.5h.002c.237 0 .46-.094.626-.263l3.048-3.103h4.64l5.036 5.034.789.786 1.95-1.808z"/></g></g></svg>