<svg xmlns="http://www.w3.org/2000/svg" width="34" height="32" viewBox="0 0 34 32"><g><g><path fill="#ffe44c" d="M33.307 11.217v2.038h-.342l-7.89 18.733-1.88-.79 7.558-17.943h-2.375l-7.89 18.733-1.88-.79 7.559-17.943h-2.375l-7.89 18.733-1.88-.79 7.558-17.943H.693V5.818l2.322-3.485L6.502.01H17.24l4.535 2.267 2.36 3.54v5.4h4.076V8.991a3.057 3.057 0 0 1-2.038-2.868V4.086a3.057 3.057 0 0 1 6.115 0v2.038a3.057 3.057 0 0 1-2.038 2.868v2.225zM9.866 7.142H2.73v4.075h7.135zm.473-2.037l1.883-2.827.459-.23H7.114L4.485 3.803l-.87 1.303zm7.68 3.056a1.019 1.019 0 0 0-2.038 0v3.057h2.038zm4.077-1.732l-1.717-2.573-3.38-1.687-3.378 1.684-1.717 2.576v4.788h2.038V8.162a3.057 3.057 0 0 1 6.116 0v3.057h2.038zm8.154-.305V4.086a1.019 1.019 0 0 0-2.039 0v2.038a1.019 1.019 0 0 0 2.039 0zM.693 15.292h13.25v2.038H.692zm15.288 0h2.038v2.038h-2.038zM.693 19.368h11.211v2.037H.693zm13.25 0h2.038v2.037h-2.039zM.692 23.443h9.173v2.037H.693zm11.211 0h2.038v2.037h-2.038zM.693 27.517h7.134v2.038H.693zm9.173 0h2.038v2.038H9.866z"/></g></g></svg>