<svg xmlns="http://www.w3.org/2000/svg" width="33" height="33" viewBox="0 0 33 33"><g><g><path fill="#ffe44c" d="M24.07 32.494c-2.205-.012-4.61-.571-7.144-1.664a1.25 1.25 0 0 1 .99-2.295c2.193.946 4.326 1.45 6.167 1.46h.057c2.304 0 4.228-.7 5.568-2.026l.009-.01a2.247 2.247 0 0 0-.113-3.13c-3.356-3.236-4.94-3.002-6.407-1.572l-2.333 2.316a1.25 1.25 0 0 1-1.389.255c-.132-.059-3.276-1.482-6.82-5.024l-.164-.164c-3.543-3.543-4.966-6.687-5.025-6.819a1.25 1.25 0 0 1 .255-1.388l2.317-2.334c1.43-1.466 1.664-3.05-1.572-6.405a2.249 2.249 0 0 0-3.131-.113l-.01.009C3.988 4.94 3.287 6.885 3.298 9.214c.023 4.489 2.569 9.702 6.81 13.949l.012.011c.81.81 1.735 1.615 2.75 2.393a1.25 1.25 0 1 1-1.52 1.983 30.448 30.448 0 0 1-2.997-2.609C3.648 20.238.825 14.363.799 9.226.784 6.203 1.746 3.634 3.58 1.8l.049-.046.036-.032A4.733 4.733 0 0 1 7.013.509a4.733 4.733 0 0 1 3.252 1.45c1.683 1.745 2.655 3.208 3.058 4.602.555 1.921.05 3.7-1.501 5.288a.089.089 0 0 0-.007.008l-1.678 1.689c.595 1.055 1.902 3.108 4.121 5.326l.165.164c2.233 2.233 4.275 3.532 5.326 4.122l1.691-1.678a.115.115 0 0 1 .008-.007c1.588-1.551 3.367-2.056 5.289-1.5 1.394.402 2.856 1.374 4.602 3.056a4.73 4.73 0 0 1 1.451 3.251 4.73 4.73 0 0 1-1.213 3.348l-.033.036-.046.05c-1.82 1.819-4.363 2.78-7.357 2.78h-.07zm.163-19.243a1.25 1.25 0 1 1 0 2.499 1.25 1.25 0 0 1 0-2.5zm1.311-2.75a1.25 1.25 0 1 1-2.5 0v-.08c0-1.408.828-2.67 2.108-3.216a2.187 2.187 0 0 0 1.33-1.978V5.19a2.19 2.19 0 0 0-2.187-2.186 2.19 2.19 0 0 0-2.187 2.186 1.25 1.25 0 0 1-2.5 0A4.691 4.691 0 0 1 24.295.505a4.692 4.692 0 0 1 4.687 4.685 4.682 4.682 0 0 1-2.848 4.313.99.99 0 0 0-.59.918z"/></g></g></svg>