<svg xmlns="http://www.w3.org/2000/svg" width="32" height="33" viewBox="0 0 32 33"><g><g><path fill="#ffe44c" d="M31.434 3.903a.939.939 0 0 1 .502 1.132l-1.723 5.527a71.517 71.517 0 0 0-3.241 20.383h2.065a.937.937 0 0 1 0 1.876H2.963a.937.937 0 0 1 0-1.876h2.065a71.517 71.517 0 0 0-3.24-20.383L.062 5.035a.936.936 0 1 1 1.688-.777l4.182 6.704a39.513 39.513 0 0 1 4.116 8.894V1.741a.937.937 0 0 1 1.842-.238l2.207 8.401A86.485 86.485 0 0 1 16 19.196a86.515 86.515 0 0 1 1.902-9.292l2.207-8.401a.936.936 0 0 1 1.842.238v18.116a39.507 39.507 0 0 1 4.116-8.895l4.182-6.704a.936.936 0 0 1 1.185-.355zm-11.721 6.478a84.685 84.685 0 0 0-2.772 20.564h3.137V8.991zm-7.791-1.39v21.954h3.136a84.69 84.69 0 0 0-2.771-20.564zm-7.93 2.4a73.38 73.38 0 0 1 2.91 19.554h3.136a37.604 37.604 0 0 0-5.693-18.989zm21.106 19.554a73.38 73.38 0 0 1 2.909-19.553l-.352.564a37.607 37.607 0 0 0-5.693 18.989z"/></g></g></svg>