<svg xmlns="http://www.w3.org/2000/svg" width="32" height="32" viewBox="0 0 32 32"><g><g><path fill="#ffe44c" d="M31.994 27.495a4.503 4.503 0 0 1-4.499 4.498 4.483 4.483 0 0 1-3.07-1.211 1.25 1.25 0 1 1 1.706-1.826 1.99 1.99 0 0 0 1.364.538c1.103 0 2-.897 2-2 0-1.101-.897-1.998-2-1.998H4.505a4.503 4.503 0 0 1-4.499-4.498V1.256a1.25 1.25 0 1 1 2.5 0c0 1.102.896 1.998 1.999 1.998H16a1.25 1.25 0 0 1 0 2.5H4.505a4.467 4.467 0 0 1-2-.47v15.714c0 1.102.897 1.999 2 1.999h22.99c.718 0 1.397.17 2 .47V13.064a1.25 1.25 0 0 1 2.499 0zM17.919 9.778A9.006 9.006 0 0 1 20.39 5.16l3.818-3.818A4.531 4.531 0 0 1 27.433.006c1.218 0 2.363.474 3.225 1.336a4.532 4.532 0 0 1 1.336 3.224 4.53 4.53 0 0 1-1.336 3.225L26.84 11.61a9.01 9.01 0 0 1-4.619 2.472l-3.54.707a1.25 1.25 0 0 1-1.47-1.47zm2.11 2.192l1.703-.34a6.516 6.516 0 0 0 3.34-1.788l3.819-3.818c.39-.39.604-.906.604-1.458 0-.55-.215-1.068-.604-1.457a2.05 2.05 0 0 0-1.458-.604c-.551 0-1.069.215-1.458.604l-3.818 3.818a6.515 6.515 0 0 0-1.788 3.34zm1.719 7.091c0 .69-.56 1.25-1.25 1.25H8.753a1.25 1.25 0 1 1 0-2.5h11.745c.69 0 1.25.56 1.25 1.25zM8.753 15.625a1.25 1.25 0 0 1 0-2.5h4.186a1.25 1.25 0 0 1 0 2.5z"/></g></g></svg>