<svg xmlns="http://www.w3.org/2000/svg" width="28" height="32" viewBox="0 0 28 32"><g><g><path fill="#ffe44c" d="M28 18.25v7.25c0 3.584-2.916 6.5-6.5 6.5a6.507 6.507 0 0 1-6.5-6.5v-7.25h4V2.5C19 1.12 20.12 0 21.5 0 22.878 0 24 1.12 24 2.5v15.75zm-7.125 3.937a.626.626 0 0 0 1.25 0V15.25h-1.25zm0-8.813h1.25V2.5a.625.625 0 0 0-1.25 0zm5.25 6.75H24v2.063c0 1.378-1.122 2.5-2.5 2.5a2.503 2.503 0 0 1-2.5-2.5v-2.062h-2.125V25.5a4.63 4.63 0 0 0 4.625 4.625 4.63 4.63 0 0 0 4.625-4.625zM11.125 0H13v9.688a4.066 4.066 0 0 1-4 4.06V29.5C9 30.878 7.878 32 6.5 32A2.503 2.503 0 0 1 4 29.5V13.748a4.066 4.066 0 0 1-4-4.06V-.002h1.875v6.688h1.833V-.001h1.875v6.688h1.834V-.001h1.875v6.688h1.833zm-4 11.688a.625.625 0 0 0-1.25 0v5.062h1.25zm0 6.937h-1.25V29.5a.626.626 0 0 0 1.25 0zm4-10.062h-9.25v1.125A2.19 2.19 0 0 0 4 11.873v-.186c0-1.378 1.121-2.5 2.5-2.5 1.378 0 2.5 1.122 2.5 2.5v.186a2.19 2.19 0 0 0 2.125-2.186z"/></g></g></svg>