<?xml version="1.0" encoding="utf-8"?><svg xmlns="http://www.w3.org/2000/svg" xmlns:xlink="http://www.w3.org/1999/xlink"><symbol viewBox="0 0 13.01 24.99" id="arrow-left" xmlns="http://www.w3.org/2000/svg"><path d="M13.006 24.994L2.18 12.498 13.006.002h-2.184L-.007 12.498l10.829 12.496z"/></symbol><symbol viewBox="0 0 13.01 24.99" id="arrow-right" xmlns="http://www.w3.org/2000/svg"><path d="M-.007 24.994l10.828-12.496L-.007.002h2.185l10.828 12.496L2.178 24.994z"/></symbol><symbol viewBox="0 0 20.87 20.27" id="phone" xmlns="http://www.w3.org/2000/svg"><path d="M17.465 17.339c.1.126.083.539-.206.823-.875.857-1.873 1.86-3.717 2.06-1.434.153-3.713.324-8.358-4.373-.12-.117-.246-.246-.377-.388-.69-.722-1.162-1.313-1.46-1.793C-.323 8.756.163 6.639.515 5.296.983 3.522 2.13 2.693 3.117 1.963c.325-.242.745-.198.855-.084C7.315 5.4 6.856 8.895 6.642 8.957c-.58.164-1.246-.19-1.373.768-.069.51 1.417 2.321 2.12 3.149.8.865 1.978 2.05 2.41 2.055.979.015.72-.688.97-1.232.091-.2 3.658-.14 6.696 3.642zm-11.67-2.062l-.027-.03c-.58-.612-.975-1.112-1.223-1.52-3.075-4.16-2.656-5.948-2.35-7.077.404-1.497 1.376-2.19 2.21-2.8.022-.018.045-.03.065-.041a11.036 11.036 0 00-.484-.5c-.097-.094-.451-.115-.717.1-.804.651-1.74 1.394-2.068 2.908C.954 7.461.625 9.264 3.904 13.27c.268.395.69.875 1.3 1.46.115.112.227.214.332.31.088.081.174.16.26.237zm12.111-4.31c0-4.458-3.668-8.084-8.18-8.084a1.314 1.314 0 01-1.32-1.305A1.315 1.315 0 019.727.275c5.966 0 10.82 4.797 10.82 10.691 0 .72-.592 1.304-1.319 1.304-.73 0-1.321-.584-1.321-1.304zm-4.015 0c0-2.27-1.867-4.117-4.165-4.117a1.248 1.248 0 01-1.254-1.24c0-.685.562-1.24 1.254-1.24 3.681 0 6.677 2.96 6.677 6.596a1.25 1.25 0 01-1.256 1.24 1.25 1.25 0 01-1.256-1.24z"/></symbol></svg>