<svg xmlns="http://www.w3.org/2000/svg" width="61" height="61" viewBox="0 0 61 61"><g><g><path fill="#49811e" d="M40.258 28.784a2.612 2.612 0 0 1-1.424 3.4l-21.132 8.653a2.594 2.594 0 0 1-3.392-1.425 2.596 2.596 0 0 1 .008-1.995 2.584 2.584 0 0 1 1.415-1.405l21.133-8.654a2.604 2.604 0 0 1 3.392 1.426zm-2.092 1.76a.835.835 0 1 0-.631-1.547l-21.133 8.654a.825.825 0 0 0-.454.45.842.842 0 0 0 .179.915c.238.238.593.31.906.182zm-6.888-2.32c-1.476 1.478-3.386 2.23-5.234 2.23-1.636 0-3.222-.59-4.413-1.783-2.536-2.54-2.336-6.876.448-9.664 2.783-2.788 7.11-2.989 9.647-.448 2.536 2.541 2.336 6.876-.448 9.665zm-7.95-7.966c-2.094 2.099-2.294 5.31-.447 7.162 1.847 1.85 5.054 1.649 7.148-.449 2.094-2.098 2.295-5.31.447-7.16-.848-.85-1.982-1.267-3.163-1.267-1.393 0-2.852.58-3.985 1.714zm5.521 5.531c-.66.662-1.504 1.087-2.375 1.198a3.4 3.4 0 0 1-.428.027c-.776 0-1.483-.273-1.985-.776-.594-.596-.867-1.476-.748-2.418.11-.873.534-1.717 1.195-2.38.66-.66 1.504-1.086 2.374-1.196.941-.12 1.82.154 2.414.749.594.595.866 1.476.748 2.418-.11.872-.535 1.717-1.195 2.378zm-3.539-.804c.205.206.548.295.943.245.477-.06.967-.313 1.346-.692.38-.38.631-.871.691-1.349.05-.395-.039-.74-.243-.944-.168-.168-.428-.258-.733-.258-.068 0-.138.004-.21.013-.477.06-.968.313-1.346.693-.379.379-.631.87-.691 1.348-.05.395.038.74.243.944zm4.228 21.887c-.66.662-1.503 1.087-2.374 1.197a3.57 3.57 0 0 1-.43.027c-.775 0-1.482-.273-1.984-.776-.594-.595-.866-1.476-.748-2.418.11-.873.534-1.717 1.195-2.379.66-.662 1.503-1.087 2.374-1.197.941-.118 1.82.154 2.415.75.593.594.865 1.476.747 2.417-.11.873-.535 1.718-1.195 2.38zM26 46.068c.204.206.548.294.942.244.476-.06.967-.312 1.346-.692.38-.38.63-.871.692-1.349.05-.394-.04-.738-.245-.944-.167-.168-.427-.257-.732-.257-.068 0-.138.004-.21.013-.476.06-.967.312-1.346.692-.38.38-.63.871-.691 1.348-.05.396.039.74.244.945zm1.7 5.39a.886.886 0 0 1-.139-1.76c1.164-.186 2.285-.77 3.157-1.644 2.094-2.098 2.295-5.31.448-7.161-1.848-1.85-5.055-1.65-7.15.448-2.093 2.098-2.293 5.31-.445 7.161.318.32.684.585 1.089.787a.885.885 0 0 1-.792 1.583 5.93 5.93 0 0 1-1.547-1.118c-2.536-2.54-2.336-6.876.446-9.665 2.783-2.787 7.111-2.988 9.648-.447 2.536 2.54 2.336 6.875-.447 9.664-1.134 1.135-2.599 1.895-4.126 2.14a.806.806 0 0 1-.141.012zM60.49 3.828c.692 1.75.192 3.579-1.487 5.435-1.1 1.22-2.734 2.466-4.858 3.712 1.095 3.445 1.748 6.804 1.941 10.013.193 3.191-.11 5.535-.398 6.94a5.262 5.262 0 0 1-1.146 2.344c-8.968 10.532-16.758 18.415-26.888 27.21a5.235 5.235 0 0 1-6.68.156A118.414 118.414 0 0 1 1.587 40.217a5.258 5.258 0 0 1 .156-6.69C10.52 23.38 18.387 15.576 28.904 6.589a5.243 5.243 0 0 1 2.338-1.15c1.183-.243 3.146-.517 5.793-.448a.885.885 0 0 1-.046 1.77c-2.479-.066-4.3.189-5.39.413a3.472 3.472 0 0 0-1.548.762c-10.444 8.926-18.26 16.676-26.972 26.75a3.484 3.484 0 0 0-.106 4.432A116.696 116.696 0 0 0 22.069 58.25a3.471 3.471 0 0 0 4.426-.106c10.059-8.732 17.795-16.562 26.7-27.021.381-.447.644-.984.76-1.551.438-2.133 1.095-7.685-1.39-15.72a53.93 53.93 0 0 1-3.443 1.661 4.313 4.313 0 0 1-1.193 3.796 4.287 4.287 0 0 1-3.042 1.26 4.287 4.287 0 0 1-3.044-1.26 4.323 4.323 0 0 1 0-6.098 4.274 4.274 0 0 1 3.044-1.262c1.15 0 2.23.448 3.042 1.262.204.205.383.425.537.656a51.094 51.094 0 0 0 3.537-1.72c-.081-.233-.163-.465-.25-.701a3.472 3.472 0 0 0-2.06-2.065c-3.17-1.168-6.293-1.958-9.284-2.348a.885.885 0 0 1 .228-1.755c2.005.26 4.063.694 6.152 1.292C49.473 2.867 53.53.462 56.633.792c1.787.19 3.156 1.268 3.856 3.037zM46.787 14.583c-.035-.04-.07-.08-.107-.119a2.539 2.539 0 0 0-.945-.596c-.037.386-.056.771-.05 1.152.314-.121.686-.268 1.102-.437zm-.107 3.475c.5-.502.747-1.163.74-1.822-1.324.54-2.199.846-2.244.862a.898.898 0 0 1-.756-.085.888.888 0 0 1-.41-.641 12.01 12.01 0 0 1-.052-2.475 2.547 2.547 0 0 0-.865 4.16c.989.991 2.598.991 3.587.001zm6.884-6.797c2.74-1.652 6.25-4.333 5.282-6.78-.459-1.158-1.266-1.807-2.4-1.928-2.342-.25-5.57 1.669-7.86 4.57.571.187 1.143.386 1.716.598a5.234 5.234 0 0 1 3.11 3.115c.052.141.102.284.152.425z"/></g></g></svg>