<svg xmlns="http://www.w3.org/2000/svg" width="54" height="61" viewBox="0 0 54 61"><g><g><path fill="#49811e" d="M42.81 21.642v26.284a4.52 4.52 0 0 1-4.511 4.516H15.701a4.52 4.52 0 0 1-4.511-4.517V21.642a4.52 4.52 0 0 1 4.511-4.517h15.474a.879.879 0 0 1 0 1.759H15.7a2.76 2.76 0 0 0-2.755 2.758v26.284a2.76 2.76 0 0 0 2.755 2.758H38.3a2.76 2.76 0 0 0 2.756-2.758V21.642a2.76 2.76 0 0 0-2.756-2.758h-3.612a.879.879 0 0 1 0-1.759h3.612a4.52 4.52 0 0 1 4.512 4.517zm-1.664 39.169H12.853c-4.628 0-8.766-2.91-10.295-7.241C.9 48.878.036 43.632-.012 37.977c-.038-4.505.44-9.28 1.419-14.191 1.529-7.665 3.766-13.16 4.207-14.203v-4.63c0-2.92 3.244-4.916 5.822-3.455l.05.029a3.735 3.735 0 0 0 3.684 0 5.501 5.501 0 0 1 5.43 0 3.735 3.735 0 0 0 3.685 0 5.501 5.501 0 0 1 5.43 0 3.735 3.735 0 0 0 3.684 0 5.501 5.501 0 0 1 5.43 0 3.74 3.74 0 0 0 3.685 0l.05-.029c2.567-1.436 5.822.53 5.822 3.455v4.63c.44 1.043 2.678 6.538 4.207 14.203.98 4.911 1.457 9.686 1.419 14.191-.048 5.655-.913 10.901-2.57 15.593-1.53 4.331-5.667 7.241-10.296 7.241zM7.371 8.885H46.63V4.953c0-1.606-1.79-2.723-3.209-1.92l-.034.019a5.5 5.5 0 0 1-5.43 0 3.735 3.735 0 0 0-3.685 0 5.503 5.503 0 0 1-5.43 0 3.734 3.734 0 0 0-3.684 0 5.503 5.503 0 0 1-5.43 0 3.734 3.734 0 0 0-3.684 0c-1.672.959-3.758.948-5.43 0l-.035-.019a2.089 2.089 0 0 0-1.03-.274c-1.048 0-2.178.838-2.178 2.194zm42.416 44.099c1.592-4.509 2.423-9.562 2.469-15.022.037-4.385-.429-9.039-1.385-13.832-1.348-6.758-3.3-11.884-3.949-13.488H7.078c-.65 1.609-2.61 6.761-3.957 13.53-.952 4.787-1.415 9.435-1.377 13.815.049 5.45.88 10.495 2.47 14.997 1.282 3.63 4.754 6.069 8.64 6.069h28.293c3.885 0 7.357-2.44 8.64-6.07zM24.839 40.83c-.011-.61.019-1.2.086-1.77-8.364-1.936-9.095-6.546-9.685-10.272-.194-1.222-.377-2.377-.802-3.347a.88.88 0 0 1 .591-1.206c.048-.012 1.199-.296 2.859-.296 2.3 0 5.617.544 8.35 3.131 1.422 1.345 2.33 3.056 2.714 5.099 2.46-1.751 5.185-2.154 7.16-2.154 1.66 0 2.81.284 2.859.296a.878.878 0 0 1 .591 1.206c-.425.971-.608 2.125-.802 3.347-.65 4.102-1.458 9.208-12.295 10.753a.906.906 0 0 1-.952-.58l-.002-.005c-.026-.075-.63-1.866-.672-4.202zm11.274-9.056c-1.982 0-4.831.46-7.145 2.65a7.231 7.231 0 0 0-1.388 1.824c-.793 1.488-1.008 3.128-.983 4.548.9-2.146 2.471-4.715 5.151-6.38a.878.878 0 1 1 .926 1.493c-3.3 2.051-4.686 5.834-5.199 7.763 3.638-.665 6.116-1.822 7.554-3.524 1.374-1.628 1.69-3.626 1.997-5.559.144-.91.292-1.843.552-2.73a12.763 12.763 0 0 0-1.465-.085zm-10.85 5.56c.163-.58.374-1.131.63-1.651-.76-1.907-2.146-4.346-4.567-5.85a.88.88 0 0 1 .926-1.494c2.356 1.464 3.853 3.645 4.785 5.582.004-.005.24-.279.331-.376-.178-2.151-.963-3.898-2.336-5.197-2.982-2.822-6.85-2.771-8.61-2.567.26.887.408 1.82.552 2.731.288 1.819.586 3.7 1.765 5.266 1.245 1.656 3.384 2.824 6.523 3.556z"/></g></g></svg>