<svg xmlns="http://www.w3.org/2000/svg" width="60" height="61" viewBox="0 0 60 61"><g><g><path fill="#49811e" d="M14.988 43.876a3.25 3.25 0 1 1 1.244 6.253 3.253 3.253 0 0 1-4.25-4.247 3.253 3.253 0 0 1 3.006-2.006zm0 4.5a1.25 1.25 0 1 0-1.156-.772c.194.467.65.772 1.156.772zm25.02-1.25a3.001 3.001 0 1 1 .002 6.002 3.001 3.001 0 0 1-.002-6.002zm0 4a1 1 0 1 0 0-2.001 1 1 0 0 0 0 2.001zm6.925 0a6.725 6.725 0 0 1-.61 2h3.693c.156.001.31.039.45.11l1.792.89h7.766v2h-8.006a.998.998 0 0 1-.45-.109l-1.792-.89h-4.884a6.96 6.96 0 0 1-8.477 1h-4.413a1.036 1.036 0 0 1-.711-.29l-1.701-1.71h-3.183l-1.7 1.71a1.036 1.036 0 0 1-.712.29h-4.674a9.887 9.887 0 0 1-8.667 0H4.98a1.036 1.036 0 0 1-.711-.29l-.7-.71H1.978a1.04 1.04 0 0 1-.711-.29l-.7-.71h-.591v-2h1c.266.001.52.106.712.289l.7.71h1.591c.265.002.52.107.711.29l.7.71h2.462a9.956 9.956 0 0 1-2.032-3H2.978a1 1 0 0 1-1-1V30.123c.002-.265.106-.52.29-.71l1.711-1.7V14.12H1.978v-2h6.004v-1.28a2 2 0 0 1 1.001-3.733 2.001 2.001 0 0 1 1 3.732v1.28h10.009a1 1 0 0 1 .93.63l5.755 14.373h5.325V2.119a2.007 2.007 0 0 1 2.001-2h24.02a2.007 2.007 0 0 1 2 2v38.006a2.006 2.006 0 0 1-2 2h-4.004v4c0 2.763-2.24 5.001-5.004 5.001zm-12.93-11.001h24.02V2.119h-24.02zm-28.823 9c-.132-.657-.2-1.327-.2-2 0-5.523 4.48-10 10.008-10 5.527 0 10.008 4.477 10.008 10 0 .673-.068 1.343-.2 2h3.202V29.124h-2.001a1 1 0 0 1-.93-.63L19.311 14.12H5.98v14.002c-.002.265-.107.52-.29.71l-1.712 1.7v18.593zm9.808 6.002c4.42-.006 8-3.585 8.006-8.001a8.002 8.002 0 0 0-4.942-7.393 8.012 8.012 0 0 0-8.725 1.735 7.999 7.999 0 0 0-1.736 8.72 8.007 8.007 0 0 0 7.397 4.939zm19.275-1a7.029 7.029 0 0 1-1.18-3h-8.928a9.954 9.954 0 0 1-2.031 3h1.46l1.702-1.711c.19-.183.446-.288.71-.29H30c.265.002.52.107.71.29l1.702 1.71zm5.745 1a5 5 0 1 0 1.915-9.62 5 5 0 1 0-1.915 9.62zm0-12.002a7.004 7.004 0 0 1 6.925 6h2.082a3.01 3.01 0 0 0 3.003-3v-4H34.003a2.006 2.006 0 0 1-2.001-2V29.123H30v20.003h3.082a7.004 7.004 0 0 1 6.926-6zM7.982 29.123a1 1 0 0 1-1-1V16.121a1 1 0 0 1 1-1h9.008a.987.987 0 0 1 .92.62l5.004 12.002a.967.967 0 0 1-.09.93c-.184.28-.496.448-.83.45zm1.001-2h11.51L16.318 17.12H8.983zM-.024 58.127h60.048v2H-.024zM56.021 3.12a1 1 0 0 1 1 1v31.004a1 1 0 0 1-1 1H36.005a1 1 0 0 1-1.001-1V4.12a1 1 0 0 1 1-1zm-1.001 2H37.005v29.004H55.02zm-49.575.465a5.014 5.014 0 0 1 7.077 0l-1.416 1.414a3.003 3.003 0 0 0-4.246 0zm8.492-1.415a7.018 7.018 0 0 0-9.908 0L2.614 2.755a9.02 9.02 0 0 1 12.738 0zm31.075 32.954h2.002v2h-2.002zm1-19.003a2 2 0 1 1 0-4 2 2 0 1 1 0 4zm-3.538-5.535a5.014 5.014 0 0 1 7.077 0L48.136 14a3.002 3.002 0 0 0-4.247 0zm8.492-1.415a7.018 7.018 0 0 0-9.907 0l-1.415-1.414a9.02 9.02 0 0 1 12.738 0zM39.007 22.12h3.003v2.002h-3.003zm5.004 0h5.004v2.002h-5.004zm-5.004 4.001h14.011v2.001h-14.01zm0 4h6.005v2.002h-6.005z"/></g></g></svg>