<svg xmlns="http://www.w3.org/2000/svg" width="50" height="60" viewBox="0 0 50 60"><g><g><path fill="#49811e" d="M49.563 60.007H.437L3.63 49.796c1.35-4.32 5.114-7.555 9.588-8.243l5.002-.768v-1.003c-3.26-1.891-5.664-5.09-6.476-8.882-2.354-.328-4.178-2.331-4.178-4.773v-7.743h.049c.45-7.67 6.163-13.933 13.582-15.227A3.875 3.875 0 0 1 25-.008a3.875 3.875 0 0 1 3.802 3.165c7.42 1.294 13.133 7.558 13.583 15.227h.05v7.743c0 2.442-1.826 4.445-4.18 4.773-.811 3.791-3.216 6.99-6.475 8.882v1.003l5.002.768c4.473.688 8.237 3.924 9.587 8.243zM38.065 43.86l2.424 7.316.863 6.896h5.576l-2.407-7.698c-.968-3.095-3.42-5.515-6.456-6.514zm-7.254 9.94v4.272h1.937v-4.273l.969-.967v-1.35l-1.624-4.057h-.626l-1.624 4.057v1.35zm4.843-2.69v2.523l-.968.968v3.471H39.4l-.822-6.56-2.714-8.14-4.42-.68c-.76 1.627-2.713 3.765-6.444 3.765s-5.684-2.138-6.445-3.763l-3.399.522-2.766 8.296-.821 6.56h4.714v-1.535L14.346 54.6v-4.79l4.842-3.227v4.712h1.938v-4.712l4.842 3.226V54.6l-1.937 1.936v1.535h4.843v-3.47l-.968-.969V51.11l2.25-5.622h3.248zM18.22 55.736v2.336h3.874v-2.336l1.937-1.937v-2.953l-.968-.645v3.031H17.25V50.2l-.968.645v2.953zm11.623-15.029a13.466 13.466 0 0 1-4.843.91c-1.708 0-3.337-.33-4.843-.91v.768c.17.516 1.186 3.045 4.843 3.045 3.658 0 4.676-2.54 4.843-3.045zM11.44 20.32H9.503v1.96a4.809 4.809 0 0 1 1.937-.894zm2.015 0c.472 3.278 3.294 5.808 6.702 5.808h9.686c3.408 0 6.23-2.53 6.702-5.808zm27.042 0H38.56v1.067c.72.146 1.371.467 1.937.895zm0 5.808c0-1.26-.813-2.325-1.937-2.725v4.661c0 .271-.025.536-.04.802a2.898 2.898 0 0 0 1.977-2.738zM28.91 5.131a27.083 27.083 0 0 1 3.44 9.214l-1.91.333a25.18 25.18 0 0 0-4.003-9.822c-.157-.007-.31-.025-.469-.025h-1.937c-.156 0-.308.018-.463.023a24.836 24.836 0 0 0-4.357 13.528h11.586a24.623 24.623 0 0 0-.103-1.842l1.928-.186c.065.67.097 1.35.112 2.03h7.714c-.436-6.565-5.24-11.954-11.538-13.252zm-5.597-2.2c.24-.01.476-.036.718-.036h1.937c.243 0 .479.026.72.037A1.93 1.93 0 0 0 25 1.927a1.93 1.93 0 0 0-1.687 1.005zM9.55 18.385h7.723c.1-4.707 1.394-9.238 3.801-13.25-6.29 1.306-11.087 6.69-11.524 13.25zm1.93 10.481c-.016-.266-.041-.53-.041-.802v-4.661a2.899 2.899 0 0 0-1.937 2.725c0 1.275.832 2.35 1.978 2.738zM25 39.68c6.409 0 11.623-5.21 11.623-11.616v-3.247a8.703 8.703 0 0 1-6.78 3.247h-9.686a8.704 8.704 0 0 1-6.78-3.247v3.247c0 6.406 5.214 11.616 11.623 11.616zM3.07 58.071h6.547l.904-7.082 2.469-7.402c-3.514.74-6.435 3.34-7.513 6.786z"/></g></g></svg>