<svg xmlns="http://www.w3.org/2000/svg" width="60" height="60" viewBox="0 0 60 60"><g><g><path fill="#49811e" d="M53.11 37.479c4.056 1.868 6.884 5.962 6.884 10.713 0 6.507-5.294 11.801-11.801 11.801-4.357 0-8.16-2.38-10.204-5.9H4.923a4.922 4.922 0 0 1-4.917-4.917V9.839a4.922 4.922 0 0 1 4.917-4.916H6.89V2.956A2.954 2.954 0 0 1 9.84.006a2.954 2.954 0 0 1 2.95 2.95v1.967h4.917V2.956a2.954 2.954 0 0 1 2.95-2.95 2.954 2.954 0 0 1 2.95 2.95v1.967h5.901V2.956a2.954 2.954 0 0 1 2.95-2.95 2.954 2.954 0 0 1 2.95 2.95v1.967h4.918V2.956a2.954 2.954 0 0 1 2.95-2.95 2.954 2.954 0 0 1 2.95 2.95v1.967h1.967a4.922 4.922 0 0 1 4.917 4.916zM42.292 8.856a.984.984 0 0 0 1.967 0v-5.9a.984.984 0 0 0-1.967 0zm-10.817 0a.984.984 0 0 0 1.967 0v-5.9a.984.984 0 0 0-1.967 0zm-11.8 0a.984.984 0 0 0 1.966 0v-5.9a.984.984 0 0 0-1.967 0zm-10.818 0a.984.984 0 0 0 1.967 0v-5.9a.984.984 0 0 0-1.967 0zM4.923 6.89a2.953 2.953 0 0 0-2.95 2.95v4.916h49.17V9.84a2.953 2.953 0 0 0-2.95-2.95h-1.967v1.967a2.953 2.953 0 0 1-2.95 2.95 2.953 2.953 0 0 1-2.95-2.95V6.89h-4.917v1.966a2.953 2.953 0 0 1-2.95 2.95 2.953 2.953 0 0 1-2.95-2.95V6.89h-5.901v1.966a2.953 2.953 0 0 1-2.95 2.95 2.953 2.953 0 0 1-2.95-2.95V6.89H12.79v1.966a2.953 2.953 0 0 1-2.95 2.95 2.953 2.953 0 0 1-2.95-2.95V6.89zM37.08 52.126a11.73 11.73 0 0 1-.688-3.934c0-4.103 2.106-7.718 5.292-9.834h-2.342a.983.983 0 0 1-.983-.984v-5.9c0-.543.44-.983.983-.983h5.9c.544 0 .984.44.984.984v5.094c.64-.109 1.295-.178 1.967-.178 1.02 0 2.005.145 2.95.388V16.723H1.973v32.453a2.953 2.953 0 0 0 2.95 2.95zm7.18-19.668h-3.934v3.933h3.933zm3.933 25.568c5.422 0 9.834-4.412 9.834-9.834s-4.412-9.834-9.834-9.834-9.834 4.412-9.834 9.834 4.412 9.834 9.834 9.834zm.983-11.528a1.96 1.96 0 0 1-1.694 3.523l-3.592 2.873-1.229-1.537 3.595-2.874c-.015-.096-.03-.19-.03-.29 0-.727.398-1.354.983-1.695v-6.173h1.967zM12.79 19.674c.544 0 .984.44.984.983v5.9c0 .544-.44.984-.984.984h-5.9a.983.983 0 0 1-.983-.983v-5.9c0-.544.44-.984.983-.984zm-.983 1.967H7.873v3.933h3.934zm11.8-1.967c.544 0 .984.44.984.983v5.9c0 .544-.44.984-.983.984h-5.9a.983.983 0 0 1-.984-.983v-5.9c0-.544.44-.984.983-.984zm-.983 1.967h-3.933v3.933h3.933zm11.801-1.967c.544 0 .984.44.984.983v5.9c0 .544-.44.984-.984.984h-5.9a.983.983 0 0 1-.984-.983v-5.9c0-.544.44-.984.984-.984zm-.983 1.967h-3.934v3.933h3.934zm5.9 5.9a.983.983 0 0 1-.983-.983v-5.9c0-.544.44-.984.983-.984h5.9c.544 0 .984.44.984.983v5.9c0 .544-.44.984-.983.984zm.984-1.967h3.933v-3.933h-3.933zM12.79 30.491c.544 0 .984.44.984.984v5.9c0 .543-.44.983-.984.983h-5.9a.983.983 0 0 1-.983-.984v-5.9c0-.543.44-.983.983-.983zm-.983 1.967H7.873v3.933h3.934zm11.8-1.967c.544 0 .984.44.984.984v5.9c0 .543-.44.983-.983.983h-5.9a.983.983 0 0 1-.984-.984v-5.9c0-.543.44-.983.983-.983zm-.983 1.967h-3.933v3.933h3.933zm11.801-1.967c.544 0 .984.44.984.984v5.9c0 .543-.44.983-.984.983h-5.9a.983.983 0 0 1-.984-.984v-5.9c0-.543.44-.983.984-.983zm-.983 1.967h-3.934v3.933h3.934zm-20.652 8.85c.544 0 .984.44.984.984v5.9c0 .543-.44.984-.984.984h-5.9a.983.983 0 0 1-.983-.984v-5.9c0-.544.44-.983.983-.983zm-.983 1.967H7.873v3.933h3.934zm11.8-1.966c.544 0 .984.439.984.983v5.9c0 .543-.44.984-.983.984h-5.9a.983.983 0 0 1-.984-.984v-5.9c0-.544.44-.983.983-.983zm-.983 1.966h-3.933v3.933h3.933zm11.801-1.966c.544 0 .984.439.984.983v5.9c0 .543-.44.984-.984.984h-5.9a.983.983 0 0 1-.984-.984v-5.9c0-.544.44-.983.984-.983zm-.983 1.966h-3.934v3.933h3.934z"/></g></g></svg>