<svg xmlns="http://www.w3.org/2000/svg" width="60" height="60" viewBox="0 0 60 60"><g><g><path fill="#49811e" d="M56.29 21.29a3.71 3.71 0 0 1 3.706 3.704 3.67 3.67 0 0 1-1.086 2.619L48.384 38.14v18.952c0 1.6-1.302 2.903-2.903 2.903H2.907a2.907 2.907 0 0 1-2.903-2.903V2.906c0-1.6 1.303-2.903 2.903-2.903h42.574c1.6 0 2.903 1.303 2.903 2.903v1.86a7.817 7.817 0 0 0 .968-3.795h1.935c0 4.701 3.038 7.74 7.74 7.74v1.936c-4.272 0-7.74 5.27-7.74 8.708h-1.935c0-1.328-.35-2.705-.968-3.964v12.272l5.288-5.289a3.68 3.68 0 0 1 2.618-1.084zM50.248 5.401a9.49 9.49 0 0 1-4.56 4.377c2.06 1.116 3.759 3.026 4.727 5.316.965-2.049 2.54-4.006 4.522-5.2-2.129-.86-3.754-2.419-4.689-4.493zM46.45 40.076L36.36 50.167l-9.17 3.93 3.93-9.17.132-.13.283-.284H26.13v-6.774h6.772v5.406L46.45 29.598V12.722c-1.305-1.253-2.971-2.075-4.838-2.075V8.71a7.75 7.75 0 0 0 4.838-1.662V2.906a.968.968 0 0 0-.968-.967H2.907a.967.967 0 0 0-.967.967v54.186c0 .533.433.967.967.967h42.574a.968.968 0 0 0 .967-.967h.001zm-14.188 7.1l-1.387 3.234 3.236-1.386zm-4.196-7.501v2.903h2.902v-2.903zm24.756-8.708l-2.502-2.503L33.303 45.48l2.502 2.503zm4.72-4.72a1.771 1.771 0 0 0-2.502-2.501l-3.352 3.35 2.502 2.502zm-44.958-7.86a5.81 5.81 0 0 1-5.806-5.805 5.811 5.811 0 0 1 5.806-5.805 5.811 5.811 0 0 1 5.805 5.805 5.81 5.81 0 0 1-5.805 5.805zm0-9.676a3.875 3.875 0 0 0-3.87 3.87 3.875 3.875 0 0 0 3.87 3.871 3.874 3.874 0 0 0 3.87-3.87 3.874 3.874 0 0 0-3.87-3.87zM7.745 20.322h7.741v1.936H7.745zm7.74 14.514H8.713v-6.772h6.774zM13.55 30h-2.903V32.9h2.903zm-4.838 7.74h6.774v6.774H8.712zm1.935 4.84h2.903v-2.904h-2.903zm22.255-7.742H26.13v-6.773h6.773zM30.967 30h-2.902V32.9h2.902zM25.16 9.679H38.71v1.935H25.16zm0 5.806H42.58v1.934H25.161zm0 5.805H42.58v1.936H25.161zm-7.74 7.741h4.837v1.936H17.42zm0 3.87h4.837v1.936H17.42zm17.417-3.87h4.838v1.936h-4.838zm0 3.87h4.838v1.936h-4.838zM17.42 40.642h4.838v1.936H17.42zm-8.708 7.741H26.13v1.935H8.712zm0 3.871H26.13v1.934H8.712zm8.708-31.932h1.936v1.936H17.42zm25.158 33.866h1.936v1.936h-1.936zm-3.87 0h1.935v1.936h-1.935zm-34.834 0H5.81v1.936H3.874z"/></g></g></svg>