<svg id="Layer_1" data-name="Layer 1" xmlns="http://www.w3.org/2000/svg" viewBox="0 0 290.62 290.63"><title>advantages-index-2</title><circle cx="65.62" cy="79.69" r="23.44" fill="#00bdb6" opacity="0.5"/><polygon points="87.38 69.22 81.37 62.02 56.54 82.72 50.19 76.37 43.56 83 55.96 95.41 87.38 69.22" fill="#333"/><rect x="103.12" y="65.63" width="70.31" height="9.38" fill="#333"/><rect x="103.12" y="84.38" width="79.69" height="9.38" fill="#333"/><polygon points="87.38 116.1 81.37 108.9 56.54 129.59 50.19 123.25 43.56 129.88 55.96 142.28 87.38 116.1" fill="#333"/><rect x="103.12" y="112.5" width="98.44" height="9.38" fill="#333"/><rect x="103.12" y="131.25" width="18.75" height="9.38" fill="#333"/><rect x="131.25" y="131.25" width="70.31" height="9.38" fill="#333"/><polygon points="87.38 162.97 81.37 155.78 56.54 176.47 50.19 170.12 43.56 176.75 55.96 189.16 87.38 162.97" fill="#333"/><rect x="103.12" y="159.38" width="98.44" height="9.38" fill="#333"/><rect x="103.12" y="178.13" width="70.31" height="9.38" fill="#333"/><rect x="182.81" y="178.13" width="18.75" height="9.38" fill="#333"/><rect x="182.81" y="65.63" width="18.75" height="9.38" fill="#333"/><path d="M276.56,215.62h-37.5V23.44A23.46,23.46,0,0,0,215.63,0H23.44a23.44,23.44,0,0,0,0,46.88V290.63H220.31V262.5h18.75V243.75h37.5A14.06,14.06,0,0,0,276.56,215.62ZM229.69,23.44V215.63h-9.37V37.5h-4.69A14.06,14.06,0,1,1,229.69,23.44Zm-220.31,0A14.08,14.08,0,0,1,23.44,9.37H197a23,23,0,0,0,0,28.13H23.44A14.08,14.08,0,0,1,9.38,23.44ZM32.81,281.25V46.87H210.94V215.62h-132L36.74,229.69l42.19,14.06h132v37.5H32.81Zm33.57-51.56L75,226.81v5.74Zm163.3,23.44h-9.37v-9.37h9.38v9.38Zm9.38-18.75H84.38V225H239.06v9.38h0Zm18.75,0h-9.37V225h9.37v9.38Zm18.75,0h-9.37V225h9.38A4.69,4.69,0,0,1,276.56,234.37Z" transform="translate(0 0)" fill="#333"/></svg>