<svg id="Слой_1" data-name="Слой 1" xmlns="http://www.w3.org/2000/svg" xmlns:xlink="http://www.w3.org/1999/xlink" viewBox="0 0 290.63 290.63"><defs><clipPath id="clip-path" transform="translate(0 0)"><rect width="290.63" height="290.63" fill="none"/></clipPath><clipPath id="clip-path-3" transform="translate(0 0)"><rect x="154.69" y="93.75" width="135.94" height="103.13" fill="none"/></clipPath></defs><title>advantages--office-2</title><g clip-path="url(#clip-path)"><g clip-path="url(#clip-path)"><path d="M234.38,253.12v-68H225v68H173.44v14.06a14.06,14.06,0,1,1-28.13,0V126.56a23.2,23.2,0,0,0-4.81-14.06h70.43A14.08,14.08,0,0,1,225,126.56v25.81h9.38V126.56a23.46,23.46,0,0,0-23.44-23.44H147.2a80.08,80.08,0,0,0-20.78-22.29,14,14,0,0,0-7.16-24.37,51,51,0,0,0,12-33V14.06a14.06,14.06,0,1,0-28.12,0,4.69,4.69,0,0,1-9.38,0,14.06,14.06,0,1,0-28.12,0,4.69,4.69,0,0,1-9.38,0,14.06,14.06,0,1,0-28.12,0v9.38a51,51,0,0,0,12,33,14,14,0,0,0-7.17,24.37,79.56,79.56,0,0,0,28,141.82v16.41A23.46,23.46,0,0,0,84.38,262.5h51.56v4.69a23.46,23.46,0,0,0,23.44,23.44H267.19a23.46,23.46,0,0,0,23.44-23.44V253.13H234.38ZM37.5,14.06a4.69,4.69,0,1,1,9.38,0,14.06,14.06,0,1,0,28.12,0,4.69,4.69,0,1,1,9.38,0,14.06,14.06,0,1,0,28.12,0,4.69,4.69,0,1,1,9.38,0v9.38a41.79,41.79,0,0,1-15.76,32.81H53.26A41.79,41.79,0,0,1,37.5,23.44V14.06Zm4.69,51.56h75a4.69,4.69,0,1,1,0,9.38h-75a4.69,4.69,0,0,1,0-9.37M9.38,145.31A70.39,70.39,0,0,1,44.63,84.37h70.1a70.49,70.49,0,0,1,21.09,18.75h-14a23.46,23.46,0,0,0-23.44,23.44v4.69H46.88v9.38a14.08,14.08,0,0,1,14.06,14.06V213A70.31,70.31,0,0,1,9.38,145.31m60.94,93.75V154.69a23.2,23.2,0,0,0-4.81-14.06H98.44v98.44a14.06,14.06,0,1,1-28.12,0M103,253.12a23.19,23.19,0,0,0,4.81-14.06V126.56a14.06,14.06,0,1,1,28.13,0V253.12H103Zm178.25,14.06a14.08,14.08,0,0,1-14.06,14.06H178.11a23.31,23.31,0,0,0,4.7-14.06V262.5h98.44v4.69Z" transform="translate(0 0)" fill="#333"/><rect x="154.69" y="210.94" width="60.94" height="9.38" fill="#333"/><rect x="164.06" y="229.69" width="51.56" height="9.38" fill="#333"/><g opacity="0.5"><g clip-path="url(#clip-path-3)"><path d="M276.56,93.75a14.08,14.08,0,0,0-14.06,14.06,13.91,13.91,0,0,0,2.13,7.35l-25.68,40.35a13.54,13.54,0,0,0-12.08,1.39l-12-7.2a13.92,13.92,0,0,0,.77-4.39,14.06,14.06,0,1,0-28.13,0,13.89,13.89,0,0,0,1.7,6.57l-15,18a14.42,14.42,0,1,0,6.89,6.39l15-18a13.93,13.93,0,0,0,13-1.11l12,7.2a13.92,13.92,0,0,0-.77,4.39,14.06,14.06,0,1,0,28.13,0,13.91,13.91,0,0,0-2.13-7.34L272,121.05a13.94,13.94,0,0,0,4.57.82,14.06,14.06,0,0,0,0-28.13M168.75,187.5a4.69,4.69,0,1,1,4.69-4.69,4.69,4.69,0,0,1-4.69,4.69m28.13-42.19a4.69,4.69,0,1,1,4.69,4.69,4.69,4.69,0,0,1-4.69-4.69m37.5,28.13a4.69,4.69,0,1,1,4.69-4.69,4.69,4.69,0,0,1-4.69,4.69m42.19-60.94a4.69,4.69,0,1,1,4.69-4.69,4.69,4.69,0,0,1-4.69,4.69" transform="translate(0 0)" fill="#00bdb6"/></g></g></g></g></svg>