<svg id="Layer_1" data-name="Layer 1" xmlns="http://www.w3.org/2000/svg" viewBox="0 0 253.12 291.64"><title>advantages-index-3</title><circle cx="145.31" cy="126.92" r="65.63" fill="#00bdb6" opacity="0.5"/><path d="M261.93,19.11A256.38,256.38,0,0,1,166.31.7L164.57,0l-1.74.7A256.41,256.41,0,0,1,67.21,19.11H56.76v98.44H33.32a14.08,14.08,0,0,0-14.06,14.06V211.3a14.08,14.08,0,0,0,14.06,14.06H75.53a121.7,121.7,0,0,0,44.71,42.09l44.33,24.18,44.33-24.18a121.73,121.73,0,0,0,63.48-106.93V19.11H261.93ZM28.63,211.3V131.61a4.69,4.69,0,0,1,4.69-4.69H75.51a4.69,4.69,0,0,1,4.69,4.69V211.3A4.69,4.69,0,0,1,75.51,216H33.32A4.69,4.69,0,0,1,28.63,211.3Zm60.94-70.35a29.79,29.79,0,0,0,28.13-29.71V87.08a11.72,11.72,0,1,1,23.44,0v29.5a15,15,0,0,0,15,15h34.36a16.25,16.25,0,0,1,16.23,16.23v51.91A16.25,16.25,0,0,1,190.52,216H121.46a11.09,11.09,0,0,1-9.24-4.95,20.44,20.44,0,0,0-17-9.12H89.57v-61h0ZM263,160.52a112.37,112.37,0,0,1-58.59,98.7L164.57,281l-39.85-21.74A112.42,112.42,0,0,1,84.5,222a14,14,0,0,0,5-9.8A102.61,102.61,0,0,0,129.21,251l35.36,19.29L199.93,251a103,103,0,0,0,53.71-90.46V89.42h-9.37v71.11a93.61,93.61,0,0,1-48.82,82.23L164.57,259.6,133.7,242.76a93.3,93.3,0,0,1-32.64-29.71,11,11,0,0,1,3.37,3.19,20.44,20.44,0,0,0,17,9.12h69.07a25.64,25.64,0,0,0,25.61-25.61V147.84a25.64,25.64,0,0,0-25.61-25.61H156.16a5.66,5.66,0,0,1-5.65-5.65V87.08a21.09,21.09,0,1,0-42.19,0v24.15a20.34,20.34,0,0,1-18.77,20.22,14,14,0,0,0-4.67-10.24V46.7a284.21,284.21,0,0,0,79.69-16.57A284.25,284.25,0,0,0,244.26,46.7v5.23h9.38V37.78l-4.47-.21a275,275,0,0,1-83-16.83l-1.63-.6-1.63.6A275.1,275.1,0,0,1,80,37.57l-4.47.21v79.77H66.13V28.49H67.2a265.64,265.64,0,0,0,97.36-18.39,265.64,265.64,0,0,0,97.36,18.39H263v132h0Z" transform="translate(-19.26 0)" fill="#333"/><rect x="225" y="70.67" width="9.38" height="9.38" fill="#333"/><rect x="18.75" y="197.24" width="32.81" height="9.38" fill="#333"/></svg>