<svg id="Layer_1" data-name="Layer 1" xmlns="http://www.w3.org/2000/svg" viewBox="0 0 377.91 496"><title>advantages-index-1</title><g opacity="0.5"><rect x="116.95" y="392" width="144" height="96" fill="#00bdb6"/></g><g opacity="0.5"><path d="M433.94,280.24A76.4,76.4,0,0,1,376,206V128a120,120,0,1,0-240,0v78a76.39,76.39,0,0,1-57.94,74.21L67,283l11.67,17.5a97,97,0,0,0,39.81,34.25c1.06-.42,2.06-0.93,3.16-1.27L216,304V269.29A80.11,80.11,0,0,1,177.61,216H176a32,32,0,0,1,0-64,79.7,79.7,0,0,1,22.91-56h-0.8a24,24,0,0,1,35.44-32.26,23.88,23.88,0,0,1,44.9,0A24,24,0,0,1,313.89,96h-0.8A79.7,79.7,0,0,1,336,152a32,32,0,0,1,0,64h-1.61A80.11,80.11,0,0,1,296,269.29V304l94.32,29.47c1.1,0.34,2.1.86,3.16,1.27a97,97,0,0,0,39.81-34.25L445,283Z" transform="translate(-67.05 -8)" fill="#00bdb6"/></g><path d="M432,379.29a55.76,55.76,0,0,0-39.3-53.46L304,298.12V273.66a88.27,88.27,0,0,0,36.71-50.14,39.87,39.87,0,0,0,2.92-78.76,87.54,87.54,0,0,0-19.92-48.9,31.9,31.9,0,0,0-42.91-44,31.79,31.79,0,0,0-49.6,0,31.9,31.9,0,0,0-42.91,44,87.58,87.58,0,0,0-19.92,48.9,39.86,39.86,0,0,0,2.92,78.75A88.21,88.21,0,0,0,208,273.66v24.46l-88.7,27.72A55.77,55.77,0,0,0,80,379.29V440H96v64H416V440h16V379.29Zm-75.8,20.22a40.29,40.29,0,0,1,0,57L344,468.69V488H168V468.69l-12.2-12.2a40.29,40.29,0,0,1,0-57A41.39,41.39,0,0,0,168,370.06V327.38l16-5V384H328V322.38l16,5v42.68A41.39,41.39,0,0,0,356.2,399.51ZM296,120v16H280V120H264v16H248V120H232v16H216V120H200v16H185.86a71.93,71.93,0,0,1,140.29,0H312V120H296Zm64,64a24,24,0,0,1-16.34,22.63c0.17-2.2.34-4.39,0.34-6.63V161.47A24,24,0,0,1,360,184ZM312,80a15.8,15.8,0,0,1-.51,3.78,87.78,87.78,0,0,0-26.85-14.9A15.77,15.77,0,0,1,296,64,16,16,0,0,1,312,80ZM256,56a15.89,15.89,0,0,1,14.25,9.26,80.93,80.93,0,0,0-28.5,0A15.89,15.89,0,0,1,256,56Zm-40,8a15.76,15.76,0,0,1,11.35,4.88,88,88,0,0,0-26.85,14.9A15.81,15.81,0,0,1,216,64ZM152,184a24,24,0,0,1,16-22.53V200c0,2.24.17,4.43,0.34,6.63A24,24,0,0,1,152,184Zm32,16V152H328v48A72,72,0,0,1,184,200Zm72,88a87.42,87.42,0,0,0,32-6.11v18.8l-32,32-32-32v-18.8A87.42,87.42,0,0,0,256,288Zm-42.23,25.08L256,355.31l42.23-42.23,13.77,4.3V368H200V317.38ZM96,379.29a39.82,39.82,0,0,1,28.06-38.18L152,332.38v37.68a25.53,25.53,0,0,1-7.51,18.14A55.81,55.81,0,0,0,128.2,424H96V379.29ZM112,440h17.31a55.9,55.9,0,0,0,15.17,27.8l7.52,7.51V488H112V440Zm288,48H360V475.31l7.51-7.51A55.77,55.77,0,0,0,382.68,440H400v48Zm16-64H383.81a55.81,55.81,0,0,0-16.29-35.8A25.49,25.49,0,0,1,360,370.06V332.38l27.94,8.73A39.83,39.83,0,0,1,416,379.29V424Z" transform="translate(-67.05 -8)"/><circle cx="228.95" cy="168" r="8"/><circle cx="148.95" cy="168" r="8"/><path d="M288,216H272a16,16,0,0,1-32,0H224A32,32,0,0,0,288,216Z" transform="translate(-67.05 -8)"/><rect x="116.95" y="424" width="96" height="16"/><rect x="228.95" y="424" width="32" height="16"/></svg>