<svg id="Слой_1" data-name="Слой 1" xmlns="http://www.w3.org/2000/svg" xmlns:xlink="http://www.w3.org/1999/xlink" viewBox="0 0 285.71 291.36"><defs><clipPath id="clip-path" transform="translate(0 0)"><rect width="285.71" height="291.36" fill="none"/></clipPath><clipPath id="clip-path-3" transform="translate(0 0)"><rect x="138.1" y="191.36" width="9.52" height="100" fill="none"/></clipPath><clipPath id="clip-path-4" transform="translate(0 0)"><rect x="114.29" y="191.36" width="9.52" height="76.19" fill="none"/></clipPath><clipPath id="clip-path-5" transform="translate(0 0)"><rect x="90.48" y="234.22" width="9.52" height="9.52" fill="none"/></clipPath><clipPath id="clip-path-6" transform="translate(0 0)"><rect x="90.48" y="191.36" width="9.52" height="33.33" fill="none"/></clipPath><clipPath id="clip-path-7" transform="translate(0 0)"><rect x="161.9" y="258.03" width="9.52" height="9.52" fill="none"/></clipPath><clipPath id="clip-path-8" transform="translate(0 0)"><rect x="161.9" y="191.36" width="9.52" height="57.14" fill="none"/></clipPath><clipPath id="clip-path-9" transform="translate(0 0)"><rect x="185.71" y="191.36" width="9.52" height="52.38" fill="none"/></clipPath><clipPath id="clip-path-10" transform="translate(0 0)"><rect x="109.52" y="48.51" width="66.67" height="66.67" fill="none"/></clipPath></defs><title>cleaning-flat-advantages-2</title><g clip-path="url(#clip-path)"><g clip-path="url(#clip-path)"><g opacity="0.5"><g clip-path="url(#clip-path-3)"><rect x="138.09" y="191.36" width="9.52" height="100" fill="#00bdb6"/></g></g><g opacity="0.5"><g clip-path="url(#clip-path-4)"><rect x="114.29" y="191.36" width="9.52" height="76.19" fill="#00bdb6"/></g></g><g opacity="0.5"><g clip-path="url(#clip-path-5)"><rect x="90.48" y="234.22" width="9.52" height="9.52" fill="#00bdb6"/></g></g><g opacity="0.5"><g clip-path="url(#clip-path-6)"><rect x="90.48" y="191.36" width="9.52" height="33.33" fill="#00bdb6"/></g></g><g opacity="0.5"><g clip-path="url(#clip-path-7)"><rect x="161.9" y="258.03" width="9.52" height="9.52" fill="#00bdb6"/></g></g><g opacity="0.5"><g clip-path="url(#clip-path-8)"><rect x="161.9" y="191.36" width="9.52" height="57.14" fill="#00bdb6"/></g></g><g opacity="0.5"><g clip-path="url(#clip-path-9)"><rect x="185.71" y="191.36" width="9.52" height="52.38" fill="#00bdb6"/></g></g><g opacity="0.5"><g clip-path="url(#clip-path-10)"><path d="M142.86,48.5a33.33,33.33,0,1,1-33.33,33.33A33.33,33.33,0,0,1,142.86,48.5" transform="translate(0 0)" fill="#00bdb6"/></g></g><path d="M200,115.87V84.62A87.49,87.49,0,0,0,159.3,10.46L142.86,0,126.42,10.46A87.5,87.5,0,0,0,85.71,84.62v31.25a52.87,52.87,0,0,0-42.86,51.95v56.88h9.52A28.6,28.6,0,0,1,81,196.12H204.76a28.6,28.6,0,0,1,28.57,28.57h9.52V167.82A52.87,52.87,0,0,0,200,115.87M131.53,18.49l11.32-7.2,11.32,7.21a78,78,0,0,1,36.29,66.12v59.12H95.24V84.62a78,78,0,0,1,36.29-66.12M81,186.6a38,38,0,0,0-28.57,12.92v-31.7a43.33,43.33,0,0,1,33.33-42.19v61H81Zm14.29-33.33h95.24V186.6H95.24V153.27Zm138.1,46.26a38,38,0,0,0-28.57-12.92H200v-61a43.34,43.34,0,0,1,33.33,42.19v31.71Z" transform="translate(0 0)" fill="#333"/><polygon points="19.05 38.98 9.52 38.98 9.52 48.51 0 48.51 0 58.03 9.52 58.03 9.52 67.55 19.05 67.55 19.05 58.03 28.57 58.03 28.57 48.51 19.05 48.51 19.05 38.98" fill="#333"/><polygon points="42.86 48.51 52.38 48.51 52.38 34.22 66.67 34.22 66.67 24.7 52.38 24.7 52.38 10.41 42.86 10.41 42.86 24.7 28.57 24.7 28.57 34.22 42.86 34.22 42.86 48.51" fill="#333"/><polygon points="61.91 91.36 61.91 81.84 71.43 81.84 71.43 72.31 61.91 72.31 61.91 62.79 52.38 62.79 52.38 72.31 42.86 72.31 42.86 81.84 52.38 81.84 52.38 91.36 61.91 91.36" fill="#333"/><polygon points="228.57 62.79 238.09 62.79 238.09 53.27 247.62 53.27 247.62 43.74 238.09 43.74 238.09 34.22 228.57 34.22 228.57 43.74 219.05 43.74 219.05 53.27 228.57 53.27 228.57 62.79" fill="#333"/><polygon points="285.71 77.08 271.43 77.08 271.43 62.79 261.9 62.79 261.9 77.08 247.62 77.08 247.62 86.6 261.9 86.6 261.9 100.89 271.43 100.89 271.43 86.6 285.71 86.6 285.71 77.08" fill="#333"/><polygon points="219.05 105.65 228.57 105.65 228.57 96.12 238.09 96.12 238.09 86.6 228.57 86.6 228.57 77.08 219.05 77.08 219.05 86.6 209.52 86.6 209.52 96.12 219.05 96.12 219.05 105.65" fill="#333"/></g></g></svg>