<svg id="Слой_1" data-name="Слой 1" xmlns="http://www.w3.org/2000/svg" xmlns:xlink="http://www.w3.org/1999/xlink" viewBox="0 0 496 496"><defs><clipPath id="clip-path" transform="translate(0 0)"><rect width="496" height="496" fill="none"/></clipPath><clipPath id="clip-path-3" transform="translate(0 0)"><rect x="278.33" y="201.09" width="165.82" height="165.83" fill="none"/></clipPath></defs><title>cleaning-flat-advantages-3</title><g clip-path="url(#clip-path)"><g clip-path="url(#clip-path)"><path d="M288,352H72a24,24,0,0,1-24-24V72A24,24,0,0,1,72,48H424a24,24,0,0,1,24,24V226.93H432V72a8,8,0,0,0-8-8H72a8,8,0,0,0-8,8V328a8,8,0,0,0,8,8H288v16Z" transform="translate(0 0)" fill="#333"/><path d="M240,192H80V80H240V192ZM96,176H224V96H96v80Z" transform="translate(0 0)" fill="#333"/><rect x="256" y="80" width="160" height="16" fill="#333"/><rect x="256" y="112" width="128" height="16" fill="#333"/><rect x="400" y="112" width="16" height="16" fill="#333"/><rect x="80" y="224" width="144" height="16" fill="#333"/><polygon points="496 0 0 0 0 400 282.3 400 271 496 292 496 310.63 471.16 323.06 496 351.45 496 359.98 376.57 344.02 375.43 336.55 480 332.94 480 313.37 440.84 289.93 472.1 303.94 352.94 288.06 351.06 284.18 384 16 384 16 16 480 16 480 384 435.82 384 431.94 351.06 416.06 352.94 430.07 472.1 406.63 440.84 387.06 480 383.45 480 375.98 375.43 360.02 376.57 368.55 496 396.94 496 409.37 471.16 428 496 449 496 437.7 400 496 400 496 0" fill="#333"/><rect x="80" y="256" width="144" height="16" fill="#333"/><rect x="80" y="288" width="112" height="16" fill="#333"/><rect x="208" y="288" width="16" height="16" fill="#333"/><g opacity="0.5"><g clip-path="url(#clip-path-3)"><path d="M361.25,366.91A82.91,82.91,0,1,1,444.16,284a83,83,0,0,1-82.91,82.91" transform="translate(0 0)" fill="#00bdb6"/></g></g><path d="M361.25,341.4a57.4,57.4,0,1,1,57.4-57.4,56.78,56.78,0,0,1-12.33,35.54l-10-7.91A44.16,44.16,0,0,0,405.89,284a44.65,44.65,0,1,0-44.64,44.64,44.21,44.21,0,0,0,27.29-9.31l7.81,10.09a56.84,56.84,0,0,1-35.1,12" transform="translate(0 0)" fill="#333"/></g></g></svg>