<svg id="Слой_1" data-name="Слой 1" xmlns="http://www.w3.org/2000/svg" xmlns:xlink="http://www.w3.org/1999/xlink" viewBox="0 0 490.37 488.02"><defs><clipPath id="clip-path" transform="translate(0)"><rect width="490.37" height="488.02" fill="none"/></clipPath><clipPath id="clip-path-3" transform="translate(0)"><rect x="173.18" y="48" width="144" height="152" fill="none"/></clipPath></defs><title>cleaning-flat-advantages-1</title><g clip-path="url(#clip-path)"><g clip-path="url(#clip-path)"><g opacity="0.5"><g clip-path="url(#clip-path-3)"><path d="M245.18,48a72,72,0,0,0-40,131.8V200h80V179.8a72,72,0,0,0-40-131.8m0,88a16,16,0,1,1,16-16,16,16,0,0,1-16,16" transform="translate(0)" fill="#00bdb6"/></g></g><path d="M480.18,241.75l-74.13,59.31-69.38-76.32L490.37,94.1,480,81.91,321.23,216.86A80.72,80.72,0,0,0,293,226.11a19.91,19.91,0,0,0-1.18-5.23A20,20,0,0,0,281.18,184h-28V142.53a24,24,0,1,0-16,0V184h-28a20,20,0,0,0-10.63,36.88,19.65,19.65,0,0,0-1.17,5.14,80.41,80.41,0,0,0-28.28-9.19L10.36,81.9,0,94.09,153.69,224.74,84.3,301.06,10.18,241.74l-10,12.5,79.6,63.68a81.74,81.74,0,0,0,26.78,42.89L121.15,373a26.43,26.43,0,0,0,3.56,24.68,26.14,26.14,0,0,0,18,10.27c0.7,0.08,1.41.13,2.11,0.15v0.62A26.52,26.52,0,0,0,155,429.26a25.54,25.54,0,0,0,15.31,5.42c0,0.24,0,.49,0,0.73a26.53,26.53,0,0,0,10.18,20.51,25.59,25.59,0,0,0,15.32,5.42v0.74A26.55,26.55,0,0,0,206,482.59a25.59,25.59,0,0,0,15.9,5.42,27.36,27.36,0,0,0,17.54-6.41l0.43-.37a26.07,26.07,0,0,0,33.84-1.84,26.55,26.55,0,0,0,8.12-18.26c0.17,0,.34,0,0.5,0a26.24,26.24,0,0,0,18.1-7.2,26.64,26.64,0,0,0,8.12-18.26c0.17,0,.34,0,0.5,0a26.27,26.27,0,0,0,18.11-7.2,26.56,26.56,0,0,0,8.11-18.26c0.17,0,.34,0,0.51,0a26.21,26.21,0,0,0,18.1-7.21,26.61,26.61,0,0,0,8.22-19.45,26,26,0,0,0-.45-4L384,360.83a81.83,81.83,0,0,0,26.8-43l79.41-63.52ZM245.18,112a8,8,0,1,1-8,8,8,8,0,0,1,8-8m-19,136h38.21l-19.1,16Zm-9-24h56a4,4,0,0,1,0,8h-56a4,4,0,0,1,0-8m-8-24h72a4,4,0,0,1,0,8h-72a4,4,0,0,1,0-8M95,313.07L136,268l32-35.18a64.59,64.59,0,0,1,32.2,14.41l86.86,72.62a10.73,10.73,0,0,1,.86,15.62,10.37,10.37,0,0,1-14.09.92l-39.33-31.7a8,8,0,0,0-11.25,1.2l0,0.07,0,0a31.19,31.19,0,0,1-24.57,12,31.57,31.57,0,0,1-31.38-31.67h-16a47.71,47.71,0,0,0,20.55,39.25L130.47,360l-13.65-11.42A65.84,65.84,0,0,1,95,313.07M216,470a10.5,10.5,0,0,1-.77-16,26.44,26.44,0,0,0,7.1,11.29l5.38,5c-3.8,2.26-8.45,2.3-11.71-.26m46.79-2.21a10.26,10.26,0,0,1-14,.12l-15.62-14.37a10.55,10.55,0,0,1-.13-15.38,10.28,10.28,0,0,1,14-.11l2,1.82,0,0h0l13.63,12.54a10.54,10.54,0,0,1,.11,15.36m26.73-25.42a10.29,10.29,0,0,1-14,.11l-2-1.82,0,0h0l-13.63-12.54a10.55,10.55,0,0,1-.11-15.37,10.28,10.28,0,0,1,14-.11L289.34,427a10.55,10.55,0,0,1,.13,15.38M316.22,417a10.29,10.29,0,0,1-14,.12l-15.62-14.38a10.54,10.54,0,0,1-.13-15.37,10.27,10.27,0,0,1,14-.12l8.87,8.16,6.76,6.22a10.55,10.55,0,0,1,.13,15.37m26.72-25.42a10.28,10.28,0,0,1-14,.13l-2-1.84,0,0-7.25-6.67-6.37-5.86a10.55,10.55,0,0,1-.13-15.37,10.29,10.29,0,0,1,14-.13l15.63,14.39a10.54,10.54,0,0,1,.13,15.38m30.73-43-19.43,16.5c-0.21-.21-0.37-0.46-0.58-0.66L338,350a26.22,26.22,0,0,0-44,18.58,26.14,26.14,0,0,0-18.61,7.15A26.55,26.55,0,0,0,267.31,394a26.14,26.14,0,0,0-18.61,7.14,26.62,26.62,0,0,0-8.12,18.28A26.18,26.18,0,0,0,222,426.58a26.46,26.46,0,0,0-3.7,4.45,7.88,7.88,0,0,0-1.67.9l-11.22,9.39h0l-0.07.06-1.54,1.29c-4,3.33-9.55,3.62-13.3.67a10.55,10.55,0,0,1-.33-16.4l55.49-46.39-10.26-12.28-55.49,46.39-0.06,0L178.25,416c-4,3.31-9.55,3.61-13.29.66a10.54,10.54,0,0,1-.34-16.4l56.26-47L210.62,341l-56.27,47-2.09,1.74a10.24,10.24,0,0,1-14.8-1.73c-3.34-4.39-2.28-11.13,2.37-15l48.3-40.39a46.69,46.69,0,0,0,42-11l33.66,27.12a26.28,26.28,0,0,0,35.7-2.31,26.76,26.76,0,0,0-2.14-39l-39.6-33.11,32.57-27.23a64.52,64.52,0,0,1,32.06-14.38l0.58,0.63,72.53,79.79a65.92,65.92,0,0,1-21.82,35.37" transform="translate(0)" fill="#333"/><path d="M397.18,256a24,24,0,1,0,24-24,24,24,0,0,0-24,24m32,0a8,8,0,1,1-8-8,8,8,0,0,1,8,8" transform="translate(0)" fill="#333"/><path d="M93.18,256a24,24,0,1,0-24,24,24,24,0,0,0,24-24m-32,0a8,8,0,1,1,8,8,8,8,0,0,1-8-8" transform="translate(0)" fill="#333"/><rect x="237.18" width="16" height="32" fill="#333"/><rect x="185.19" y="13.94" width="16" height="32" transform="translate(10.91 100.61) rotate(-30)" fill="#333"/><rect x="147.12" y="51.98" width="16" height="32" transform="translate(18.69 168.32) rotate(-60)" fill="#333"/><rect x="125.18" y="112" width="32" height="16" fill="#333"/><rect x="333.18" y="112" width="32" height="16" fill="#333"/><rect x="319.26" y="59.99" width="32" height="16" transform="translate(10.91 176.7) rotate(-29.99)" fill="#333"/><rect x="281.18" y="21.97" width="32" height="16" transform="translate(122.67 272.37) rotate(-60.01)" fill="#333"/></g></g></svg>