<svg id="Слой_1" fill="#00bdb6" data-name="Слой 1" xmlns="http://www.w3.org/2000/svg" xmlns:xlink="http://www.w3.org/1999/xlink" viewBox="0 0 511.21 512.02"><defs><clipPath id="clip-path" transform="translate(0 0)"><rect width="511.21" height="512.02" fill="none"/></clipPath></defs><title>Vector Smart Object30</title><g clip-path="url(#clip-path)"><path d="M285,382.29a8.53,8.53,0,0,0,10.89-.54l102.4-93.87a8.53,8.53,0,1,0-11.54-12.58l-97.18,89.06L261.12,343a8.53,8.53,0,0,0-10.24,13.65Z" transform="translate(0 0)"/><path d="M8.53,128a64.56,64.56,0,0,1,33.41,12.25,67.93,67.93,0,0,1,13.22,12.89C22.36,210.86,3.87,265.52.44,315.66A186.92,186.92,0,0,0,48,453a175.1,175.1,0,0,0,124.9,58.88c2,0.07,4,.09,6,0.09A178.71,178.71,0,0,0,305.2,459.57,132.68,132.68,0,0,0,393.69,442l60,60A34.13,34.13,0,0,0,502,453.75l-60-60a136.4,136.4,0,0,0-117.55-206c-1.15,0-2.27.14-3.41,0.17A737.36,737.36,0,0,0,191.15,5.06,17.07,17.07,0,0,0,179,0h-0.11a16.82,16.82,0,0,0-11.95,5.12A740.1,740.1,0,0,0,107.66,74,138.57,138.57,0,0,1,93.87,8.53a8.53,8.53,0,0,0-17.07,0c0,100.43-65.36,102.4-68.27,102.4a8.53,8.53,0,0,0,0,17.07M489.92,465.81a17.07,17.07,0,0,1-24.11,24.11L408.09,432.2a137.23,137.23,0,0,0,24.12-24.11ZM444,324.4A119.6,119.6,0,1,1,324.4,204.8,119.61,119.61,0,0,1,444,324.4M179,17.11A723.64,723.64,0,0,1,302.84,189.6,136.53,136.53,0,0,0,285,455.23a161.21,161.21,0,0,1-111.5,39.63,158.18,158.18,0,0,1-112.8-53.21A169.81,169.81,0,0,1,17.47,316.83C20.56,271.67,36.76,222.3,65.36,170A144.27,144.27,0,0,1,76.8,230.4a8.53,8.53,0,0,0,17.07,0c0-100.55,65.52-102.4,68.27-102.4a8.53,8.53,0,0,0,0-17.07,64.55,64.55,0,0,1-33.41-12.25,67.27,67.27,0,0,1-10.75-10A729.77,729.77,0,0,1,179,17.11M85.33,65.57a104.07,104.07,0,0,0,14.23,27.5,6.53,6.53,0,0,0,.43.64,85.12,85.12,0,0,0,30.72,25.75,90.53,90.53,0,0,0-45.38,53.9,104.9,104.9,0,0,0-12.63-25.1,8,8,0,0,0-1-1.49A85.46,85.46,0,0,0,40,119.47a90.53,90.53,0,0,0,45.38-53.9" transform="translate(0 0)"/><path d="M155.13,452.4C69,436.74,60,344.53,59.73,340.62A8.56,8.56,0,1,0,42.67,342C42.76,343.13,52.91,451.17,152,469.19a8.53,8.53,0,1,0,3.07-16.78h0Z" transform="translate(0 0)"/></g></svg>