<svg id="Слой_1" data-name="Слой 1" xmlns="http://www.w3.org/2000/svg" xmlns:xlink="http://www.w3.org/1999/xlink" viewBox="0 0 52 52"><defs><clipPath id="clip-path" transform="translate(0 0)"><rect width="52" height="52" fill="none"/></clipPath></defs><title>contacts-icon-3</title><g clip-path="url(#clip-path)"><path d="M26,0A26,26,0,0,0,3.94,39.76c-1,3.6-2.88,10.4-2.9,10.47a1,1,0,0,0,1.26,1.22L12.6,48.28A26,26,0,1,0,26,0m0,50a24,24,0,0,1-12.73-3.65,1,1,0,0,0-.53-0.15,1.05,1.05,0,0,0-.29,0L3.44,49C4.11,46.6,5.29,42.28,6,39.88a1,1,0,0,0-.12-0.82A24,24,0,1,1,26,50" transform="translate(0 0)"/><path d="M43,32.13c-1.85-1-3.42-2.05-4.57-2.8-0.87-.57-1.51-1-2-1.22a2.27,2.27,0,0,0-2.65.19,1,1,0,0,0-.12.15c-1.35,2-3.11,4-3.62,4.06a24.18,24.18,0,0,1-6.15-4c-2.83-2.35-4.6-4.61-4.86-6.15,1.81-1.87,2.47-3,2.47-4.38s-3.21-7.13-3.79-7.71-1.9-.67-3.9-0.27a1,1,0,0,0-.51.27c-0.24.24-5.93,6-3.23,13.07C13,31.07,20.65,40,30.35,41.49a21.06,21.06,0,0,0,3.11.25c5.71,0,9.08-2.87,10-8.57a1,1,0,0,0-.5-1M30.65,39.51C20.38,38,13.92,27.8,11.93,22.64S13.6,13,14.51,11.92a7.55,7.55,0,0,1,1.85-.13A35.85,35.85,0,0,1,19.5,18c0,0.52-.17,1.26-2.21,3.29A1,1,0,0,0,17,22c0,5.24,11,12.5,13,12.5,1.7,0,3.92-2.86,5.18-4.72a1,1,0,0,1,.37.12c0.36,0.18,1,.59,1.77,1.1,1,0.68,2.43,1.59,4.06,2.52-0.74,3.57-2.82,7.18-10.74,6" transform="translate(0 0)"/></g></svg>