<svg id="Слой_1" data-name="Слой 1" xmlns="http://www.w3.org/2000/svg" xmlns:xlink="http://www.w3.org/1999/xlink" viewBox="0 0 341.33 512"><defs><clipPath id="clip-path" transform="translate(0 0)"><rect width="341.33" height="512" fill="none"/></clipPath></defs><title>contacts-icon-1</title><g clip-path="url(#clip-path)"><path d="M170.67,0C76.56,0,0,76.56,0,170.67a171,171,0,0,0,20.49,81.1L161.33,506.5a10.67,10.67,0,0,0,18.67,0L320.9,251.69a171,171,0,0,0,20.44-81C341.33,76.56,264.77,0,170.67,0M302.18,241.45L170.67,479.29,39.21,241.54a149.52,149.52,0,0,1-17.88-70.87c0-82.34,67-149.33,149.33-149.33S320,88.32,320,170.67a149.43,149.43,0,0,1-17.82,70.78" transform="translate(0 0)"/><path d="M170.67,85.33A85.33,85.33,0,1,0,256,170.67a85.43,85.43,0,0,0-85.33-85.33m0,149.33a64,64,0,1,1,64-64,64.07,64.07,0,0,1-64,64" transform="translate(0 0)"/></g></svg>