<svg id="Слой_1" data-name="Слой 1" xmlns="http://www.w3.org/2000/svg" xmlns:xlink="http://www.w3.org/1999/xlink" viewBox="0 0 457 456.99"><defs><clipPath id="clip-path" transform="translate(0 0)"><rect width="457" height="457" fill="none"/></clipPath></defs><title>contacts-icon-2</title><g clip-path="url(#clip-path)"><path d="M321.48,284.14a28.29,28.29,0,0,0-40,0L260,305.42h0l0,0c-8.27,5.27-39-6.61-70.39-38s-43.3-62.15-38-70.39l0.32-.5c0-.06.1-0.12,0.15-0.18l20.82-20.82a28.28,28.28,0,0,0,0-40L87.34,50a28.27,28.27,0,0,0-40,0L14.91,82.46C-5.65,103-4.92,141.31,17,190.27,37.64,236.52,75,287.91,122,335S220.49,419.36,266.74,440c25.28,11.3,47.72,17,66.34,17,17.43,0,31.52-5,41.46-14.91L407,409.64a28.3,28.3,0,0,0,0-40ZM60.28,62.94a10,10,0,0,1,14.13,0l85.51,85.52a10,10,0,0,1,0,14.13L143.6,178.91,44,79.26ZM361.61,429.16C332.73,458,234.77,421.87,134.95,322.05c-45.53-45.53-81.51-95-101.29-139.25C15.35,141.86,13.23,110,27.84,95.39l3.2-3.2L133.18,194.34c-6,23.1,17,59.52,43.47,86,23.62,23.62,55.16,44.54,78.09,44.54a31.58,31.58,0,0,0,8-1L364.81,426Zm32.45-32.45L377.74,413,278.09,313.4l16.32-16.33a10,10,0,0,1,14.14,0l85.51,85.51a10,10,0,0,1,0,14.13" transform="translate(0 0)"/><path d="M403.62,53.31A180.56,180.56,0,0,0,275.13,0H275a9.14,9.14,0,0,0,0,18.28h0.17A163.85,163.85,0,0,1,438.72,182,9.14,9.14,0,0,0,457,182,180.91,180.91,0,0,0,403.62,53.31" transform="translate(0 0)"/><path d="M275,79.8A102.29,102.29,0,0,1,377.18,182a9.14,9.14,0,0,0,18.28,0A120.59,120.59,0,0,0,275,61.52a9.14,9.14,0,1,0,0,18.28" transform="translate(0 0)"/><path d="M275,141.36A40.66,40.66,0,0,1,315.61,182a9.14,9.14,0,0,0,18.28,0,59,59,0,0,0-58.9-58.9,9.14,9.14,0,1,0,0,18.28" transform="translate(0 0)"/></g></svg>