<svg id="Слой_1" data-name="Слой 1" xmlns="http://www.w3.org/2000/svg" xmlns:xlink="http://www.w3.org/1999/xlink" viewBox="0 0 480.01 480"><defs><clipPath id="clip-path" transform="translate(0 0)"><rect width="480.01" height="480" fill="none"/></clipPath></defs><title>contacts-icon-4</title><g clip-path="url(#clip-path)"><path d="M424,224.6V216a88,88,0,0,0-176,0v32H216a8,8,0,0,0-8,8v32a8,8,0,0,0,8,8h0.8l7.58,72H192V24a24,24,0,1,0-48,0V368H64a16,16,0,0,0-16,16v23l-15.76,63A8,8,0,0,0,40,480H416a8,8,0,0,0,8-8V440.42L435.3,333.15A24.48,24.48,0,0,0,448,311.55V254a30.05,30.05,0,0,0-24-29.4M264,216a72,72,0,1,1,144,0v8H334a30,30,0,0,0-29.4,24H264V216Zm-40,48h80v16H224V264Zm8.89,32H304v15.56a24.79,24.79,0,0,0,7.38,17.54,23.6,23.6,0,0,0,17,6.9A24.11,24.11,0,0,0,344,329.87a24,24,0,0,0,32,0,24,24,0,0,0,32,0,23.76,23.76,0,0,0,11,5.57L408.8,432H294.25L288,407V384a16,16,0,0,0-16-16H240.47ZM160,24a8,8,0,0,1,16,0V368H160V24ZM64,384H272v16H64V384Zm18.25,80,12-48h15.51l-12,48H82.25Zm-20-48H77.76l-12,48H50.25Zm64,0h16.69l-6,48H114.25Zm26.82,48,6-48h17.88l6,48H153.07Zm46,0-6-48h16.69l12,48H199.07Zm39.18,0-12-48h15.51l12,48H238.25Zm32,0-12-48h15.51l12,48H270.25ZM408,464H302.25l-4-16H408v16Zm24-176v23.55a8.33,8.33,0,0,1-7.6,8.44A8,8,0,0,1,416,312.4c0-.13,0-0.27,0-0.4V280H400v32a8,8,0,0,1-16,0V280H368v32a8,8,0,0,1-16,0V280H336v32a8,8,0,0,1-7.87,8H328a7.7,7.7,0,0,1-5.41-2.3,8.69,8.69,0,0,1-2.6-6.14V254a14,14,0,0,1,14-14h84a14,14,0,0,1,14,14v34Z" transform="translate(0 0)"/><rect x="376" y="376" width="16" height="40"/><rect x="376" y="344" width="16" height="16"/><path d="M80.41,258.53a8,8,0,0,0,15.18,0,42.8,42.8,0,0,1,26.94-26.94,8,8,0,0,0,0-15.18,42.8,42.8,0,0,1-26.94-26.94,8,8,0,0,0-15.18,0,42.8,42.8,0,0,1-26.94,26.94,8,8,0,0,0,0,15.18,42.8,42.8,0,0,1,26.94,26.94m7.59-49A59.21,59.21,0,0,0,102.44,224,59.22,59.22,0,0,0,88,238.43,59.22,59.22,0,0,0,73.57,224,59.21,59.21,0,0,0,88,209.57" transform="translate(0 0)"/><path d="M474.53,120.41a42.8,42.8,0,0,1-26.94-26.94,8,8,0,0,0-15.18,0,42.8,42.8,0,0,1-26.94,26.94,8,8,0,0,0,0,15.18,42.8,42.8,0,0,1,26.94,26.94,8,8,0,0,0,15.18,0,42.8,42.8,0,0,1,26.94-26.94,8,8,0,0,0,0-15.18m-34.53,22A59.19,59.19,0,0,0,425.57,128,59.19,59.19,0,0,0,440,113.57,59.19,59.19,0,0,0,454.44,128,59.19,59.19,0,0,0,440,142.43" transform="translate(0 0)"/><path d="M40,360a8,8,0,0,0,7.59-5.47,42.8,42.8,0,0,1,26.94-26.94,8,8,0,0,0,0-15.18,42.8,42.8,0,0,1-26.94-26.94,8,8,0,0,0-15.18,0A42.8,42.8,0,0,1,5.47,312.41a8,8,0,0,0,0,15.18,42.8,42.8,0,0,1,26.94,26.94A8,8,0,0,0,40,360m0-54.43A59.23,59.23,0,0,0,54.44,320,59.18,59.18,0,0,0,40,334.43,59.18,59.18,0,0,0,25.57,320,59.23,59.23,0,0,0,40,305.57" transform="translate(0 0)"/></g></svg>