<svg id="Слой_1" data-name="Слой 1" xmlns="http://www.w3.org/2000/svg" xmlns:xlink="http://www.w3.org/1999/xlink" viewBox="0 0 438.53 438.54"><defs><clipPath id="clip-path" transform="translate(0 0)"><rect width="438.53" height="438.54" fill="none"/></clipPath></defs><title>inst</title><g clip-path="url(#clip-path)"><path d="M422,16.56Q405.42,0,382.3,0h-326Q33.12,0,16.56,16.56T0,56.24v326Q0,405.41,16.56,422t39.69,16.56h326q23.12,0,39.68-16.56t16.56-39.68v-326q0-23.13-16.55-39.68M157.46,158q25.84-25,62.1-25,36.54,0,62.38,25t25.84,60.39q0,35.4-25.84,60.38t-62.38,25q-36.26,0-62.1-25t-25.84-60.38q0-35.4,25.84-60.39m231.4,212.56A16.63,16.63,0,0,1,383.72,383a17,17,0,0,1-12.28,5H66.24a17.07,17.07,0,0,1-17.42-17.41v-185H89.08A122.94,122.94,0,0,0,83.37,223q0,54.83,40,93.51t96.22,38.68a137.24,137.24,0,0,0,68.53-17.7,133.3,133.3,0,0,0,49.68-48.11A126.5,126.5,0,0,0,356,223a123,123,0,0,0-5.71-37.4h38.55v185h0Zm0-255a19.51,19.51,0,0,1-19.71,19.7H319.48a19.5,19.5,0,0,1-19.7-19.7V68.52a19.16,19.16,0,0,1,5.71-13.85,18.8,18.8,0,0,1,14-5.85h49.68a18.78,18.78,0,0,1,14,5.85,19.15,19.15,0,0,1,5.72,13.85v47.1Z" transform="translate(0 0)"/></g></svg>