<?xml version="1.0" encoding="utf-8"?>
<!-- Generator: Adobe Illustrator 23.0.1, SVG Export Plug-In . SVG Version: 6.00 Build 0)  -->
<svg version="1.1" id="Слой_1" xmlns="http://www.w3.org/2000/svg" xmlns:xlink="http://www.w3.org/1999/xlink" x="0px" y="0px"
	 viewBox="0 0 285.58 228.54" style="enable-background:new 0 0 285.58 228.54;" xml:space="preserve">
<style type="text/css">
	.st0{clip-path:url(#SVGID_2_);fill:#572912;}
	.st1{clip-path:url(#SVGID_2_);fill:#69BDB5;}
	.st2{clip-path:url(#SVGID_2_);fill:#C58B3F;}
	.st3{clip-path:url(#SVGID_2_);fill:#4D2D10;}
	.st4{fill:#FFFFFF;}
</style>
<g>
	<defs>
		<rect id="SVGID_1_" width="285.58" height="228.54"/>
	</defs>
	<clipPath id="SVGID_2_">
		<use xlink:href="#SVGID_1_"  style="overflow:visible;"/>
	</clipPath>
	<path class="st0" d="M23.49,228.54c0,0,57.79-22.74,118.93-22.37c61.14,0.37,120.05,22.37,120.05,22.37l23.11-58.16
		c0,0-61.14-26.66-143.16-26.66S0,171.5,0,171.5L23.49,228.54z"/>
	<polygon class="st1" points="231.52,100.47 240.47,83.51 256.5,74.64 240.09,65.99 232.08,49.21 224.06,65.99 206.91,74.64 
		223.32,83.51 	"/>
	<polygon class="st1" points="183.81,34.59 189.46,23.88 199.58,18.28 189.22,12.82 184.17,2.24 179.11,12.82 168.29,18.28 
		178.64,23.88 	"/>
	<polygon class="st1" points="39.99,118.15 47.14,104.59 59.96,97.5 46.84,90.58 40.44,77.17 34.03,90.58 20.32,97.5 33.43,104.59 	
		"/>
	<polygon class="st1" points="90.15,46.6 94.05,39.2 101.05,35.33 93.89,31.55 90.39,24.23 86.89,31.55 79.41,35.33 86.57,39.2 	"/>
	<polygon class="st1" points="239.27,142.46 243.18,135.06 250.17,131.19 243.02,127.42 239.52,120.1 236.02,127.42 228.54,131.19 
		235.7,135.06 	"/>
	<path class="st1" d="M79.04,144.28c2.42-5.22,8.39-10.81,8.39-10.81l-4.85-42.13h-1.86l-1.31-8.2l-5.39,2.07
		c-11.06,17.44-19.27,33.65-19.96,44.16c-0.44,6.71,1.86,15.47,4.47,19.91c0,0,7.23-2.33,20.57-4.72
		C79.02,144.48,78.99,144.39,79.04,144.28"/>
	<path class="st1" d="M123.59,60.77l-11.56,2.24v2.05c0,0,1.14,0.18,5.03-0.37c5.22-0.75,6.52,4.85,6.52,4.85l2.61,8.58l-0.93,2.42
		l17.52,38.4l1.86-5.41c0,0-4.48-8.91,0.02-19.94c5.01-12.31,17.5-14.73,17.5-14.73l2.24-5.97c0,0,1.3-4.47,2.8-5.41
		c1.49-0.93,3.73-0.93,4.47-1.12c0.74-0.19,2.05-3.17,2.05-3.17l4.89-14.49C158.37,21.93,138.69,0,138.69,0s-16.31,18.81-34.6,42.72
		l12.61-4.51L123.59,60.77z"/>
	<path class="st1" d="M222.2,128.25c-0.67-11.23-8.36-27.16-18.83-43.99l-0.56,4.66c0,0,9.88,9.51,8.57,21.9
		c-1.3,12.4-11,19.48-11,19.48l-2.05,9.88l2.02,3.18c13.52,2.09,19.6,4.24,19.6,4.24S223,141.65,222.2,128.25"/>
	<path class="st1" d="M199.58,90.59c-0.72-0.47-33.16-9.34-33.16-9.34s-13.29,2.2-17.68,13.63c-4.09,10.62,0.76,18.66,0.76,18.66
		l-5.78,16.76c0,0-3.17,0.37-7.46,2.98c-2.97,1.81-4.95,4.68-5.89,6.28c1.22-0.03,2.45-0.05,3.7-0.07
		c4.1-5.46,11.65-7.28,11.65-7.28l5.45-18.31c0,0-1.48-2.11-2.38-5.17c-1.18-4.05-0.62-11.88,2.94-16.92
		c4.1-5.8,8.4-6.93,13.42-8.81c-10.49,6.43-12.84,15.62-12.58,21.95c0.28,6.85,6.29,12.16,8.11,13.2
		c1.82,1.04,11.18,4.97,11.18,4.97s-11.42-3.82-14.26-4.33c-3.5-0.64-4.61,2.52-4.61,2.52l-4.47,14.12c0,0-4.33,1.12-6.43,3.91
		c0,0-0.09,0.04-0.23,0.1c22.39,0.05,39.45,1.4,51.82,2.98l2.98-14.91c0,0,8.57-5.41,10.43-13.88
		C209.97,100.46,200.44,91.15,199.58,90.59"/>
	<path class="st2" d="M141.35,122.28h-2.06L119.3,77.17l-33.83,9.32l6.29,48.51l-8.67,9.27c0,0,1.19-0.29,4.2-0.76
		c2.1-2.69,6.64-7.25,6.64-7.25l-5.94-47.81l10.76,48.65c0,0-4.33,4.05-5.31,5.36c0,0-0.21,0.11-0.56,0.28
		c6.37-0.79,16.34-1.78,31.31-2.7c5.45-7.69,11.74-11.46,16.5-12.72C140.55,126.2,141.35,122.28,141.35,122.28"/>
	<path class="st3" d="M197.87,77.13l-0.7-0.33l0.27-1.04c0.18-0.74-0.09-1.53-0.69-2l-0.42-0.33l2.75-14.73
		c0.26-1.4-0.58-2.76-1.95-3.16l-12.52-3.62c-1.4-0.4-2.87,0.33-3.38,1.7l-5.17,13.74h-0.08c-1.03,0-1.92,0.69-2.19,1.68l-0.25,0.91
		l-0.78-0.04c-2.09-0.1-4.01,1.12-4.79,3.06l-2.51,6.21c-0.35,0.86,0.13,1.82,1.02,2.08l33.1,9.36l0.86-8.43
		C200.64,80.21,199.65,77.96,197.87,77.13 M173.84,74.22c-2.42,0.09-5.79,3.6-5.79,3.6s0.95-6.59,4.89-6.38
		c4.38,0.23,21.95,6.85,21.95,6.85S176.26,74.13,173.84,74.22 M186.97,55.48c-0.8-0.09-1.84,0.54-2.14,1.28l-3.6,9.04
		c-0.24,0.6-0.51,1.57,0.69,2.02l10.84,4.75l-14.01-4.45c-1.13-0.32-1.44-0.95-1-2.04l4.41-11.1c0.45-1.13,1.69-1.74,2.86-1.39
		l12.5,3.61L186.97,55.48z"/>
	<path class="st3" d="M121.19,74.94l-2.65-5.38c-0.42-0.85-1.36-1.3-2.28-1.09l-1.23,0.28c-1.76,0.4-3.61,0.48-4.97-0.71l-1.65-1.86
		c-0.42-0.47-0.7-1.04-0.82-1.66l-0.61-3.14c-0.04-1.16,0.73-1.48,1.27-1.57l8.55-1.48c1.38-0.28,1.32-1.59,1.09-2.41l-3.32-11.46
		c-0.2-0.71-0.96-1.1-1.66-0.86L69.49,58.61c-1.37,0.48-2.11,1.97-1.65,3.35L69.84,68c0.22,0.65,0.9,1.02,1.56,0.83l11.68-3.24
		c0.8,0.11,1.3,0.92,1.05,1.68L84,67.69c0,0-3.84,5.03-12.3,8.95c1.33,2.59,2.52,4.62,2.52,4.62s7.9-3.36,13.7-11.82
		c1.89-1.68,1.96,0.91,1.96,0.91l-0.26,3.6c-0.1,0.59-0.47,1.11-1,1.39l-3.58,1.88c-1.17,0.62-1.82,1.9-1.64,3.2l0.72,5.26
		c0.09,0.65,0.74,1.08,1.37,0.9l34.8-9.62C121.15,76.72,121.59,75.75,121.19,74.94 M70.93,60.44c-0.46,0.16-0.79,0.56-0.85,1.05
		l0.85,5.34l-1.7-5.92c-0.12-0.45,0.12-0.91,0.56-1.07l42.07-14.8c0.84-0.29,1.76,0.15,2.05,0.99l3.5,9.78l-3.3-6.71
		c-0.42-0.61-1.21-0.84-1.89-0.55l-3.44,1.23c-0.57,0.25-1.29,0.64-1.25,1.71l0.93,6.34l-2.68-7.49c-0.26-0.68-1.01-1.04-1.7-0.81
		L70.93,60.44z M86.26,79.36c-1.82,0.98-1.12,4.89-1.12,4.89s-2.05-5.24-0.01-5.94c8.19-2.8,27.09-7.12,27.09-7.12
		S87.65,78.62,86.26,79.36"/>
</g>
<g>
	<path class="st4" d="M29.06,183.34l5.62-1.61l6.71,6.11l2.44-8.74l5.62-1.61l5.51,19.19l-5.29,1.52l-3.17-11.02l-2.75,8.92
		l-0.11,0.03l-7.02-6.05l3.15,10.96l-5.21,1.5L29.06,183.34z"/>
</g>
<g>
	<path class="st4" d="M62.12,187.3l-10.17-10.5l6.15-1.4l5.62,6.18l2.42-8.01l6.03-1.37l-4.65,13.78l1.67,7.37l-5.42,1.23
		L62.12,187.3z"/>
</g>
<g>
	<path class="st4" d="M74.62,171.78l15.81-2.8l0.82,4.63l-10.42,1.84l0.53,2.98l9.44-1.67l0.76,4.3l-9.44,1.67l0.55,3.12l10.56-1.87
		l0.82,4.63l-15.95,2.82L74.62,171.78z"/>
</g>
<g>
	<path class="st4" d="M101.05,167.41l5.29-0.64l10.84,18.94l-5.89,0.71l-1.87-3.36l-7.64,0.92l-0.99,3.71l-5.78,0.7L101.05,167.41z
		 M107.33,178.97l-2.89-5.37l-1.56,5.9L107.33,178.97z"/>
</g>
<g>
	<path class="st4" d="M116.83,182.76l2.86-3.85c2.06,1.45,4.3,2.15,6.6,2.01c1.48-0.09,2.25-0.65,2.19-1.56
		c-0.05-0.83-0.73-1.24-3.47-1.71c-4.3-0.72-7.64-1.72-7.89-5.88c-0.22-3.7,2.55-6.55,7.34-6.83c3.39-0.2,6.09,0.55,8.36,2.16
		l-2.53,4.06c-1.9-1.17-3.93-1.74-5.7-1.63c-1.34,0.08-1.96,0.69-1.91,1.46c0.05,0.91,0.76,1.27,3.56,1.73
		c4.64,0.73,7.58,2.04,7.8,5.82c0.24,4.07-2.83,6.68-7.67,6.97C122.83,185.72,119.4,184.81,116.83,182.76z"/>
</g>
<g>
	<path class="st4" d="M141.74,177.23l-7.46-12.56l6.3,0.06l4.03,7.31l4.21-7.23l6.19,0.06l-7.71,12.33l-0.07,7.56l-5.56-0.05
		L141.74,177.23z"/>
</g>
<g>
	<path class="st4" d="M154.42,174.83c0.41-5.8,5.2-10.04,11.23-9.62c4.07,0.29,6.48,2.23,8.07,4.8l-4.26,2.84
		c-1.04-1.5-2.31-2.48-4.22-2.61c-2.79-0.2-4.92,2.03-5.13,4.99c-0.21,2.99,1.59,5.46,4.38,5.65c2.08,0.15,3.37-0.73,4.67-2.1
		l3.95,3.25c-2.06,2.46-4.73,4.18-9.14,3.87C158.27,185.51,154,180.84,154.42,174.83z"/>
</g>
<g>
	<path class="st4" d="M177.39,166.63l5.49,0.72l-1.96,14.99l9.59,1.25l-0.63,4.81l-15.07-1.97L177.39,166.63z"/>
</g>
<g>
	<path class="st4" d="M195.59,169.12l15.79,2.9l-0.85,4.63l-10.41-1.91l-0.55,2.97l9.42,1.73l-0.79,4.29l-9.42-1.73l-0.57,3.11
		l10.55,1.94l-0.85,4.63l-15.93-2.92L195.59,169.12z"/>
</g>
<g>
	<path class="st4" d="M221.86,174.21l5.18,1.25l3.53,21.54l-5.77-1.39l-0.57-3.81l-7.48-1.81l-2.22,3.13l-5.66-1.37L221.86,174.21z
		 M223.7,187.24l-0.83-6.04l-3.52,4.98L223.7,187.24z"/>
</g>
<g>
	<path class="st4" d="M238.08,178.41l4.93,1.52l4.74,12.51l3.11-10.08l5.23,1.62l-5.89,19.08l-4.63-1.43l-4.92-12.98l-3.23,10.46
		l-5.23-1.62L238.08,178.41z"/>
</g>
</svg>
