<?xml version="1.0" encoding="utf-8"?><svg xmlns="http://www.w3.org/2000/svg" xmlns:xlink="http://www.w3.org/1999/xlink"><symbol viewBox="0 0 11 6" id="arrow-accordion" xmlns="http://www.w3.org/2000/svg"><path d="M0 0h11v1h-1v1H9v1H8v1H7v1H6v1H5V5H4V4H3V3H2V2H1V1H0z"/></symbol><symbol viewBox="0 0 18.75 33.23" id="arrow-right" xmlns="http://www.w3.org/2000/svg"><path d="M1.38 0L0 1.44l15.86 15.17L0 31.78l1.38 1.45 17.37-16.62L1.38 0z"/></symbol><symbol viewBox="0 0 24.47 15.56" id="arrow-table" xmlns="http://www.w3.org/2000/svg"><path d="M24.47 2.77L21.58 0l-9.35 9.77L2.89 0 0 2.77l12.23 12.79L24.47 2.77z"/></symbol><symbol viewBox="0 0 511.99 426.67" id="tel" xmlns="http://www.w3.org/2000/svg"><defs><clipPath id="da"><path d="M0 0h511.99v426.67H0z"/></clipPath></defs><g clip-path="url(#da)"><path d="M200.9 281.2l-8.47 119.13c12.12 0 17.37-5.21 23.66-11.46l56.81-54.29 117.72 86.21c21.59 12 36.8 5.7 42.62-19.86l77.27-362.07C517.38 6.92 499-5.56 478 2.27L23.77 176.16c-31 12-30.53 29.31-5.27 37.14l116.12 36.12L404.33 80.65c12.69-8.41 24.23-3.76 14.74 4.65z"/></g></symbol><symbol viewBox="0 0 512 512" id="whatsapp" xmlns="http://www.w3.org/2000/svg"><defs><clipPath id="ea"><path d="M0 0h512v512H0z"/></clipPath></defs><g clip-path="url(#ea)"><path d="M256.06 0h-.13C114.78 0 0 114.82 0 256a254.1 254.1 0 0048.74 150l-31.9 95.1 98.4-31.46A253.78 253.78 0 00256.06 512C397.22 512 512 397.15 512 256S397.22 0 256.06 0M405 361.5c-6.18 17.44-30.69 31.9-50.24 36.13-13.38 2.85-30.85 5.12-89.66-19.26-75.21-31.17-123.66-107.62-127.44-112.58-3.62-5-30.4-40.48-30.4-77.22s18.66-54.62 26.18-62.3c6.18-6.3 16.38-9.18 26.18-9.18 3.17 0 6 .16 8.58.29 7.52.32 11.3.77 16.26 12.64 6.18 14.88 21.22 51.62 23 55.39s3.65 8.9 1.09 13.86c-2.4 5.12-4.51 7.39-8.29 11.74s-7.36 7.68-11.14 12.35c-3.46 4.06-7.36 8.41-3 15.94 4.35 7.36 19.39 31.9 41.54 51.62 28.58 25.44 51.74 33.57 60 37 6.18 2.56 13.54 2 18-2.85 5.73-6.18 12.8-16.42 20-26.5 5.12-7.23 11.58-8.13 18.37-5.57 6.91 2.4 43.49 20.48 51 24.22s12.48 5.57 14.3 8.74 1.79 18-4.38 35.52"/></g></symbol></svg>