<svg id="Слой_1" fill="#00bdb6" data-name="Слой 1" xmlns="http://www.w3.org/2000/svg" xmlns:xlink="http://www.w3.org/1999/xlink" viewBox="0 0 458.31 460"><defs><clipPath id="clip-path" transform="translate(0 0)"><rect width="458.31" height="460" fill="none"/></clipPath></defs><title>steps-work-1</title><g clip-path="url(#clip-path)"><path d="M7.52,460H341.46c4.42,0,7.54-4.08,7.54-8.5V278.87L455.92,171.94a8,8,0,0,0,.11-11.3L413.48,118A8.25,8.25,0,0,0,402,118l-53,52.65V89.45a7.79,7.79,0,0,0-2.12-5.66L266,2.59A7.94,7.94,0,0,0,260.5,0H7.52C3.1,0,0,4.08,0,8.5v443c0,4.42,3.1,8.5,7.52,8.5m255.4-173.39,24.65,24.65-37,12.38Zm39.44,16.81-31.61-31.6L372.26,170.53l31.38,31.38ZM407.88,135l31.3,31.3-24.23,24.29-31.35-31.36ZM269,27.81L322.14,81H269V27.81ZM16,16H253V89.45A7.22,7.22,0,0,0,260.5,97H333v89.65l-79.45,79.5a7.15,7.15,0,0,0-1.82,2.95L240.45,303H67.7a8,8,0,0,0,0,16H235.1l-4.82,14.6a7.84,7.84,0,0,0,1.93,8.1,3.38,3.38,0,0,0,1.88,1.3H67.7a8,8,0,0,0,0,16h213a8,8,0,0,0,0-16H242l62.89-20.85a7,7,0,0,0,2.9-1.84l25.2-25.4V444H16V16Z" transform="translate(0 0)"/><path d="M280.7,383H67.7a8,8,0,0,0,0,16h213a8,8,0,0,0,0-16" transform="translate(0 0)"/><path d="M67.7,279h113a8,8,0,0,0,0-16H67.7a8,8,0,0,0,0,16" transform="translate(0 0)"/></g></svg>