<svg id="Слой_1" fill="#00bdb6" data-name="Слой 1" xmlns="http://www.w3.org/2000/svg" xmlns:xlink="http://www.w3.org/1999/xlink" viewBox="0 0 365.67 512"><defs><clipPath id="clip-path" transform="translate(0 0)"><rect width="365.67" height="512" fill="none"/></clipPath></defs><title>steps-work-2</title><g clip-path="url(#clip-path)"><path d="M48.88,367h0s0.47-.14,0,0" transform="translate(0 0)"/><path d="M48.88,367h0" transform="translate(0 0)"/><path d="M365.11,477.71l-4.47-22.44a7.5,7.5,0,0,0-14.71,2.93l4.47,22.44A13.69,13.69,0,0,1,337,497H293.32V462.94a7.5,7.5,0,0,0-15,0V497H213.9l-9.71-75.23,5-14.75c3.13,1.73,9.12,9.46,19.12,6.43a15.38,15.38,0,0,0,10-9.55l14.34-40.18,54.14,16,0-.06c1,0.39,2.2.72,5.56,1.7,7.48,2.84,20.25,10.19,23.77,27.78l2.94,14.77a7.5,7.5,0,1,0,14.71-2.93l-2.94-14.77c-5-24.91-23.11-35.12-33.47-39-0.47-.17,3.88,1.13-66.16-19.53L230.62,333.7V320.6a102.8,102.8,0,0,0,52.25-66.34,21,21,0,0,0,29.95-14.62,42.13,42.13,0,0,0,14-61.51v-34.3A144,144,0,0,0,183,0,141.34,141.34,0,0,0,95.37,30.2,7.5,7.5,0,1,0,104.59,42,126.46,126.46,0,0,1,183,15,129,129,0,0,1,311.85,143.83v18.72a21.18,21.18,0,0,0-12.19-12.18v-6.53a116.64,116.64,0,1,0-233.27,0v6.54A21.17,21.17,0,0,0,54.2,162.54V145.33a130,130,0,0,1,27.08-79.8,7.5,7.5,0,1,0-11.9-9.13A144.84,144.84,0,0,0,39.2,145.33v32.8a42.13,42.13,0,0,0,14,61.51,21.16,21.16,0,0,0,13.82,15.65,52.51,52.51,0,0,0,13.59,25.24A61.28,61.28,0,0,0,105.24,296a104.4,104.4,0,0,0,29.92,24.19v13.65l-20.31,13.73L48.88,367v0l-0.49.19,0,0c-10.37,3.87-28.5,14.07-33.47,39L0.55,478.48A28.06,28.06,0,0,0,28.07,512h72.39a7.5,7.5,0,0,0,0-15H87.73V462.94a7.5,7.5,0,0,0-15,0V497H28.07a13.06,13.06,0,0,1-12.81-15.6l14.36-72.3c3.51-17.59,16.29-24.94,23.77-27.78l59.87-17.66,14.36,40.23a15.24,15.24,0,0,0,10,9.55c8.79,2.67,13.52-2.53,19.16-6.46l5.05,14.93-9.7,75.1h-16.7a7.5,7.5,0,1,0,0,15H337a28.69,28.69,0,0,0,28.14-34.29M313.26,185.11a7.56,7.56,0,0,0,.49.61,27.1,27.1,0,0,1-.49,34.59v-35.2Zm-260.95.61a7.3,7.3,0,0,0,.49-0.61v35.2a27.1,27.1,0,0,1-.49-34.59M80,235.35a6.09,6.09,0,0,1-12.19,0V170.05a6.09,6.09,0,1,1,12.19,0v65.29ZM239,357.47l-14.77,41.39a0.38,0.38,0,0,1-.59.18l-13.7-10.16,17.17-39.44Zm47.09-187.41a6.09,6.09,0,1,1,12.19,0v65.29a6.09,6.09,0,0,1-12.19,0V170.05ZM82.37,254.65c0.38-.17.76-0.35,1.13-0.54q1.27,4.9,3,9.66a36.49,36.49,0,0,1-4.14-9.12M94,154.28a17.72,17.72,0,0,0-4.9,1.2,21.13,21.13,0,0,0-7.71-5.12v-6.53a101.64,101.64,0,1,1,203.27,0v6.54a21.08,21.08,0,0,0-5.19,2.88l-0.15-.14-0.39-.33-32.35-25.19c-7.4-5.76-16.43-7.2-24.79-4-22.14,8.56-78.84,28.67-127,30.59a7.17,7.17,0,0,0-.76.07m37.08,145.53h22a21.11,21.11,0,0,0,19.69,13.59h19.05a21.09,21.09,0,1,0,0-42.19H172.75a21.11,21.11,0,0,0-19.69,13.6H128.57A58,58,0,0,1,114,283a90.27,90.27,0,0,1-18.84-55V169.29l0.44-.08,0.51,0c50.26-2.17,108.37-22.77,131.11-31.56a10.13,10.13,0,0,1,10.15,1.81l32,24.93a7.93,7.93,0,0,1,1.53,4.87v60.09a87.74,87.74,0,0,1-88.6,87.87,86.28,86.28,0,0,1-51.22-17.37m35.57-7.5a6.1,6.1,0,0,1,6.1-6.1h19.05a6.09,6.09,0,1,1,0,12.19H172.75a6.1,6.1,0,0,1-6.1-6.09M142.33,399a0.38,0.38,0,0,1-.59-0.18L127,357.46l11.92-8.07c29,65.53-.82-2,17.2,39.41Zm7.83-63.27h0m0.17,0.4-0.17-.4v-9A101.15,101.15,0,0,0,183,332.19a103.71,103.71,0,0,0,32.58-5.25v9.23l-19.94,47.66H170.35l-20-47.68m45.82,62.68-5,14.66H174.84l-5-14.66h26.26ZM167.28,497l8.84-68.5h13.81l8.85,68.5h-31.5Z" transform="translate(0 0)"/></g></svg>