<svg id="Слой_1" fill="#00bdb6" data-name="Слой 1" xmlns="http://www.w3.org/2000/svg" xmlns:xlink="http://www.w3.org/1999/xlink" viewBox="0 0 322.56 305.36"><defs><clipPath id="clip-path" transform="translate(0 0)"><rect width="322.56" height="305.36" fill="none"/></clipPath></defs><title>steps-work-5</title><g clip-path="url(#clip-path)"><path d="M321.6,172c-0.8-1.6-2.8-2.4-4.4-2.8-9.2,0-88.4-3.2-88.4-95.2a5.2,5.2,0,1,0-10.4,0c0,92-79.2,95.2-88,95.2a4.54,4.54,0,0,0-3.2,1.2,6,6,0,0,0-1.6,1.6,5.93,5.93,0,0,0,0,5.2,5.55,5.55,0,0,0,4.8,2.8h0.4c9.2,0,88,3.2,88,95.2a5.2,5.2,0,0,0,10.4,0c0-91.6,78.8-95.2,88-95.2a6.1,6.1,0,0,0,4.8-2.8,4.92,4.92,0,0,0-.4-5.2m-98,64c-11.6-38-40-54.4-62.4-61.6,22.4-7.2,50.8-23.6,62.4-61.6,11.6,38,40,54.4,62.4,61.6-22.4,7.2-50.8,23.6-62.4,61.6" transform="translate(0 0)"/><path d="M157.6,68a5.39,5.39,0,0,0,5.2-5.6,5.29,5.29,0,0,0-5.2-5.2c-4.8,0-48-1.6-48-52a5.2,5.2,0,1,0-10.4,0c0,50.4-43.2,52-48,52H50.8A5.22,5.22,0,0,0,46,62.4a5.29,5.29,0,0,0,5.2,5.2c5.2,0,48,1.6,48,52a5.29,5.29,0,0,0,5.2,5.2c2.4,0.4,4.8-2,4.8-4.8,0-50.4,43.2-52,48-52h0.4ZM104,90.8C97.6,75.6,86,67.2,75.2,62.4A53.82,53.82,0,0,0,104,34c6.4,15.2,18,23.6,28.8,28.4A53.82,53.82,0,0,0,104,90.8" transform="translate(0 0)"/><path d="M111.6,237.6c-4.8,0-48-1.6-48-52a5.2,5.2,0,0,0-10.4,0c0,50.4-43.2,52-48,52H4.8A5.22,5.22,0,0,0,0,242.8,5.29,5.29,0,0,0,5.2,248c5.2,0,48,1.6,48,52a5.3,5.3,0,0,0,5.2,5.2c2.4,0.8,4.8-1.6,4.8-4.8,0-50.4,43.2-52,48-52h0.4a5.39,5.39,0,0,0,5.2-5.6,5.29,5.29,0,0,0-5.2-5.2M58,271.6c-6.8-15.2-18-23.6-28.8-28.4A53.81,53.81,0,0,0,58,214.8c6.4,15.2,18,23.6,28.8,28.4A53.81,53.81,0,0,0,58,271.6" transform="translate(0 0)"/></g></svg>