<svg id="Слой_1" fill="#00bdb6" data-name="Слой 1" xmlns="http://www.w3.org/2000/svg" xmlns:xlink="http://www.w3.org/1999/xlink" viewBox="0 0 512 511.89"><defs><clipPath id="clip-path" transform="translate(0 0)"><rect width="512" height="511.89" fill="none"/></clipPath></defs><title>steps-work-4_2</title><g clip-path="url(#clip-path)"><path d="M355.42,511.89A25.72,25.72,0,0,0,380.15,493l23.59-88.08L493.09,381a25.64,25.64,0,0,0,18-31.33L464.81,177l3.67-13.65A25.59,25.59,0,0,0,453,133L432.19,55.14A25.77,25.77,0,0,0,400.84,37L248.47,77.89,120.71,43.64a25.09,25.09,0,0,0-15.85.86L73,12.63A42.65,42.65,0,1,0,12.62,72.94L70.8,131.12,1.1,391.31a25.65,25.65,0,0,0,18,31.38L348.77,511a25.12,25.12,0,0,0,6.64.89M494.62,354.07a8.54,8.54,0,0,1-6,10.43l-79.8,21.33L456,210ZM405.2,53.52a8.53,8.53,0,0,1,10.5,6.07l18.2,68L281.43,86.71Zm-146.73,205L215.4,244.16l28.71-28.74,14.35,43.07v0ZM223.75,211.7l-72.39-72.39a8.53,8.53,0,1,0-12.06,12.07l72.39,72.37-12.06,12.08L79,115.17,91,103.11l24.12,24.13a8.54,8.54,0,0,0,12.07-12.07L103.12,91,115.18,79,235.81,199.63ZM54.85,91L91,54.85l12.06,12.06-36.19,36.2ZM17.19,42.79a25.59,25.59,0,0,1,43.69-18.1L79,42.79,42.79,79l-18.1-18.1a25.42,25.42,0,0,1-7.49-18.09m0.39,353L84.74,145.06,193.59,253.92a8.4,8.4,0,0,0,3.14,1.94,1.27,1.27,0,0,1,.19.12l56.2,18.77a17.17,17.17,0,0,0,5.44.86,16.9,16.9,0,0,0,9.06-2.67l98.1,26.34a8.16,8.16,0,0,0,2.22.3,8.53,8.53,0,0,0,2.2-16.77l-94.69-25.42a17.62,17.62,0,0,0-.79-4.27l-18.77-56.2a0.64,0.64,0,0,0-.13-0.21,8.46,8.46,0,0,0-1.93-3.12L122,61.67l323.92,86.77a8.54,8.54,0,0,1,6,10.46L363.68,488.49a8.53,8.53,0,0,1-10.47,6L23.63,406.24a8.53,8.53,0,0,1-6-10.46" transform="translate(0 0)"/><path d="M394.46,200.65a8.53,8.53,0,0,0,2.2-16.77L275.33,151.37a8.53,8.53,0,1,0-4.42,16.47l121.34,32.52a8.47,8.47,0,0,0,2.21.29" transform="translate(0 0)"/><path d="M381.2,250.09a8.53,8.53,0,0,0,2.2-16.77l-82.49-22.07a8.53,8.53,0,1,0-4.4,16.48L379,249.8a8.52,8.52,0,0,0,2.2.29" transform="translate(0 0)"/><path d="M118,268.17l-24.74-6.63A8.53,8.53,0,1,0,88.8,278l24.74,6.64a8.66,8.66,0,0,0,2.22.29A8.53,8.53,0,0,0,118,268.17" transform="translate(0 0)"/><path d="M363,342.64a8.53,8.53,0,0,0-6-10.44L167.4,281.42A8.53,8.53,0,0,0,163,297.86l189.52,50.78a8.31,8.31,0,0,0,2.21.3,8.53,8.53,0,0,0,8.24-6.3" transform="translate(0 0)"/><path d="M104.71,317.61L80,311a8.53,8.53,0,0,0-4.41,16.48l24.74,6.62a8.16,8.16,0,0,0,2.21.3,8.53,8.53,0,0,0,2.21-16.77h0Z" transform="translate(0 0)"/><path d="M343.68,381.64L154.16,330.86a8.53,8.53,0,1,0-4.42,16.48l189.52,50.78a8.36,8.36,0,0,0,2.22.3,8.53,8.53,0,0,0,2.2-16.77" transform="translate(0 0)"/></g></svg>