<svg id="Слой_1" fill="#00bdb6" data-name="Слой 1" xmlns="http://www.w3.org/2000/svg" xmlns:xlink="http://www.w3.org/1999/xlink" viewBox="0 0 512 437.57"><defs><clipPath id="clip-path" transform="translate(0 0)"><rect width="512" height="437.57" fill="none"/></clipPath></defs><title>steps-work-4</title><rect x="398.51" y="281.57" width="15" height="15"/><rect x="98.51" y="281.57" width="15" height="15"/><g clip-path="url(#clip-path)"><path d="M169.5,289.07a86.5,86.5,0,1,0,86.5-86.5,86.6,86.6,0,0,0-86.5,86.5m158,0a71.5,71.5,0,1,1-71.5-71.5,71.58,71.58,0,0,1,71.5,71.5" transform="translate(0 0)"/><path d="M248.5,230.55V236a30.82,30.82,0,0,0-23.27,29.85v3.76a27,27,0,0,0,23.27,26.72v29.87A15.79,15.79,0,0,1,240.23,312h-15a30.83,30.83,0,0,0,23.27,30.11v5.44h15v-5.44a30.82,30.82,0,0,0,23.27-29.84v-3.76a27,27,0,0,0-23.27-26.72V252a15.79,15.79,0,0,1,8.27,14.14h15A30.83,30.83,0,0,0,263.5,236v-5.44h-15Zm0,50.43a12,12,0,0,1-8.27-11.39v-3.76A15.79,15.79,0,0,1,248.5,252v29Zm23.27,27.57v3.76a15.79,15.79,0,0,1-8.27,13.87v-29a12,12,0,0,1,8.27,11.38" transform="translate(0 0)"/><polygon points="0 140.57 0 437.57 83.49 437.57 83.49 422.57 15 422.57 15 155.57 497 155.57 497 422.57 98.49 422.57 98.49 437.57 512 437.57 512 140.57 0 140.57"/><path d="M66.08,407.57H445.92l-0.79-8.22a29.52,29.52,0,0,1,29.36-32.28H482v-156h-7.5a29.53,29.53,0,0,1-29.5-29.5c0-1.75.06-2,.92-11h-77.7v15h62A44.59,44.59,0,0,0,467,225.44V352.7a44.59,44.59,0,0,0-36.82,39.87H81.82A44.59,44.59,0,0,0,45,352.7V225.44a44.59,44.59,0,0,0,36.82-39.87h271.4v-15H66.08l0.79,8.22A29.52,29.52,0,0,1,37.5,211.07H30v156h7.5A29.53,29.53,0,0,1,67,396.57c0,1.76-.06,2-0.92,11" transform="translate(0 0)"/><path d="M371.41,67.18l-3.55-7.46-86.49,51.92,7.72,12.86,73-43.81a44.52,44.52,0,0,0,52.09,15.25l15.6,26,12.86-7.72-23-38.32-6.43,3.86a29.5,29.5,0,0,1-41.79-12.57" transform="translate(0 0)"/><polygon points="477.62 114.21 409.07 0 223.07 111.64 230.79 124.5 403.93 20.58 464.76 121.93 477.62 114.21"/></g></svg>