<svg id="Слой_1" fill="#00bdb6" data-name="Слой 1" xmlns="http://www.w3.org/2000/svg" xmlns:xlink="http://www.w3.org/1999/xlink" viewBox="0 0 511 495.2"><defs><clipPath id="clip-path" transform="translate(0 0)"><rect width="511" height="495.2" fill="none"/></clipPath></defs><title>steps-work-5_2</title><g clip-path="url(#clip-path)"><path d="M0.26,373.89a8.5,8.5,0,0,0,3.09,8.84L148.13,493.45a8.47,8.47,0,0,0,6.8,1.6l349.19-68.14a8.52,8.52,0,0,0,2.32-15.9L327.59,317.32a8.54,8.54,0,0,0-5.3-.85L306.18,319A656.56,656.56,0,0,1,436.42,76q6-7.13,12.14-14.14a334.86,334.86,0,0,1,26.11-26.29c1-.85,2.45-2.4,4.26-4.26L481.21,29a17,17,0,0,0,3.4-18.87A16.58,16.58,0,0,0,468.61,0C415,1.79,283.61,29.27,208.37,243.73c-29.18-17.61-118.83-63.88-179.91-10.44a8.52,8.52,0,0,0,5.6,14.93h0.06a104.87,104.87,0,0,1,9.6,4.35l1.76,0.85a286.08,286.08,0,0,1,35.33,18.64,211.76,211.76,0,0,1,71.06,71.4c0.12,0.2.23,0.44,0.35,0.65L7.15,367.56a8.52,8.52,0,0,0-6.9,6.33m221.18,44.66h4c17,0,37.47-.53,52.05-15.11A67.08,67.08,0,0,0,294,372.83l22.38-3.66L375.27,400,163.95,441.24l-51.1-39.08,64.5-10.48c10.13,15,23.65,26.88,44.09,26.88m-131.65-161a302,302,0,0,0-37.4-19.69l-0.79-.39c62.89-37.36,155.49,25.6,156.49,26.28A8.51,8.51,0,0,0,221,259.43C292.24,45.68,418.25,18.73,469,17.09l-2.36,2.43c-1.44,1.5-2.62,2.75-3.4,3.47a352.87,352.87,0,0,0-27.43,27.64q-6.31,7.16-12.43,14.48a669.19,669.19,0,0,0-136.93,262.2c0,0.15-.08.28-0.11,0.43-0.6,2.4-1.26,4.8-1.84,7.21-1.18,5-2.11,10.1-3,15.25-0.8,4.44-1.61,8.79-2.55,13l-0.06.22a55.16,55.16,0,0,1-13.38,28c-10.12,10.11-26.12,10.15-42,10.11h-2c-14.48,0-24.35-9.93-32.43-23.13a6.36,6.36,0,0,0-.56-0.93c-4.19-7-7.93-14.84-11.62-22.6-3.47-7.3-6.73-14.2-10.34-20.2a228.71,228.71,0,0,0-76.7-77.12M160.4,360c0.35,0.73.69,1.4,1,2.15,2.12,4.46,4.34,9.11,6.72,13.75l-77.5,12.61a8.52,8.52,0,0,0-3.81,15.17l69.84,53.4a8.46,8.46,0,0,0,5.14,1.76,8.2,8.2,0,0,0,1.63-.15l238.89-46.6a8.51,8.51,0,0,0,2.32-15.9L321.8,352.76a8.52,8.52,0,0,0-5.33-.85l-18.6,3c0.1-.56.21-1.14,0.32-1.7,0.85-4.84,1.7-9.66,2.85-14.34,0.14-.6.32-1.22,0.46-1.82l20.69-3.34L477,414.85,155.43,477.6l-126-96.39Z" transform="translate(0 0)"/><path d="M302.47,162a8.37,8.37,0,0,0,4.13,1.07,8.51,8.51,0,0,0,7.45-4.39c40.55-73,89.42-98.38,90.06-98.72a8.53,8.53,0,1,0-7.67-15.24c-2.18,1.09-54,27.64-97.32,105.69A8.52,8.52,0,0,0,302.47,162" transform="translate(0 0)"/><path d="M277.25,204.78A8.51,8.51,0,0,0,288.68,201l8.51-17a8.52,8.52,0,1,0-15.24-7.61l-8.51,17a8.51,8.51,0,0,0,3.81,11.43" transform="translate(0 0)"/></g></svg>