<svg id="Слой_1" fill="#00bdb6" data-name="Слой 1" xmlns="http://www.w3.org/2000/svg" xmlns:xlink="http://www.w3.org/1999/xlink" viewBox="0 0 512 509.92"><defs><clipPath id="clip-path" transform="translate(0 0)"><rect width="512" height="509.92" fill="none"/></clipPath></defs><title>steps-work-3_2</title><g clip-path="url(#clip-path)"><path d="M241.23,377.85a8.66,8.66,0,0,0-12.1,1.85l-1.07,1.46A8.66,8.66,0,0,0,242,391.43l1.08-1.47a8.66,8.66,0,0,0-1.85-12.1" transform="translate(0 0)"/><path d="M243.49,460.2l-22.26-40.48L242,391.41a8.66,8.66,0,1,0-14-10.25L204,413.93a8.65,8.65,0,0,0-.61,9.29l24.93,45.32h0a8.66,8.66,0,1,0,15.17-8.34" transform="translate(0 0)"/><path d="M308,413.93L284,381.3a8.66,8.66,0,0,0-14,10.25l20.68,28.17-22.11,40.21a8.66,8.66,0,1,0,15.17,8.35l24.78-45a8.66,8.66,0,0,0-.61-9.3" transform="translate(0 0)"/><path d="M321.72,277.89a8.65,8.65,0,0,0-8.94.54,137.8,137.8,0,0,0-14.2,11.17c-23.3,21.06-45.43,18.21-46.3,18.09a8.53,8.53,0,0,0-1.58-.1c-9.21.24-25.81-8.18-43.37-22-2.69-2.11-5.44-4.12-8.19-6a8.66,8.66,0,0,0-13.5,7.17v29.7a8.66,8.66,0,0,0,4,7.29l61.38,41,0,0,0.16,0.11a8.66,8.66,0,0,0,9.66-.06l0.09-.06,0.1-.07,61.24-40.92c0.25-.16.49-0.32,0.72-0.51a8.65,8.65,0,0,0,3.33-6.82v-31a8.65,8.65,0,0,0-4.63-7.66m-12.68,34-53,35.44-53-35.44V304c12.91,9.38,31.91,20.9,47.4,20.9h0.1c5.2,0.57,31.71,2.14,58.58-21.43v8.41h0Z" transform="translate(0 0)"/><path d="M264.54,356.3A8.66,8.66,0,0,0,249,352.6l-19.9,27.1a8.66,8.66,0,1,0,14,10.25l19.79-27a8.64,8.64,0,0,0,1.78-5.26,8.86,8.86,0,0,0-.12-1.43" transform="translate(0 0)"/><path d="M387.88,77.23c-0.17-1.36-4.23-30.62-31.77-42.17a29.75,29.75,0,0,0-2.55-18.17c-4.39-8.64-13-14.27-25.73-16.73A8.62,8.62,0,0,0,326.18,0H210a85.66,85.66,0,0,0-85.56,85.56v45.59a52.23,52.23,0,0,0,11.4,32.61c3.64,4.54,8.13,12.46,8.81,24.45a8.66,8.66,0,0,0,17.3-.49V128.28c5.88-24.31,25.94-29,29.39-29.68h37.58a42.26,42.26,0,0,0,12.92-2c7.15-2.29,18.48-6.51,26.74-9.65a25.09,25.09,0,0,1,17.21-.22L326,100.86c20.11,7.42,23.7,25.08,24.15,27.85V200a8.65,8.65,0,0,0,8,8.63l0.65,0a8.67,8.67,0,0,0,8.55-7.37c0-.22,3.49-22.55,14.64-40.43a38.78,38.78,0,0,0,5.93-20.52V78.32a8.7,8.7,0,0,0-.07-1.09m-17.24,63.14a21.46,21.46,0,0,1-3.16,11.11V128.12a8.59,8.59,0,0,0-.05-0.93,54,54,0,0,0-35.5-42.6l-0.12,0L291.52,70.4a42.42,42.42,0,0,0-29.1.37c-11.56,4.39-20.5,7.62-25.88,9.34a25,25,0,0,1-7.64,1.18H190.63a8.81,8.81,0,0,0-1.11.07c-1.46.19-36,5.1-44.68,44a8.66,8.66,0,0,0-.21,1.88v17.82a35.18,35.18,0,0,1-2.88-14V85.56A68.33,68.33,0,0,1,210,17.31H325.31c4.77,1,10.58,3.1,12.78,7.35,2.7,5.2-.37,12.35-0.38,12.36a8.66,8.66,0,0,0,5.81,12.1c22,5.3,26.53,26.44,27.12,29.86v61.4h0Z" transform="translate(0 0)"/><path d="M367.43,127.18a54,54,0,0,0-35.5-42.6l-0.12,0L291.52,70.4a42.45,42.45,0,0,0-29.1.37c-11.56,4.39-20.5,7.62-25.88,9.34a25,25,0,0,1-7.64,1.18H190.63a8.8,8.8,0,0,0-1.11.07c-1.46.19-36,5.1-44.68,44a8.66,8.66,0,0,0-.21,1.89V201.7c0,0.06,0,.13,0,0.19,0.06,2.58,1.89,63.63,44.07,91.55l0.22,0.15,0.55,0.38c2.4,1.62,4.82,3.39,7.18,5.24,12.29,9.65,35.44,25.67,53.71,25.67h0.1a47.67,47.67,0,0,0,5.16.26c10.35,0,32.44-2.71,54.57-22.71a120.85,120.85,0,0,1,12.41-9.76l0.65-.45,0.64-.45c14.07-9.45,38.44-33.83,43.55-91,0-.26,0-0.51,0-0.77V128.12a9.15,9.15,0,0,0-.05-0.93m-17.26,72.47c-4.72,51.56-26.69,71.55-35.93,77.76l-1,.68-0.48.34a137.82,137.82,0,0,0-14.2,11.17c-23.21,21-45.27,18.23-46.35,18.08a8.61,8.61,0,0,0-1.52-.09c-9.21.24-25.81-8.18-43.37-22-2.69-2.11-5.44-4.12-8.19-6l-0.21-.15-0.66-.46c-34-22.53-36.26-75.25-36.34-77.45v-73.3c5.9-24.4,26.08-29.08,29.37-29.68h37.6a42.26,42.26,0,0,0,12.92-2c7.15-2.29,18.48-6.51,26.74-9.64a25.09,25.09,0,0,1,17.21-.22L326,100.86c20.11,7.42,23.7,25.08,24.15,27.85v70.94h0Z" transform="translate(0 0)"/><path d="M263.74,353.86A8.66,8.66,0,0,0,249,352.61l-20.74,28.24a8.66,8.66,0,0,0,13.94,10.26L263,363a9,9,0,0,0,1.69-5.24,8.67,8.67,0,0,0-.91-3.87" transform="translate(0 0)"/><path d="M264.3,493.24a8.65,8.65,0,0,0-12.1-.4l-2,1.81a8.66,8.66,0,0,0-1.72,10.61l0.06,0.11a8.66,8.66,0,0,0,6.37,4.35,8.87,8.87,0,0,0,1.19.08,8.66,8.66,0,0,0,6.12-2.54l1.92-1.92a8.65,8.65,0,0,0,.13-12.1" transform="translate(0 0)"/><path d="M261.78,494.64l-2-1.81a8.66,8.66,0,0,0-12,12.51l1.92,1.92a8.65,8.65,0,0,0,6.12,2.53,8.55,8.55,0,0,0,1.22-.09,8.66,8.66,0,0,0,6.36-4.41l0.06-.11a8.66,8.66,0,0,0-1.75-10.55" transform="translate(0 0)"/><path d="M261.92,494.78h0a8.66,8.66,0,0,0-11.81,0l0,0a8.66,8.66,0,0,0-.27,12.53l0.09,0.09a8.65,8.65,0,0,0,12.22,0l0.09-.09a8.66,8.66,0,0,0-.28-12.52" transform="translate(0 0)"/><path d="M258.81,349.35a8.65,8.65,0,1,0,6,8.25v0a8.64,8.64,0,0,0-6-8.23" transform="translate(0 0)"/><path d="M263,352.53l-0.07-.1a8.66,8.66,0,0,0-15.62,5.15v0.15a8.68,8.68,0,0,0,8.67,8.62,8.75,8.75,0,0,0,4.83-1.45A8.66,8.66,0,0,0,263,352.53" transform="translate(0 0)"/><path d="M359,325.34a8.64,8.64,0,0,0-5.17-5.08l-33.19-11.9c-0.27-.1-0.55-0.18-0.83-0.25a8.65,8.65,0,0,0-6.91,1.2l-61.5,41.09-0.05,0,4.83,7.18-4.94-7.11a8.66,8.66,0,0,0-2.2,12.35l45,61.32a8.66,8.66,0,0,0,7,3.53l0.57,0a8.66,8.66,0,0,0,7-4.47l49.86-90.65a8.65,8.65,0,0,0,.51-7.24M300,403l-31.65-43.1,50.54-33.77,19.53,7Z" transform="translate(0 0)"/><path d="M264.53,356.23a8.66,8.66,0,0,0-3.7-5.7l-61.7-41.23a8.67,8.67,0,0,0-6.69-1.25,8.76,8.76,0,0,0-1,.3l-33.19,11.9a8.65,8.65,0,0,0-4.66,12.32l49.86,90.65a8.66,8.66,0,0,0,7,4.47l0.57,0a8.66,8.66,0,0,0,7-3.54L242,391.41l0.06-.08L263,362.85a8.66,8.66,0,0,0,1.55-6.61m-36.47,24.92-0.06.08L212,403l-38.43-69.87,19.53-7,50.54,33.77Z" transform="translate(0 0)"/><path d="M511.57,473.11L500.4,405.68a59.69,59.69,0,0,0-38.54-46.33l-108-39.09a8.66,8.66,0,0,0-10.69,12l22.56,45.23-22.13.34A8.66,8.66,0,0,0,336,390.52l9.08,17.33-92.9,85-0.28.27L250,495a8.66,8.66,0,0,0-1.47,10.27l0.07,0.12a8.66,8.66,0,0,0,7.59,4.5H480.36a31.64,31.64,0,0,0,31.21-36.8m-20.28,14.43a14.3,14.3,0,0,1-10.93,5.06H278.1l83.61-76.49a8.65,8.65,0,0,0,1.83-10.4l-5.65-10.78,21.83-.34a8.66,8.66,0,0,0,7.61-12.52l-19-38.18L456,375.63a42.36,42.36,0,0,1,27.35,32.88l11.17,67.43a14.3,14.3,0,0,1-3.21,11.6" transform="translate(0 0)"/><path d="M262,494.85l-0.1-.09a8.66,8.66,0,0,0-11.95.31l-0.09.09A8.66,8.66,0,0,0,256,509.92h0.19A8.66,8.66,0,0,0,262,494.85" transform="translate(0 0)"/><path d="M261.73,494.6a8.66,8.66,0,0,0-13.38,2.27l-0.06.11a8.66,8.66,0,0,0,1.37,10.18l0,0a8.66,8.66,0,0,0,12.05.37l0.09-.08a8.66,8.66,0,0,0,1.91-2.53,8.75,8.75,0,0,0-2-10.36" transform="translate(0 0)"/><path d="M262.1,495.12l0,0L262,495l-1.92-1.92-0.28-.27-92.9-85L176,390.51a8.66,8.66,0,0,0-7.53-12.67l-22.13-.34,22.56-45.23a8.66,8.66,0,0,0-10.69-12l-108,39.09a59.69,59.69,0,0,0-38.55,46.33L0.43,473.11a31.64,31.64,0,0,0,31.21,36.8H256a8.65,8.65,0,0,0,6.1-14.79M31.64,492.61a14.32,14.32,0,0,1-14.13-16.66l11.17-67.43A42.36,42.36,0,0,1,56,375.63l87.68-31.72-19,38.17a8.66,8.66,0,0,0,7.61,12.52l21.83,0.34-5.65,10.78a8.66,8.66,0,0,0,1.82,10.4l83.61,76.48H31.64Z" transform="translate(0 0)"/><path d="M285.46,388.52a8.65,8.65,0,0,0-1.42-7.22L263,352.6a8.66,8.66,0,0,0-14.22.47l-20.68,28.06a8.66,8.66,0,0,0-.14,10.09l8.81,12.65L227.35,463a8.66,8.66,0,0,0,1,5.53l20.1,36.54a8.66,8.66,0,0,0,15.17,0l20.25-36.81a8.67,8.67,0,0,0,1.07-4.17h0a8.82,8.82,0,0,0-.11-1.36l-9.34-58.86,8.71-12.51a8.75,8.75,0,0,0,1.29-2.85M256,483L244.92,462.8l9.46-59.65a8.65,8.65,0,0,0-1.45-6.3l-7.25-10.42,10.35-14,10.4,14.16-7.17,10.29a8.65,8.65,0,0,0-1.45,6.3l9.42,59.38Z" transform="translate(0 0)"/></g></svg>