<svg id="Слой_1" fill="#00bdb6" data-name="Слой 1" xmlns="http://www.w3.org/2000/svg" xmlns:xlink="http://www.w3.org/1999/xlink" viewBox="0 0 512 512"><defs><clipPath id="clip-path" transform="translate(0 0)"><rect width="512" height="512" fill="none"/></clipPath></defs><title>steps-work-3</title><g clip-path="url(#clip-path)"><path d="M355.13,389.84q-2.4.5-4.74,1.21a66.35,66.35,0,0,0-38.67-24.89l10.34-20,21-21a41.35,41.35,0,0,0,0-58.39l-22.47-22.48,114.3-114.36,0.3-.27c0.1-.1.18-0.2,0.27-0.3l44.43-44.45h0L500.76,64A37.49,37.49,0,0,0,474.24,0h0a37.17,37.17,0,0,0-26.48,11L426.89,31.83h0L382.45,76.29l-0.29.27c-0.1.1-.18,0.2-0.27,0.3l-25.2,25.21a10,10,0,1,0,14.15,14.14l18.41-18.42L414,122.56,306.48,230.13l-24.76-24.77,25.64-25.66a10,10,0,0,0-14.15-14.14l-25.63,25.65-22.46-22.47a41.36,41.36,0,0,0-58.37,0l-21,21-40.49,21-0.13.07L86.12,231l-0.51.26L22.68,263.92C9.17,270.92,1.84,279.19.29,289.2c-1.5,9.69,2.9,19.77,13.09,30l27.7,27.72,0.32,0.32L103,408.9l61.49,61.5c0.15,0.16.31,0.32,0.48,0.48l27.73,27.74c8.89,8.9,17.7,13.38,26.23,13.38a24.26,24.26,0,0,0,3.72-.29c10-1.56,18.28-8.88,25.27-22.4l4.54-8.78a67.48,67.48,0,0,0,8.13,6.3,66.05,66.05,0,0,0,36.46,11A67.23,67.23,0,0,0,334.4,486.5a54,54,0,1,0,20.74-96.66M474.23,20h0a17.38,17.38,0,0,1,12.38,5.1,17.55,17.55,0,0,1,0,24.79L472.85,63.67,448.09,38.9l13.8-13.8A17.32,17.32,0,0,1,474.23,20h0ZM403.37,83.64L434,53l24.76,24.77-30.58,30.6Zm-154,301.27L107.22,242.64l20.71-10.73L267.54,371.59a66.26,66.26,0,0,0-18.13,13.32M169.83,210.19L301.65,342.08,289.79,365l-0.49.05L146.56,222.25Zm31.07-27.31a21.37,21.37,0,0,1,30.08,0l98,98a21.32,21.32,0,0,1,0,30.1L313.9,326l-128-128.1Zm29.29,297.25c-3.64,7-7.49,11.35-10.57,11.82-2.9.46-7.54-2.27-12.74-7.47l-22.81-22.82,21.84-42.16a10,10,0,0,0-17.76-9.2l-18.92,36.52-45-45,31.65-31.76A10,10,0,1,0,141.76,356L110.13,387.7l-45-45,36.51-18.94A10,10,0,0,0,92.45,306L50.32,327.84,27.52,305c-5.2-5.2-7.92-9.85-7.47-12.76,0.48-3.08,4.79-6.94,11.83-10.58l56.71-29.39,149.12,149.2a66.59,66.59,0,0,0,1.17,61.83Zm164.23-18.7a34,34,0,0,1-52.59,5.18,10,10,0,0,0-13.76-.44,46.6,46.6,0,1,1-40.21-80.61h0a46.5,46.5,0,0,1,49.94,22.69,10,10,0,0,0,13.14,4,34.49,34.49,0,0,1,8.24-2.85,34,34,0,0,1,35.23,52" transform="translate(0 0)"/><path d="M477.24,421.94A34.79,34.79,0,1,0,512,456.71a34.82,34.82,0,0,0-34.76-34.77m0,49.58A14.79,14.79,0,1,1,492,456.71a14.81,14.81,0,0,1-14.76,14.8" transform="translate(0 0)"/><path d="M474.78,315.58a43.61,43.61,0,1,0-43.63,43.65,43.69,43.69,0,0,0,43.63-43.65m-43.63,23.65a23.65,23.65,0,1,1,23.63-23.65,23.65,23.65,0,0,1-23.63,23.65" transform="translate(0 0)"/><path d="M332,150.89A10,10,0,1,0,325,133.81l0,0A10,10,0,0,0,332,150.89" transform="translate(0 0)"/></g></svg>