<svg id="Слой_1" data-name="Слой 1" xmlns="http://www.w3.org/2000/svg" xmlns:xlink="http://www.w3.org/1999/xlink" viewBox="0 0 496 472"><defs><clipPath id="clip-path" transform="translate(0 0)"><rect width="496" height="472" fill="none"/></clipPath></defs><title>thanks</title><g clip-path="url(#clip-path)"><path d="M272,32A104,104,0,1,0,376,136,104,104,0,0,0,272,32m0,192a88,88,0,1,1,88-88,88,88,0,0,1-88,88" transform="translate(0 0)" fill="#00bdb6"/><path d="M272,64a8,8,0,1,0,0,16,56.06,56.06,0,0,1,56,56,8,8,0,0,0,16,0,72.09,72.09,0,0,0-72-72" transform="translate(0 0)" fill="#00bdb6"/><path d="M208,328A104,104,0,1,0,104,432,104,104,0,0,0,208,328M104,416a88,88,0,1,1,88-88,88,88,0,0,1-88,88" transform="translate(0 0)" fill="#00bdb6"/><path d="M104,256a8,8,0,0,0,0,16,56.06,56.06,0,0,1,56,56,8,8,0,0,0,16,0,72.09,72.09,0,0,0-72-72" transform="translate(0 0)" fill="#00bdb6"/><path d="M440,336a56,56,0,1,0-56-56,56,56,0,0,0,56,56m0-96a40,40,0,1,1-40,40,40,40,0,0,1,40-40" transform="translate(0 0)" fill="#00bdb6"/><path d="M440,264a16,16,0,0,1,16,16,8,8,0,0,0,16,0,32,32,0,0,0-32-32,8,8,0,0,0,0,16" transform="translate(0 0)" fill="#00bdb6"/><path d="M96,208a56,56,0,1,0-56-56,56,56,0,0,0,56,56m0-96a40,40,0,1,1-40,40,40,40,0,0,1,40-40" transform="translate(0 0)" fill="#00bdb6"/><path d="M96,136a16,16,0,0,1,16,16,8,8,0,0,0,16,0,32,32,0,0,0-32-32,8,8,0,1,0,0,16" transform="translate(0 0)" fill="#00bdb6"/><path d="M296,304a72,72,0,1,0,72,72,72,72,0,0,0-72-72m0,128a56,56,0,1,1,56-56,56,56,0,0,1-56,56" transform="translate(0 0)" fill="#00bdb6"/><path d="M296,336a8,8,0,0,0,0,16,24,24,0,0,1,24,24,8,8,0,0,0,16,0,40,40,0,0,0-40-40" transform="translate(0 0)" fill="#00bdb6"/><path d="M392,176a24,24,0,1,0,24-24,24,24,0,0,0-24,24m32,0a8,8,0,1,1-8-8,8,8,0,0,1,8,8" transform="translate(0 0)" fill="#00bdb6"/><path d="M344,248a24,24,0,1,0,24,24,24,24,0,0,0-24-24m0,32a8,8,0,1,1,8-8,8,8,0,0,1-8,8" transform="translate(0 0)" fill="#00bdb6"/><path d="M256,280a24,24,0,1,0-24,24,24,24,0,0,0,24-24m-32,0a8,8,0,1,1,8,8,8,8,0,0,1-8-8" transform="translate(0 0)" fill="#00bdb6"/><path d="M120,72a24,24,0,1,0,24-24,24,24,0,0,0-24,24m32,0a8,8,0,1,1-8-8,8,8,0,0,1,8,8" transform="translate(0 0)" fill="#00bdb6"/><path d="M24,232A24,24,0,1,0,0,208a24,24,0,0,0,24,24m0-32a8,8,0,1,1-8,8,8,8,0,0,1,8-8" transform="translate(0 0)" fill="#00bdb6"/><path d="M72,40H88V56a8,8,0,0,0,16,0V40h16a8,8,0,0,0,0-16H104V8A8,8,0,0,0,88,8V24H72a8,8,0,0,0,0,16" transform="translate(0 0)" fill="#00bdb6"/><path d="M144,40h8a8,8,0,0,0,0-16h-8a8,8,0,0,0,0,16" transform="translate(0 0)" fill="#00bdb6"/><path d="M472,376H456V360a8,8,0,0,0-16,0v16H424a8,8,0,0,0,0,16h16v16a8,8,0,0,0,16,0V392h16a8,8,0,0,0,0-16" transform="translate(0 0)" fill="#00bdb6"/><path d="M400,376h-8a8,8,0,0,0,0,16h8a8,8,0,0,0,0-16" transform="translate(0 0)" fill="#00bdb6"/><path d="M392,120h8v8a8,8,0,1,0,16,0v-8h8a8,8,0,0,0,0-16h-8V96a8,8,0,0,0-16,0v8h-8a8,8,0,0,0,0,16" transform="translate(0 0)" fill="#00bdb6"/><path d="M216,440h-8v-8a8,8,0,0,0-16,0v8h-8a8,8,0,0,0,0,16h8v8a8,8,0,1,0,16,0v-8h8a8,8,0,1,0,0-16" transform="translate(0 0)" fill="#00bdb6"/></g></svg>