<svg id="Слой_1" data-name="Слой 1" xmlns="http://www.w3.org/2000/svg" xmlns:xlink="http://www.w3.org/1999/xlink" viewBox="0 0 181.17 103.35"><defs><clipPath id="clip-path" transform="translate(0 0)"><rect width="181.17" height="103.35" fill="none"/></clipPath></defs><title>vk</title><g clip-path="url(#clip-path)"><path d="M180.2,93.31a6.52,6.52,0,0,0-.6-1.2c-3.1-5.7-9.1-12.6-18-20.8l-0.2-.2-0.1-.1-0.1-.1h-0.1a95.44,95.44,0,0,1-7.6-7.7c-2-2.5-2.4-5.1-1.3-7.6,0.8-1.9,3.6-6.1,8.5-12.3,2.6-3.3,4.6-6,6.1-8,10.9-14.4,15.6-23.7,14.1-27.7l-0.6-.9a5.79,5.79,0,0,0-2.9-1.6,14.55,14.55,0,0,0-6-.2l-27.1.2a4,4,0,0,0-1.9,0l-1.2.3-0.5.2-0.4.3a3.12,3.12,0,0,0-1,1,5.06,5.06,0,0,0-.9,1.6,154.05,154.05,0,0,1-10.1,21.2c-2.3,3.9-4.5,7.3-6.4,10.1a40.8,40.8,0,0,1-4.9,6.3,34,34,0,0,1-3.6,3.3c-1.1.8-1.9,1.2-2.4,1s-1.1-.3-1.6-0.4a5.83,5.83,0,0,1-2.1-2.3,11.56,11.56,0,0,1-1.1-3.7,28.69,28.69,0,0,1-.3-3.8v-4.5c0.1-1.9.1-3.3,0.1-4,0-2.4,0-5,.1-7.8s0.2-5,.2-6.6,0.1-3.4.1-5.2a23.77,23.77,0,0,0-.3-4.3,11.76,11.76,0,0,0-1-3,5.37,5.37,0,0,0-1.9-2.3,10.63,10.63,0,0,0-3.2-1.3A55.83,55.83,0,0,0,87.3,0c-11.7-.1-19.2.6-22.5,2.3a13.51,13.51,0,0,0-3.6,2.8c-1.1,1.4-1.3,2.1-.5,2.3,3.8,0.6,6.4,1.9,8,4.1l0.6,1.1a18.82,18.82,0,0,1,1.3,4.3,46.57,46.57,0,0,1,.8,6.9,76.94,76.94,0,0,1,0,11.8c-0.3,3.3-.6,5.8-0.9,7.6a14.37,14.37,0,0,1-1.3,4.4c-0.6,1.1-.9,1.8-1.1,2.1a1.17,1.17,0,0,1-.5.5,7.41,7.41,0,0,1-2.5.5,5.82,5.82,0,0,1-3.2-1.3,21.39,21.39,0,0,1-3.9-3.6,41.3,41.3,0,0,1-4.6-6.5,106.37,106.37,0,0,1-5.3-9.8l-1.5-2.7c-0.9-1.8-2.2-4.3-3.9-7.7s-3.1-6.6-4.3-9.8a6.39,6.39,0,0,0-2.3-3L35.6,6a5,5,0,0,0-1.5-.8,8,8,0,0,0-2.2-.6l-25.8.2q-3.9,0-5.4,1.8l-0.4.6A2.8,2.8,0,0,0,0,8.71a6.88,6.88,0,0,0,.6,2.5c3.8,8.9,7.9,17.4,12.3,25.6s8.3,14.9,11.5,19.9,6.6,9.8,10,14.2,5.6,7.3,6.7,8.6,2,2.2,2.6,2.8l2.4,2.3A56.54,56.54,0,0,0,52.7,90a108.2,108.2,0,0,0,9.7,6.2,54.3,54.3,0,0,0,12.4,5,44.1,44.1,0,0,0,13.8,1.6h11a7.46,7.46,0,0,0,5-2.1l0.4-.5a5.41,5.41,0,0,0,.7-1.7,10.9,10.9,0,0,0,.3-2.6,28,28,0,0,1,.6-7.3,19.94,19.94,0,0,1,1.6-4.9,15.54,15.54,0,0,1,2-2.8,11.51,11.51,0,0,1,1.6-1.4,1.59,1.59,0,0,1,.8-0.3c1.5-.5,3.3,0,5.3,1.5a29.49,29.49,0,0,1,5.7,5.5c1.8,2.2,3.9,4.6,6.5,7.3a41.54,41.54,0,0,0,6.6,6l1.9,1.1a25.67,25.67,0,0,0,4.9,2.1,11.21,11.21,0,0,0,5.3.5l24.1-.4a11.09,11.09,0,0,0,5.6-1.2,5.27,5.27,0,0,0,2.4-2.6,5.77,5.77,0,0,0,0-3.2,7.65,7.65,0,0,0-.7-2.5" transform="translate(0 0)"/></g></svg>