<svg id="Слой_1" data-name="Слой 1" xmlns="http://www.w3.org/2000/svg" xmlns:xlink="http://www.w3.org/1999/xlink" viewBox="0 0 512 512"><defs><clipPath id="clip-path" transform="translate(0 0)"><rect width="512" height="512" fill="none"/></clipPath></defs><title>whatsapp</title><g><path d="M256.06,0h-0.13C114.78,0,0,114.82,0,256A254.1,254.1,0,0,0,48.74,406l-31.9,95.1,98.4-31.46A253.78,253.78,0,0,0,256.06,512C397.22,512,512,397.15,512,256S397.22,0,256.06,0M405,361.5c-6.18,17.44-30.69,31.9-50.24,36.13-13.38,2.85-30.85,5.12-89.66-19.26C189.89,347.2,141.44,270.75,137.66,265.79c-3.62-5-30.4-40.48-30.4-77.22s18.66-54.62,26.18-62.3c6.18-6.3,16.38-9.18,26.18-9.18,3.17,0,6,.16,8.58.29,7.52,0.32,11.3.77,16.26,12.64,6.18,14.88,21.22,51.62,23,55.39s3.65,8.9,1.09,13.86c-2.4,5.12-4.51,7.39-8.29,11.74s-7.36,7.68-11.14,12.35c-3.46,4.06-7.36,8.41-3,15.94,4.35,7.36,19.39,31.9,41.54,51.62,28.58,25.44,51.74,33.57,60,37,6.18,2.56,13.54,2,18-2.85,5.73-6.18,12.8-16.42,20-26.5,5.12-7.23,11.58-8.13,18.37-5.57,6.91,2.4,43.49,20.48,51,24.22s12.48,5.57,14.3,8.74,1.79,18-4.38,35.52" transform="translate(0 0)"/></g></svg>