<svg xmlns="http://www.w3.org/2000/svg" width="571" height="243" viewBox="0 0 571 243"><defs><mask id="1414b" width="2" height="2" x="-1" y="-1"><path fill="#fff" d="M13 14h544v215H13z"/><path d="M23 14h524c5.523 0 10 3.774 10 8.432v198.137c0 4.657-4.477 8.431-10 8.431H23c-5.523 0-10-3.774-10-8.43l65-98.442-65-99.696C13 17.774 17.477 14 23 14z"/></mask><filter id="1414a" width="600" height="271" x="-15" y="-14" filterUnits="userSpaceOnUse"><feOffset in="SourceGraphic" result="FeOffset1043Out"/><feGaussianBlur in="FeOffset1043Out" result="FeGaussianBlur1044Out" stdDeviation="7.2 7.2"/></filter></defs><g><g><g filter="url(#1414a)"><path fill="none" d="M23 14h524c5.523 0 10 3.774 10 8.432v198.137c0 4.657-4.477 8.431-10 8.431H23c-5.523 0-10-3.774-10-8.43l65-98.442-65-99.696C13 17.774 17.477 14 23 14z" mask="url(&quot;#1414b&quot;)"/><path fill="#ce1826" fill-opacity=".38" d="M23 14h524c5.523 0 10 3.774 10 8.432v198.137c0 4.657-4.477 8.431-10 8.431H23c-5.523 0-10-3.774-10-8.43l65-98.442-65-99.696C13 17.774 17.477 14 23 14z"/></g><g filter="url(#1414a)"><path fill="none" d="M23 14h524c5.523 0 10 3.774 10 8.432v198.137c0 4.657-4.477 8.431-10 8.431H23c-5.523 0-10-3.774-10-8.43l65-98.442-65-99.696C13 17.774 17.477 14 23 14z" mask="url(&quot;#1414b&quot;)"/><path fill="#ce1826" fill-opacity=".38" d="M23 14h524c5.523 0 10 3.774 10 8.432v198.137c0 4.657-4.477 8.431-10 8.431H23c-5.523 0-10-3.774-10-8.43l65-98.442-65-99.696C13 17.774 17.477 14 23 14z"/></g><path fill="#ce1826" d="M23 14h524c5.523 0 10 3.774 10 8.432v198.137c0 4.657-4.477 8.431-10 8.431H23c-5.523 0-10-3.774-10-8.43l65-98.442-65-99.696C13 17.774 17.477 14 23 14z"/></g></g></svg>