<svg xmlns="http://www.w3.org/2000/svg" width="571" height="283" viewBox="0 0 571 283"><defs><mask id="33msb" width="2" height="2" x="-1" y="-1"><path fill="#fff" d="M13 14h545v256H13z"/><path d="M23.03 14.287h524.034c5.523 0 10 4.477 10 10v235.02c0 5.524-4.477 10-10 10H23.029c-5.523 0-10-4.476-10-10l65.004-116.765L13.029 24.288c0-5.524 4.477-10.001 10-10.001z"/></mask><filter id="33msa" width="601" height="312" x="-15" y="-14" filterUnits="userSpaceOnUse"><feOffset in="SourceGraphic" result="FeOffset1023Out"/><feGaussianBlur in="FeOffset1023Out" result="FeGaussianBlur1024Out" stdDeviation="7.2 7.2"/></filter></defs><g><g><g filter="url(#33msa)"><path fill="none" d="M23.03 14.287h524.034c5.523 0 10 4.477 10 10v235.02c0 5.524-4.477 10-10 10H23.029c-5.523 0-10-4.476-10-10l65.004-116.765L13.029 24.288c0-5.524 4.477-10.001 10-10.001z" mask="url(&quot;#33msb&quot;)"/><path fill="#cf2c3a" fill-opacity=".38" d="M23.03 14.287h524.034c5.523 0 10 4.477 10 10v235.02c0 5.524-4.477 10-10 10H23.029c-5.523 0-10-4.476-10-10l65.004-116.765L13.029 24.288c0-5.524 4.477-10.001 10-10.001z"/></g><g filter="url(#33msa)"><path fill="none" d="M23.03 14.287h524.034c5.523 0 10 4.477 10 10v235.02c0 5.524-4.477 10-10 10H23.029c-5.523 0-10-4.476-10-10l65.004-116.765L13.029 24.288c0-5.524 4.477-10.001 10-10.001z" mask="url(&quot;#33msb&quot;)"/><path fill="#cf2c3a" fill-opacity=".38" d="M23.03 14.287h524.034c5.523 0 10 4.477 10 10v235.02c0 5.524-4.477 10-10 10H23.029c-5.523 0-10-4.476-10-10l65.004-116.765L13.029 24.288c0-5.524 4.477-10.001 10-10.001z"/></g><path fill="#cf2c3a" d="M23.03 14.287h524.034c5.523 0 10 4.477 10 10v235.02c0 5.524-4.477 10-10 10H23.029c-5.523 0-10-4.476-10-10l65.004-116.765L13.029 24.288c0-5.524 4.477-10.001 10-10.001z"/></g></g></svg>