<svg xmlns="http://www.w3.org/2000/svg" width="571" height="283" viewBox="0 0 571 283"><defs><mask id="vvjab" width="2" height="2" x="-1" y="-1"><path fill="#fff" d="M13 14h544v255H13z"/><path d="M23 14h524c5.523 0 10 4.477 10 10v235c0 5.523-4.477 10-10 10H23c-5.523 0-10-4.477-10-10l65-116.755L13 24c0-5.523 4.477-10 10-10z"/></mask><filter id="vvjaa" width="600" height="311" x="-15" y="-14" filterUnits="userSpaceOnUse"><feOffset in="SourceGraphic" result="FeOffset1047Out"/><feGaussianBlur in="FeOffset1047Out" result="FeGaussianBlur1048Out" stdDeviation="7.2 7.2"/></filter></defs><g><g><g filter="url(#vvjaa)"><path fill="none" d="M23 14h524c5.523 0 10 4.477 10 10v235c0 5.523-4.477 10-10 10H23c-5.523 0-10-4.477-10-10l65-116.755L13 24c0-5.523 4.477-10 10-10z" mask="url(&quot;#vvjab&quot;)"/><path fill="#004bfd" fill-opacity=".38" d="M23 14h524c5.523 0 10 4.477 10 10v235c0 5.523-4.477 10-10 10H23c-5.523 0-10-4.477-10-10l65-116.755L13 24c0-5.523 4.477-10 10-10z"/></g><g filter="url(#vvjaa)"><path fill="none" d="M23 14h524c5.523 0 10 4.477 10 10v235c0 5.523-4.477 10-10 10H23c-5.523 0-10-4.477-10-10l65-116.755L13 24c0-5.523 4.477-10 10-10z" mask="url(&quot;#vvjab&quot;)"/><path fill="#004bfd" fill-opacity=".38" d="M23 14h524c5.523 0 10 4.477 10 10v235c0 5.523-4.477 10-10 10H23c-5.523 0-10-4.477-10-10l65-116.755L13 24c0-5.523 4.477-10 10-10z"/></g><path fill="#274386" d="M23 14h524c5.523 0 10 4.477 10 10v235c0 5.523-4.477 10-10 10H23c-5.523 0-10-4.477-10-10l65-116.755L13 24c0-5.523 4.477-10 10-10z"/></g></g></svg>