<?xml version="1.0" encoding="UTF-8"?><!DOCTYPE svg PUBLIC "-//W3C//DTD SVG 1.1//EN" "http://www.w3.org/Graphics/SVG/1.1/DTD/svg11.dtd"><svg xmlns="http://www.w3.org/2000/svg"><symbol id="ico-arrow-left" viewBox="0 0 492 492">
    <path d="M464.344 207.418l.768.168H135.888l103.496-103.724c5.068-5.064 7.848-11.924 7.848-19.124 0-7.2-2.78-14.012-7.848-19.088L223.28 49.538c-5.064-5.064-11.812-7.864-19.008-7.864-7.2 0-13.952 2.78-19.016 7.844L7.844 226.914C2.76 231.998-.02 238.77 0 245.974c-.02 7.244 2.76 14.02 7.844 19.096l177.412 177.412c5.064 5.06 11.812 7.844 19.016 7.844 7.196 0 13.944-2.788 19.008-7.844l16.104-16.112c5.068-5.056 7.848-11.808 7.848-19.008 0-7.196-2.78-13.592-7.848-18.652L134.72 284.406h329.992c14.828 0 27.288-12.78 27.288-27.6v-22.788c0-14.82-12.828-26.6-27.656-26.6z"/>
</symbol><symbol id="ico-arrow-right" viewBox="-365 366.2 268.8 268.8">
    <path d="M-99.8 491.7l-80-80c-4.9-4.9-12.8-4.9-17.7 0-4.9 4.9-4.9 12.8 0 17.7l58.7 58.7h-213.7c-6.9 0-12.5 5.6-12.5 12.5s5.6 12.5 12.5 12.5h213.7l-58.7 58.7c-4.9 4.9-4.9 12.8 0 17.7 2.4 2.4 5.6 3.7 8.8 3.7s6.4-1.2 8.8-3.7l80-80c5-5 5-12.9.1-17.8z"/>
</symbol><symbol id="ico-fssp-attractive-ic-1" viewBox="-243 245 512 512">
    <path d="M223.4 333.4C153 314.1 82.1 284.1 18.5 246.5c-3.4-2-7.6-2-10.9 0-65.4 38.6-132.5 67.1-204.9 86.9-4.7 1.3-7.9 5.5-7.9 10.4v110c0 113.3 52.3 188.3 96.1 231.3C-62 731.4-7 757 13 757s75-25.6 122.2-71.8c43.9-43 96.1-118 96.1-231.3v-110c0-5-3.2-9.2-7.9-10.5zm-13.6 120.4c0 105.8-48.8 175.8-89.7 215.9C73.7 715.3 24 735.5 13 735.5s-60.7-20.2-107.1-65.7c-40.9-40.1-89.7-110.1-89.7-215.9V352C-114.5 332.3-50 304.9 13 268.2c61.4 35.6 129.2 64.4 196.8 83.7v101.9z"/>
    <path d="M-82.5 350.8c-2.2-5.5-8.4-8.3-14-6.1-19.2 7.6-39 14.6-58.7 20.7-4.5 1.4-7.5 5.6-7.5 10.3v41.6c0 5.9 4.8 10.8 10.8 10.8s10.8-4.8 10.8-10.8v-33.7c17.7-5.7 35.3-12 52.6-18.8 5.5-2.2 8.2-8.5 6-14z"/>
    <path d="M-62 352.8c1.4 0 2.9-.3 4.3-.9l.2-.1c5.4-2.4 7.9-8.7 5.5-14.2-2.4-5.4-8.8-7.9-14.2-5.5l-.2.1c-5.5 2.4-7.9 8.7-5.5 14.2 1.8 4 5.7 6.4 9.9 6.4z"/>
    <path d="M141.3 592.3c-5-3.3-11.7-1.9-14.9 3.1-8.9 13.6-19.3 26.6-31 38.7-9.6 9.9-20 19.2-30.9 27.5-4.7 3.6-5.6 10.4-2 15.1 2.1 2.8 5.3 4.2 8.6 4.2 2.3 0 4.6-.7 6.5-2.2 11.8-9 23-18.9 33.3-29.6 12.6-13 23.9-27.1 33.5-41.8 3.3-5.1 1.9-11.8-3.1-15z"/>
    <path d="M39.6 678.4l-.6.4c-5.1 3-6.9 9.6-3.9 14.7 2 3.5 5.6 5.4 9.3 5.4 1.8 0 3.7-.5 5.4-1.5l.7-.4c5.1-3 6.9-9.6 3.9-14.7-3.1-5.1-9.7-6.9-14.8-3.9z"/>
    <path d="M-60.4 479c-6.6-6.6-15.4-10.3-24.8-10.3s-18.1 3.6-24.8 10.3c-13.7 13.7-13.7 35.9 0 49.5l63.6 63.6c6.6 6.6 15.4 10.3 24.8 10.3s18.1-3.6 24.8-10.3L136 459.3c13.7-13.7 13.7-35.9 0-49.5-6.6-6.6-15.4-10.3-24.8-10.3s-18.1 3.6-24.8 10.3l-108 108-38.8-38.8zm162-53.9c2.5-2.5 5.9-3.9 9.5-3.9 3.6 0 7 1.4 9.5 3.9 5.3 5.3 5.3 13.8 0 19.1L-12 576.9c-2.5 2.5-5.9 3.9-9.5 3.9s-7-1.4-9.5-3.9l-63.6-63.6c-5.3-5.3-5.3-13.8 0-19.1 2.5-2.5 5.9-3.9 9.5-3.9s7 1.4 9.5 3.9l46.4 46.4c2 2 4.8 3.2 7.6 3.2s5.6-1.1 7.6-3.2l115.6-115.5z"/>
</symbol><symbol id="ico-fssp-attractive-ic-2" viewBox="-243 245 512 512">
    <path d="M99 573.4c-12.1 0-22-8.5-22-19s9.9-19 22-19 22 8.5 22 19c0 5.5 4.5 10 10 10s10-4.5 10-10c0-18.3-13.7-33.7-32-37.9v-5.2c0-5.5-4.5-10-10-10s-10 4.5-10 10v5.2c-18.3 4.2-32 19.6-32 37.9 0 21.5 18.8 39 42 39 12.1 0 22 8.5 22 19s-9.9 19-22 19-22-8.5-22-19c0-5.5-4.5-10-10-10s-10 4.5-10 10c0 18.3 13.7 33.7 32 37.9v4.3c0 5.5 4.5 10 10 10s10-4.5 10-10v-4.3c18.3-4.2 32-19.6 32-37.9 0-21.5-18.9-39-42-39z"/>
    <path d="M208.5 513.9c-13.1-20.4-31.5-36.6-53.2-47.1-5-2.4-11-.3-13.3 4.7-2.4 5-.3 11 4.7 13.3C184.5 503 209 542 209 584c0 18-4.4 35.8-12.8 51.6-2.6 4.9-.7 10.9 4.1 13.5 1.5.8 3.1 1.2 4.7 1.2 3.6 0 7-1.9 8.8-5.3 9.9-18.6 15.2-39.7 15.2-61 0-25-7.1-49.2-20.5-70.1z"/>
    <path d="M114.7 454h-.7c-5.5 0-10 4.5-10 10s4.5 10 10 10h.6c5.5 0 10-4.4 10-10 .1-5.5-4.4-10-9.9-10z"/>
    <path d="M51.4 683.2C13.5 665-11 626-11 584c0-18 4.4-35.8 12.8-51.6 2.6-4.9.7-10.9-4.1-13.5-4.9-2.6-10.9-.7-13.5 4.1-9.9 18.6-15.2 39.7-15.2 61 0 25 7.1 49.2 20.5 70.1 13.1 20.4 31.5 36.6 53.2 47.1 1.4.7 2.9 1 4.3 1 3.7 0 7.3-2.1 9-5.7 2.5-4.9.4-10.9-4.6-13.3z"/>
    <path d="M84 694h-.6c-5.5 0-10 4.4-10 10 0 5.5 4.4 10 10 10h.7c5.5 0 10-4.5 10-10-.1-5.5-4.6-10-10.1-10z"/>
    <path d="M144.4 420.2c-1.2-2.9-2.7-5.6-4.4-8.2h26c25.4 0 46-20.6 46-46s-20.6-46-46-46H85.9c5.1-7.4 8.1-16.4 8.1-26 0-25.4-20.6-46-46-46h-245c-25.4 0-46 20.6-46 46s20.6 46 46 46h80.1a45.78 45.78 0 0 0 0 52H-143c-25.4 0-46 20.6-46 46 0 14.6 6.8 27.6 17.4 36-10.6 8.4-17.4 21.4-17.4 36s6.8 27.6 17.4 36c-10.6 8.4-17.4 21.4-17.4 36s6.8 27.6 17.4 36c-10.6 8.4-17.4 21.4-17.4 36 0 25.4 20.6 46 46 46h117.9c31 33.2 75.2 54 124.2 54 93.7 0 170-76.3 170-170-.1-78-52.9-143.9-124.7-163.8zM166 340c14.3 0 26 11.7 26 26s-11.7 26-26 26H-79c-14.3 0-26-11.7-26-26s11.7-26 26-26h245zm-363-20c-14.3 0-26-11.7-26-26s11.7-26 26-26H48c14.3 0 26 11.7 26 26s-11.7 26-26 26h-245zm54 92h245c4 0 7.9.9 11.3 2.6-4.7-.4-9.5-.6-14.3-.6-46.9 0-89.5 19.1-120.3 50H-143c-14.3 0-26-11.7-26-26s11.7-26 26-26zm0 72h104.6c-11.4 15.6-20.1 33.1-25.7 52H-143c-14.3 0-26-11.7-26-26s11.7-26 26-26zm0 72h74.3c-1.5 9.1-2.3 18.5-2.3 28 0 8.1.6 16.2 1.7 24H-143c-14.3 0-26-11.7-26-26s11.7-26 26-26zm0 124c-14.3 0-26-11.7-26-26s11.7-26 26-26h77.8c5 18.8 13.2 36.3 24 52H-143zm242 54c-82.7 0-150-67.3-150-150S16.3 434 99 434s150 67.3 150 150-67.3 150-150 150z"/>
</symbol><symbol id="ico-fssp-attractive-ic-3" viewBox="-243 245 512 512">
    <path d="M93 281c-4.4 0-8-3.6-8-8 0-15.4 12.6-28 28-28 13.2 0 24.8 9.4 27.4 22.4.9 4.3-1.9 8.6-6.2 9.4-4.3.9-8.6-1.9-9.4-6.2-1.1-5.6-6.1-9.6-11.8-9.6-6.6 0-12 5.4-12 12 0 4.4-3.6 8-8 8z"/>
    <path d="M173 437c-3.6 0-6.8-2.4-7.8-6l-40.4-160c-1.1-4.3 1.5-8.6 5.8-9.7 4.3-1.1 8.6 1.5 9.7 5.8l40.4 160c1.1 4.3-1.5 8.6-5.8 9.7-.6.1-1.3.2-1.9.2z"/>
    <path d="M181 445c-8.8 0-16-7.2-16-16 0-4.4 3.6-8 8-8s8 3.6 8 8c4.4 0 8 3.6 8 8s-3.6 8-8 8z"/>
    <path d="M93 485c-4.4 0-8-3.6-8-8V273c0-4.4 3.6-8 8-8s8 3.6 8 8v204c0 4.4-3.6 8-8 8z"/>
    <path d="M141 533c-30.9 0-56-25.1-56-56 0-4.4 3.6-8 8-8s8 3.6 8 8c0 22.1 17.9 40 40 40 4.4 0 8 3.6 8 8s-3.6 8-8 8z"/>
    <path d="M197 533h-56c-4.4 0-8-3.6-8-8s3.6-8 8-8h56c4.4 0 8 3.6 8 8s-3.6 8-8 8z"/>
    <path d="M133 401c-4.4 0-8-3.6-8-8 0-6.6-5.4-12-12-12s-12 5.4-12 12c0 4.4-3.6 8-8 8s-8-3.6-8-8c0-15.4 12.6-28 28-28s28 12.6 28 28c0 4.4-3.6 8-8 8z"/>
    <path d="M-15 381c-4.4 0-8-3.6-8-8s3.6-8 8-8c6.6 0 12-5.4 12-12s-5.4-12-12-12c-4.4 0-8-3.6-8-8s3.6-8 8-8c15.4 0 28 12.6 28 28S.4 381-15 381z"/>
    <path d="M-15 421c-4.4 0-8-3.6-8-8s3.6-8 8-8c6.6 0 12-5.4 12-12s-5.4-12-12-12c-4.4 0-8-3.6-8-8s3.6-8 8-8c15.4 0 28 12.6 28 28S.4 421-15 421z"/>
    <path d="M-15 461c-4.4 0-8-3.6-8-8s3.6-8 8-8c6.6 0 12-5.4 12-12s-5.4-12-12-12c-4.4 0-8-3.6-8-8s3.6-8 8-8c15.4 0 28 12.6 28 28S.4 461-15 461z"/>
    <path d="M-15 501c-4.4 0-8-3.6-8-8s3.6-8 8-8c6.6 0 12-5.4 12-12s-5.4-12-12-12c-4.4 0-8-3.6-8-8s3.6-8 8-8c15.4 0 28 12.6 28 28S.4 501-15 501z"/>
    <path d="M133 453c-4.4 0-8-3.6-8-8v-52c0-4.4 3.6-8 8-8s8 3.6 8 8v52c0 4.4-3.6 8-8 8z"/>
    <path d="M197 445h-16c-4.4 0-8-3.6-8-8s3.6-8 8-8h16c4.4 0 8 3.6 8 8s-3.6 8-8 8z"/>
    <path d="M197 541c-4.4 0-8-3.6-8-8V429c0-4.4 3.6-8 8-8s8 3.6 8 8v104c0 4.4-3.6 8-8 8z"/>
    <path d="M221 541h-24c-4.4 0-8-3.6-8-8s3.6-8 8-8h24c4.4 0 8 3.6 8 8s-3.6 8-8 8z"/>
    <path d="M221 437h-24c-4.4 0-8-3.6-8-8s3.6-8 8-8h24c4.4 0 8 3.6 8 8s-3.6 8-8 8z"/>
    <path d="M221 557c-4.4 0-8-3.6-8-8V413c0-4.4 3.6-8 8-8s8 3.6 8 8v136c0 4.4-3.6 8-8 8z"/>
    <path d="M261 557h-40c-4.4 0-8-3.6-8-8s3.6-8 8-8h40c4.4 0 8 3.6 8 8s-3.6 8-8 8z"/>
    <path d="M261 421h-40c-4.4 0-8-3.6-8-8s3.6-8 8-8h40c4.4 0 8 3.6 8 8s-3.6 8-8 8z"/>
    <path d="M-171 485c-4.4 0-8-3.6-8-8V373c0-4.4 3.6-8 8-8s8 3.6 8 8v104c0 4.4-3.6 8-8 8z"/>
    <path d="M-171 485h-24c-4.4 0-8-3.6-8-8s3.6-8 8-8h24c4.4 0 8 3.6 8 8s-3.6 8-8 8z"/>
    <path d="M-171 381h-24c-4.4 0-8-3.6-8-8s3.6-8 8-8h24c4.4 0 8 3.6 8 8s-3.6 8-8 8z"/>
    <path d="M-195 501c-4.4 0-8-3.6-8-8V357c0-4.4 3.6-8 8-8s8 3.6 8 8v136c0 4.4-3.6 8-8 8z"/>
    <path d="M-195 501h-40c-4.4 0-8-3.6-8-8s3.6-8 8-8h40c4.4 0 8 3.6 8 8s-3.6 8-8 8z"/>
    <path d="M-195 365h-40c-4.4 0-8-3.6-8-8s3.6-8 8-8h40c4.4 0 8 3.6 8 8s-3.6 8-8 8z"/>
    <path d="M-155 389h-16c-4.4 0-8-3.6-8-8s3.6-8 8-8h16c4.4 0 8 3.6 8 8s-3.6 8-8 8z"/>
    <path d="M-155 477h-16c-4.4 0-8-3.6-8-8s3.6-8 8-8h16c4.4 0 8 3.6 8 8s-3.6 8-8 8z"/>
    <path d="M-155 389c-2 0-4.1-.8-5.7-2.3-3.1-3.1-3.1-8.2 0-11.3l48-48c3.1-3.1 8.2-3.1 11.3 0s3.1 8.2 0 11.3l-48 48c-1.5 1.5-3.6 2.3-5.6 2.3z"/>
    <path d="M-15 341h-92c-4.4 0-8-3.6-8-8s3.6-8 8-8h92c4.4 0 8 3.6 8 8s-3.6 8-8 8z"/>
    <path d="M-15 501h-100c-4.4 0-8-3.6-8-8s3.6-8 8-8h100c4.4 0 8 3.6 8 8s-3.6 8-8 8z"/>
    <path d="M-115 501c-1.4 0-2.8-.4-4.1-1.1l-40-24c-3.8-2.3-5-7.2-2.7-11s7.2-5 11-2.7l40 24c3.8 2.3 5 7.2 2.7 11-1.5 2.4-4.2 3.8-6.9 3.8z"/>
    <path d="M-83 341c-3.2 0-6.2-1.9-7.4-5l-16-40c-1.6-4.1.4-8.8 4.5-10.4 4.1-1.6 8.8.4 10.4 4.5l16 40c1.6 4.1-.4 8.8-4.5 10.4-1 .3-2 .5-3 .5z"/>
    <path d="M-35 341c-1 0-2-.2-3-.6-4.1-1.6-6.1-6.3-4.5-10.4l16-40c1.6-4.1 6.3-6.1 10.4-4.5 4.1 1.6 6.1 6.3 4.5 10.4l-16 40c-1.2 3.2-4.2 5.1-7.4 5.1z"/>
    <path d="M-41.5 304.5c-7 0-14.5-1.1-21.1-4.4-10.7-5.4-28.1-1.5-33.9.4-4.2 1.4-8.7-.9-10.1-5.1-1.4-4.2.9-8.7 5.1-10.1 1.1-.4 27.4-8.9 46.1.4 10.7 5.4 28.1 1.5 33.9-.4 4.2-1.4 8.7.9 10.1 5.1 1.4 4.2-.9 8.7-5.1 10.1-.7.3-12 4-25 4z"/>
    <path d="M-59 757c-75 0-136-61-136-136 0-50 27.7-96.5 80-134.5 3.6-2.6 8.6-1.8 11.2 1.8 2.6 3.6 1.8 8.6-1.8 11.2-48.7 35.3-73.4 76.2-73.4 121.5 0 66.2 53.8 120 120 120S61 687.2 61 621c0-57.5-39.9-98.6-73.4-122.8-3.6-2.6-4.4-7.6-1.8-11.2 2.6-3.6 7.6-4.4 11.2-1.8 52.3 38 80 84.9 80 135.8 0 75-61 136-136 136z"/>
    <path d="M-59 685c-35.3 0-64-28.7-64-64s28.7-64 64-64 64 28.7 64 64-28.7 64-64 64zm0-112c-26.5 0-48 21.5-48 48s21.5 48 48 48 48-21.5 48-48-21.5-48-48-48z"/>
    <path d="M-59 645c-4.4 0-8-3.6-8-8v-32c0-4.4 3.6-8 8-8s8 3.6 8 8v32c0 4.4-3.6 8-8 8z"/>
</symbol><symbol id="ico-fssp-attractive-ic-4" viewBox="-243 245 512 512">
    <path d="M263.1 433.5L17.8 310.8c-3-1.5-6.5-1.5-9.5 0L-237 433.5c-3.6 1.8-5.9 5.5-5.9 9.5s2.3 7.7 5.9 9.5l81.2 40.6v81.5c0 50.3 74.2 89.8 168.9 89.8S182 625 182 574.6v-81.5l28.3-14.2v77.8c-13.1 4.5-22.5 16.8-22.5 31.4 0 13.2 7.7 24.6 18.9 29.9L184 677.9c-1.2 3.3-.8 7 1.2 9.8s5.3 4.6 8.8 4.6h53.8c3.5 0 6.8-1.7 8.8-4.6 2-2.9 2.4-6.6 1.2-9.8l-22.7-59.8c11.2-5.3 18.9-16.8 18.9-29.9 0-14.6-9.4-26.9-22.5-31.4v-88.5l31.5-15.8c3.6-1.8 5.9-5.5 5.9-9.5.1-4-2.2-7.7-5.8-9.5zm-143 187.6c-28.4 14.2-66.5 22-107.1 22s-78.7-7.8-107.1-22c-25.7-12.9-40.4-29.8-40.4-46.4v-70.8L8.2 575.2c1.5.8 3.1 1.1 4.8 1.1s3.3-.4 4.8-1.1l142.8-71.4v70.8c0 16.7-14.8 33.6-40.5 46.5zm89.3 49.9l11.5-30.3 11.5 30.3h-23zm23.3-82.8c0 6.5-5.3 11.8-11.8 11.8-6.5 0-11.8-5.3-11.8-11.8 0-6.5 5.3-11.8 11.8-11.8h.1c6.5 0 11.7 5.3 11.7 11.8zm-14-137.3L14 432.4c-5.9-.5-11.1 3.8-11.6 9.7-.5 5.9 3.8 11.1 9.7 11.6L182.4 469 13 553.7-208.5 443 13 332.3 234.5 443l-15.8 7.9z"/>
</symbol><symbol id="ico-how-it-work-ic-1" viewBox="-259 261 480 480">
    <path d="M101 472.3l106.3 106.3 11.3-11.3-112-112c-3.1-3.1-8.2-3.1-11.3 0L45 505.7V333h-.1c0-2.1-.8-4.1-2.3-5.7l-64-64c-1.5-1.5-3.5-2.3-5.7-2.3h-224c-4.4 0-8 3.6-8 8v464c0 4.4 3.6 8 8 8h440c4.4 0 8-3.6 8-8V608.3l10.3 10.3 11.3-11.3-112-112c-3.1-3.1-8.2-3.1-11.3 0l-112 112 11.3 11.3L5 608.3V725h-248V277h208v56c0 4.4 3.6 8 8 8h56v180.7l-45.7 45.7 11.3 11.3L101 472.3zM117 725H85v-48h32v48zm-16-212.7l80 80V725h-48v-56c0-4.4-3.6-8-8-8H77c-4.4 0-8 3.6-8 8v56H21V592.3l80-80zM-19 325v-36.7L17.7 325H-19z"/>
    <path d="M45 645h32c4.4 0 8-3.6 8-8v-32c0-4.4-3.6-8-8-8H45c-4.4 0-8 3.6-8 8v32c0 4.4 3.6 8 8 8zm8-32h16v16H53v-16z"/>
    <path d="M125 645h32c4.4 0 8-3.6 8-8v-32c0-4.4-3.6-8-8-8h-32c-4.4 0-8 3.6-8 8v32c0 4.4 3.6 8 8 8zm8-32h16v16h-16v-16z"/>
    <path d="M141 421c44.2 0 80-35.8 80-80s-35.8-80-80-80-80 35.8-80 80 35.8 80 80 80zm0-144c35.3 0 64 28.7 64 64s-28.7 64-64 64-64-28.7-64-64 28.7-64 64-64z"/>
    <path d="M141 365c-4.4 0-8-3.6-8-8h-16c0 10.1 6.4 19.1 16 22.5v9.5h16v-9.5c11-3.9 17.6-15.1 15.6-26.6-2-11.5-12-19.9-23.6-19.9-4.4 0-8-3.6-8-8s3.6-8 8-8 8 3.6 8 8h16c0-10.1-6.4-19.1-16-22.5V293h-16v9.5c-11 3.9-17.6 15.1-15.6 26.6 2 11.5 12 19.9 23.6 19.9 4.4 0 8 3.6 8 8s-3.6 8-8 8z"/>
    <path d="M-211 325h144v16h-144v-16z"/>
    <path d="M-211 373h16v16h-16v-16z"/>
    <path d="M-179 373h32v16h-32v-16z"/>
    <path d="M-131 373H-3v16h-128v-16z"/>
    <path d="M-211 421H-3v16h-208v-16z"/>
    <path d="M-211 469h32v16h-32v-16z"/>
    <path d="M-163 469h32v16h-32v-16z"/>
    <path d="M-115 469h32v16h-32v-16z"/>
    <path d="M-67 469h32v16h-32v-16z"/>
    <path d="M-19 469h16v16h-16v-16z"/>
    <path d="M-81 607.6l13.9 8 32-55.4c1.1-1.8 1.4-4 .8-6.1-.6-2.1-1.9-3.8-3.7-4.9l-20.8-12 4-6.9c6.6-11.5 2.7-26.2-8.8-32.8-11.5-6.6-26.2-2.7-32.8 8.8l-8 13.9-80 138.6c-.4.8-.7 1.6-.9 2.4l-10.2 49.6c-.7 3.4.9 6.8 3.8 8.5 3 1.7 6.7 1.3 9.3-.9l37.9-33.6c.6-.6 1.2-1.2 1.6-2l76-131.6 13.9 8-28 48.4zm3.3-97c3.1-.8 6.4.3 8.4 2.9s2.2 6.1.6 8.9l-4 6.9-13.8-8 4-6.9c1-1.9 2.7-3.3 4.8-3.8zm-94.2 164.6l8.5 4.9-11.6 10.3 3.1-15.2zm19.2-7.4l-13.8-8 72-124.7 13.8 8-72 124.7z"/>
</symbol><symbol id="ico-how-it-work-ic-2" viewBox="-271 272.9 456.1 456.1">
    <path d="M5.8 502.2c-4.9 9.6-3.7 21.6 3.8 29.6 3 3.2 6.8 5.6 10.9 7 5.1 1.6 9.1 5.6 10.7 10.7 1.3 4.2 3.8 7.9 7 10.9 4.8 4.5 11.1 6.7 17.4 6.7 6.8 0 13.6-2.6 18.7-7.7l73.1-73.1c9.9-9.9 10.3-26.1 1-36.2-3-3.2-6.8-5.6-10.9-7-5.1-1.6-9.1-5.6-10.7-10.7-1.3-4.2-3.8-7.9-7-10.9-8.1-7.5-20.1-8.7-29.6-3.8l-79.9-79.9c4.9-9.6 3.7-21.6-3.8-29.6-3-3.2-6.8-5.6-10.9-7-5.1-1.6-9.1-5.6-10.7-10.7-1.3-4.2-3.8-7.9-7-10.9-10-9.4-26.3-8.9-36.2 1l-73.1 73.1c-9.9 9.9-10.3 26.1-1 36.2 3 3.2 6.8 5.6 10.9 7 5.1 1.6 9.1 5.6 10.7 10.7 1.3 4.2 3.8 7.9 7 10.9 4.8 4.5 11.1 6.7 17.4 6.7 4.2 0 8.4-1 12.2-3l22.5 22.5-208.6 208.6c-10.7 10.7-10.7 28.2 0 38.9 5.4 5.4 12.4 8 19.4 8 7 0 14.1-2.7 19.4-8l208.6-208.6 18.7 18.6zm133.1-43.1c4.6 5 4.3 13.1-.7 18.1l-73.1 73.1c-5 5-13.1 5.3-18.1.7-1.6-1.5-2.8-3.3-3.5-5.4-.8-2.4-1.8-4.6-3.2-6.7l86.3-86.3c2.1 1.3 4.3 2.4 6.7 3.2 2.3.5 4.1 1.7 5.6 3.3zm-28-28c1.6 1.5 2.8 3.3 3.5 5.4.8 2.4 1.8 4.6 3.2 6.7l-86.3 86.3c-2.1-1.3-4.3-2.4-6.7-3.2-2.1-.7-3.9-1.8-5.4-3.5-4.6-5-4.3-13.1.7-18.1l36.6-36.6L93 431.6c2.6-2.6 6.1-4 9.5-4 3 .3 6.1 1.3 8.4 3.5zM-122.9 381c-4.6-5-4.3-13.1.7-18.1l73.1-73.1c2.6-2.6 6.1-4 9.5-4 3.1 0 6.2 1.1 8.6 3.3 1.6 1.5 2.8 3.3 3.5 5.4.8 2.4 1.8 4.6 3.2 6.7l-86.3 86.3c-2.1-1.3-4.3-2.4-6.7-3.2-2.3-.5-4.1-1.7-5.6-3.3zm28 28c-1.6-1.5-2.8-3.3-3.5-5.4-.8-2.4-1.8-4.6-3.2-6.7l86.3-86.3c2.1 1.3 4.3 2.4 6.7 3.2 2.1.7 3.9 1.8 5.4 3.5 4.6 5 4.3 13.1-.7 18.1L-77 408.5c-4.8 4.8-13 5.1-17.9.5zm96.8-61l78.2 78.2-33 33-33 33-78.2-78.2 66-66zm-232.5 335.1c-5.7 5.7-14.9 5.7-20.5 0-5.7-5.7-5.7-14.9 0-20.5L-42.5 454l20.5 20.5-208.6 208.6z"/>
    <path d="M182.4 694.8c0-1.4-.4-2.8-1.3-4l-26.4-34.6v-15.8c0-3.6-2.9-6.5-6.5-6.5h-182c-3.6 0-6.5 2.9-6.5 6.5v15.8l-26.4 34.6c-.9 1.2-1.3 2.5-1.3 4v27.7c0 3.6 2.9 6.5 6.5 6.5H176c3.6 0 6.5-2.9 6.5-6.5l-.1-27.7zM-27.3 647h169v5h-169v-5zm-3.3 18H145l17.8 23.3H-48.4l17.8-23.3zm-24.5 51v-14.7h224.6V716H-55.1z"/>
    <path d="M52 429.5c1.3 1.3 2.9 1.9 4.6 1.9s3.3-.6 4.6-1.9c2.5-2.5 2.5-6.7 0-9.2L7.7 366.9c-2.5-2.5-6.7-2.5-9.2 0-2.5 2.5-2.5 6.7 0 9.2L52 429.5z"/>
</symbol><symbol id="ico-how-it-work-ic-3" viewBox="-247 249.1 503.9 503.9">
    <path d="M213 432.8c-8.9-32.5-34.1-58.5-65.8-69.1-16.3-55.3-66.6-94.3-125.2-94.3-42.3 0-81.3 20.3-105.7 54.5-57.7-22.8-152.8 24.4-136.5 121.9-17.1 15.4-26.8 37.4-26.8 60.1 0 44.7 36.6 81.3 81.3 81.3h40.6v-16.3h-40.6c-35.8 0-65-29.3-65-65 0-36.6 28.4-53.6 28.4-53.6-21.9-62.6 40.6-143.8 124.3-108.1 0 0 30.9-57.7 99.1-57.7 73.1 0 106.5 61.8 111.3 91 51.2 13 61.8 51.2 65.8 67.5 0 0 42.3 14.6 42.3 61 0 35.8-29.3 65-65 65H135v16.3h40.6c44.7 0 81.3-36.6 81.3-81.3.8-31.8-16.3-59.4-43.9-73.2z"/>
    <path d="M119.5 667.7V505.1H-108v162.5h-16.3V692c0 22.8 17.9 40.6 40.6 40.6H95.1c22.8 0 40.6-17.9 40.6-40.6v-24.4l-16.2.1zM-91.8 521.4h195v146.3H30.1V684h-48.8v-16.3h-73.1V521.4zM119.5 692c0 13.8-10.6 24.4-24.4 24.4H-83.6c-13.8 0-24.4-10.6-24.4-24.4v-8.1h73.1v16.3h81.3v-16.3h73.1v8.1z"/>
    <path d="M-34.1 473.4l11.4 11.4c15.4-15.4 41.4-15.4 57.7 0l11.4-11.4c-22.8-22.7-58.5-22.7-80.5 0z"/>
    <path d="M-57.6 449.8l11.4 11.4c28.4-28.4 74.8-28.4 103.2 0l12.2-11.4c-35-34.9-91.9-34.9-126.8 0z"/>
    <path d="M78.9 692h16.3v16.3H78.9z"/>
    <path d="M-83.6 692h16.3v16.3h-16.3z"/>
</symbol><symbol id="ico-how-it-work-ic-4" viewBox="-256 257 487 487">
    <path d="M-35.1 522.8c-.9-.2-1.8-.2-2.7-.1-9.1-1.1-16-8.8-16.1-18 0-4.4-3.6-8-8-8s-8 3.6-8 8c0 15.4 10.3 28.8 25.1 32.9v8c0 4.4 3.6 8 8 8s8-3.6 8-8v-7.5c17.1-3.6 28.7-19.5 26.9-36.9-1.8-17.4-16.4-30.6-33.9-30.6-10 0-18.1-8.1-18.1-18.1s8.1-18.1 18.1-18.1 18.1 8.1 18.1 18.1c0 4.4 3.6 8 8 8s8-3.6 8-8c0-16.1-11.3-30.1-27.1-33.4v-7.3c0-4.4-3.6-8-8-8s-8 3.6-8 8v7.8C-61.3 424-71.9 440-69.6 457c2.3 16.9 16.7 29.6 33.8 29.6 9.9 0 17.9 7.9 18.1 17.8.2 9.8-7.6 18-17.4 18.4z"/>
    <path d="M-151.6 479.2c0 64 51.9 115.8 115.8 115.8S80 543.1 80 479.2 28.2 363.3-35.8 363.3c-63.9.1-115.8 51.9-115.8 115.9zm115.8-99.9c55.2 0 99.9 44.7 99.9 99.9s-44.7 99.9-99.9 99.9-99.9-44.7-99.9-99.9c.1-55.2 44.8-99.8 99.9-99.9z"/>
    <path d="M119.4 614.7l-62.6 29.6c-8.6-16.1-25.2-26.3-43.5-26.8l-57.8-1.6c-9.1-.3-18.1-2.6-26.3-6.8l-5.9-3c-30.1-15.7-66-15.6-96 .1l.4-13.3c.1-4.4-3.4-8.1-7.8-8.2l-63.3-1.7c-4.4-.1-8.1 3.4-8.2 7.8l-3.8 139c-.1 4.4 3.4 8.1 7.8 8.2l63.3 1.7h.2c4.3 0 7.9-3.4 8-7.8l.2-6.7 16.5-8.8c6.5-3.5 14-4.3 21.1-2.3l98.3 27.6c.2.1.3.1.5.1 7.1 1.5 14.3 2.2 21.6 2.2 15.4 0 30.6-3.3 44.5-9.7.3-.2.7-.3 1-.5l142.5-92.2c3.5-2.3 4.7-7 2.6-10.6-10.6-18.8-34-26-53.3-16.3zm-358.5 107.4l3.4-123 47.4 1.3-3.4 123-47.4-1.3zM19.4 720C2 727.8-17.3 730-36 726.2l-98-27.5c-11-3.1-22.8-1.8-32.9 3.6l-8.4 4.5 2.3-81.8c26.6-17.7 60.8-19.5 89.2-4.8l5.9 3c10.3 5.3 21.6 8.2 33.2 8.6l57.8 1.6c16.2.5 30 12 33.3 27.9l-86-2.4c-4.4-.1-8.1 3.4-8.2 7.8-.1 4.4 3.4 8.1 7.8 8.2l95 2.6h.2c4.3 0 7.9-3.4 8-7.8.1-3.5-.2-6.9-.8-10.4l64.2-30.3c.1 0 .1-.1.2-.1 9.1-4.6 20.1-3.1 27.6 3.9L19.4 720z"/>
    <path d="M-27.8 340.9V265c0-4.4-3.6-8-8-8s-8 3.6-8 8v75.9c0 4.4 3.6 8 8 8s8-3.6 8-8z"/>
    <path d="M32.1 340.9V305c0-4.4-3.6-8-8-8s-8 3.6-8 8v35.9c0 4.4 3.6 8 8 8s8-3.6 8-8z"/>
    <path d="M-87.7 340.9V305c0-4.4-3.6-8-8-8s-8 3.6-8 8v35.9c0 4.4 3.6 8 8 8s8-3.6 8-8z"/>
</symbol><symbol id="ico-ic-marker" viewBox="-243 245 512 512">
    <path d="M13 245c-102.2 0-185.4 83.2-185.4 185.4 0 126.9 165.9 313.2 173 321 6.6 7.4 18.2 7.4 24.8 0 7.1-7.9 173-194.1 173-321C198.4 328.2 115.2 245 13 245zm0 278.7c-51.4 0-93.3-41.9-93.3-93.3s41.9-93.3 93.3-93.3 93.3 41.9 93.3 93.3-41.9 93.3-93.3 93.3z"/>
</symbol><symbol id="ico-ic-phone" viewBox="-243 245 512 512">
    <path d="M13 245c-140.6 0-256 115.4-256 256 0 46.4 12.5 91.6 36.2 131.1L-243 757l124.9-36.2C-78.6 744.5-33.4 757 13 757c140.6 0 256-115.4 256-256S153.6 245 13 245zm160.1 364.2l-11.9 11.9c-16.9 16.9-55.6 15.5-80.5 10.7-82.8-16-179.3-109.6-198-190.6-9.2-40.1-4.1-75 9.2-88.4l11.9-11.9c6.6-6.6 17.3-6.6 23.8 0l47.6 47.7c3.2 3.2 4.9 7.4 4.9 11.9s-1.7 8.7-4.9 11.9l-11.9 11.9c-13.1 13.2-13.1 34.5 0 47.7L42 549.6c13.2 13.2 34.5 13.2 47.7 0l11.9-11.9c6.1-6.2 17.6-6.2 23.8 0l47.6 47.6c6.5 6.5 6.8 17.1.1 23.9z"/>
</symbol><symbol id="ico-ic-quotions" viewBox="0 0 166.31 249.83">
    <title>
        ic-quotions
    </title>
    <path stroke-miterlimit="10" stroke-width="3" d="M102.82 65.35v-7.16"/>
    <path d="M95.19 196.28h-55.7v-47.79c0-23.27 13.68-32.88 35.78-40.78l26.59-11c.42-.41 1-1.33 1-3.72v-17.2" stroke-miterlimit="10" stroke-width="3"/>
    <path d="M99.21 236.62c-4.94 8.54-14.58 13.21-28 13.21-13.62 0-23.31-4.82-28.15-13.62" stroke-miterlimit="10" stroke-width="3"/>
    <path d="M103.1 151.39a13.39 13.39 0 0 0-.11 1.79v17.67" stroke-miterlimit="10" stroke-width="3"/>
    <path stroke-miterlimit="10" stroke-width="3" d="M166.31 81.82v5.52"/>
    <path d="M78.27 2.7c28.23 0 49.07 3.66 63.69 11.18 15.93 8.19 24.35 21.33 24.35 38V75.2" stroke-miterlimit="10" stroke-width="3"/>
    <path d="M153.49 34.14Q138.67 10.7 78.27 10.7q-10.23 0-19.12.71-49.8 3.93-57.67 29.92A36 36 0 0 0 0 51.86v31.66h47.49V58.19q0-15.83 30.53-15.83 13.58 0 21.54 2.72a20 20 0 0 1 7.68 4.38 11.39 11.39 0 0 1 3.25 5.72 13.29 13.29 0 0 1 .33 3V93q0 7.59-5.07 10.76l-27.61 11.4c-21.62 7.71-30.65 15.33-30.65 33.31v39.79H95v-35.1q0-1.13.1-2.16a8.83 8.83 0 0 1 6.15-7.45l23.13-7.49c7.57-2.23 13.79-4.8 18.74-8 .67-.44 1.32-.89 1.94-1.36 9.06-6.69 13.26-16.07 13.26-30.52V51.86a32.47 32.47 0 0 0-4.83-17.72zm-60 177.64Q89 200 71.18 200q-23.69 0-23.69 20.89 0 13.92 10.5 18.56a32.55 32.55 0 0 0 13.19 2.34q23.8 0 23.81-20.9a25.78 25.78 0 0 0-1.49-9.11z"/>
</symbol><symbol id="ico-square-2" viewBox="0 0 608 549">
    <path d="M102.345 221.94l135.625 63.722c13.62 6.398 19.486 22.645 13.105 36.288l-63.552 135.868c-6.382 13.642-22.595 19.516-36.214 13.118L15.683 407.215C2.064 400.817-3.803 384.569 2.58 370.927l63.55-135.868c6.381-13.644 22.595-19.517 36.214-13.118z"/>
    <path d="M354.638 297.402l135.625 63.72c13.62 6.398 19.486 22.646 13.104 36.289l-63.551 135.868c-6.382 13.643-22.595 19.516-36.214 13.118l-135.626-63.72c-13.619-6.4-19.486-22.646-13.104-36.29l63.552-135.867c6.381-13.644 22.595-19.517 36.214-13.118z"/>
    <path d="M259.335 2.607l135.626 63.721c13.618 6.399 19.486 22.646 13.104 36.288l-63.552 135.868c-6.381 13.643-22.595 19.517-36.214 13.118l-135.625-63.72c-13.62-6.4-19.486-22.645-13.105-36.288l63.552-135.869c6.381-13.643 22.595-19.516 36.214-13.118z"/>
    <path d="M456.693 102.43l135.625 63.72c13.62 6.4 19.486 22.646 13.105 36.29L541.87 338.308c-6.382 13.643-22.595 19.515-36.214 13.118L370.03 287.705c-13.619-6.398-19.486-22.646-13.104-36.29L420.48 115.55c6.381-13.644 22.595-19.517 36.214-13.119z"/>
</symbol><symbol id="ico-square" viewBox="0 0 734 732">
    <path d="M252.195 149.42l93.844 181.52c9.423 18.227 2.285 40.673-15.944 50.134l-181.533 94.23c-18.229 9.462-40.645 2.356-50.068-15.871L4.65 277.914c-9.424-18.227-2.286-40.673 15.943-50.135l181.533-94.228c18.23-9.464 40.646-2.358 50.069 15.87z"/>
    <path d="M381.61 401.846l93.844 181.519c9.424 18.227 2.285 40.674-15.943 50.136l-181.534 94.228c-18.228 9.462-40.645 2.357-50.068-15.87l-93.844-181.52c-9.424-18.225-2.286-40.673 15.943-50.134l181.534-94.23c18.229-9.461 40.645-2.355 50.068 15.871z"/>
    <path d="M505.007 20.804l93.844 181.518c9.423 18.227 2.285 40.674-15.944 50.136l-181.533 94.229c-18.23 9.461-40.646 2.357-50.069-15.872l-93.844-181.517c-9.423-18.228-2.285-40.674 15.944-50.137L454.938 4.933c18.229-9.462 40.645-2.357 50.069 15.87z"/>
    <path d="M635.066 273.252l93.844 181.52c9.423 18.226 2.285 40.673-15.943 50.135l-181.534 94.228c-18.229 9.461-40.645 2.357-50.069-15.87l-93.844-181.52c-9.423-18.227-2.285-40.674 15.944-50.135l181.533-94.23c18.229-9.462 40.645-2.356 50.07 15.87z"/>
</symbol></svg>