<?xml version="1.0" encoding="utf-8"?>
<!-- Generator: Adobe Illustrator 19.2.0, SVG Export Plug-In . SVG Version: 6.00 Build 0)  -->
<svg version="1.1" id="Слой_1" xmlns="http://www.w3.org/2000/svg" xmlns:xlink="http://www.w3.org/1999/xlink" x="0px" y="0px"
	 viewBox="0 0 997.8 817.3" style="enable-background:new 0 0 997.8 817.3;" xml:space="preserve">
<style type="text/css">
	.st0{clip-path:url(#SVGID_2_);}
</style>
<g>
	<defs>
		<path id="SVGID_1_" d="M756.7,145.2c5.3,13.5,3.6,18.9-4.2,31c-11.4,17.6-26.5,40.2-37.8,59.1c-2.6,4.4-4.4,12.4,1.9,17.1
			c4.8,3.6,12.1,0.2,18.4-2.2c12-4.6,19.8-7.8,28.6-11.4c-2.6,5.5,0.2,8,4.9,11.6c4.8,3.6,11.8,4.4,17.7,1.6
			c26.9-12.9,65-35.1,94.2-36c0,0,4.2-3.8-0.4-4.2c-15.6-1.5-51.3,10.5-65.8,15.8c-3.4,1.3-5-1.5-2.9-4.8c10-16,8.7-13.6,20.1-30.1
			c14.4-20.9-6.5-32.5-19.9-40.7c-4.9-3-7.8-0.9-6,2.7c6.2,4.6,1.3,18-4.1,26.3c-11.5,17.8-19.3,29.4-27.6,42
			c-3,1.2-6.6,2.5-10.1,3.7c-4,1.3-7,0.5-3.2-5.1c9-13.2,16.4-23.8,22.1-32.3c10.2-15.3,7.3-28.3-18.3-47.2
			c-3.3-2.4-5.5-3.4-6.8-3.4C755.1,138.3,755.4,141.7,756.7,145.2 M442.9,596.8c16.5-24.4,59.8-65.1,126.9-102.7
			c-20,45.9-48.2,98.3-81.5,139.2c-10.3,12.7-20.4,17.7-28.9,17.7C438.2,651.1,426.4,619.8,442.9,596.8 M380.5,456.9
			c5.6-10.7,11.2-21.3,17-31.9c11-13.5,31.6-21.5,22.6-3.5c-8.6,17.3-16.9,32.1-25,44.8c-4.2,6.5-7.9,9.5-10.7,9.5h0
			C380.1,475.9,378.1,468.9,380.5,456.9 M294.1,411.3c53.7-22.1,11.4,50.3-1.2,71.6c-5.4,9.2-20.9,37.5-34.9,30.6
			c-4.9-2.5-7.5-9.7-3.8-20c6.5-18.2,27.3-40.9,39.2-42.6c1-0.1,2.1-0.2,2.5,1.4c0.4,1.6-0.6,5.8-1.4,8.4c-1.4,4.6,0.4,4.6,3.5-0.1
			c2.2-3.2,3.3-5.4,4-8.5c0.3-1.2,0-4.7-1.6-5.8c-3.2-2.1-8.7-3.8-10.8-3.2c-5.4,1.6-11,4.5-16.5,8.2
			C279.8,438.4,286.9,425,294.1,411.3 M554.9,422.5c4.6-21.1,27.6-45.3,44-37.1c17.4,8.7-30.2,52.6-52.3,66.4
			c-3.5,2.2-2.8,3.3-0.8,7.6c1.2,2.5,1.5,3.5,2.8,5.9c1.4,2.7,5.6,0.4,7.4-0.7c15.3-9.2,23.8-5,18.9,12.3
			c-75.6,41.8-139.5,95.9-155.5,116.3c-21.3,27.3-19.3,70.4,10.8,84.8c29.8,14.3,67.7-1.2,86-24c30.6-38.1,85.7-143.6,94-181.9
			c16.1-10.9,29-18.1,45.6-28.5c-19.9,24.3-28.6,45.1-31.7,54c-1.7,4.9-2.1,4.2,2.2,7.1c4.6,3.1,17.2,6.3,22.2,9.7
			c0.9,0.6,4.3,0.2,6.5-0.5c4-1.3,2-1,2.1-4.9c1-33.1,95.7-89.1,169.7-78.6c37.9,5.4,43.5,34.6,30,50c-10.5,12-25.9,6.8-36.5-12.5
			c-15.6-28.4-48.7-4.6-25.6,20c16.5,17.6,43.6,14.3,60.3,2.1C756.3,621,564,703.8,417.6,713.4c-87.2,5.7-123.6-66-103.2-124.3
			c0.7-1.6,1.5-3.1,2.3-4.7c17.3-34.9,34.1-69.6,51.6-104c2.5,19,20.7,28.4,36,21.1c10.2-4.9,21.8-21,31.8-37.9
			c-2.4,4.4-4.8,8.6-7.2,12.6c-2.5,4.1-4.2,11.7,1.8,16.1c4.6,3.4,11.4,0.2,17.4-2.1c13.7-5.2,22.1-9.6,33.2-14.3
			c1.2,7.5,7.6,11.6,11.3,13.9c5.6,3.6,10.8,6.5,20.6,12c10.7,6,10.8,4.6,10.6-5.3c-0.1-2.8-0.4-3.6-5.7-6.6
			c-5.1-2.9-9.9-8.6-2.7-22.2c4.2-7.9,9-15.6,10-17.1c7.7-11.9,13.3-21.9,20.3-33.5c-0.2,5.3,0.3,11.4,5.4,14.5
			c0.5,0.3,0.9,0.5,1.3,0.5C554.4,432.2,553.8,427.3,554.9,422.5 M432.4,238.8c7.4,0.4-9.5,28.2-34.1,31.8
			C403.4,258,429.6,238.7,432.4,238.8 M805,150.1c5.8,0,11.9-2.3,16.7-7.6c6.4-7.1,11.3-16.3,13.5-24.9c0.7-2.6,1.2-5.3,1.5-8
			c62.6,59.5,90.7,144.5,81.1,230.1c-5.2,46.3-22.1,89.3-47.4,128.4c5.2-18.6-2.7-40.8-30.8-47.9c-46.7-11.9-115.6,10.7-149.4,29.1
			c12.2-18.7,15.6-19.8,30.4-41c3.3-4.7,7.6-14.1,0.8-18.5c-5.3-3.4-20.6-8.5-26.5-11.5c-1.3,1.1-2.2,2-3.7,3
			c5.6,6.3-1.2,13.6-6.3,18.2c-24.9,22.6-49,36.1-76.6,54.6c-2.9-7.5-9.8-10.1-15.5-11c13.7-9.9,36.5-25.2,45.4-40.6
			c9.3-15.9-0.8-31.4-17.6-39.1c-21.5-9.9-52.1,1.8-66.6,25.7c-3.1-6.3-10.3-11-17.3-14.7c-18.2-9.7-7.8-2.9-8.4,7.2
			c-0.4,6.6-6,16.3-8.7,20.7c-14.1,23.3-20.6,35.3-34.2,58c-0.7,1.2-1.3,2.4-1.9,3.5c-3.4,1.6-7.6,3.6-10.3,4.5
			c-3.7,1.3-6.3,0.7-3-4.8c8.3-14.1,17.8-30.4,25.5-44.1c5.7-10,6.1-17.6-3.2-24.9c-4.7-3.7-11-7.6-16.6-11.3
			c-13.3-8.7-7.2-0.1-5.6,6.4c1.5,6.1-1.8,12-5.3,18.5c-2.1,3.9-4.3,8.1-6.6,12.5c2.9-12.1-6.9-21.7-16.5-24.3
			c-9.1-2.5-21.5-0.4-32.3,5.1c2-6.4,2.7-14.8-2.2-19.1c-7.7-6.7-12.2-9.3-20.4-16.7c-6.8-6.1-6.8-4.1-4.7,1.4
			c1.9,4.9,1.7,7.7-2.2,15.4c-4.6,8.9-10.4,20.7-17.4,34.7c3.7-19.5-11.1-26.1-29.7-26c-10.2,0.1-22,2.9-32,6.6
			c3.4-6.5,6.8-13,10.3-19.6c42.9-15.7,84.6-29.7,128-40.8c-10.9,6.9-14.1,13.2-21.2,23.2c-3.9,5.4-5.2,11.3,0.3,16
			c3.3,2.8,22-1.4,29.1-3.6c5.7-1.7,247.6-68.4,393-55.2c26.6,2.3,10.4-12.5-7.6-23.2c-10.4-6.2-21.2-8.2-32.7-7.9
			c-110.4,3-212.2,23.7-327.3,59.4c9.4-7.4,16.2-12.3,26.7-19.5c2.7-1.8-2.4-13.6-8.7-16.6c-53.3,8.8-112.2,28.4-170.1,50
			c12.3-23.6,24.8-47.6,37.1-71.2c-0.3,1.9-0.5,3.7-0.5,5.7c0.1,15.9,7.5,24.4,18,25.4c15.4,1.5,38.2-9.8,57.9-22.5
			c0.8,5.5,4.8,10.3,10.3,11.6c14.8,3.5,56-14.4,72-20.6l0,0l0,0c7.8-3,17.1-9.9,19.6-14.4c5.8-9.9,10.9-19.1,16-28l15.4-3.1
			c-2.6,4.8-5.3,9.8-8.1,15.2c-6.2,9.9-3.4,19.4,6.8,21.9c11.6,2.8,29.1-9.2,40.5-19.7c0.6,2.1,3.2,5.2,5.3,6.7
			c1.4,1,7.3,1.6,12.1-0.3c12-4.7,25.7-11,38.8-16.7c0.5,3.3,2.7,5.9,6.9,7.6c2.7,1.1,18.4,7.5,20.3,8.2c5.8,2.1,7.8-3.7,4.7-7.6
			c-3.3-4.1,3.8-14.4,6.5-18.7c7.8-12.6,20.2-31.7,29.7-46.6c8.6-14.7,5.4-21.5-5.5-29.7c-17.4-13-21.9-13.6-18-2.7
			c2.8,7.7-9.8,24.5-13.3,30.5c-8.5,14.6-15,26.1-26.1,44.3c-1.8,0.6-3.7,1.2-5.4,1.8c-4,1.3-6.6,0.7-3.2-5.1
			c8.8-14.9,11.5-20.3,19.8-34c7.2-11.9,6.9-16.3-3-24.1c-5.1-4-11.3-9.4-15.7-12.5c-1.7-1.2-7.3-6-9.2-3.2c-1,1.4,2.5,5.8,3.2,7
			c4,7.7-3.8,18.5-8.5,26.5c-9.9,16.8-19.2,30.6-29.8,47.8c-6.3,7.3-34.5,30.4-22.5,11.1c9.6-15.4,15.5-26,26.5-43.8
			c4-6.5,10.4-13.4,3.7-19.4c-3.9-3.5-12.1-7.4-16.6-10.8c-14.1-11.1-5,2.1-10.1,11.2c-9.4,17.1-16.7,30.5-24.3,44.6l0,0l-14.9,2.9
			c5-8.7,10.1-17.5,15.9-27.1c4.7-7.7,3.3-11.4-3.1-16.8c-5.3-4.3-13.5-7.5-18.8-11.8c-0.9-0.7-1.6-0.9-2.6-0.9c-0.9,0,0.7,3,1,3.8
			c0.9,2.6,0.7,6.9-0.9,9.7c-14.4,24.7-28.5,47.8-43.6,73.2c-5.9,10.1-10.3,16-20,20.2c-7.8,2.8-11.5,2.7-5.5-7
			c26.8-43.1,42.3-70,70.2-115.9c1.2-2,2.3-3.9,3.3-5.8c28.9-8.1,63.5-18.8,84.8-23.4c25.5-5.5,96.1-19.5,128.7-18.4
			c6.2,0.2,11.3,1.1,15.4,1.8c0.6,0.7,1.1,1.5,1.5,2.3c1.8,4.2,1.7,12.9,3,18.2C788.8,145.1,796.6,150.1,805,150.1
			C805,150.1,805,150.1,805,150.1 M278.6,89.1c151-84.2,358.1-93.5,492.5-25.6c11.2,5.6,21.7,11.9,31.7,18.7
			c-4.3,4.8-6.4,12.7-3.8,23.7c0.3,1.5,2.7-5.2,4.5-10.7c1.1-3.4,5.5-7.5,8.4-1.5c5.1,10.7,0.5,29.6-9.9,34.4
			c-5.4,2.5-6.7-5.6-7.6-14.5c0.2-1.4,0.2-3.2-0.1-5.5c-0.9-8.1-8.5-17-32.1-17.2c-37.2-0.3-102.8,15.1-123.7,20.6
			c-18.8,5-51.8,13.8-79.4,20.7c-1.2-15-11.5-27.1-24.7-39.6c-2-1.3-4.4,3.4-1.9,6.1c6.5,13.2-1.9,27.3-8.2,37.9
			c-0.9,1.4-1.7,2.9-2.6,4.3c-47.1,9.2-63.2,0.9-74.5-10.4c2.1,8.6,5,43,58.8,37.1c-20.3,34.8-40.1,69.7-60.7,104.4
			c-13.7,13.5-58.4,41.8-58.5,25.2c0-5.6,1.8-9.7,4-14.9c11.2,1.2,38.1-10,46.8-18.3c20-18.8,17.9-43.2-4.2-47.4
			c-15-4-34.5,5.8-48.9,21c20.1-38.8,38.8-75,54.4-105.3c9.9-19.2,18.7-50.3-4.7-76.1c-1.2-1.4-3.5-4-5.5-1.7
			c-1,1.2-0.4,5.2-0.3,6.6c0.3,7.3-1.8,18.8-7.1,28.9c-19.1,36.5-39.7,76.4-61.2,117.8l-0.2-0.1c-24.6,49-64.7,98-104.3,118.9
			c-19.6,10.3-26.7,11.1-7-20.4c11.9-19.1,29.8-30.3,40.6-37.9c4.7-3.4,5.9-2.7,1-4.8c-8.3-3.7-22.6-8.1-30.9-11.8
			c-4.7-2.1-4.7-1.8-9.5,1c-22.3,13.1-45.3,30.1-67.6,43.1c-18.2,9-56.2,23.1-69.1,3.4c-8-12.2-3.3-38,17.1-41.6
			c15.7-2.8,37,1.1,51.3,5.7c22.8,7.3,34.4-21.8,9.4-29.2c-20.3-6.1-48.1-3.4-66.7,4.3c-1.9,0.8-3.7,1.7-5.5,2.9
			C154.5,177.9,211.3,126.6,278.6,89.1 M560.7,2.8c-101.3,0-209.8,17.3-301.2,54.2C113.9,116,2.8,223.1,2.8,383.3c0,0.9,0,1.7,0,2.6
			v1.6c0.3,154.8,98.6,228.9,215.9,306c36.8,24.2,53.3,48.9,37.4,97.5c-5.8,17.8-5.9,25.7-2.8,26.3h0.8c3.7-0.6,10.5-8.8,17.8-21.9
			c20.5-37.4,11.5-79.9-19.9-106.7C165.4,614.5,69.8,549,77.7,381.7c1.5-31.3,7.4-60.9,17.2-88.7c1.6,7,5.5,13.4,12.2,18.3
			c10.9,8,28.3,9.7,53.6,2.3c7.6-2,15.8-5.2,24.1-8.8l0.4-0.2c0.1,0,0.2-0.1,0.3-0.1c12.1-5.4,24.3-12,34.8-17.9
			c-34.6,43.8-20.8,84.3,32.5,57.9c21.5-10.6,41.7-26.7,59.8-45.3c-13.9,26.8-27.9,53.6-41.8,80.1c-17.9,6.9-35.4,13.8-52.5,20.4
			c-19,7.3-34.7,10.5-46,8.8c-7.9-1.2-14.7-9.7-14.7-18.1c0-11.1,4-28.5,15.6-37.9c15.8-12.8,2-12.4-14.6-4.1
			c-34.2,17.2-41.6,60.6-18.3,75.6c27.9,18,90.4-15.4,117.3-25.6l3.9-1.5c-16,30.6-31.8,60.5-47,88.9
			c-26.1,49.1-51.5,93.7-16.3,137.3c13.5,16.7,12.2,8.4,10-2.7c-5.8-29.2,11.5-70.3,28.7-103.4c3.9,8.7,12.3,14.9,21.7,17
			c26.5,5.7,50.4-17.5,68.7-44.9c-13.4,27.1-28.3,57.1-44.1,88.6l-1.3,2.7c-8.4,18.2-7.5,48.4-1.2,66.2l0.1,0.2
			c12.9,46,56,82,123.6,80.4c216.7-5.1,618.6-154.9,592.2-435.3c-11.6-123-89.8-202.1-195-247.8C739.7,17.2,653.2,2.8,560.7,2.8
			C560.7,2.8,560.7,2.8,560.7,2.8"/>
	</defs>
	<use xlink:href="#SVGID_1_"  style="overflow:visible;"/>
	<clipPath id="SVGID_2_">
		<use xlink:href="#SVGID_1_"  style="overflow:visible;"/>
	</clipPath>
	<g class="st0">
		<defs>
			<rect id="SVGID_3_" x="2.8" y="2.8" width="995" height="814.4"/>
		</defs>
		<use xlink:href="#SVGID_3_"  style="display:none;overflow:visible;"/>
		<clipPath id="SVGID_4_">
			<use xlink:href="#SVGID_3_"  style="display:none;overflow:visible;"/>
		</clipPath>
		<g style="display:none;clip-path:url(#SVGID_4_);">
			
				<image style="display:inline;overflow:visible;" width="4134" height="3383" xlink:href="264996B.jpg"  transform="matrix(0.2407 0 0 0.2407 2.8346 2.8343)">
			</image>
		</g>
	</g>
</g>
</svg>
