<?xml version="1.0" encoding="utf-8"?>
<!-- Generator: Adobe Illustrator 19.2.0, SVG Export Plug-In . SVG Version: 6.00 Build 0)  -->
<svg version="1.1" id="Слой_1" xmlns="http://www.w3.org/2000/svg" xmlns:xlink="http://www.w3.org/1999/xlink" x="0px" y="0px"
	 viewBox="0 0 46 60.9" style="enable-background:new 0 0 46 60.9;" xml:space="preserve">
<style type="text/css">
	.st0{fill:#FF3631;}
	.st1{fill:#FFFFFF;}
</style>
<g>
	<g id="XMLID_2_">
		<g>
			<path class="st0" d="M23.1,56.9c1.1,0,2,0.9,2,2.1c0,1.1-0.9,2-2,1.9c-1.1,0-1.9-0.9-2-2C21,57.9,21.9,56.9,23.1,56.9
				C23,56.9,23.1,56.9,23.1,56.9z"/>
			<path class="st0" d="M0,22.9c0-12.7,10.3-23,23-23s23,10.3,23,23c0,10.9-7.5,20-17.7,22.4c-3.1,0.9-4.7,3-4.8,6.1
				c0,0.3-0.2,0.5-0.5,0.5c-0.3,0-0.5-0.2-0.5-0.5c-0.1-3.2-1.8-5.2-4.8-6.1C7.5,42.9,0,33.8,0,22.9z"/>
			<path class="st1" d="M19,58.9c0-2.2,1.8-4,4-4s4,1.8,4,4c0,2.2-1.8,4-4,4S19,61.1,19,58.9z M23,56.9c-1.1,0-2,0.9-2,2
				c0,1.1,0.9,1.9,2,2c1.1,0,2-0.8,2-1.9C25.1,57.9,24.2,56.9,23,56.9C23.1,56.9,23,56.9,23,56.9z"/>
		</g>
		<g>
		</g>
	</g>
</g>
<circle class="st0" cx="23" cy="23.8" r="4.3"/>
<g id="XMLID_3_">
	<g>
		<circle class="st1" cx="23" cy="23.8" r="4.3"/>
	</g>
	<g>
	</g>
</g>
</svg>
