<?xml version="1.0" encoding="utf-8"?>
<!-- Generator: Adobe Illustrator 19.2.0, SVG Export Plug-In . SVG Version: 6.00 Build 0)  -->
<svg version="1.1" id="Слой_1" xmlns="http://www.w3.org/2000/svg" xmlns:xlink="http://www.w3.org/1999/xlink" x="0px" y="0px"
	 viewBox="0 0 60 68" style="enable-background:new 0 0 60 68;" xml:space="preserve">
<style type="text/css">
	.st0{fill:#FF3631;}
	.st1{fill:#FFFFFF;}
</style>
<g>
	<g id="XMLID_2_">
		<g>
			<path class="st0" d="M30.1,62c1.1,0,2,0.9,2,2.1c0,1.1-0.9,2-2,1.9c-1.1,0-1.9-0.9-2-2C28,62.9,28.9,62,30.1,62
				C30,62,30.1,62,30.1,62z"/>
			<path class="st0" d="M7,28C7,15.3,17.3,5,30,5s23,10.3,23,23c0,10.9-7.5,20-17.7,22.4c-3.1,0.9-4.7,3-4.8,6.1
				c0,0.3-0.2,0.5-0.5,0.5c-0.3,0-0.5-0.2-0.5-0.5c-0.1-3.2-1.8-5.2-4.8-6.1C14.5,48,7,38.9,7,28z"/>
			<path class="st1" d="M26,64c0-2.2,1.8-4,4-4s4,1.8,4,4s-1.8,4-4,4S26,66.2,26,64z M30,62c-1.1,0-2,0.9-2,2c0,1.1,0.9,1.9,2,2
				c1.1,0,2-0.8,2-1.9C32.1,62.9,31.2,62,30,62C30.1,62,30,62,30,62z"/>
		</g>
		<g>
		</g>
	</g>
</g>
<circle class="st0" cx="30" cy="28.9" r="4.3"/>
<g id="XMLID_3_">
	<g>
		<circle class="st1" cx="30" cy="28.9" r="4.3"/>
	</g>
	<g>
	</g>
</g>
</svg>
