<?xml version="1.0" encoding="utf-8"?>
<!-- Generator: Adobe Illustrator 19.2.0, SVG Export Plug-In . SVG Version: 6.00 Build 0)  -->
<svg version="1.1" id="Слой_1" xmlns="http://www.w3.org/2000/svg" xmlns:xlink="http://www.w3.org/1999/xlink" x="0px" y="0px"
	 viewBox="0 0 1055 902.3" style="enable-background:new 0 0 1055 902.3;" xml:space="preserve">
<style type="text/css">
	.st0{clip-path:url(#SVGID_2_);}
</style>
<g>
	<defs>
		<rect id="SVGID_1_" width="1055" height="902.3"/>
	</defs>
	<clipPath id="SVGID_2_">
		<use xlink:href="#SVGID_1_"  style="overflow:visible;"/>
	</clipPath>
	<path class="st0" d="M871.9,775c0,0.4,0,0.9,0,1.3c0.4,0,0.7,0,1.1,0c0-0.4,0-0.9,0-1.3C872.6,774.9,872.2,775,871.9,775"/>
	<path class="st0" d="M245.2,737.7c0.5,0.9,0.8,2,2.2,1.8C247.6,737.8,246.3,737.9,245.2,737.7"/>
	<path class="st0" d="M399.5,702.3c0.5,0.9,0.4,2.5,2.2,1.8C401.9,702.4,400.6,702.5,399.5,702.3"/>
	<path class="st0" d="M142.9,645.3c-0.1,1.1,3.6,1.1,2.8-0.8C144.4,644.4,143.6,644.8,142.9,645.3"/>
	<path class="st0" d="M1050.9,601.5c-1.7,0.5-2.6,1.8-2.8,4C1052.2,605.9,1054.5,603.6,1050.9,601.5"/>
	<path class="st0" d="M185.4,493.7c-0.9-0.4-2,2.4-3.3,0.8c-0.3,5.5,0.8,9.3,3.4,11.4C188.2,503.2,188.8,495.1,185.4,493.7"/>
	<path class="st0" d="M112.7,395.6c0.2-3.6-0.4-7.3,0-10.9c0.5-4.2,1.2-10.4,0-16c-1.1,0-2.2,0.1-3.3,0.1
		c0.5,12.3,0.6,21.8,0.7,35.2c0.7,0.1,1-0.2,1.1-0.7C112.7,401.7,112.6,398,112.7,395.6"/>
	<path class="st0" d="M109.2,349.7c-1.4,0.1-1.3,2.4-0.5,3.2C109.9,353,108.9,350.6,109.2,349.7"/>
	<path class="st0" d="M932.9,250.5c-0.5,0.1-0.5-0.2-0.6-0.6c-0.4,0.4-0.9,0.7-1.7,0.7c0.4,0.6,1.3,0.6,1.1,1.9
		C932.4,252.2,932.9,251.6,932.9,250.5"/>
	<path class="st0" d="M916.6,228.2c-0.3,1.4,1.1,0.9,1.1,1.9C919.1,229.7,917.8,227.5,916.6,228.2"/>
	<path class="st0" d="M906,220.3c1.7-2.5,6.9-3.4,5-7.9c-3.9,0.2-4.4,4.1-7.8,4.8C904.1,218.3,905.6,218.7,906,220.3"/>
	<path class="st0" d="M896,216.2c0.2,0.3,0.5,0.7,0.7,1c0.3,0.4,0.9,0.4,1.3,0c0.4-0.4,0.4-1,0.1-1.4c-0.3-0.3-0.5-0.7-0.7-0.9
		l-0.3-0.4c0,0,0,0-0.1-0.1l0.1-0.1c-0.5-3.6-2.8-8-6.1-6.1C891.7,212,894.1,213.8,896,216.2L896,216.2z"/>
	<path class="st0" d="M896.5,202.8c-1.3,1.7-1.3,4.1,0,5.8c2.4,0.3,2.3-2.2,4.5-2.1C900.8,203.6,898.7,203.1,896.5,202.8"/>
	<path class="st0" d="M893.1,199.1c-0.2,1.3,0.4,1.7,0.6,2.5C895.3,201.4,895,198.5,893.1,199.1"/>
	<path class="st0" d="M894.6,193.3c2.3,2.9,5.5,5.3,7.8,6.7c2.1-2.2-1.1-6.4-3-8.6c-2.1-2.4-5.8-4.2-7.3-5.8c-0.2,1.2,0,2.4,0.3,3.5
		c-0.6-0.1-1.3-0.2-2.1-0.2c-1.6,2.5,0.4,5.2,1.1,7C892.9,194.4,893.1,193.6,894.6,193.3"/>
	<path class="st0" d="M884.2,175.1c1.4,2.8,2.9,5.5,6.2,6.1C889.7,177.5,888.6,174.3,884.2,175.1"/>
	<path class="st0" d="M837.2,132.3c1,3.1,5.7,4.2,6.7,0.4C842.6,130.4,839,130.7,837.2,132.3"/>
	<path class="st0" d="M875.1,126.8c-0.4,2,0.6,2.3,0.6,3.8C877.8,131,877,125.8,875.1,126.8"/>
	<path class="st0" d="M869.5,122c-0.1,2,1.4,2.1,2.8,2.4C872.7,122,871.4,121.6,869.5,122"/>
	<path class="st0" d="M860,118.5c0.5-1.6,0.2-1.4,0.5-3.9c-1.7,0.1-1.9,1.7-3.3,2.1C857.7,117.8,858.3,118.9,860,118.5"/>
	<path class="st0" d="M808.7,85.5c-4.4-0.1-7.8-6.4-11.7-1.4c5.7,7.9,17.3,8.9,21.8,18.3c4.4-0.9,5.7,1.2,5.6,4.2
		c4.3-1,7,2.8,9.5,0.2c-1.3-2.1-2.7-4-5-4.9c-2.1-8-10.1-8.9-16.2-12.1C811,88.6,810.1,86.8,808.7,85.5"/>
	<path class="st0" d="M847.2,103.7c-0.6-0.6-0.2-2.4-1.7-1.9C845.4,103.3,845.9,103.9,847.2,103.7"/>
	<path class="st0" d="M840.5,93.1c-0.4,0-0.7,0-1.1,0c0,0.4,0,0.9,0,1.3c0.4,0,0.7,0,1.1-0.1C840.4,94,840.5,93.5,840.5,93.1"/>
	<path class="st0" d="M835.4,89.5c-0.1-1.6-0.8-2.4-2.2-2.5c0.2,1.5-1,1.4-0.5,3.2C834.4,90.9,834.1,90.5,835.4,89.5"/>
	<path class="st0" d="M827.1,85.3C825.4,83,825.2,87.4,827.1,85.3"/>
	<path class="st0" d="M832.1,81.3c-1.9-0.4-2.4,0.8-3.3,1.4c1,0.8,1.5,2.1,3.3,1.8C832.1,83.4,832.1,82.4,832.1,81.3"/>
	<path class="st0" d="M770.1,46.2c-0.7-1-1.6-3.2-2.8-1.8C767.8,45.5,768.3,46.5,770.1,46.2"/>
	<path class="st0" d="M748.3,31.1c0.4-4.4-3.6-4.2-5-1.7C743.5,31.6,746.2,31,748.3,31.1"/>
	<path class="st0" d="M729.9,28c-0.8-2.4-4.9-5-6.7-2.3C724.3,28.6,727.7,31.8,729.9,28"/>
	<path class="st0" d="M909.1,744.6c-0.5,1.5,0.3,3.4-1.1,5.8c2.9,1.1,5.5-2.1,6.1-5.4C913.2,743.4,909.2,745.5,909.1,744.6"/>
	<path class="st0" d="M856.6,134.7c-0.1-0.1-0.2-0.1-0.2-0.2c-0.3-0.3-0.8-0.3-1.1,0.1c-0.3,0.4-0.3,0.9,0,1.2
		c0.1,0.1,0.2,0.2,0.3,0.3c0.3,0.3,0.6,0.5,0.9,1.1c0,0,0,0,0.1,0.1l-0.1,0.1c0.9,1.1,1.8,2,2.8,2.9c-0.4,0.4-0.7,0.8-0.8,1.4
		c0.3,3.8,2.6,5.1,3.7,8c-0.1,0.1-0.1,0.3,0,0.4c0.2,0.3,0.4,0.6,0.5,0.8c0.5,0.8,1,1.4,0.8,2.3c0,0.2,0.1,0.4,0.3,0.5
		c0.2,0,0.4-0.1,0.4-0.3c0.2-1.3-0.4-2.2-0.9-3c-0.1-0.2-0.3-0.4-0.4-0.6l0.1,0c3,0.5,3.4,4,6.1,4.9c1.5,0.1,2.4-0.3,2.2-2
		c10.5,7.5,16,21.1,25.2,30.3c1,3.6,3.4,8,7.3,6.1c-1-7.6-5-11.6-9-15.6c-3.3-7.4-6.3-17.2-14.5-16.7c-2.5-4.6-5.7-8.2-8.6-12.2
		c0,0,0,0,0,0l0-0.1c0.6,0.2,1.2,0.3,1.8,0.4c0.3,0,0.7,0.1,1,0.2l0,0.1c2.4,3.9,5.6,6.3,9.2,7.9l0-0.1c0.4,0.5,0.8,1.1,1.2,1.7
		c1,1.5,2,3.1,3.8,4c0.2,0.1,0.4,0.1,0.6,0c0.2-0.1,0.4-0.3,0.5-0.5c0.2-0.5,0-1-0.4-1.3c-1.3-0.7-2.2-2-3.1-3.4
		c-0.4-0.6-0.8-1.1-1.2-1.7l0,0c0.5-2.6-1-3.6-2.1-4.5c0.2-0.4,0.1-0.9-0.2-1.2c-0.3-0.3-0.6-0.7-0.8-1.1c0,0,0-0.1-0.1-0.1
		c0.1-0.3,0.2-0.6,0.3-1c-0.3-0.2-0.6-0.3-0.9-0.4c-0.9-1.9-1.9-3.7-4.4-3.7c-0.1,1,0,1.9,0.1,2.7c-0.2-0.2-0.3-0.4-0.4-0.7
		c-0.3,0.6-1,1-1.9,1.3c-0.3-0.1-0.7-0.1-1-0.2c-0.5-0.1-1-0.2-1.4-0.3l0.1-0.1c0-0.5,0.3-0.8,0.2-1.4l0.3-0.1
		c0.2-0.1,0.3-0.3,0.2-0.5c-0.1-0.2-0.3-0.3-0.5-0.3l-0.3,0.1c-0.4-0.5-1.2,0-1.4-0.8c-0.6,0.3-0.2,1.3,0,2.1
		c-0.5-0.1-0.9-0.2-1.4-0.3c-0.6-1-1.1-2-1.6-3c-1,0.5-2.3,0.7-3.7,0.8c-2-1.1-4-2.2-6.2-2.7l-0.1,0.1
		C857.4,135.4,856.9,135,856.6,134.7"/>
	<path class="st0" d="M1035.1,459.2c-2.2-0.3-6.6-0.2-7.5,2.5c0.1-7.7,6.1-13.2,0.3-21.4l-0.1,0.1c-0.1-0.6-0.1-1.1-0.3-1.7
		c-0.2-0.5-0.7-0.7-1.2-0.6c-0.5,0.2-0.7,0.7-0.6,1.3c0.1,0.3,0.1,0.6,0.2,1c-0.4,0.1-0.4,0.4-0.3,0.8c-1.7,3.5-3.4,7.3-3.5,12.2
		c-0.1,4.1,2.7,9.4-1,12c-0.2,5.9-2.4,12.8-2,19.9c0.2,3.3,1.9,5.5,1.1,8.5c-0.5,1.9-1.3,3.7-3.1,4.5c-0.7,10.1-5,18.2-3,29.8l0,0
		c-0.1,0.7-0.3,1.5-0.5,2.2c-0.1,0.5-0.3,1-0.4,1.6l0,0c-1.6,1.4-3,2.9-1.5,6c-0.6,2.7-3,4.2-4.5,6.3c-0.8,9.4-9.8,16.2-4.2,27.5
		c-0.2,2.5-1.1,4.6-1.1,7.2c-1.5,0-2.1-1.6-3.6-1.5c-4.7,4.2-6.4,10-8.9,15.4c2.2,5.1-1.6,6.8-2.1,10.3c0.9,2.2,2,3.3,1.6,5.6
		c-2.4,1.7-2.7-1-4.9,0.3c-7,6.8-10.4,15.8-10.9,26.3c-7.2,2.5-9.6,7.8-14.3,11.7c-0.3,6.3-1.7,11.9-3,17.7
		c-1.4,0.3-2.7-0.1-4.2-0.5c-1.3-0.4-2.6-0.8-4-0.7c0,0,0,0,0,0c-0.2,0-0.3,0.1-0.4,0.2c2.2-11.9,13.7-18.1,17.5-29
		c0.7-2.1,0.4-4.5,1.3-6.6c0.5-1.2,1.7-2.2,2.2-3.5c0.9-2.6,0.5-5.6,1.5-8.1c1.1-2.6,3.8-4.6,4.9-7.2c2.2-5.1,2-10.7,4.4-15.9
		c-3-0.5-1.6-3.2-2.6-4.6c-4.1,3.9-3.8,10.2-12.2,10.3c-3.2-8.3,2.5-11.6,6.3-15.9c1.4-2.5,1.1-6,4.2-7.6c0.5,0,0.7,0.4,1.3,0.2
		c0,3.9-1.1,7.1-1.4,10.8c1.3,0.4,3.9-2.2,4.3,2c2.5-1.1,1.8-4.8,5.2-3.8c5-12.2,4.8-25.9,8.1-38.5c0.8-3,2.1-6.2,3.1-9.3
		c2.5-8.6,3.5-17.7,5.4-27.9c-1.3-3.5,0.4-5.4,1.7-7.4c-0.6-3.8,2-5.9,1-9.9c4.2-5.5,2.6-14.3,7.1-19.6c-3.2-2.7-3.3-6.6-4.7-12.2
		l-0.2,0.1c-0.1-3.2,0.2-6.5,0.6-9.9c0.4-3.5,0.8-7,0.6-10.6l0.1,0.1c0-5.2,5.1-7.6,5.2-12.8c-1-1.6-2.6-1.9-3.5-3.6
		c-0.7-3.5,1.8-7.6,0.4-9.8c1.1-2,4.1-2.9,3.4-6l-0.2-0.1c0.6-0.8,0.8-1.6,1-2.3l0.1-0.4c0.1-0.5-0.1-1-0.6-1.2
		c-0.5-0.2-0.9,0.1-1.1,0.6l-0.1,0.5c-0.1,0.6-0.3,1-0.5,1.3c-0.1,0-0.2,0.1-0.3,0.1c-3.8-4.1-0.7-11.9-3-19.6
		c1.8-5.6,2.5-11.9,3.8-17.8c-0.1-2.2-2.1-0.2-2.4-1.9c-0.9-3.2,2.4-3.9,2.6-6.4c-1.4-4-2.9-2-4.9-3.8c-1-6,4-10.8,0.4-16.6
		l-0.1,0.1c-0.1-0.8-0.3-1.6-0.5-2.3c-0.2-0.6-0.3-1.1-0.4-1.7c2.6-3.6-0.4-11.8-3.7-15.1l-0.1,0.1c-0.1-1.7-0.7-3.1-1.3-4.5
		c-0.5-1.2-1-2.4-1.1-3.7l0.2,0c0.2-2.3,0.1-7.3-1.2-9c-0.1-0.5-0.1-0.9-0.1-1.5c0-1.4-0.1-3.1-1.7-4.1c-0.3-0.2-0.7-0.1-0.9,0.2
		c-0.2,0.3-0.1,0.8,0.2,0.9c0.9,0.6,1,1.5,1,3c0,0.6,0.1,1.1,0.2,1.7l0,0c-0.4,0.1-0.7,0.3-1.1,0.4c-0.1-0.3-0.2-0.7-0.3-1
		c-0.1-0.6-0.3-1.3-0.6-1.9c-0.1-0.3-0.5-0.5-0.9-0.3c-0.3,0.2-0.5,0.6-0.3,0.9c0.2,0.5,0.3,1.1,0.5,1.7c0.1,0.4,0.2,0.8,0.3,1.1
		c-0.7,3.1,1.9,6.2,3.1,8.5l0.1-0.1c0.2,1.4,0.7,2.7,1.2,3.9c0.6,1.4,1.1,2.8,1.2,4.3l-0.2,0c0.2,1.3-1.2,1.8-1,3.1
		c-2.6,0.4-3.5-2.7-7-0.4c-1.4,8.8,8.5,17.2,3.6,24.2c1.2,5.6,1.7,10.8,1.9,15.8c-2.6-0.3-2.1-0.5-4,1.4c0.3,2.5,0.5,3.1,2,4.8
		c1.9-0.5,0.8-2.7,1.4-3.9c2.1,1.6,2.2,6.5,1.7,8.3c-1.8-1-2.8,1.1-4.6,1.6c-2.6-1.4-3.4-8.8-2.6-11.5c-5.9-8.1,8.3-16.4-2.9-23.7
		c-1.4,0.3-2.2,0.9-2.7,1.6c-4.2-6.1,4.3-9.3-0.8-16.2c-1.4-0.9-2.2,0.5-3.5,1.2c-3.8-7.1-0.9-13.7-4.5-20.5c-1.9,0.2-1.2-0.1-2.9,1
		c-1.5-12.3-8-21.9-11.2-35.3c-8.9-1.5-11.8-15.4-20-18.4c-0.2-0.6-0.5-1.1-0.9-1.5c-0.6-0.9-1-1.5-0.8-2.3c0.1-0.4-0.2-0.8-0.5-0.8
		c-0.4-0.1-0.7,0.2-0.8,0.6c-0.2,1.5,0.5,2.5,1.1,3.4c0.4,0.5,0.7,1,0.8,1.5l-0.2,0c3.9,9.6,10.6,17.4,14.4,26.7
		c0.8,2,0.8,4.4,1.8,6.3c1.6,2.9,4.7,4.5,6.5,7.4c2.7,4.4,5.3,12.9,8.7,17.6c-2.9,9.3,5,21.8,3.1,31.2c-2,1.2-3.6-0.5-4.6,1.6
		c-1.9-7.9-4.4-14.6-6.7-21.8c0.6-2.5,2.8,1.7,3.1-0.3c-0.4-2.5-1.3-3.9-2.6-4.6c-0.6,0.2-0.2,0.9-0.2,1.5
		c-5.9-5.2-4.8-18.4-10.9-23.1c-0.9-4.6-2.5-9.9-3.4-16.7c-4.8,0.6-6.6-4.9-11.7-3.6c-0.8,2-0.3,4.7,0.2,7.5c-0.2,1.8-3,2.1-1.8,4.7
		c-2.8-4.4-7.6-8-8.3-13.7c-2.1-0.7-3-3.8-5.4-3.7c0.3-4-2.4-7.1-2.7-10.9c0.2-0.3,0.2-0.6,0.2-0.9c-1.1-4.7-2.7-8.7-4.6-11.8
		c-0.3-0.5-0.9-0.6-1.4-0.3c-0.5,0.3-0.6,1-0.3,1.5c1.6,2.6,2.9,5.8,3.9,9.4c-3.1-2.4-5.3-7.2-8.4-10c-1.7-0.4-3.3-1.2-4.9-1.8
		c-0.4-1.2-0.9-2.1-1.5-2.9c-0.2-1.9-0.7-3.4-1.4-4.7c0.5-0.4,1.1-0.7,1-1.4c-3.4-2.1-5.8-6.6-8.9-9.3c-0.8-6.4-4.8-6.5-6.7-10.7
		c0.2,0,0.4,0.1,0.6,0.1c0.6,0,0.9-0.4,0.9-1c0-0.6-0.3-1-0.8-1c-0.1,0-0.3,0-0.4-0.1c-0.2-0.4-0.4-0.8-0.7-1.1
		c0.3-1.5,0.3-2-1.4-3.3c-1.6-0.1-0.6,1.3-1.2,1.8c-0.5-0.2-1.1-0.4-1.6-0.7c-0.6-0.8-1-1.8-1.4-2.9c1-0.2,2.3,0.6,2.5,1.2
		c1-2.7-0.1-4.7,1.3-6.6c0.4,0.3,0.8,0.5,1.2,0.7c0.9-1.2,0.8-4,0.3-5.8c0.1,0,0.2-0.1,0.3-0.2c0.2-0.2,0.1-0.5-0.1-0.7
		c-0.2-0.2-0.5-0.4-0.8-0.5c-0.6-1-1.5-1.8-2.5-2.4c0.7-2.8-1.2-5.1-2.5-6.8l-0.1,0.1c-0.2-0.5-0.4-0.9-0.7-1.4
		c-0.1-0.3-0.3-0.6-0.4-0.9c-1.7-11.8-11.7-16.7-10.1-28.7c-1.2-1-2.5-1.7-3.9-2.4c-1.9-0.4-0.9,2.4-2.2,2.7
		c-3.4-0.2-5.1-2.5-8.4-2.9c-3.1-4.8-5.9-10.1-11.2-12.3c0-2.1-0.9-3.2-0.6-5.7l-0.1,0c0.2-0.3,0.5-0.7,0.7-1c0.3-0.3,0.5-0.7,0.7-1
		c1.7-0.1,3.6,0.7,5.1,1.6c0.2,0.1,0.5,0,0.6-0.3c0.1-0.3,0-0.6-0.2-0.7c-1.6-0.9-3.5-1.7-5.4-1.6c-0.1,0-0.3,0-0.4,0l-0.2,0
		l-0.1,0.2c-0.2,0.4-0.5,0.8-0.8,1.1c-0.3,0.3-0.5,0.7-0.7,1c-0.5,0-0.8,0.3-0.9,0.7c-1.8-0.1-4-0.3-5.9-0.8c0-0.9,0.4-1.7,1.5-2
		c-1.5-1.2-3.5-1.4-5.5-1.6l-0.1,0.2c0,0,0,0-0.1,0c0-0.2-0.1-0.3,0-0.5c-1.3-1.7-3.9-1.8-3.9-5c0.8-2.1,2.4-0.4,3.3-1.4
		c-2.3-1.1-2.6-4.6-5.6-4.9c0.1,1.1-0.7,1.4-0.6,2.6c-10.1,3.8-7-10-14-10.9c-1.1-0.9-2-2-3-3.1c1.1,0.4,1.9,1.8,2.7,2.1
		c0,0,2.9-2.6,2.8,1.1c1-0.3,1.9-0.7,2.9-1l-0.2-0.3c0.3,0.1,0.7,0.2,1,0.1c0,0,0,0,0.1,0c0.2-0.1,0.3-0.2,0.3-0.5
		c0-0.2-0.2-0.4-0.4-0.4c-0.1,0-0.2,0-0.4,0c-0.2-1-1.1-1.9-1.5-2.8c0.2,0,0.4,0.1,0.7,0.1c-0.7-2-0.3-5.2-2.8-5
		c-0.1,1,0,1.9,0.1,2.6c-2.5-0.2-5.1,0.2-8.1,0.4c-2-2.6-3.9-5.1-6.6-6.9c2.9-3.7,6.7,1.6,8.9,2.8c0.4-4-2.5-8.7-5-10.7
		c-1-0.8-2.2-1.4-3.4-1.9c0.3-0.1,0.6-0.1,0.9-0.2c-3.9-5.5-9.4-7.6-15-9.7c-2.1-2.6-4.9-3.5-7.1-6.4c0-1.5,0-3,0-4.5
		c-3.5-1.2-7.2,3-10.8,4.3c-0.1,0-0.1-0.1-0.2-0.2l-0.5-0.3c0,0-0.1,0-0.1,0c-0.8-0.5-1.6-1-2.4-1.5c0.7-0.3,1.6-0.3,2.3-0.5
		c-0.4-1.4-0.3-3.5-1.7-3.8c0.6-6.3,8.2-4,10.6-6.9c2.9-0.5,4.2,1,7.2,0.3c0.2-2.1,1.1-3.5,1.1-5.8c-2.1-0.3-3.9-0.9-3.9-3.7
		c-0.8-0.3-2.9,0.9-2.8-0.5c-1.6,0.4-1.3,2.8-2.8,3.3c-2.9,0.1-3.6-2.6-4.5-4.9c-0.7,0-1.5,0.1-2.2,0.1l0.1,0.3
		c-0.2-0.1-0.3-0.3-0.5-0.6c-0.2-0.3-0.4-0.6-0.8-0.9l0.1,0c-3.9-4.4-8.2-8.1-16.2-7.6c0.1,3.1,2.4,3.6,2.8,6.3
		c4.2-0.7,8.3,1.9,12.8,2.7l-0.1-0.3c0.2,0.1,0.3,0.3,0.5,0.6c0.2,0.3,0.4,0.7,0.8,0.9l-0.1,0c1.2,4.9-1.2,5.9-1.6,10.3
		c-2.4-1.8-4.1-4.6-6.1-6.8c-2.2,0.6-2.9,0.8-4.5-0.4c-1.7,0.5-2.9,1.5-4.5,2.1c-1.1-0.3-1.7-1.1-2.5-1.6c0-0.8-0.1-1.6-0.5-2.6
		l0.3-0.1c-0.9-0.8-2.1-2.6-3.3-1.1c0.1,1.6,0.8,2.4,2.2,2.5c0.1,0.5,0.2,0.9,0.2,1.3c-0.5,0.1-0.7,0.6-1.2,0.7
		c-0.1-0.1-0.3-0.2-0.4-0.3c-0.3-0.2-0.6-0.4-1-0.8c-0.1-0.1-0.2-0.1-0.4-0.1c-0.2,0-0.3,0.1-0.4,0.2c-0.2,0.3-0.2,0.7,0.1,0.9
		c0.5,0.4,0.8,0.7,1.1,0.9c0.2,0.1,0.3,0.2,0.5,0.4l-0.2,0.1c0.8,1.4,2.3,2,3.3,3.1c-0.1,3.5,1.1,8.4-3.3,7.2
		c-2.4,0-0.3-1.6-1.1-3.2c-1.6-3.1-7.1-5.8-8.4-8c-1-1.7-1.4-4.8,0.5-5.2l-0.2-0.2c1-0.9,1.6-2,1.8-3.2c0-0.2,0-0.3,0-0.4l0.1-0.1
		c0.5,0.1,0.5-0.3,0.6-0.7c2.3,0,4.6-0.1,6.1-0.9c-1.7-3.1,2.1-2.9,2.2-5.9c-2.3-1.6-5.3-2.2-6.7-4.8c-3-0.4-4,1.5-6.1,2.2
		c-1.2-0.3-2.3-0.4-3.5-0.6l-0.8-0.1c-3.1-2.8-7-4.5-10.3-7c-1.7,0.1-3.3,0.1-5,0.2c-3.1-3.4-7.5-2.6-13.9-3.3
		c-2.1-0.2-4.8-2.2-7.3-2.9c-0.8-0.2-2,0.5-2.8,0.1c-0.3-0.1-0.5-0.3-0.8-0.5c0,0,0,0,0,0c0.1,0,0.2,0,0.2,0
		c0.3-0.1,0.6-0.5,0.6-0.9c0-0.5-0.4-0.9-0.8-0.9c-0.4,0-0.8,0-1.2-0.1c-0.2,0-0.5,0-0.8,0c-1.9-2.2-3.5-4.9-5.7-5
		c-1.8-0.1-3.4,1.5-4.8,3c-6.2-1-12.8-1.5-19.3-2c-2.6-1.5-4.9-3.5-7.1-6.1c-1.5-0.1-1.8,1-1.7,2.6c-2.1,0.6-2.7-0.7-4.5-0.4
		c0-0.9,0.1-1.8-0.6-1.9c3.2-7.3,15.5-5.3,20.6-5.4l-0.3-1.2l0.8-0.8c-4.7-1.6-9.3-3.5-15.1-3.8c-2,1.9-4.2,5.4-7.8,3.5l-0.7,0.9
		l-0.9,0.5c0.2,0.8,1,1,1.1,1.9c-1.1,0.4-4.6,1.7-5,4.7c-5.1,0.7-9.4-1.4-8.9-5.4c-2.7,0-3.3,2.3-3.3,5.3c-2.5,2.2-7.1,1.3-9.5-0.2
		c0-1.3,0-2.6,0-3.8c-3.5-0.8-7.2-0.4-9.5,1.7c-10,1-13.4-5.8-21.2-7.4c-1.2,0.8-1.9,2.2-3.3,2.7c-7.4-1.6-15.3-1-19.5,4
		c-1.3-0.8-1,0.1-2.8-0.5c-2.1,1.8-4.8,3.9-7.8,3.5c-2.3-0.3-4.7-3.1-7.3-3.5c-7.4-1.2-17,0.1-25.6-0.2c-3.8-0.1-9-0.1-12.4-1.1
		c1.3-1.2-0.9-3.6-2.9-2.3c0.7,0.8,1.6,1.3,2.3,2.1c-0.1,0-0.3-0.1-0.4-0.1c-1.6-0.6-2.3-2.3-3.9-2.4c-2-0.2-4.4,0.8-6.1,2.2
		c-2.2-1.4-6.5-0.4-7.3-3.5c-4.4,1.3-8,0-10.6,3.7l0.8,0.3l-0.3,1c5.2-0.3,8.2,2.2,11.2,4.7c-4.7,4.1-11.2,2.5-17.3,2.7
		c-3.3-6.7-10.9,1.1-15,3.2c-4.9-1.1-6.1,0.3-11.1-0.2c0.4-3.4,5.3-1.8,6.1-4.7L452,12l0.3-1c-7.1,1.3-14.2,2.6-18.4,7.2
		c-0.5,2.1,1.4,1.3,1.7,2.5c-1.3,3.6-4.6,5.1-8.9,5.5c-1.5-2.3,2-3.2,0.5-5.1c-9-1.2-12.4,8.1-23.4,6.8c-4.7,4.4-11.5,6.4-16.1,10.9
		c-4.3,0.2-7.2,1.9-9.9,3.9c-0.8-0.7-3.8-0.9-3.7,0l0.1,0.1c-0.3,0-0.6,0.1-0.8,0.1c-0.6,0.1-0.8,0.6-0.7,1.2
		c0.1,0.6,0.6,0.9,1.1,0.8c0.2,0,0.3,0,0.5-0.1c0.1,0.1,0.3,0.2,0.4,0.2c-2.2,1.6-4.5,3-7.5,3.6c-3.7,4.2-7.2,4.7-12.2,6.9
		c0,1.7-1.8,1.5-1.7,3.3c-5.6,2.6-11,5.4-16.3,8.5c-0.7-1-1,1.3-2.1,1.1c-1.6-1.8-0.2-2.3-0.7-4.6c-6.1,0.5-10,4.5-12,8.9
		c-2-0.3-0.9-1.2-2.2-3.4c-2.6,0-2.7-0.2-5,0.3c-1.1,4.4-0.3,10-4.7,12.6c-0.2-1.5-1.3-2.3-2.5-3c0.6-0.1,1.2-0.5,1.5-1.2
		c-0.2-2.8-2.8-1.5-3.9-0.5c0,0.2,0.1,0.3,0.1,0.5c-0.3-0.2-0.7-0.4-1-0.7c-1.2,0.1-1.8,0.6-2.5,1.1c-6.7-2.7-11,5.7-13.4,10.7
		c-4.5-0.9-5.8,3.6-9.5,1.7c-3.1,3.8-9,4.5-11.7,8.8c0.1,0.2,0.1,0.5,0.1,0.7c-0.6,0.6-1.2,1.2-1.8,1.9c0-0.2-0.2-0.4-0.5-0.5
		c-5,1.1-7.6,4.8-12.2,6.3c-0.5,2.1,0.9,1.9,1.1,3.2c-3.5,5.9-7.3,11.5-11.7,16.5c-0.4,2.8-1.4,5-2.8,6.7c0.2-0.4,0.3-0.8,0.3-1.2
		c0-0.4-0.3-0.7-0.7-0.7c-0.4,0-0.7,0.3-0.7,0.7c0,0.9-0.6,1.4-1.5,2.1c-0.6,0.5-1.3,1-1.7,1.7c-0.1,0.2-0.1,0.3-0.1,0.5
		c-0.9,0.4-1.8,0.7-2.8,0.9c-5.5,4.4-8.7,11.2-12.8,17.2c-3.8,1.2-5.6,4.5-7.8,7.4c-0.3,2.1,0.4,3,0.6,4.5c-1.9,1.8-2.7,4.7-6.1,4.7
		c-0.3,3.3-2.8,4.1-5,5.3c-0.3,2.3-1.2,3.7-1.1,6.4c-1.2,2.7-5.3,2.2-7.2,4.1c0.8,3.4-1.5,3.5-1.7,5.8c0.8,0.6,1.1,1.7,1.7,2.5
		c-0.6,3-3.1,3.8-5.6,4.7c0,0.9,0,1.7,0,2.6c-0.9,0-1.9,0.1-2.8,0.1l0.1,0.2c-0.4-0.1-0.8-0.3-1.3-0.3l-0.2,0l-0.2,0.1
		c-0.8,0.6-1.1,1.5-1.3,2.4c-0.1,0.4-0.3,0.9-0.5,1.2l-0.2,0.1c-0.3,0.1-0.5,0.4-0.5,0.8c0.1,0.4,0.4,0.6,0.7,0.5l0.7-0.2l0.1-0.2
		c0.4-0.5,0.6-1.2,0.8-1.8c0.2-0.6,0.4-1.2,0.7-1.6c0.2,0,0.4,0.1,0.6,0.2c-0.6,2.8,1.3,2.6,2.8,3c-1.3,4.5-5.5,6.2-5,11.1
		c-1,1.3-5.2,5.4-5.6,1.5c-2,2.6-5.2,0.9-6.7,4.8c0.1,2.4,2.4,2.3,2.2,5c2.9-0.8,3.9-3.8,6.1-5.4c0.5,0.3,1,0.5,1.1,1.2l0.2,0.1
		c-0.3,0.6-0.6,1.1-0.9,1.7c-0.4,0.7-0.7,1.4-1,2.1c-5.9,5-7,15.3-12.8,20.4c-0.1,1.8-1,2.7-1.1,4.5c-2,1.5-3.6,5.1-6.1,4.1
		c0.2,2.5-0.7,3.9-1.7,5.2c-0.6-0.1-0.4-1.1-1-1.2c-0.2-1.1-0.3-2.2,0.3-2.9c0.3-0.4,0.3-1.1-0.1-1.4c-0.2-0.2-0.4-0.2-0.6-0.2
		c-0.2,0-0.5,0.1-0.6,0.4c-1.1,1.5-0.9,3.4-0.6,4.9l-0.1,0c-0.9,2.4-0.7,7,0.2,10.2c-0.3,0.2-0.7,0.4-1.1,0.6c-0.8-0.1-2,0.3-2.6,1
		c-0.1,0.1,0,0.2-0.1,0.2c-0.4-0.1-0.9-0.2-1.3-0.2c-0.1-0.3-0.3-0.6-0.6-1c-1,0.3-1.9,0.6-2.9,1c0,1.4-0.9,2.3-0.1,4.2
		c0.8,0.2,1.4,0.5,1.9,0.7c-1.6,2.6-3.9,4.5-3.4,9.4c0.6,0.3,1.3,0.5,2.1,0.8c-1.9,1.2-3.6,2.5-3.1,5.1c0,0,0,0.1,0,0.1
		c-0.1,0.2-0.1,0.3-0.2,0.5c-3.3,0.1-3.1,4.8-7.2,4.6c-0.1,2.5,1.9,3-0.8,3.7c6.6,3.3-0.4,9.5,0.2,14.3c1.4-3.2,4.1,0.4,3.5-3.2
		c0.8,3.7,0.1,8.5,1.2,13.2c0,0.1-0.1,0.2-0.1,0.3c-0.5,1.3-2.1,1.9-2.7,3.2c-0.7,1.5-2,5.4-2.2,7.1c-0.1,0.8,0.7,2.3,0.6,3.2
		c-1,4.6-3.6,8.7-3.9,13.6c-0.5,2.4,2.5,0.4,2.2,2.5l0.1,0c0,0.2-0.1,0.5-0.1,0.7c-1.7,0.1-2.1,1.4-3.3,2.1
		c0.4,4.7-3.5,6.7-2.2,10.3c-3.7,5.2-4.2,13.8-2.7,20c0.1,3.3-2.7,4.6-1.1,7.7c-1.1,2.2-2.9,3.6-3.3,6.6c3-1.1,3,6.3,1.1,7
		c-2.8,0.2-3.1-2.7-3.4-5.6c-1.9-0.2-1.7,2-2.8,2.7c-2.4,0.9-2.3-3-3.9-1.1c-0.2,8.8-0.7,27.2,3.4,36.4c-1,3.3-1,7,0,10.9
		c-0.2,2,2,1,2.2,2.5c-2.1,4.2-1.4,9.6-0.5,14.7c1.4,1.2,2.2-0.6,3.9,0.5c1.6,1.5,1.8,4.7,1.7,8.3c-0.1,1.6-1.9,1.4-3.3,1.4
		c0.7,9.5,4.4,13.2,9,16.9c0.4,1.9-0.6,2.4-0.5,3.9c1.4,3.7,2.4,7.9,3.9,11.4c1.7,1,3.2,2.1,3.4,5c-0.3,2.2-1.9,3-3.9,3.4
		c1,0.3,0,3,1.1,3.2c-0.1,2.7,0.9,0,1.7-0.1c2.7,1.9,4.9,4.5,6.2,8.1c0.7-0.2,0.6-1.3,0-1.3c0.1-1.8,2.3-1.3,3.8-1.4
		c0.1,0.3,0.3,0.6,0.4,0.9c0.1,0.3,0.2,0.5,0.3,0.7c-0.6,0.6-0.7,1.4-0.9,2.2c0.4,1.3,1.3,1.3,2.3,1.5c0.3,1,0.4,2.1,0.4,3.2
		c0,0.1,0.1,0.2,0.1,0.3l-0.2,0.1c-0.1,0.5-0.6,0.7-0.6,1.3c-2,0.2-1.8-2.1-3.3-2.4l-0.1,0c0-0.9-0.1-1.9-0.3-3.1
		c-0.1-0.4-0.4-0.7-0.8-0.7c-0.1,0-0.1,0-0.2,0c-0.4,0.1-0.7,0.6-0.6,1.1c0.2,1,0.2,1.8,0.3,2.7l0,0c-1.4,1.9,0.5,3.7,0.6,5.7
		c0.8,1.7,2.3-1.2,2.8,0.5c0.8,4.1-4.3,1.7-5,4.1c0.1,4.4,1.5,7.3,3.9,8.8c-2.4,2.8,2.9,4.8,0,5.8c1.6,3,2.8,6.4,3.9,9.9
		c-4,0.6-8-0.9-9.8,2.7c2.5,2,9,2.3,9.9-2.4c1.1,3.3,2.2,6.6,3.7,9.5c0,0.3-0.1,0.6-0.1,0.9l-0.1,0.5l0.4,0.4
		c0.2,0.1,0.3,0.3,0.5,0.5c0.3,0.2,0.6,0.5,0.8,0.8c0.2,0.3,0.6,0.4,0.9,0.3c0.1,0,0.2-0.1,0.3-0.2c0.3-0.4,0.4-1,0-1.3
		c0.8-0.7,1.3-1.8,2.5-2.1c-1.7,3-2.1,6.3-1.7,9.4c-0.1,0.1-0.2,0.1-0.3,0.2c-0.3,0.2-0.4,0.7-0.1,1c0.1,0.2,0.4,0.3,0.7,0.2
		c0.2,0.9,0.4,1.8,0.7,2.7c0,0.1-0.1,0.1-0.1,0.2l-0.2-0.3c-1.7,1.3-2.3,3.2-2.2,5.6c1-1.7,2.6,4.9,5.9,0.7c0-0.2-0.1-0.3-0.1-0.4
		c0.3,0.4,0.6,0.8,1,1.1c0,1.8,0.2,3.3,0.5,4.8c-0.7,0.2-1.4,0.1-2.4-0.1c-0.8-0.1-1.6-0.3-2.6-0.2c-0.6,0-1.1,0.6-1,1.3
		c0,0.7,0.6,1.2,1.2,1.1c0.7,0,1.4,0.1,2.1,0.2c1,0.2,2.1,0.3,3.3,0c1.2,4.3,3.4,7.4,5.7,10.3c-0.5,1.1,0.2,2.9,0.7,4.5l0.2-0.1
		c0,0.2-0.1,0.4-0.1,0.5c-0.2,0.1-0.5,0.3-0.8,0.4c-0.2,0.1-0.3,0.3-0.2,0.5c0.1,0.2,0.3,0.3,0.4,0.2c0,0,0,0,0,0
		c0.4-0.2,0.7-0.3,1-0.5l0.1-0.1l0-0.1c0-0.2,0.1-0.3,0.1-0.5c0.1-0.2,0.2-0.3,0.4-0.4c0.7,5.6,3.2,12.2,5.4,16.6
		c-0.1,1.4-2.4,0.4-3.3,0.8l0,0.2l-0.1,0c-0.3-0.1-0.7-0.2-0.9-0.3c-0.1,0-0.1,0-0.2,0c-0.3,0-0.6,0.3-0.7,0.7
		c-0.1,0.5,0.1,0.9,0.5,1c0.2,0.1,0.5,0.2,0.8,0.3l0.1,0l-0.1,0.1c2.4,1.4,4.4,3.3,7.3,4.2c2.4,8.2,6.2,14.8,8.4,23.3
		c8.4,9.3,11.2,23.7,19.6,32.5c0.5,0.5,1.6,0.1,2.2,0.5c3,2.3,5.6,6.1,8.4,8.6c3,2.7,5.8,4.3,9.5,6.6c2.7,1.8,4.7,4.9,8.1,5.9
		l0.5,0.5c0.2,0.2,0.5,0.2,0.8,0c0.2-0.2,0.2-0.6,0-0.9l-0.7-0.7l0.3-0.1c0-2.3-3-3.2-1.7-5.1c1.7,1.2,2.5,3.5,3.9,5
		c7.3,1.1,9.2,8.8,14.9,11.8c1.4,1,2.5,2.5,3.1,3.6c0,0.1,0.1,0.1,0.1,0.1c1.5,4.6,3.8,8.3,8.6,8.9l0-0.1c0.2,0.3,0.4,0.6,0.5,0.8
		c0.2,0.3,0.3,0.5,0.4,0.6l0.1,0.2l0.7,0.1c0.3,0.1,0.7-0.2,0.7-0.6c0.1-0.4-0.2-0.8-0.5-0.8l-0.2,0c-0.1-0.1-0.1-0.2-0.2-0.3
		c-0.2-0.3-0.4-0.7-0.7-1.1l0.2-0.1c-0.8-2.4-3.9-2.9-4.5-4.3c-0.1-0.2-0.1-0.4,0-0.6c1.9,1,3.9,1.8,5.6,3.2
		c1.9-0.1,1.4-1.7,3.3-1.8c2.2,1.4-0.7,4,0.7,4.6c2,2.1,4.1,4.2,7.3,3.7l0-0.1c0.5,0.3,1.1,0.5,1.5,0.6l0.1,0l-0.2,0.3
		c0.6,1.6,1.1,3.1-1,3.1l0.1,0.1c-0.3,0-0.6,0.1-0.9,0.1c-0.6,0.2-0.8,0.7-0.7,1.2c0.1,0.6,0.6,0.9,1.1,0.8c0.1,0,0.3,0,0.4-0.1
		c2.2,2.6,6.9,0.2,9,3c-0.1,1.7-3.2,1.4-3.6,0.5c-0.3,3.2,1.8,4.8,0.2,7.5c1.7-0.9,2.6,0.6,3.5-1.2c-1.3,2.5,0,3.2-0.1,6.2l0.1,0.2
		c-0.4-0.1-0.8-0.1-1.2-0.2c-0.6,0-1.2-0.1-1.7-0.3c-0.3-0.1-0.5,0-0.6,0.3c-0.1,0.3,0,0.6,0.3,0.7c0.7,0.3,1.4,0.3,2,0.4
		c0.3,0,0.6,0,0.9,0.1c0.2,0.7,0.8,0.7,1.4,0.5c-0.5,3.5,2.5,5.3,4.4,6.7l0.1-0.2c0.3,0.4,0.7,0.8,1.1,1.2c0.2,0.2,0.5,0.5,0.7,0.8
		c5,11,16.8,12.8,18.3,25.1c1.5,0.6,3.1,0.9,4.7,1.1c2.1-0.2,0.3-2.6,1.6-3.3c3.6-0.8,6,0.8,9.5,0.2c4.6,3.8,8.9,8.1,15,8.6
		c0.6,2.1,1.9,2.8,2.2,5.4l0.1-0.1c-0.1,0.4-0.3,0.8-0.5,1.2c-0.2,0.4-0.3,0.8-0.5,1.2c-1.8,0.6-3.9,0.4-5.8,0.1
		c-0.3,0-0.5,0.1-0.6,0.4c0,0.3,0.1,0.6,0.4,0.6c1.9,0.3,4.2,0.6,6.1-0.1c0.1,0,0.3-0.1,0.4-0.1l0.2-0.1l0.1-0.2
		c0.1-0.5,0.3-0.9,0.5-1.4c0.2-0.4,0.3-0.8,0.5-1.2c0.5-0.2,0.7-0.5,0.7-0.9c4.4-1.1,11.5-2.5,11.8,1.5c1.8,1.3,4.6,0.5,5.4,3.6
		c-0.3,2.3-2.4,1.1-3.1,2.4c2.7,0.4,3.9,3.8,7.2,3.1c-0.4-1.1,0.3-1.6-0.1-2.7c9.5-6.8,10.1,7.6,17.6,6.4c5.8,2.5,10.4,7.7,16.5,9.5
		c-2,4.5-7.4,0.5-10.1,0c0.7,4,5,7.7,8.2,8.9c5.4,2,12.6-0.4,18.4,2.7c1.1,0.6,1.3,2.1,2,2.7c3.2,2.6,6.8,2.4,10.2,4.8
		c0.4,1.5,0.8,2.9,1.2,4.4c5.5,0.1,8.8-10.4,14.7-8.4c0.5,1.9-1.6,2.2-2.9,3.1c0.8,1.2,1.3,3.3,2.8,3.2c1.1,6.4-7.5,6.4-9.2,10
		c-2.9,1.4-4.7,0.4-7.7,1.9c0.3,2.1-0.2,3.8,0.4,6c2.3-0.4,4.3-0.3,5.1,2.4c0.9,0.1,2.8-1.7,3.1-0.3c1.6-0.9,0.6-3.2,2-4.1
		c3-1,4.4,1.4,6,3.5c0.8-0.3,1.5-0.5,2.3-0.8l-0.1-0.2c0.2,0,0.4,0.2,0.7,0.4c0.3,0.2,0.6,0.5,1,0.6l-0.1,0.1
		c5.2,3.1,10.8,5.4,19,2.5c-0.9-3-3.4-2.8-4.6-5.3c-4.2,2-9.2,0.7-14.1,1.4l0.1,0.2c-0.2,0-0.4-0.2-0.6-0.4
		c-0.3-0.2-0.6-0.5-1.1-0.6l0.1-0.1c-2.6-4.4-0.4-6.1-1.1-10.6c3,1,5.5,3.2,8.3,4.7c2.1-1.3,2.8-1.7,4.8-0.9c1.7-1,2.6-2.3,4.1-3.4
		c1.2,0,2.1,0.5,3.1,0.8c0.3,0.7,0.5,1.5,1.3,2.4l-0.3,0.2c1.2,0.5,2.9,1.9,3.8,0.1c-0.5-1.6-1.5-2.1-3-1.7
		c-0.3-0.4-0.4-0.8-0.6-1.2c0.5-0.3,0.6-0.8,1.1-1c0.2,0.1,0.3,0.1,0.5,0.1c0.4,0.1,0.7,0.2,1.3,0.5c0.1,0.1,0.3,0.1,0.4,0
		c0.2-0.1,0.3-0.2,0.4-0.4c0.1-0.4,0-0.7-0.3-0.9c-0.6-0.3-1-0.4-1.4-0.5c-0.2-0.1-0.4-0.1-0.7-0.2l0.1-0.1c-1.2-1.2-2.9-1.2-4.3-2
		c-0.9-3.5-3.4-7.9,1.5-8.1c2.5-0.7,0.7,1.5,2,2.7c2.5,2.5,9,3.5,10.9,5.2c1.5,1.4,2.8,4.3,0.8,5.2l0.3,0.1c-0.8,1.2-1.1,2.5-1,3.7
		c0,0.2,0.1,0.3,0.2,0.4l-0.1,0.1c-0.5,0.1-0.5,0.4-0.4,0.8c-2.4,0.7-4.8,1.5-6.2,2.8c2.6,2.5-1.4,3.5-0.7,6.4
		c2.8,0.9,6.2,0.5,8.3,2.7c3.3-0.6,3.8-2.7,5.8-4c1.3-0.1,2.6-0.3,3.8-0.5l0.8-0.1c4,1.8,8.5,2.3,12.7,3.7c1.7-0.6,3.4-1.2,5.2-1.8
		c4.1,2.4,8.5,0.2,15.4-1.1c2.3-0.4,5.6,0.7,8.4,0.6c0.9,0,2-1.1,2.9-1c3.8,0.5,7.5,5.5,10.7,4.6c3.1-0.8,4.5-5.9,6.1-7.6
		c11.8-2.9,19.5-2.1,27.9,2.9c1.6-0.3,1.6-1.5,1-3.1c2-1.2,3-0.2,4.8-0.9c0.2,0.9,0.4,1.8,1.1,1.7c-1.3,8.1-14.8,9.9-20.1,11.6
		l0.6,1.1l-0.7,1c5.4,0.2,10.6,0.5,16.8-0.9c1.5-2.4,2.9-6.6,7.2-5.9l0.5-1.1l0.9-0.8c-0.4-0.8-1.3-0.6-1.7-1.5c1-0.8,4.3-3,3.9-6.1
		c5.1-2.2,10.2-1.5,10.8,2.5c2.8-0.9,2.9-3.3,2-6.2c2.1-3,7-3.4,10-2.7c0.3,1.3,0.7,2.5,1.1,3.8c3.8-0.3,7.6-1.8,9.4-4.6
		c10.1-4.1,15.6,1.5,24.2,0.7c1.1-1.1,1.3-2.7,2.7-3.7c8.1-0.7,16.2-3.8,19.3-10c1.6,0.3,1-0.5,3.1-0.4c1.7-2.4,3.9-5.3,7.2-5.9
		c2.5-0.4,5.8,1.6,8.5,1.2c8.1-1.1,17.7-5.3,26.8-7.7c4.4-1.2,10.5-2.9,14.3-2.8c1.8,0.1,3,1.5,4.7,1.1c2.1-0.5,4.4-2.2,5.8-4
		c2.7,0.7,6.9-1.6,8.5,1.2c4.2-2.7,8.4-2.4,10-6.8l-1,0l0-1c-5.4,1.9-9.1,0.4-12.9-1.1c3.8-5.4,11-5.9,17.3-7.9
		c5.3,5.5,11.1-4.5,14.8-7.8c5.5-0.4,6.3-2.2,11.7-3.3c0.5,3.4-5,3.4-5.1,6.5l0.5,0.8l0,1c7-3.5,14.1-6.9,17.2-12.7
		c-0.1-2.2-1.9-0.8-2.4-1.9c0.4-4,3.4-6.4,7.8-8.1c2.2,1.8-1.2,3.8,0.8,5.2c9.8-1.6,10.8-11.8,22.6-13.8c3.7-5.7,10.3-9.9,13.9-15.7
		c9.7-3.4,10.6-11.8,18.8-16c2.7-5.2,6.3-6.8,10.9-10.6c-0.5-1.7,1.4-2,0.8-3.7c0.3-0.2,0.6-0.5,0.8-0.7c0.1,0.2,0.2,0.4,0.4,0.5
		c0.4,0.3,1,0,1.2-0.5c0.2-0.3,0.3-0.4,1.3-0.3c0.1,0,0.2,0,0.3,0c0,0.1,0.1,0.3,0.1,0.4c0.1,0.4,0.4,0.6,0.7,0.6
		c0.3-0.1,0.6-0.4,0.5-0.8c0-0.2-0.1-0.4-0.1-0.6c0-0.1,0.1-0.2,0.1-0.3l0,0c0.2-0.1,0.4-0.1,0.6-0.2l0.2-0.1l0.1-0.3
		c0.1-0.5,0.3-0.9,0.7-1.3c-0.1,1,0.5,1.1,0.6,1.9c1.7-1.4,5.1-3.8,2.8-5.9c1.9,0.9,4.8,0,6.1-2.8l-0.1-0.1c0.4-0.3,0.8-0.5,1.2-0.6
		c0.4-0.2,0.7-0.7,0.6-1.2c-0.1-0.4-0.5-0.7-0.8-0.7c-0.1,0-0.2,0-0.2,0.1c-0.4,0.2-0.8,0.4-1.2,0.7c-0.6,0-1.4,0-2.1,0
		c4.9-4.9,9.6-10,13.8-15.5c2.1-2.8,4.7-5.1,6.6-7.7c2.1-2.8,3.6-7.9,8.6-9.8c2.6-0.1,3.9,2.5,5.2,5.1c0.3,2.1-2.1,2.7-1.1,5.2
		c8.8,1.8,11.1-8.5,12.3-14.5c4.9-0.5,5.1-5.4,9.4-4.6c2.2-4.7,8.2-7.2,9.8-12.2c-1.4-2.7,0.4-3.6,1.1-5.2c1.7,0-1.4,2,0.7,2.5
		c4.9-2.6,6.6-7.1,11.1-9.9c-0.1-2.2-1.5-1.6-2-2.7c0.2-0.6,0.4-1.1,0.5-1.7c0.2,0,0.4,0.1,0.6,0.1c3.8,0.9,8.3,4.6,12.3,0.8
		c-2.1-4-7.9-2.2-11.7-3.3c-0.1,0-0.2-0.1-0.3-0.1c1.8-5.4,3.8-10.5,6.3-15.5c-0.8-6.4,2-10.8,7.5-13.6c4.5-6,6.1-13.7,8.7-20.8
		c3.6-2.3,4.6-6.1,6.1-9.6c-0.2-2.2-1.2-2.8-1.8-4.2c1.5-2.3,1.5-5.4,5.1-6.5c-0.6-3.3,1.9-4.9,3.8-6.8c-0.4-2.3,0.3-4.1-0.6-6.7
		c0.5-3.1,4.9-3.8,6.4-6.3c-1.8-3.1,0.6-3.8,0.1-6.2c-0.9-0.4-1.6-1.3-2.4-1.9c-0.2-3.1,2.3-4.7,4.5-6.3c-0.2-0.8-0.5-1.7-0.7-2.5
		c1-0.3,1.9-0.7,2.9-1l-0.1-0.1c0.4,0,0.9,0,1.5-0.1l0.2,0l0.1-0.2c0.6-0.8,0.7-1.8,0.7-2.7c0-0.5,0.1-0.9,0.2-1.3l0.2-0.1
		c0.3-0.2,0.4-0.6,0.3-0.9c-0.2-0.3-0.6-0.5-0.9-0.3l-0.7,0.4l-0.1,0.2c-0.3,0.6-0.3,1.3-0.3,2c0,0.7-0.1,1.3-0.3,1.7
		c-0.2,0-0.4,0-0.7,0c-0.2-2.9-2.1-2.2-3.7-2.1c0.1-4.9,4.1-7.8,2.2-12.4c0.7-1.6,4-6.9,5.4-3.2c1.4-3.2,5.2-2.5,5.7-6.7
		c-0.8-2.3-3.1-1.6-3.7-4.2c-2.8,1.7-3.1,4.9-4.9,7.2c-0.6-0.1-1.2-0.2-1.5-0.9l-0.3,0c0.1-0.7,0.3-1.3,0.4-2
		c0.2-0.8,0.4-1.6,0.5-2.4c4.8-6.7,3.1-17.1,7.8-23.9c-0.4-1.8,0.3-3-0.1-4.8c1.6-2.1,2.4-6.1,5.3-5.9c-0.9-2.4-0.4-4.1,0.3-5.6
		c0.6-0.1,0.8,0.9,1.4,0.9c0.5,1,0.9,2.1,0.5,2.9c-0.2,0.5,0,1.1,0.4,1.4c0.2,0.1,0.5,0.1,0.7,0c0.2-0.1,0.5-0.3,0.6-0.5
		c0.8-1.8,0-3.6-0.7-5l0.1,0c0.4-3.1-1.7-8.5-3.7-11.1c1.6-1.7,3.6-1.6,5.8-2C1032.4,468.5,1038,466.3,1035.1,459.2 M1000.3,330.9
		c1.5,1.6,3.4,2.2,4.1,5.5l0.1-0.1c0.1,0.8,0.3,1.6,0.5,2.3c0.2,0.6,0.3,1.2,0.4,1.8c-0.5,1.6,0.6,4-0.3,5.4
		c-1.3,0.7-1.6-0.7-3.1,0.4C1002,340.5,998,334.1,1000.3,330.9 M980.4,448.2c1.6,1.1,1.6,4.4,0.3,5.4
		C979.6,452.2,978,449.1,980.4,448.2 M980.7,536.7c3.2-10.3,3.1-22.1,5.5-32.1c1.7-7.3,2.2-14.6,3.3-21.7c0.8-2,3.4-3,3.5-5.3
		c-0.3-2.6-2.2-2-2.6-4.6c0.3-4-0.6-8.7,1-12c-0.6-0.4-1-1.2-1.3-2.3c1.8-9.1,3.6-18.2,5.6-27.3c-1.1,0.7-1.3-0.5-1.7-1.5
		c0.3-6.3,0.4-12.7,1.7-18.5c-4.1-5.4-6.2-28.8,3.6-25.2c2.3,18.7-0.1,34.6,1.7,53l0.1-0.1c-0.5,1.7-0.1,3.4,0.5,5.1
		c0.1,0.3,0.3,0.4,0.6,0.3c0,0,0,0,0,0c0.2-0.1,0.4-0.4,0.3-0.7c-0.5-1.6-1-3.2-0.4-4.7l0.2,0.3c1-0.6-0.2-2.6,1.8-2.7
		c0.1,2.1-0.1,1.3,0.9,3.1l0.2-0.1c0.2,3.5-0.2,7-0.6,10.5c-0.4,3.3-0.8,6.7-0.7,10.1l-0.1-0.1c-0.7,3.1-2.7,5.5-4.7,7.8
		c-3.8,10.8-0.3,25.7-4.3,36.5c1.9,1.2,0.4,3.7,1.8,6.3c-6.2,9.4-7.5,21.6-9.5,33.4c-1.2,2.6-5.3,4.3-7.1,3.8
		c-1.2-1.8-2.2-4-3.5-5.7C977.2,540,978.3,538,980.7,536.7 M974.9,354.6c3,4.2,2.4,7.9,3.9,11.7
		C974.8,366.3,972.7,357.8,974.9,354.6 M884.6,203.8c0.5,0.5,0.9,0.9,1.4,1.3c-1-0.2-1.4-1-2.3,0.1
		C884.2,204.7,884.4,204.2,884.6,203.8 M122.3,450.3c-0.7-2.6-3.2-3.1-3.4-6.3c0.8-0.8,0.6-2.7,2.2-2.7
		C123.8,442.3,125.3,448.1,122.3,450.3 M401.4,52.2c-1.9,0.4-4.1,0-6-1c-1.9,2.4-5.1,2.5-7.3,3.6C390.8,51,398.6,48.9,401.4,52.2
		 M388.1,198.2c-1.3,5.2-7.3,5.2-8.3,10.6c0.4,1,1.8,0.9,1.7,2.5c-1.9,0.4-3,1.8-5,2.1C375.6,205.7,382.4,200.8,388.1,198.2
		 M380.8,185.1c-1.1,1.4-3,5.2-5,3.4C377.7,188,378.2,182.6,380.8,185.1 M371.3,69c0,0.4,0,0.7-0.1,1c-0.2,0.2-0.4,0.4-0.5,0.5
		c-1.5,0.3-2.8,0-3.6-1C368.4,69.3,369.9,69.2,371.3,69 M359.8,234c0.1,2-1.4,2.3-2.8,2.7C357.1,234.9,357.9,233.9,359.8,234
		 M325.6,572.2c-1.8,2.3,3.4,6.8,0.6,8.3c-1.5-3.7-3.3-7.2-4.5-11.3C323.2,567.8,324.5,571,325.6,572.2 M304.3,550.7
		c0.4,0,0.7,0,1.1,0l0-0.2c0.5,0.3,1,0.9,1.4,1.3l0,0l-0.3,0.1c0.1,0.7-0.1,1.1-0.6,1.3C305.8,552,303.8,552.8,304.3,550.7
		 M306.6,569.8c3.9,0.2,6.2-1.7,7.8,2.9c1.8-0.2,1.9,1.6,3.9,1.1c3.3,3.2,3,6.5,5.6,12.6c2.4,5.5,5.1,8.6,5.6,14.5
		c-3.8,2.4-3.5-5.2-7.3-4.8c2-2.9-0.5-4.5-1.7-7c3-2.7-0.9-7.7-5-6.2c-1.2-2.7-2.1-5.6-4.5-6.9c0.3,3.9-4,4.1-5,1.5
		c-1.3,1.5,0.2,2.5,0,4.5C301.8,580.7,305.3,572.7,306.6,569.8 M327.9,615.7c-0.6,0-1.1,0-1.7,0.1c0.1-2.1-1-2.7-0.6-5.1
		C327.8,610.7,328,613.1,327.9,615.7 M317.9,600.1c-1.9,0.6-2.1-0.9-3.9-0.5c-0.9-3.8,3.1-4.8,4.4-4
		C318.7,597.7,318,598.6,317.9,600.1 M303.9,586.6c0.1,0.5,0,1.3,0.6,1.3c-1.5,2.9-0.4,5.2,1.1,7.6c1.1,0.1,1.2-0.8,2.2-0.7
		c-2,4.2,3.9,2.6,3.4,6.9c-4.4-0.3-0.3,4.7-2.8,6.5c2.1,0.7,4.6,7.5,1.1,8.9c-2-1-2.7-3.6-3.4-6.3c-1.2-0.4-1.8,1.9-1.7-0.6
		c-1.8-1.6,2.1-2.3,1.7-4.5c-2.5-2.4-3.3-6.8-6.2-8.7c-4-0.2-4-5-5.6-8.1c2.4-0.6,3.5-2.6,5.6-3.4
		C301.4,586.4,301.9,588,303.9,586.6 M297.1,555.5c-1.5-2.1-1.5-6-2.3-8.9c2-0.4,1.4,2.2,3.3,1.8C297.9,550.8,299.1,555,297.1,555.5
		 M299.4,133.3c-0.3-0.2-0.5-0.5-0.7-0.9c0.1-0.3,0.3-0.5,0.6-0.7C299.6,132.2,300,132.9,299.4,133.3 M298.8,124.5
		C298.8,124.5,298.8,124.5,298.8,124.5c-0.6,1.9-1.8,3.6-2.9,4.6c-0.3,0-0.6,0-1,0c-0.2-0.1-0.4-0.3-0.6-0.3c0,0.2-0.1,0.3-0.2,0.4
		c-1.2,0.1-2.4,0.2-3.3,0.1c0.1-0.1,0.3-0.1,0.3-0.3c0.6-1,1.6-1.4,2.8-1.9c1.1-0.4,2.3-1,3.3-2
		C297.8,124.9,298.3,124.7,298.8,124.5 M293.3,122.2c1,0.2,1.9,0.6,2.7,1.2l0.1,0.1c-0.7,0.8-1.7,1.3-2.7,1.7c-1.1,0.4-2.3,1-3.2,2
		C290.8,125,291.8,123.4,293.3,122.2 M288.1,523.3c2.7,1.1,2.2,5.9,2.3,10.1c-2.2,1.2-5.1,3.5-3.9,6.6c-0.8,0.4-2.9-0.6-2.8,0.8
		c0.9,5.2,1.5,10.6,2.8,15.3c-0.7,0-1.5,0.1-2.2,0.1c-1.1-3.4-2.7-8.8-7.3-6.1c-1.2-1.1-0.5-4.6-2.8-4.4c0.4,4.4-5.1,4.9-6.6,2.3
		c0-0.2-0.1-0.5-0.1-0.8c-0.2-1.4-0.4-2.7,0-3.9l0,0.1c2.8-0.3,2.4-0.4,4.5-0.8c-0.3-0.5-0.6-1-0.6-1.9c3.7-3.1,9.1-4.4,10-10.7
		C285.3,529.6,285.4,524.9,288.1,523.3 M271.3,479.8c-1-0.6-1.9-4.5-0.6-5.7C271.2,475.1,273.3,479.9,271.3,479.8 M286.4,122.5
		c0,0.2,0.1,0.4,0,0.6c-0.9,1.2-2.1,2.1-3.5,2.8C283.8,124.6,285.1,123.6,286.4,122.5 M282.5,503c0.5-1.3,1.1-2.6,1.7-3.9
		c2,0.2,2.7,1.9,2.8,4.4c-0.6,3.3-5.4,3.4-6.7,0.9c-2.1,1.4-5-0.1-3.4-2.4C278.3,504.2,280.2,502,282.5,503 M274,453.4
		c0.6,6,5,7.3,5.1,13.9c-0.8,0.2-0.9,1.1-1.7,1.4c-4.5-2-6.8-6.5-9.5-10.5c-1.3-0.9,2.2-1.8,1.1-4.5
		C271.3,454,272.8,456.7,274,453.4 M272.3,446.5c-0.8-1.4-3-1.1-3.9-2.4c0.2-4.7-1.6-8.4,1.1-10.9c-2.2-2.6-2.4-9.6,1.1-10.9
		C271.5,429.1,275,439.4,272.3,446.5 M269.7,131.7c0.1,0.1,0.3,0.3,0.3,0.5c-0.5,1.3-1.5,2.6-2.4,4c-0.2,0-0.4,0-0.7,0
		C267.8,134.5,268.7,133.1,269.7,131.7 M267.4,501.1c3.4,1.3,1.9,8.4,3.9,11.4c-0.7,0.1-0.8,0.9-1.7,0.7
		C268.8,509.5,265.8,505.8,267.4,501.1 M267,556.8l-0.1,0.1c-0.1-0.3-0.2-0.6-0.3-1c0-0.1-0.1-0.3-0.1-0.4
		C266.6,552.1,269.7,556.7,267,556.8 M265.9,542.1c0,0.2,0,0.4,0,0.6l0,0c-0.5,1.7-0.3,3.3,0,4.9c0.1,0.3,0.1,0.6,0.1,0.9l-0.1,0
		c-1.2,2.5-2.3,4.5-0.5,7.1l0.2-0.1c0.1,0.2,0.1,0.5,0.2,0.8c0.1,0.2,0.1,0.4,0.2,0.6c0,0.2,0,0.4,0,0.6c-3,0.9-3,5.1-4.4,7.8
		c0,0,0-0.1,0-0.1l-0.2-0.4c-0.5-1-1.1-2.2-2.4-2.2c-0.3,0-0.5,0.2-0.5,0.5c0,0.3,0.2,0.5,0.4,0.5c0.8,0,1.2,0.7,1.7,1.7l0.2,0.4
		c0.1,0.2,0.3,0.2,0.4,0.2c-0.5,0.7-1,1.2-1.9,1.5c-1-3.3-2.6-6.2-4.3-9.2c0.8-0.4,1-1.1,0.6-2.2c-0.5,0.2-1,0.4-1.5,0.5
		c-2.4-4.3-4.5-8.8-4.3-14.3c3.7,3.6,12.5,3.1,10-5.6c0.9,0,1.9-0.1,2.8-0.1C262.2,540.1,263,542.3,265.9,542.1 M264.3,579.3
		c-0.4-2.9-2.7-3.7-2.8-6.9C264.2,572.1,264.4,578.3,264.3,579.3 M238.2,650.8c-1.8-0.2-2.8-1.9-3.3-4.7c2-1.3,3.4,0,4.2,1.6
		c-0.2,1.1-0.7,2.1-1.9,2C237.4,650.1,237.8,650.5,238.2,650.8 M231.5,674.4c0.3-0.2,0.6-0.4,1-0.6c0.4-0.2,0.9-0.5,1.3-0.9l0,0.4
		c0.5,0,0.8,0.4,1.3,0.2c1.4,2.3-3.3,3.9-3.8,2C231.6,675.3,231.5,674.8,231.5,674.4 M194.5,574L194.5,574c0.1,0,0.2,0,0.3,0
		c0,0,0,0,0.1,0l0.3-0.2c0.2-0.1,0.4-0.2,0.6-0.3c-0.2,2,0.7,4.6,1.5,6.5c-0.9,1-1.5,2.2-3.5,2.6c-0.6-0.3-0.8-1.6-1.7-1.5
		C190.8,577.5,194.4,576.8,194.5,574 M190.8,567.6c0.4-0.5,0.7-1,1.5-1.2c1.2,1.5,3.7,3.7,3.1,6.2c-0.2,0.1-0.4,0.2-0.6,0.4l-0.1,0
		C193.6,571,192,569.6,190.8,567.6 M199.3,586.7c2.6,3.1,6.1,7.3,5.5,12.2c-0.3,0.3-0.7,0.3-1,0.3c-1.9-1.1-4.3-0.9-6.8-0.8
		c0-4.1-2-3.6-3.3-7.1C195,588.5,195.4,587.2,199.3,586.7 M203.8,562.5c1.9-1.2,4,0.7,3.9-2c-2.9-3.7-5.3-8.6-8.2-12.4
		c3.2-0.4,2.9-5.4,6.7-3.5c-1.8-5.8-2.8-12.4-6.2-16.4c-2.9-0.5-3.4,0.1-6.7,0.3c-0.4,7.8,1.6,12.8,4.1,17.2c-0.6-0.6-1.3-1.2-2-1.7
		c-0.3-3.5-1.3-5.1-2.9-8c-2.2,1-3.4-0.1-3.9-2.7l0.3-0.1c0.2-0.1,0.3-0.3,0.2-0.5c-0.1-0.2-0.3-0.3-0.5-0.3l-0.5,0.2
		c-1.7,0-3-0.7-4.1-1.7c-0.4-1.9-0.8-4.1-0.4-6.5c-0.7,0.3-1.3,0.3-1.7,0.2c0.6-2.5,0-5.9-2.6-6.1c1.3-1,2.1-2.3,1.2-4.5
		c-0.7-3.1-4.4-0.2-4.9-3.8c0.2-0.8,1.1-1.1,0.6-2.3c1-0.5,3.4,0.8,3.5-1.2c-1.3-3.6-3.2-6.7-3.8-9c0.5,1.7-1.2,2.2-2.5,2.8
		c-0.5-2.2-1-4.4-1.6-6.6c0.6-1,1.3-2,2.1-2.9c0.3-0.4,0.3-1-0.1-1.3c-0.4-0.3-0.9-0.3-1.2,0.1c-0.4,0.6-0.9,1.2-1.4,1.8
		c-1.2-4.4-2.3-8.8-2.8-13.2c-0.2-2.1,0.4-4.4,0-6.4c-0.7-3.2-3-5.5-3.9-8.8c-0.6-2.1-0.9-4.8-1.3-7.8c0.9,0.4,1.8,1.1,2.8,2.4
		c0,2.2-1.8,3.5,0.7,4.6l0.1-0.1c0,0.6,0.1,1.2,0.3,1.7c0.2,0.6,0.3,1.1,0.2,1.6c-0.1,0.4,0.2,0.8,0.6,0.8c0.1,0,0.2,0,0.3,0
		c0.2-0.1,0.4-0.3,0.5-0.6c0.1-0.8-0.1-1.6-0.3-2.3c-0.1-0.4-0.2-0.7-0.2-1c0.8-0.2,0.7-0.9,1.4-1.2c2,0.9,1,3.7,3.3,5.1l0.1-0.1
		c0.2,0.7,0.2,1.5,0.2,2.4c0,0.6,0,1.1,0,1.7c-0.6,0.2-0.8,0.5-0.8,1l0.1,0.2c-0.3,0-0.6,0-0.9,0c-0.6-0.1-1.3-0.1-1.9,0.1
		c0,0,0,0,0,0c-0.3,0.1-0.5,0.5-0.4,0.8c0.1,0.4,0.4,0.6,0.8,0.5c0.5-0.1,1-0.1,1.5,0c0.3,0,0.5,0,0.8,0.1c0.4,0.5,0.8,0.9,1.3,1.2
		c-0.1,2-0.3,4.2-0.6,6.5c4.4,0.7,4.6,6.4,9.5,6.6c1.2-1.6,1.5-4.3,1.7-7.1c0.6-1.7,3.2-1.1,2.8-4c0.6,2.3,1.7,4.5,2.6,6.8
		c-0.8,0.3-0.8,1.4-1.8,2.4c0.5,1.1,1.8,1,2.7,0.2c0.5,1.8,0.8,3.7,0.5,5.7c1.7,1.2,1.7,4.4,3.9,5c-1.2,3.7,0.4,7.4-0.3,11
		c-0.2,0.2-0.3,0.5-0.3,0.8c-0.2,4.7,0.2,8.9,1.2,12.5c0.2,0.6,0.7,0.9,1.1,0.7c0.5-0.2,0.8-0.8,0.6-1.3c-0.8-2.9-1.1-6.2-1.1-10
		c0.8,1.2,1.4,2.6,2,4.2c-0.3,0.2-0.8,0.4-1.4,0.5c0.4,1.8,1,3.1,2.2,3.4c0.2-0.1,0.3-0.2,0.4-0.3c0.5,1.4,1.1,2.8,1.7,4
		c1.4,0.8,2.6,2,3.9,3c0.1,2.9,1.4,4.4,1.7,7c-0.1,1.3-2.1,0.7-2.2,2c2.5,3,3.5,7.8,5.6,11.3c-0.9,7.1,3.7,7.6,3.4,13.9
		c-0.9,2.3-1.5,2.4,0,4.5c1.8,0.7,0.4-2.1,2.2-1.4c1.5,2.2,1,6.8,1.1,10.8c0.1,2.5,1,4.3,2.1,6c-3.6-2.4-3.5-7-4.3-11.9
		c-1.1,1.7-4.5,2-6.7,3C205.8,569,203.8,565,203.8,562.5 M184.2,602.4c-0.2-0.1-0.5-0.2-0.8-0.4c-0.2-0.2-0.5-0.3-0.8-0.4
		c-0.1-0.2-0.2-0.6-0.2-1c0.6-0.8,0.2-2.2,0.2-3.4c-1,0.9-2.8-1.3-1.7-1.5c2.3,2.7-0.6-2.9,4.3-2.8c0,3.1,2.4,1,2.8,3.2
		c0.2,2.9-2.4,4.2-4,6.1L184.2,602.4z M163.8,496.4c-1.6,0.6-1.9-1.3-3-1.7c-1.3-4.1-1.1-12.3-3.1-15.4c-1-1.5-3.9-0.3-3.4-3
		c-0.6-2.8,0.7-4.5-1-7.9c-1.1,0.2-2.7,1.6-2.7-0.5c0-0.9,0.3-1.7,0.8-2.4c0.1,0.6,0.2,1.2,0.3,1.8c0,0.2,0.2,0.4,0.4,0.4
		c0.2,0,0.4-0.3,0.4-0.5c-0.1-0.9-0.2-1.7-0.4-2.6c1.7-2,4.5-3.4,4.7-6.3l-0.2-0.1c0.3-0.2,0.5-0.5,0.7-0.7l0.4-0.4c0,0,0-0.1,0-0.1
		c0.3-0.2,0.5-0.3,0.8-0.5c0.1,9.1,2,18,1.7,28.6c5.3,2.7,6.4,10.2,8.8,16.3c-1.4,0.8-3.9,1-5.3,1.8
		C163,500.5,164.2,498.9,163.8,496.4 M160.1,543.7c-1.4-0.4-2.5-1.4-3.4-3c0.1-2,1.6-5-0.6-6.7c1.9-0.3,0.8-2.4,3.1-2.4
		c3.2,6.2,5,9.6,2.7,16.1l-0.1,0c-0.7-0.1-1.3-0.2-2.1-0.3l0.1-0.1C158.8,545.4,160.2,545,160.1,543.7 M155.3,545.5
		C155.3,545.5,155.3,545.5,155.3,545.5c-0.5-0.5-0.6-1.2-0.7-2C154.9,544.2,155.1,544.8,155.3,545.5 M156.1,453.1
		c0.9,1.5-0.2,1.9,0.2,3.1c-0.2,0.1-0.3,0.3-0.5,0.5l0-0.1c-1.4-0.4-3.6,0.8-4.2-1.3C152.6,454.2,154.3,452.1,156.1,453.1
		 M154.8,415c1.1,2,0.2,2.9-0.8,3.7C152.5,417.9,152.3,415.1,154.8,415 M161.8,358.3C161.8,358.3,161.8,358.2,161.8,358.3
		c-0.3-0.4-0.6-0.7-0.9-1.1l0.4,0c0.3-0.7,0.8-1.3,1.4-1.8C163.6,357.1,162.5,357.6,161.8,358.3 M162.4,367.9
		c-0.3,0.3-0.5,0.6-0.8,0.9c-0.1,0-0.1,0-0.2,0.1c-0.1-0.4-0.2-0.8-0.4-1.3c0.4-0.1,0.8-0.3,1.1-0.4
		C162.2,367.5,162.3,367.7,162.4,367.9 M161.2,358.8c0.2,0.2,0.3,0.4,0.5,0.6l-0.4,0c-1,1.3-2.1,2.7-3.4,2.7
		c0.2-1.1,0.5-2.2,0.7-3.3c0.5-0.4,1.1-0.6,2.1-0.6C160.8,358.3,161,358.5,161.2,358.8 M158.7,379.4c0.4,0.6,0.6,1.4,0.7,2.4
		c-0.8,0.1-1.6,0-2.1-0.6C158,380.8,158,379.9,158.7,379.4 M171.4,534.4c0.8,3.3,3,3.7,5,4.5l0-0.2c0.7,0.7,1.7,0.5,2.6,0.3
		c3.6,6.6-1.1,10.5-0.6,15.8c-4.4-3.5-7.2-11.9-9.3-19.5C169.8,534.9,170.6,534.7,171.4,534.4 M177.7,532.3c0.5,3.1,0.9,3.1,1,5.6
		c-0.6,0.2-1.1,0.2-1.5,0l0.2,0C178.2,536.8,174.4,533,177.7,532.3 M180.5,558.1c0.1,2.1,1.5,1.5,1.6,3.6
		C179.8,562.8,179.2,558.2,180.5,558.1 M165.6,331.1c0.3-1.2,0.6-2.4,0.8-3.6c0.2-0.5,0.5-1,0.5-1.7
		C167.2,327.9,168,330.5,165.6,331.1 M168.3,427c0.4,1.6,0.5,3.1-0.1,4.2c-1.2-1.2-0.2-1.2-1.5-2.9
		C167.4,427.9,167.3,427.1,168.3,427 M181.8,444.2c0.1,0.1,0.2,0.3,0.2,0.4c0.1,0.1,0.2,0.2,0.3,0.3c1,6.6,3.4,13.1,0.7,17
		c-0.2-0.8-0.5-1.7-1.2-2.6c-0.7,1.1-0.8,0.6-1.5,0.6c-0.1-0.6-0.2-1.2-0.3-1.8c0.1,0.1,0.2,0.2,0.3,0.4c1.7-0.1,0.8-1.6,1.9-2
		c-0.7-0.4-1.7-0.6-2.5-0.3c-0.2-1.2-0.3-2.3-0.5-3.5c0,0,0,0,0.1,0c0-0.5,0.4-0.8,0.2-1.4c-0.1-0.5-0.4-0.8-0.6-1.1
		c-0.4-3.7-0.6-7.3-0.3-10.7c0.2,0.3,0.4,0.6,0.5,0.9l-0.1,0C179.5,442.7,180.4,444,181.8,444.2 M180.5,439.1
		c0.5-0.3,0.9-0.7,1.4-0.9c-0.1,0.6-0.1,1.2-0.1,1.9c-0.3-0.3-0.7-0.5-1.2-0.7C180.6,439.3,180.6,439.2,180.5,439.1 M207,226.4
		c1.8-1.8,4.5-2.7,6-3.4c-0.8,1.6,0.7,6.8,1.6,3.6c0.1,0.6,0.3,0.8,0.6,0.9c0.1,0.2,0.1,0.3,0.2,0.5c-0.2,0.3-0.4,0.5-0.5,0.8
		c-4.6,2.4-9.4,6.6-14.3,7.8c0.8-1.7,1.7-3.5,2.5-5.3C205.4,231.5,207.8,229.4,207,226.4 M217.2,483.4c2,2.1,4.4,3.8,5,7.5
		c-3.9,0.2-0.3,4.8-2.8,6.5c-0.8-6.1-0.7-13.3-5.1-15.1c0.4-7.3-3.4-12.4-2.9-19.8c-0.1-0.3-0.1-0.6,0.1-1.2c-0.1,0.4,0,0.8-0.1,1.2
		c0.3,1,1.8,0.6,2.3,1.3c1.5,5.2,1,13,3.9,16.5C218,481.7,216.7,481.6,217.2,483.4 M224.6,550.3c1.5,2.4,1.2,5.8,2.3,8.9
		c2.7,5.7,4.1,8.2,4.8,9.3l-0.3,0.1c-4.4-2.9-8.4-5.6-10.1-11.1c1.4-0.1,2.7-0.5,3.3-1.4C225.4,553.6,223,551.7,224.6,550.3
		 M209.2,413.9c1.4,1.6,2.3,3.7,2.2,6.9c-1.1,0.1-0.7,1.8-2.2,1.4C207.5,420.4,207.4,416.4,209.2,413.9 M208.4,391.4
		c0.3-0.7,0.6-1.3,1.1-1.8c1.7,0,2.8-0.1,3.7-0.4c0.1,1.9,0,3.7-0.7,5.3c-1.7,0.5-1.6-1-3.3-0.5
		C208.8,393.2,208.6,392.3,208.4,391.4 M210,515.1c0.2-2.3-0.2-5.4,1.7-5.8c2.5,0.4,0.8,4.1,1.7,7c0.5,1.5,2.2,2.8,2.2,4.4
		c0,2-1.1,4.7-2.2,6.5C208,526.8,204,516.2,210,515.1 M202.5,219.6c-0.3,0.6-0.7,1.1-1.1,1.7c-1.7,0.8-3.5,1.3-5.2,0.5
		c1.4-2.7,5-5.5,8.7-7.2C204.2,216.3,203.4,217.9,202.5,219.6 M219.4,624.3l0,0.2c0.2-0.1,0.4-0.1,0.6-0.2c1.5,4.4,4.8,5.2,6.8,8.7
		c-1.1,2-3.8,1.3-5.3,1.1c-0.5-4.9-2.7-6.4-4.8-8l-0.2-0.1c0.5-0.4,1-0.7,1.5-1C218.5,624.9,219,624.6,219.4,624.3 M224.9,599.3
		c-2.3,0.2-3.2-2.6-4.5-4.7c3.5-0.8,4.3-4.5,6.2-5.6c1.3,1.6,2.1,3.8,2.7,6.2c-0.5-0.3-1.1-0.4-1.9-0.2
		C225.1,595.6,226.5,598.3,224.9,599.3 M228,574.5c1.8-1.9,2.6-3,2.9-3.7c0.1,0,0.3,0,0.4,0l0.6-0.2l0,0c0,0-0.9,1.4,0.6,0
		c1.1,2.8,2.4,5.3,2.3,9.5C232.1,585.2,227.6,580.2,228,574.5 M233.5,643.1c-0.6,0.3-1,0.3-1.3,0.1c0-0.6,0-1.2,0-1.7
		c-0.4,0.1-0.6,0.3-0.9,0.5c-0.1-0.4-0.3-0.9-0.4-1.4C232.6,640,234.3,641.4,233.5,643.1 M235.8,544.7c-0.7-0.6-2-0.5-2.8-1.2
		c-0.2-7.4-5.3-9.1-4.5-17.7c-2.5-4.6-6.1-7.7-6.7-14.4c4.6-0.2,5.6,4.6,9.5,3.4c-0.4-2.6,0.5-3.7,2.8-3.3c0.1,0.5,0,1.3,0.6,1.3
		c0.7,2.7-2.4,1.2-2.8,2.7c0.4,2.3,0.8,4.6,0.6,7.7c-0.7,1-2.1,1.1-2.8,2c1.2,6.3,2.5,15.2,7.9,18.2c0.5,4.5,3.9,5.6,3.4,11.4
		C237,556.6,234.3,547.1,235.8,544.7 M226.5,196.4c-0.3,0.2-0.7,0.3-1.1,0.4c0-0.2-0.1-0.3-0.2-0.4l0.4-0.3l0,0
		C226,196.1,226.3,196.2,226.5,196.4 M251.4,162.4c1.6-1,2.3-3.1,3.9-4l-0.1-0.3c0,0,0,0,0.1,0c0.4-0.2,0.7-0.4,1.1-0.7
		c0.2-0.1,0.4-0.3,0.6-0.4l0,0c0.9,0,1.9-0.1,2.8-0.1c0.3,0.9,0.7,1.5,0.9,2.1c-1.7,0.7-3.5,1.4-5.2,2.1c0,2.1-0.5,3.7-0.8,5.3
		c-1.8,0-3.7,0.2-5.5-0.2c-1.5-0.8-0.2-4.9-3.3-3.7c-0.7-3.8,2.4-6,3.9-5.3c0.6,2.8-1.9,2.2-1.7,4.5
		C249.4,162.5,249.3,162.1,251.4,162.4 M253.6,156.5c-0.1-3.1-0.2-6.2,2.8-5.9c0,1.7,0,3.4,0,5.1l0,0c-0.2,0.1-0.5,0.3-0.7,0.4
		c-0.2,0.1-0.3,0.2-0.5,0.3l0,0C254.8,156.5,254.2,156.5,253.6,156.5 M262.3,473.1c0.8,2,2.1,3.5,1.7,7c-3.7,4.9-9.2,1.4-7.8-4.8
		C258.1,474.4,260.4,474,262.3,473.1 M248.4,491.6c0,6.7,5.5,17.7,1.7,24.9c-9.2,3.3-11.4-5.7-12.9-13.5c1.9-0.6,2.1,0.9,3.9,0.5
		c1.1-2.6,3.5-3.8,5-6C245.8,494.3,246.8,492.6,248.4,491.6 M245,466.8c0-0.9,0.1-1.8-0.6-1.9c0.7,5.7-1.8,11.2,1.2,14
		c-2.7,0.8-2.2-2.3-3.2-3.5c-0.1-0.3-0.1-0.6-0.1-0.8c0-0.4-0.2-0.7-0.6-0.7c0,0,0,0,0,0c-0.3,0-0.6,0.3-0.6,0.7
		c0,0.3,0.1,0.8,0.2,1.4l-0.2-0.1c-0.4,0.1-0.6,0.7-1.1,0.7c-3.3-11.6,0-27.2-3.5-41.5c1.1-0.2,0.1-2.8,1.7-2.6
		c2.2,3.5,0.3,12,2.8,15.2c0.8-1,0.2-3.7,2.2-3.3C247.1,448,249.7,463,245,466.8 M239.3,184.2c-1.2,0.1-2.6,0.4-4.1,1.1
		c1.2,1.7,0.9,1.6-0.4,2.9c-0.4-0.8-2.1-2.2-2.7-5.2c-1.2-0.4-2.2-0.5-3.1-0.4c3.2-2.8,5.1-6.8,11.4-4.9
		C240.6,180.5,240.1,182.5,239.3,184.2 M243.6,573.8c0.2,1.5-0.1,2.5-0.5,3.2c3-1,1.5,3.4,4.5,2.4c-0.2-1.5,0.1-2.5,0.6-3.2
		c6.6-0.5,8.7,8,7.8,12.5c-1.7,0.2-1.9,2.2-3.9,2.1c-2.1-1.3-2.8-4.4-6.1-4.2c-1.3-5.3-4.8-8-6.2-13.2
		C241.7,572.7,241.9,574.2,243.6,573.8 M254,611.6c0.1-0.2,0-0.5-0.2-1.7c1.9-1,0.4,2,1.6,1.8c0.4,1,0.6,2.1,0.8,3.2l-0.2,0
		c-0.6,0.2-0.4,1.3-1.1,1.3c-0.4-1.2-1.4-1.7-1.6-3.1C253.9,612.4,254.5,611.9,254,611.6 M188.6,217.6c3-8.6,12.6-12.5,10.5-24.8
		c0.8-2.3,2.1-4.1,2.8-6.5c1.3,0.4,1.5,2.1,2.8,2.4c5.2-2.6,8.1-7.6,11.7-12c-0.7-5.5,3.1-6,4.4-9.1c-0.3-2.3-0.9-3.7,0-5.8
		c2.5-0.9,2.2,1.7,4.5,1.1c7.9-4.5,13.1-12,16.1-21.8c7-0.4,10.4-4.7,15.6-7.1c1.6-5.1,3.8-9.6,6-14c0.2,0,0.3,0,0.5,0.1
		c0,3.6-0.7,6.8,0.8,10.2c-5.3,4.5-11.7,7.6-15.7,13.7c-1.1,1.7-1.5,4.1-2.8,5.9c-0.7,1-2.1,1.6-2.8,2.7c-1.4,2.2-1.8,5.2-3.3,7.2
		c-1.6,2.1-4.5,3.3-6.1,5.4c-3.2,4.2-4.4,9.5-7.8,13.8c2.2,1.1,1.1,2.9,1.1,4.3c-0.7,0.4-1.4,0.8-2.2,1.4c0-0.3,0-0.7,0.1-1.2
		c-2.4,0.3-2.8,4-5.6,2.2c-4.9,6.6-7.9,14.5-11.1,22.2c-5.3,2.4-11.8,4.7-13.2,9.1c-2.1,0.2-4.6,0.6-7.1,1.4
		C188.1,218,188.3,217.8,188.6,217.6 M157,288.1c1.6-5.6,5.3-11.4,6.6-18.2c0.3-1.7,0.2-3.1,0.3-4.6c2.5-2.1,4.6-4.4,5.3-7.6l-0.1,0
		c0.2-0.2,0.4-0.4,0.6-0.6c0.2-0.3,0.1-0.7-0.1-0.9c-0.1-0.1-0.1,0-0.2-0.1c3.2-8.3,8.2-14.6,9.2-25.3l0,0c0.3-0.7,0.6-1.3,1-2
		c0.2-0.4,0.5-0.9,0.7-1.4l0,0c1.1-0.6,2.2-1.2,2.6-2.5c2.7-0.9,5.8-4.2,8.7-4.4c2.2-0.1,1.9,1.2,4.2,1.3c-1.9,2.4-6.7,3.1-9.3,5.2
		c2.6,6.5-5.1,10.4-4.6,17.3l0,0.1c-0.1,0-0.2-0.1-0.3,0c0,0,0,0,0,0l-0.5,0.2c-0.5,0.2-1,0.4-1.5,0.8l0-0.2
		c-0.9,0.4-2.3,0.4-2.1,1.4c-0.3,2,2.9,0.8,3-0.2c0.3-0.2,0.6-0.3,1-0.5l0.3-0.1c4.3,0.1,3,0.8,6.9-1.7c0.1,4.5-7.3,4-5.9,10.3
		c-3.3,2.4-4.1,8.2-9.1,7.9c-0.6,4.9-3.2,10.9-8.8,11.2c0.3,6.5-5,9.8-4.9,16.1c-2.9,1-4.5,4.7-6.4,7.1
		C154,293.3,153.8,289.2,157,288.1 M153.2,301.6c0.3,1,0.6,2.1,0.9,3.1c-0.9-0.1-2.8,1.7-3.1,0.3C152,304.1,151.1,302,153.2,301.6
		 M150.3,289.7c-0.4,1.4-0.9,2.6-1.5,3.7c-0.8-1.2-2.3-1.1-3-2.5C147.6,291.2,149.4,291.1,150.3,289.7 M143.6,296.6
		c0.4-0.1,0.7-0.3,1.1-0.4c0.1,1.3,0.6,2.8-1,3.1c-0.1-0.4-0.2-0.8-0.4-1.3l-0.3-0.1C143.4,297.5,143.5,297,143.6,296.6 M132.9,384
		L132.9,384c-0.1-1.8,1.7-2.5,1.3-4.5c2.2-1.2,2.8,0.9,5-0.3c-1.5-2.8-1.7-2.2-2.3-6.1c-1.1,0.4-2.3,0.8-3.4,1.2
		c0.1-1.4,0.1-2.8,0-4.2c0,0,0,0,0,0c2.1,0.9,2.5-1.7,4.2-0.7c1.7-2-2.8-1.9-1.3-4.3c0.1-0.1,0.3-0.2,0.4-0.2
		c0.5-0.2,0.7-0.8,0.5-1.3c-0.2-0.5-0.6-0.8-1.2-0.6c-0.3,0.1-0.5,0.3-0.8,0.4l0-0.1c-1.2,0-1.4,0.7-1.8,1.2
		c0.1-1.5,0.4-2.9,0.9-4.4l-0.1,0c0.1-0.3,0.1-0.6,0.2-1l0.1-0.4c0-0.2,0-0.3,0-0.4c1.1-7.4,2.3-14.9,5.9-19.6
		c-0.1-1-0.1-1.7-0.1-2.4c0.8-0.9,1.2-2,0.8-3.6c0.1-0.6,0.1-1.1,0.2-1.7l0,0c0.4-0.9,0.3-2,0.1-3.3c0.4-0.7,0.8-1.6,0.7-2.6
		c0.4-0.2,0.6-0.5,0.8-1c1.5-0.7,3.4-1.2,2.3-2c3.5-0.7,4.7,3.5,7.5,4.3c1.2,3.2-0.2,4.8-2,6.2c0.6,5.3-2.6,8.3-4.8,11.9
		c3.6,0.2,1,7.5-0.4,9.8c0.4,2.1,1.8,2.3,2,4.8c-2.2,1.9-2.7,6.4-4.3,7c2.5,4.5,2,7.9-2.3,9.7c-0.9,2.1,1.2,3.4,1.6,4.5
		c-0.2,0.4-0.4,0.8-0.6,1.2c0,0,0,0,0,0c-0.2,0.1-0.3,0.2-0.6,0.3c0.1,0.1,0.3,0.1,0.5,0.2c0.1,1.3,1.9,0.4,1.7,1.9
		c0,2.2-1.4,2.8-2.6,3.7c-0.2-0.6-0.5-1.1-0.9-1.6c0.1-3.4-1.6-0.5-0.9-2.8c-1.5-2.3-3,1.8-2.8,3.7l0.3-0.1l-0.3,0.6
		c-0.2,0.4,0,0.8,0.3,1c0.2,0.1,0.3,0.1,0.5,0.1c0.2-0.1,0.3-0.2,0.4-0.4l0.3-0.6l0.1,0.3c0.1,0,0.2-0.1,0.3-0.1
		c0.4,0.6,0.7,1.2,0.8,1.8c0,0.1,0.1,0.2,0.1,0.3c-0.5,0.5-1.1,0.9-1.7,1.3c-0.4-0.5-1-0.7-1.9-0.4
		C135.2,387.2,133.8,386.6,132.9,384L132.9,384L132.9,384z M148.4,423.7c0.6-0.6,1.8-0.8,0.7,0.1c-0.8,0.2-0.2,1.8-0.8,1.2
		C148.3,424.6,148.3,424.1,148.4,423.7 M148.2,420.1c-0.1-0.7-0.1-1.5-0.2-2.2c0.2,0,0.4,0,0.7-0.1c0.2,0.6,0.4,1.3,0.5,1.9
		C148.8,419.9,148.5,420,148.2,420.1 M135.5,420.2c0.3-0.2,0.5-0.4,0.7-0.5c-0.1,2.1,0.1,4.4,0.6,6.4c-0.2-0.1-0.4,0-0.7,0.7
		c-0.2-0.7-0.4-1.3-0.6-2c0-0.7,0-1.4-0.1-2c0-0.5-0.1-0.9-0.1-1.4C135.7,421.3,135.5,420.7,135.5,420.2 M137.9,429.3
		c-0.2,1.4-0.1,2.8,0,4.1c-1-0.1-1.8-0.6-2.7-0.7l-0.2,0.2c-0.2-0.3-0.6-0.8-1-1.2l0.3,0C136.2,431.3,136.9,430.2,137.9,429.3
		 M137.9,446.4L137.9,446.4c0.2,0,0.4,0,0.6,0c-0.2,0.4-0.5,0.8-0.8,1.1C137.8,447.1,137.9,446.8,137.9,446.4 M137.6,392h-0.2
		c0.7-0.4,1.5-0.9,2.1-1.5c0,0,0,0,0,0c0.1,0.5,0.2,0.9,0.4,1.2C139.5,392.5,137.7,392.9,137.6,392 M139.4,429l0.2,0.1
		c0.1-0.5,0.3-0.8,0.6-1.1l0.6-0.2l0,0.3c0.1,2-0.3,3.7-1.1,5.2c-0.2,0.1-0.3,0-0.4,0.1C139.2,431.8,139.1,430.5,139.4,429
		 M140.1,414.3l-0.1,0c0.1-0.8,0.2-1.6,0.1-2.3c0-0.6,0-1.2,0.1-1.8c0.8-1.3,0.4-4,1.5-5c1-0.3,1.2,0.5,1.9,0.6c0,4.9,0,9.9-1,14.2
		c-0.1,0.2-0.2,0.3-0.4,0.5C141.4,418.7,139.9,417.6,140.1,414.3 M130.6,386.6c-0.2,1.5-0.5,3-1.7,4
		C129.2,389.2,129.9,387.9,130.6,386.6 M128.6,397.3c-0.1,0.6-0.1,1.1-0.3,1.7c0-0.1,0-0.2,0-0.2
		C128.3,398.2,128.4,397.7,128.6,397.3 M134.2,502.3c-3,2.8-5.5-4.4-2.8-6.3c0.8,0.7,1.6,1.5,2.2,2.5l0.1-0.1
		c-0.4,1.3,0,2.4,0.4,3.5c0.1,0.2,0.1,0.3,0.2,0.5L134.2,502.3z M150,574c-0.6-1.8-2.4-2.3-2.2-5C150.4,568,151.4,572.2,150,574
		 M146.9,540.9c0-0.8-0.1-1.6-0.2-2.3c0.4-0.6,0-1.4-0.6-2.3c-0.4-1.2-0.9-2.4-1.4-3.5c-0.1-0.3-0.3-0.6-0.4-0.9
		c1.1-11.4-5.8-14-7.9-22.6c-0.6-2.6,0.9-4.9-1-7.5c0-0.2-0.1-0.3-0.2-0.5c-0.3-0.9-0.6-1.6-0.4-2.3c1.8-1.4,0.3-2.6-0.1-4.4
		c1.6-11.8-3.5-22.1-4.5-33.1c-0.2-2.2,0.3-4.4,0-6.4c-0.4-2.7-1.9-5.1-2.2-7.6c-0.6-4.4,0.4-8.5,0.5-12.8c0.4-10.9,1-21.6,0.2-31.8
		c0,0,0,0,0.1,0.1c0.2,0,0.4,0,0.5,0c0.4-0.1,0.7-0.5,0.8-1c0.1-0.5,0.2-1.1,0.4-1.6c0.3-1.3,0.6-2.6,0.5-4c1.9-1.1,2.1-1.1,4.4-1.4
		c0.7,2,0.5,7.6,2.4,10.7c-0.1,0.5-0.2,1.1-0.4,1.4c-0.1,0.1,0,0.2,0,0.4l-0.3,0c-1.7,1.1-0.9,3.7-1.6,5.4c-2.7,1.5-3.6-0.9-5.4,1.1
		c1.2,2.4,0.8,4-0.5,5c0.2,2.8,2.5,1.4,3.8,2.2c0,0,0,0.1,0,0.1c0,0.7,0,1.4,0.1,2c0,0.4,0.1,0.8,0.1,1.2c-2.9,1.1,1.7,3.4-1.8,4
		c2.1,0.4-0.2,4.5,2.1,4c0.2,0.2,0.4,0.4,0.5,0.6l0,0c-0.2,2.7-0.5,5.3-0.9,7.9c1.4,0.2,2.5,0.9,3.6,1.8c-0.2,1.4-0.2,2.7,0.1,3.6
		c0,0.4-0.1,0.9-0.2,1.4c-0.3,1.3-0.7,3,0.5,4.4c0.2,0.3,0.6,0.3,0.8,0c0.2-0.2,0.2-0.4,0.1-0.7c0.3,0.3,0.5,0.5,0.8,0.7
		c0.3,2.1-2.3,2.5-3.3,3.9c-1.4,5.6,0,9.9-0.7,15.3c0.4,2.7,1.8,3.1,2.8,4.4c-0.5,1.8-0.8,3.8-0.7,5.6c-0.5,0.8-1,1.7-1.1,2.7
		c0.6,1.7,1.8,2.3,2.4,4c0.8-2.1,1.2-2.4,3.7-2.6c0.9,2.4,2.8,5.8,2.9,8c1-0.3,1.9-0.6,2.9-1c1.4,2.6-1.1,2.8-2,4.1
		c0.4,5.7,3.1,4.6,3.6,10.5c-0.4,0.1-0.8,0.3-1.2,0.4l0.1,0.1c-0.7,0.1-1.4,0.3-2.1,0.5l-0.3,0.1c0-0.5-0.4-0.5-0.7-0.4l-0.4,0.4
		c-0.1-0.3-0.2-0.6-0.2-0.9c0.3-0.3,0.5-0.8,0.3-1.3c-0.3-0.9-0.3-1.8-0.3-2.8c0-1.2,0-2.6-0.6-3.9c-0.2-0.4-0.5-0.7-0.9-0.7
		c-0.1,0-0.3,0-0.4,0.1c-0.5,0.3-0.7,1-0.5,1.6c0.2,0.4,0.2,0.8,0.3,1.2c-0.6,0.3-0.9,0.8-1.7,1.6c0.1,1.4,0.9,1.5,1.3,2.3l0.1,0
		c0.1,0.8,0.3,1.6,0.5,2.3c0,0.1,0.1,0.3,0.1,0.4c0.3,2.7-1.2,4.5-3.4,5.9c1.4,2.2,4.3,0.2,5.1,0.3c2-0.6,0.2-3.3,1.9-4l0.4-0.1
		c0.5-0.2,1-0.3,1.5-0.4c0,2.9,2.2,1.3,2.4,3.9c-0.5,2.4-1.9,4.3-3.3,6.3c-0.1-0.3-0.1-0.6-0.1-0.9c0-0.3-0.1-0.5-0.4-0.6
		c0,0,0,0,0,0c-0.2,0-0.4,0.2-0.5,0.5c-0.1,0.7,0.1,1.4,0.4,1.9c-0.9,1.4-1.8,2.8-2.2,4.5c1.5,1.9,2.5-1.2,4.4-0.1
		c1.4,3.5,0.6,5.6-0.4,7.7c1.8,2.9,4.2,6.1,5.9,9.5c-0.3,0-0.5,0.3-0.5,0.6c0,1.2,0.1,2.7,1,3.6c0.2,0.2,0.5,0.2,0.7-0.1
		c0.1-0.1,0.1-0.2,0.1-0.3c0.3,1.3,0.4,2.7,0.2,4c-0.4,2.6-2.2,3.6-2.8,6.1C150.9,550.9,149.3,545.5,146.9,540.9 M155,599.9
		c0.4,0.8,0.8,1.5,1.2,2.2C155.5,601.7,154.7,601.5,155,599.9 M198.7,663.3c-0.1-0.1-0.1-0.3-0.2-0.4c0.1,0.1,0.2,0.1,0.3,0.2
		C198.7,663.2,198.7,663.3,198.7,663.3 M208.9,682.8c-1.3-2.2-2.5-4.3-3.8-6.4c0.7,0.6,1.4,1.4,1.9,2.5c1-0.3,1.9-0.7,2.9-1
		c1.1-0.3,1,2,1.9,2.1C211.3,681.5,210.2,682.3,208.9,682.8 M213,655.6c-3.6-0.2-6.8-5.3-7-9.3l-0.1-0.2c0,0,0.1,0,0.1-0.1l0.5-0.6
		c0.5,0.1,1,0.3,1.7,0c0.3,0.2,0.6,0.4,1,0.5c0.1,0,0.1,0,0.2,0c0.2-0.1,0.3-0.2,0.3-0.4c0-0.3-0.1-0.5-0.4-0.6
		c-0.2,0-0.5-0.2-0.7-0.4c-0.1-0.1-0.3-0.2-0.4-0.3l0.4-0.3c-0.1-4.2-4.2-2.9-3.1,0.2l-0.1,0.1c-2.9,0.1-5.1-1.2-6.6-3.9
		c-1.5,1.2-1,3.6-0.1,6.2c-3,0.5-4.1-2.7-5.8-4.9c0.4-2.6,1.7-4.6,2.4-7c-0.8-2.6-2.8-2.7-4.7-3.2c-1.6,1,0.9,1.2,0.7,2.5
		c-1.8-1-5.6-3-4.8-5.9c-2.8-3.4-4-4.2-6.7-8c-0.3,0-0.6,0.1-0.8,0.1c-1.8-4.1-3.6-8.1-5.6-12.1c1.1-0.8,1.8-1.9,1.5-3.6
		c-1,0.5-1.4-0.1-2.2,0c-0.4-1-0.8-1.9-0.8-3.4c-1.1-0.2-0.4-2.5-2.2-1.8c-0.3-1.1-0.6-2.2-0.9-3.2c0.1-0.2,0.2-0.4,0.4-0.5
		c-0.3-0.1-0.5-0.4-0.8-0.6c-2.1-6.1-5.2-11.2-7.1-17.5c0.1,0,0.2,0.1,0.3,0.1c2.6-2.7,3.5-6.8,2.9-9.9c-1.7,0.7-3.4,2.2-4.5,3.9
		c-0.1-0.8-0.3-1.6-0.4-2.5c-2.5-2.9-4.3-6.6-5.8-10.7c0.6,0,1.2-0.1,1.4,0.8l0.4-0.3c0,0,0,0,0,0l0.4,0.6c0.9,1.2,1.6,2.3,2,3.7
		l-0.5,0c-0.8,0.5,0.8,0.9-0.2,1.4c1.6,0.2,3.1,0.9,4.7,1.1c0.1-1.3,0.3-2.6,0.1-4.1c-1.3,0.5-2.6,1-3.5,0.6c-0.4-1.1-1-2.1-1.7-3
		c1.7-0.9-1.4-2.3-0.2-3.3c0.1-0.2,0.1-0.3,0.2-0.4c0.2,0.5,0.3,1,0.5,1.5c0.4,1,0.8,2,0.8,3c0,0.6,0.5,1.1,1,1
		c0.5,0,0.9-0.6,0.9-1.2c-0.1-1.4-0.5-2.6-1-3.8c-0.3-0.7-0.6-1.4-0.7-2.1c0-0.2-0.1-0.2-0.2-0.4c0.6-1,1.1-2.1,0.5-3.7
		c0.4-0.1,0.8-0.3,1.1-0.4l0,0c0.7,0.1,1.2,0.2,1.8,0.3l0.4,0.1c1.7,1.5,3.1,3.6,4.5,5.7c0,0.9-0.7,1.3-0.6,2.2
		c-0.1,0-0.3,0-0.4,0.1c-1.2,0.5-1.7,1.5-2,2.1c-0.3,0.5-0.1,1.2,0.4,1.5c0.3,0.2,0.5,0.2,0.8,0.1c0.2-0.1,0.4-0.3,0.6-0.5
		c0.2-0.5,0.4-0.8,0.8-1.1c1.1,0.5,2.5,0.3,3.3,1.4c-0.8,4.4,4.9,11.9,4,16.5c0.5,0.8,0.5-0.2,1.2-0.4c1,4.1,2.9,8.6,3.3,14
		c-1.8,0.1-2.1-3-4.3-2c0.2,2.9,0.3,2.5,1.8,4.2c0,2-1.3,3.3-2.3,4.8c-0.1-0.1-0.1-0.2-0.2-0.3c-0.9,1.1-0.2,2,0,3.2
		c1-0.2,0.7-1.6,0.3-2.5c1.6,1.4,0.9,4,3.6,3.8c0.2,0.2,0.4,0.4,0.6,0.7c0.2,0.3,0.4,0.5,0.6,0.8c0.2,0.2,0.4,0.2,0.6,0.1
		c0.1,0,0.2-0.1,0.3-0.2c0.2-0.3,0.2-0.7,0-1c-0.2-0.2-0.3-0.4-0.4-0.6c-0.3-0.4-0.6-0.9-1.2-1.2l0.2-0.2c0.3-2,2.7-0.4,3.6-0.5
		l0.2-0.2c0,0.6,0.1,1.5,0.5,2.1l0.1,0.2l0.2,0.1c0.2,0.1,0.5,0.2,0.8,0.4c0.3,0.2,0.6,0.4,1,0.5l-0.1,0.1c0.2,0.4,0.7,0.5,0.9,0.9
		c-0.1,0.1-0.2,0.2-0.3,0.2c-0.3,0.2-0.5,0.6-0.4,0.9c0.1,0.3,0.5,0.5,0.8,0.4c0,0,0,0,0.1,0c0.3-0.1,0.5-0.3,0.8-0.5l0,0.2
		c4.4-1.4,7.9-4.7,11.7-3.3c-1,2-0.1,1.8,0.7,4.6l0,0c0,0.1,0,0.2,0,0.4c0.1,1,0.2,1.9-0.2,2.7c-0.3,0.5-0.1,1.2,0.4,1.5
		c0.3,0.1,0.5,0.2,0.8,0.1c0.2-0.1,0.5-0.3,0.6-0.5c0.7-1.3,0.6-2.7,0.5-3.9c0-0.1,0-0.1,0-0.2c0.4-0.3,0.1-0.9,0.1-1.4
		c2-1.2,3-0.2,4.8-0.9c-1.1-0.4-3.2-3.3-1.2-4.4l-0.1-0.2c0.3,0,0.5,0,0.8-0.1c0.3-0.1,0.7-0.3,1-0.7l0,0.5c0.7,4.3,3.2,4.7,5,6.5
		c0.2,3.5,3.6,8.6,1.4,11.9c2.6,0.6,5.3,0.9,6.4,4.7l0.1,0c-0.3,0.2-0.7,0.4-1,0.6c-0.6,0.3-1.2,0.7-1.7,1.1l0-0.2
		c-1.7-0.8-2.8-2.8-5.1-2.4c-0.6-4.7-3.6-4.5-4.8-8c-3.5,2.3-0.4,5.3-1.3,8.7c-0.1,0.2-0.2,0.4-0.3,0.5c-0.4-0.5-0.8-0.9-1.3-1.3
		c0.5-0.2,0.9-0.6,1.1-1c-0.5-0.5-1.4-0.4-2.2-0.4c-0.2-0.4-0.3-0.8-0.4-1.3c-0.5-1.7-1.1-3.5-2.4-4.8c-0.2-0.2-0.4-0.2-0.6-0.2
		c-0.2,0-0.4,0.1-0.6,0.3c-0.3,0.4-0.3,1,0.1,1.3c1,1,1.4,2.5,1.9,4.1c0.2,0.6,0.4,1.3,0.6,1.9l0,0c-2,4.3,3.3,5.1,0.6,8.3
		c1.8,2.2,4.1,0.8,4.5,3.7c0.4-0.4,0.9-0.6,1.6-0.7c0.6,0.7,1.3,1.3,1.9,1.9c-0.1,0.1-0.2,0.3-0.2,0.5l-0.3,0
		c-0.2,0-0.3,0.2-0.3,0.4c0,0.2,0.2,0.4,0.3,0.4l0.3,0c0.2,0.6,1.1,0.4,1.1,1.2c0.4-0.1,0.5-0.5,0.5-1c2.3,2.3,4.4,4.6,5.2,8.1
		c2.2,0.9,3.5,3.4,5.2,5.1c1.5,2.1-1.2,1.7-0.3,3.5c1.8,0.6,3.9,0.6,5.5,1.6c1.9,8.3,5.8,9,6.8,17.6l0.3,0c-0.3,0.3-0.7,0.5-1,0.7
		c-0.5,0.2-1,0.5-1.4,0.9l0-0.2c-0.8,0.5-1.3,0.3-1.8,0.2c-0.3-0.7-0.7-1.3-1.1-1.8c-0.5-2.5-0.6-3.5-0.8-6.8
		c-1.7-0.1-3.6,0.1-5.1-0.4c0.8-0.6,0.6-1.4,0.2-2.2c0.4-0.4,0.9-0.7,1.4-1c-2.1-3.3-7-4.8-7-9.3c-1.9-0.3-2.7-3-5.1-2.4
		C211.5,652.7,212,652.7,213,655.6 M221.6,664.6c-0.1-0.1-0.3-0.1-0.4-0.2c0-0.2,0.1-0.4,0.1-0.5
		C221.4,664.1,221.5,664.3,221.6,664.6 M217.2,661.7C218.8,665.3,214.7,663,217.2,661.7 M216.1,693.4c-0.1-0.1-0.2-0.2-0.2-0.3
		c1.1,0.4,1.9,1.2,1.7,2.7C217.1,695,216.6,694.2,216.1,693.4 M221.2,702.3c-0.9-1.4-1.7-2.9-2.4-4.3c1.3,0.3,2.8,0.3,3.9,1
		C223.2,700.7,222.3,701.5,221.2,702.3 M222.9,704.8c0.5-0.3,0.9-0.6,1.2-0.8c1.2,1.4,3.9,3.2,5.2,5.2
		C226.7,709,224.7,707.2,222.9,704.8 M239,703.1c-3.7,0.9-5.5-3.6-6.5-5.3c1.2-0.8,1.2,0.9,2.1,0.7c0.6-1.4-1.4-2.9-2.4-4
		c0.3,0.9,0.6,1.7-0.1,2.1c-3-0.7-5.4-2.8-6.9-6.6c-5-0.7-6.5-8.4-10.2-11.7c0.5-0.7,1.3-1.3,2.7-1.6l0.1-0.2
		c0.5,0.6,0.9,1.2,1.3,1.9c0.6,0.9,1.2,1.8,2,2.6l-0.2,0.1c1.1,2.4,2.7,3.8,4.9,3.8c-0.8-1.9,1.1-2.2,0.8-3.7
		c-2.3,1-2.7-1.9-4.5-1.8c-0.6-0.6-1.1-1.3-1.5-2.1c-0.4-0.6-0.8-1.3-1.3-1.9l0.1,0c-0.8-2.8,2.2-0.3,3.8-2c2.4,1.4,3.3,4.3,2.7,7.3
		c1.9,0.4,3.2,1.9,5.1,2.1c0.1,0.2,0.3,0.4,0.4,0.6c0,0,0,0.1,0.1,0.1c-0.1,1.4,0.5,2.7,1.1,3.9c0.3,1.1,0.6,2.1,1,3.1
		c0.1,1.9-0.5,2.2,2.1,4.7c1.2,1.1,3.7,1.4,3.7,4.2C238.7,700.7,237,702,239,703.1 M239.2,602.1c-0.7-2.4-1.3-4.9-2.1-6.8
		c1.8,0.2,2-1.2,3.9-0.8c0.9,2.6,2.5,5.2,3.7,7.9c-0.4,0.6-0.5,1.4,0.2,2.6c0.3-0.1,0.5-0.1,0.7-0.3c0.5,1.6,0.7,3.2,0.5,4.9
		c-3.2-0.4-4.9-2.6-6-5.3c0.1-0.7,0-1.4-0.4-2.4C239.4,602,239.3,602,239.2,602.1 M244.2,715c-0.4,0.2-0.8,0.3-1.1,0.4
		c-0.7-0.4-1.4-0.8-2.1-1.2c-0.6-1.1-1-2.8-1.4-4.5c0.6-0.2,1.2-0.4,1.7-0.6c1.6,3.3,2.7,4.8,3.3,5.6L244.2,715z M247.4,717.8
		c-0.7-0.4-1.4-0.7-2-1.1c1.1-0.6,1.8-0.5,2,0.7l0.2,0C247.5,717.5,247.4,717.6,247.4,717.8 M257.4,737.3c-1.9,0.4-3-0.9-5.4,0.4
		c-0.3-0.3-0.6-0.6-0.9-0.8l0.2-0.2c-0.6-1.2-1-2.7-2.2-3.1c0.3-0.7,0.7-1.3,1.2-1.8c1,0.2,1.9,0.1,2.9,0c1.6-0.2,2.6-0.3,3.5,0.5
		c0,0,0.1,0,0.1,0C258,734.6,257.5,735,257.4,737.3 M257.7,730.3c-0.5-0.4-0.9-0.6-1.4-0.7c-0.3-2.4-1.9-3.3-2.2-5.7
		c1.9,1.2,3,4,4.4,6.1C258.2,730.2,258,730.3,257.7,730.3 M260,715.4l0-0.3c-2.3-1.2-3.3-5-7.2-3.1c0.3,1.1,0.6,2.2,0.9,3.3
		c-0.9-0.5-1.9-0.8-3-1c0,0.3,0,0.5,0,0.8c-0.5-0.3-0.9-0.7-1.2-1.3c-1-2.9,1.4-6.8,5.5-7.4c1.4,1.5,1.9,4.7,3.1,6.5
		c1.2-0.1,2.5-0.6,2.8,1.1l0.2,0.2C260.8,714.5,260.4,714.9,260,715.4 M260.9,715.8c0.2-0.2,0.3-0.3,0.4-0.4l0,0
		c1.3-0.7,1.6,0.7,3.1-0.4c0.6,1.4,1.6,2,1.8,4.2C263.6,719.7,262.5,717.4,260.9,715.8 M277.1,753.3c-0.2-0.1-0.5-0.2-0.7-0.3
		c-0.4-2-1.5-2.4-1.9-4.3c-4.8,0.6-3.9-4.5-7.1-7.2c2.7-1.7,4.5,3.7,5.5-0.5c0.5,1.9,2.1,1.6,2.8,3.2c-1,0.5-1,1.5-0.4,2.9
		c0.5-0.8,1.3-1.4,2.7-1.6c0.9,3.1,3.2,3.3,3.8,6.9C279.8,753.5,279,752.2,277.1,753.3 M278.6,654.7c-0.3-0.5-0.6-0.9-0.9-1.4
		c-0.4-0.9-0.9-1.6-1.5-2.2c-1.1-1.7-2.4-3.2-4-4.2c0-0.1,0-0.2,0-0.3c0.5-0.3,1.1-0.5,0.9-1.1c-0.4-0.2-0.7-0.5-0.9-0.7
		c0-0.4,0-0.7,0-1.1c-0.3-0.5-0.6-1-0.9-1.6c0.1-1.8,1.1-3.8,1.3-5.4c-2.4-0.3-4-2.1-5.7-3.8c-1.8-4.1-3.8-8.1-6.4-11.2
		c-0.5,0-1.1,0.1-1.6,0.1c-0.6-0.6-1.3-1-2.7-0.8c0-0.3-0.1-0.6-0.2-0.8c1,0.4,1.8-0.2,3.9-0.3c-2-1.7-0.8-3.7-2.6-5.4
		c-0.2-1.4-0.5-2.7-1.1-3.9l0.2-0.1c-0.1-0.7,0.1-1.2,0.6-1.3c3.8-1.2,9.6,1.1,9.5,9.2c4.1,4.1,7.3,9.2,9.5,15.6
		c0.4,2.4-0.7,3.1-0.5,5.1c6.2,0.9,1.9,12.3,7.5,14.1l-0.2,0c0.1,1.1,0.8,0.9,1.1,1.7C281.6,656,280.3,654.9,278.6,654.7 M283,660
		C283,660,282.9,660,283,660c0.7-0.7,1.5-1.2,2.4-1.7c-0.3,1.1-0.9,1.9-1.9,2.1C283.3,660.4,283.1,660.2,283,660 M283.9,753.1
		c3,2.1,8.2,4.8,8.8,8.7C290.4,758.4,282.3,757.8,283.9,753.1 M293.6,785.5l0,0.1c-0.3-0.3-0.5-0.6-0.8-0.8
		c-0.3-0.3-0.5-0.6-0.8-0.8c2.6-1.9,7,0.7,8.6,4C297.5,788.6,296.1,785.9,293.6,785.5 M294.9,778.9
		C291.5,776.2,295.7,776,294.9,778.9 M315.4,669.5c-1.4-0.9-2.7-2.1-3.9-4.1c-0.4-1.8,2.5-1.7,1.4-3.9c-3.6,0.8-5.2-2.4-6.7-6
		c-1.1,0-2-0.3-2.8-0.9c-0.6-2-1.2-4-2.2-5.8c-1.9-3.4-4.7-7.9-7.3-10.6c-2.5-2.7-5.9-3.5-7.8-6.7c-1.6-2.7-2.2-6.3-2.3-10.1
		c-2.1-2.9-3.7-6.3-4.5-10.7c-4.7-4.3-8.5-9.5-9.5-18.2c-1.5-0.8-4.4-3.2-2.8-5.6c1.3,2.7,2.2,5.9,5,6.8c1.3-1,3.3-1.4,5.4-1.5
		c0.5,0.5,0.8,1.2,1.2,2c0.5,1.1,1.2,2.4,2.4,3l0,0c0.8,2.9-0.3,5.5,0,9.6c2.1,0.5,2.6,2.9,5,3c1-0.1,0.4-2.1,1.7-2
		c1.3,2,2.6,4.1,4.5,5.6c-0.1-2.2,3.4-0.5,3.3-2.7c-0.8-1.8-3.4-1.5-2.8-5c-3-0.5-3.8-3.6-3.9-7.5c-2.6-2.3-3.9-9.5-6.7-9.3
		c0,2.3,0,4.7,0,7c-0.2,0-0.4,0-0.6,0l0,0.2c-1-0.4-1.5-1.4-2-2.5c-0.4-0.9-0.9-1.8-1.6-2.6l0.2-0.1c-0.5-5.6-2-10-3.4-14.6
		c2,0.3,2.1-1.5,3.9-1.5c3.9,2.4,4.5,8.7,6.7,13.2c1,1.1,1.6-0.3,2.8-0.8c0.7,3,2.3,5,4.5,6.2c0.4,1.9-0.6,2.4-0.6,3.9
		c5,2.8,0.9,16.5,9,15.6c2.1,3.3,0.8,5.2,1.4,7c0.3,0.1,0.4,0.3,0.4,0.7c0.2,0.4,0.6,0.7,1.1,1.1c-1.2,0.7-1.1-0.3-1.1-1.1
		c-0.1-0.2-0.3-0.5-0.4-0.7c-0.1,0-0.1,0-0.2,0c-0.1,2.4-0.5,4.6-1.1,6.4c-2.8,1.1-3.8-1.7-5-0.4c1.7,7.4,2.2,16.2,9.5,16.9
		c1.4,5.8,4.5,9.6,5.1,16.4c2.8,2,4.8,5,5,10C315.7,669.4,315.6,669.4,315.4,669.5 M328.6,652.2c-4.4-10.8-12.5-17.2-17.9-26.8
		c2-1.8,6.4-3,8.4-2.9c0.1-2.3-1.9-2-2.2-3.8c2.8,0.3,3.4-1.8,6.1-1.5c0.9,6.3,4.7,14.7,5.6,19.6c0-0.1-1,0.1-1.1,0l-0.1,0.2
		c-0.1-0.2-0.2-0.4-0.3-0.5c-0.2-0.5-0.5-0.9-0.5-1.4c-0.1-0.4-0.4-0.7-0.8-0.7c0,0-0.1,0-0.1,0c-0.4,0.1-0.7,0.6-0.6,1.1
		c0.1,0.7,0.4,1.3,0.7,1.9c0,0.1,0.1,0.1,0.1,0.2l0,0c0.1,0.1,0.1,0.2,0.2,0.3c0,0.1,0.1,0.2,0.1,0.3c0,0,0.1,0,0.1,0.1
		c2.2,3.4,3.6,7.8,4.1,13.2C329.8,651.8,329.4,652.1,328.6,652.2 M337.5,637.7c-2.5-3.5-6.6-8.2-6.2-13.2c4.1-0.5,5.5,7.5,7.3,11.9
		C338.5,637.1,338,637.4,337.5,637.7 M338.5,618.4c-1.5-4.9-4.7-7.7-7.3-11.2c1-1.9,0.8-5,2.8-5.9c2.6,5.7,9.7,5.9,9.5,15
		C340.9,615.9,341.1,618.7,338.5,618.4 M342.6,261.6c-1.2-2.5-0.2-7.3,2.8-7.2C346.4,256.8,344.4,260.4,342.6,261.6 M422.2,722.6
		c-1.5-6.3-8.2-5.4-9.5-9.1c-2.5,1-2.6,3.4-4.3,4.9c-4.5,0.7-6-4.7-10.6-3.8c-0.4-0.3-0.8-0.5-1.1-0.8c-1.4-1.9-4.9-2.9-4-6.1
		c0.1,0,0.3,0.1,0.4,0c0,0,0.1,0,0.1-0.1c0.4-0.2,0.6-0.7,0.4-1.2c-0.6-1.4-2-1.7-3.1-1.8l0.1-0.2c-1.1-0.8-2.1-1.6-2.4-4
		c-0.9-0.4-2.3,0.1-3.2-0.3l0,0.2l-0.8-0.5c-0.3-0.2-0.7-0.1-0.9,0.3c-0.2,0.3,0,0.8,0.3,1l0.8,0.5l-0.2,0.1c0,0.2-0.1,0.4-0.2,0.6
		c-1.4-0.2-2.9-0.2-4.5,0.1c-0.9-2.5-2.2-4.3-3.6-6.3c0.2-1.2-0.3-4.4-1.4-4.6l-0.1-0.4c-0.1-0.2-0.3-0.3-0.5-0.3
		c-0.2,0.1-0.3,0.3-0.2,0.5l0.1,0.3c-0.2,0-0.3,0.2-0.4,0.3c0,0,0-0.1-0.1-0.1c-3.5-1-7-1.9-8.4-5.4c4.3-6.4-1.3-9.9-4.6-12.8
		c0-0.1,0-0.1,0-0.2c-0.1-0.3-0.2-0.5-0.3-0.7c3.3-10-8.6-13.4-8-21.6c4.2,2.5,4.7,9.3,10.6,9.8c1.8-0.1,0.4-3.8,2.8-3.3
		c4.4,0.9,4.9,4.8,7.3,8.7c0.5,0.9,1.9,1.1,2.2,1.8c1.9,4,2.7,9.1,6.2,11.9c1.6,1.3,4,1,5.6,2.3c2.6,2.2,4.6,6.1,5.6,10
		c-1.7,1.5-3.4-0.8-3.9,1.5c2,3.7,6.5,7.4,11.2,5.9c2.5,2.7,7.3,2.8,9.5,6c0.7,1.9,0.2,5.3,2.2,5.7c6.1-0.7,9,2.5,11.2,6.6
		c-0.9,0.1-2.1-0.2-2.2,0.7c1.4,0.8,2.2,2.3,3.4,3.4C423.2,722.3,422.7,722.5,422.2,722.6 M434.8,53.6c-1.6,0.3-3.7,0-5.7-0.5
		c-0.7-0.8-1.4-1.6-2.6-1.3c-0.1-0.7-0.2-1.4-0.2-1.9c2.1-3.5,8.2-0.1,9.3,3.3C435.3,53.3,435.1,53.4,434.8,53.6 M450,50.8
		c-1.4,0.2-2.8,0.4-4.2,0.7c-0.6-0.1-1.2-0.4-1.8-0.9c2.6-1.5,6.7-1.3,9.5-1C452.3,49.8,451.1,50.3,450,50.8 M458.5,53.8
		c-0.3-0.5-0.6-0.9-0.9-1.3C458.1,52.7,458.6,53.3,458.5,53.8 M465.2,857.7c-0.5-1.6-2.5-0.1-3-1.7
		C463.9,854.6,466.1,857.1,465.2,857.7 M496.9,38c0.4-1.2,0.7-2.6,1.7-3.3c0.6,0.5,1.3,0.7,2,0.9c-1.3,1.6-2.2,3.5-4.7,2.9
		c0.7,0.8,0.9,1.5,1,2.1c-0.3,0-0.7-0.1-1,0c-1.7,0.1-3.8,1-5.8,1.6c0-1.1-0.1-2.3-0.4-3.6C491.9,37.7,494.3,37.2,496.9,38
		 M492.8,157.9c-0.1-1.4,0.4-2,1.7-2c0,0.6,0,1.3,0,1.9C493.9,157.8,493.3,157.8,492.8,157.9 M478.5,18.2c0.6,0,1.1-0.1,1.7-0.1
		c0,0.4,0,0.8,0,1.3c-0.6,0-1.1,0-1.7,0.1C478.5,19.1,478.5,18.7,478.5,18.2 M472.6,732.4L472.6,732.4
		C472.6,732.4,472.6,732.4,472.6,732.4C472.6,732.4,472.6,732.4,472.6,732.4 M480.4,148.7c-2.2,0.7-4.5,1.4-6.8,2
		c1.6-2.5,4.5-3.1,7.4-2.6C480.8,148.3,480.7,148.5,480.4,148.7 M490.5,887L490.5,887l-0.8,0.1c-1.2,0.2-2.3,0.3-3.4,0.4
		c0.3-2.9-0.5-4.8-0.8-7.1c-1.9,0.7-3.2,0.2-4.5-0.5c0-0.5,0.2-1,0.4-1.4c3.5,1.6,6.7,1.1,9.2-2.6c4.1-0.2,6.8,2.5,8.4,7.5
		C496.6,886.3,493.2,886.4,490.5,887 M500.1,864.7c-0.1-0.3-0.2-0.5-0.3-0.8c-0.6,0.1-0.8,0.5-0.9,0.9c-2.1,0.1-4.1-0.4-5.6-1.5
		c2.7-1.2,2.3-3.5,3.1-4.5c3.2,0.7,7.6-1.2,8.7,3.9C503.4,863.8,501.7,864.4,500.1,864.7 M534.1,30.2c0.9-0.2,1.8-0.2,2.7,0.1
		c-0.3,0.2-0.6,0.5-0.8,0.7C535.3,30.8,534.7,30.5,534.1,30.2 M528.9,17.5c4.3-1.2,8.8-3,9.2,2.7c-3.6-0.3-8.5,1.1-11.2-0.3
		C527.7,18.6,529.1,19.5,528.9,17.5 M525.5,18.2c0.3,0.5,0.9,0.9,1.1,1.6c-0.6-0.4-1-0.8-1.3-1.5C525.3,18.2,525.4,18.2,525.5,18.2
		 M528.4,135.2c-0.4,2.9-4,3.7-6.1,2.8C522.5,135.1,526.1,135.8,528.4,135.2 M517.5,14.7c-2,0.5-3.5,1-3.9-1.8
		C515.1,11.3,517.2,12.8,517.5,14.7 M517,36c-3.5,0.6-6.8-0.4-10-1C510.6,34.2,514.3,33.5,517,36 M507.6,862.6
		c2.1,0.4,4.7-0.5,6.5,0.6C511.4,863.9,509.1,864.1,507.6,862.6 M524.6,865.1c4.9-0.8,8.8,0.3,11.3,4.4c-1.6,2.3-3.6,2-6.3,2.2
		C528.3,868.8,526.5,866.9,524.6,865.1 M529.2,881.4c2.1-6.6,13-5.1,16.8-3C543.9,883.8,531.8,886.9,529.2,881.4 M541.1,750
		c0.4-0.7,0.1-1.8,0.2-2.6c1.2,0.2,1.5-0.5,2.2-0.7c1.1,1.5,3.2,1.8,3.4,4.5C544.7,751.1,542.5,750.9,541.1,750 M564.4,876.3
		c-0.4-2.5,5.9-5.3,6.9-2.3C571.2,876.5,565.7,877.3,564.4,876.3 M655.8,28c0.7-2.4,5.8-1.6,6.7-0.3C662.2,30.2,655.9,31.1,655.8,28
		 M667.1,724.1l0,0.3c-1.1-0.3-2.2-0.3-3.2-0.1c-0.1-0.1-0.1-0.1-0.2-0.2c1.2,0,2.5-0.1,3.8-0.2C667.4,723.9,667.3,724,667.1,724.1
		 M694.8,32.7c-3.5,5.7-12.7,1.2-15.6-1.9C682.4,26.3,693.9,26.8,694.8,32.7 M675,729.6c-0.3-3,3.1-4.9,5.6-4.6
		C681.2,727.9,677.3,728.3,675,729.6 M685.9,42.1c2-1.7,3.7-0.9,6.1-0.3c0.5,3,1.6,5.3,2.8,7.6C690.4,48.7,687.1,46.6,685.9,42.1
		 M730.5,38.2L730.5,38.2l0.7,0.1c1.1,0.1,2.1,0.3,3.1,0.5c-1,2.6-0.7,4.7-1,6.9c1.8-0.1,2.9,0.7,3.8,1.7c-0.2,0.5-0.4,0.9-0.6,1.2
		c-2.7-2.5-5.6-3-8.8-0.1c-3.7-0.9-5.4-4.3-5.6-9.4C724.9,37.2,727.9,38,730.5,38.2 M709.4,56.4c-1.7-0.9-4.3-0.8-5.6-2.3
		C706.3,54.1,708.4,54.6,709.4,56.4 M704.8,698.9c-0.2-0.6-0.4-1.3-0.5-1.9c0.6-0.2,1.1-0.4,1.7-0.6
		C706.5,697.8,706.1,698.6,704.8,698.9 M705.9,845.5c1.3-0.8,2.5-1.7,3.7-2.6c0.2,0.1,0.4,0.2,0.5,0.4
		C708.8,843.8,707.3,844.6,705.9,845.5 M712.2,60c-0.5-0.7-0.7-1.7-0.6-3c4.6-1.4,8.5,0.1,10.6,2.7c-1.6,0.2-2.3,1.1-2.8,1.9
		c-1.3-0.7-2.5-1.6-3.6-2.9C714.5,59.5,713.3,59.9,712.2,60 M719.3,844.4c2-1.1,3.4-2.1,4.6,0.5C722.7,846.9,720,846.1,719.3,844.4
		 M723.1,815.9c0.2-0.2,0.5-0.3,0.6-0.5c0.2,0,0.3,0,0.5,0C723.8,815.6,723.5,815.7,723.1,815.9 M723.7,806.5c1.1-2,3.9-1.4,4.2,1.3
		C725.8,808.8,724.4,808.5,723.7,806.5 M733.9,804.4c-2,1.8-1-2.6-2.4-1.9c-1.8,0.4-3.9,1.4-4.6-0.5c0.5-1.5,4.7-2.4,5.8-2
		C731.8,802.8,734.6,802.4,733.9,804.4 M745.6,72.8c0.1,1.7,2.2,0.8,2.2,2.5C746,76.1,744.7,73.2,745.6,72.8 M740.5,813.2
		c0,0-0.1,0-0.1,0c0.2-1-0.5-1.1-0.6-1.9c1-1.5,2.9-2.7,4.2-4.2c1.5-0.5,2.8-0.4,4,0.7C745.4,809.3,743.1,811.6,740.5,813.2
		 M750.3,212.2c0.1,0,0.1,0,0.2,0c0,0.1,0,0.1,0,0.2C750.4,212.4,750.4,212.3,750.3,212.2 M784.6,657.4c2,1.9-1.7,7.3-4.5,6.3
		C781.7,661.8,782,659,784.6,657.4 M757.3,829.4c-0.1-0.4-0.2-0.8-0.4-1.3c0.6-0.2,1.2-0.4,1.7-0.6c0.1,0.4,0.2,0.8,0.4,1.3
		C758.4,829,757.9,829.2,757.3,829.4 M764.8,230.9c2.6,3.2,5.4,6,7.8,9.7c-1.2,1.8-3.5-0.9-4.9-1.8C769,236,762.3,233.2,764.8,230.9
		 M770.6,787.1c0.4,1.2,2-0.2,2.3,1.3C771.6,789.6,769.2,788.2,770.6,787.1 M774.8,235c-4.4-2.1-4.9-5.5-9.3-10.6
		c-1.4-1.7-2.8-3-4.1-4.3c0.1,0,0.1-0.1,0.2-0.1c4.5,0.6,4.1,7.1,9.5,6.6c3.1,4.2,7.2,7.3,11.2,10.4c-1,0-2-0.6-3.2-2.1
		C777.4,235.6,776.8,233.9,774.8,235 M776.6,790.6c3.3-2.2,6.3-5.6,9.6-3.9C783.9,789,779.5,790,776.6,790.6 M793.3,251.4
		c0.5,0.9,1.7,0.2,2.2,1c0.1,0.3,0.1,0.6,0.1,0.9c-0.4,0.1-0.7,0.2-1.1,0.4l0.1,0.1c-0.6-0.2-1.3-0.5-1.8-0.8l0,0l0.2-0.2
		C792.8,252.2,792.9,251.7,793.3,251.4 M794.2,781.2c2.5-1.9,7.8-1.9,10.9-1.6C806.2,786.5,796.3,784.8,794.2,781.2 M804.3,624.6
		c0-2.4,1.1-4,2.4-5.7c0,1,0,2.1,0.2,3.3C806.1,623.1,805.2,623.9,804.3,624.6 M812.3,607.2c-0.1-0.3-0.4-0.5-0.7-0.6
		c0.2-0.1,0.4-0.3,0.7-0.4c0.1,0.3,0.1,0.6,0.2,0.9C812.5,607.1,812.4,607.2,812.3,607.2 M815.5,635.3c0.8-1.7,1.7-6,4.3-4.9
		C817.9,631.4,818.9,636.8,815.5,635.3 M824.2,580.8c-0.6-1.9,0.9-2.6,2.2-3.5C826.7,579.2,826.1,580.4,824.2,580.8 M834.6,548.5
		c1.9,2.1,2.2,7.1-0.9,7.9C831.9,554.4,833,550.2,834.6,548.5 M826.8,294.3c-0.2-2,1.6-3.4,3.4-3.8c1,0.7,1.9,1.6,2.6,2.8
		c-0.4,0.1-0.8,0.1-1.2,0.1c-0.2,1.5-0.5,2.9-0.7,4.3C828.8,298.2,827.6,296.7,826.8,294.3 M829,770.8c2.4-5.8,8-7.2,14.7-8.4
		C844.9,768.2,832.8,776,829,770.8 M861,316.3c-0.1,0.1-0.1,0.1-0.2,0.2c-0.1-0.2-0.3-0.3-0.4-0.4
		C860.6,316.1,860.8,316.2,861,316.3 M858.4,308.1c0,0.6,0,1.2,0,1.9c-0.4,0.2-0.7,0.3-1.1,0.5c0-0.1-0.1-0.2-0.1-0.4
		C857.4,309.3,857.9,308.7,858.4,308.1 M854,339.3c-2.2-5.7-7.2-5.6-9.1-12c0.5-0.3,0.7-0.8,0.9-1.3c0.2,0.9,0.6,1.6,2,0.5
		c-0.2-0.3-0.3-0.6-0.5-0.8c1.2,0.2,2.4,0.7,3.5,1.2c1.5,1.8,3.4,3.4,5.3,5.1c-0.1-0.6-0.1-1.1-0.1-1.5c1,0.8,2,1.6,3,2.4
		c1.6,0.5-1.8,2.4,0.1,4.8C856.6,338,854.3,335.8,854,339.3 M856.2,746.4c1.4-3.5,5.7-8.9,9.9-7.5
		C865.9,743.2,860.4,744.5,856.2,746.4 M866.1,368.9c-2.9-6.4-9.3-15.5-8.4-23.2c1.2,1.1,3.2,0.3,4.5,1.1c0.2,0.4,0.4,0.7,0.5,1.1
		c0,0.1,0.1,0.3,0.1,0.4c0.3,1,0.5,1.9,0.4,2.8c0,0.7,0.4,1.3,1,1.3c0,0,0.1,0,0.1,0c0.2,0.6,0.4,1.3,0.5,1.9
		c-0.2,0.4-0.2,1,0.1,1.5c-0.1,0.7-0.3,1.4-0.7,2.1C867.3,359.7,869.3,366.5,866.1,368.9 M879.9,221.4c-1-1.3-2.3-2.8-3.3-4.4
		c1.5,1,2.9,2.3,4,4C880.4,221.2,880.1,221.3,879.9,221.4 M877,194.6C879.4,198,875.6,197.1,877,194.6 M874.1,184.5
		c2.9,0.2,3.5,3.1,5.6,4.2l0.1-0.1c0.2,0.3,0.3,0.7,0.5,1c0.2,0.3,0.3,0.7,0.5,1C878,191.7,874.8,188,874.1,184.5 M884.2,747.7
		c-0.1,0-0.2,0.1-0.3,0.1c0,0,0,0,0,0c-0.1-0.2-0.3-0.3-0.5-0.3c-0.1,0-0.3,0-0.5-0.1c-0.1,0-0.4,0-0.5-0.1c0.9-0.7,1.7-1.5,2.6-2.2
		c0.1,0.3,0.2,0.6,0.2,1C884.7,746.6,884.4,747.1,884.2,747.7 M903.7,250.8c-0.4-0.1-0.9-0.2-1.3-0.3c-1.4-0.2-2.3-0.4-3-1.5
		c0,0-0.1,0-0.1-0.1c-0.1-0.2-0.1-0.4-0.1-0.6C900.8,248.7,902.4,249.6,903.7,250.8 M898,250.7c1.1,1.6,2.8,1.9,4.1,2.1
		c0.7,0.1,1.3,0.2,1.9,0.5c0.3,0.9,1.4,0.6,1.1,2.2l0.1,0.1c-0.4,0.1-0.8,0.2-1.2,0.3l-1,0.3c-0.5,0.2-0.9,0.8-0.8,1.4
		c0.1,0.6,0.6,1,1.2,0.8l1-0.3c0.4-0.1,0.8-0.2,1.2-0.3c-0.4,0.5-0.9,1-1.6,1.4c0.2,0.9,0.4,1.9,0.6,2.8l-0.1,0
		c0,1.2-1.3,0.9-1.1,2.4c0,0-0.1,0.1-0.1,0.2c-0.8-0.5-1.4-1.2-1.9-2.1c-0.1-0.6-0.3-1.2-0.5-1.7c0-0.6,0-1.2,0.3-1.8
		c-2.8-1-3-5-3.9-8.2C897.4,250.8,897.7,250.7,898,250.7 M888.3,263.3c-0.2-1.3-0.7-2.2-0.6-3.9c1.3,1.2,2.6,2.6,3.6,4.3
		c-0.1,0-0.2,0.1-0.3,0.1l0,0C889.7,264.1,889.9,262.7,888.3,263.3 M891.9,266.6c-0.5-0.2-0.9-0.6-0.8-1.5l-0.1-0.2
		c0.2-0.1,0.5-0.2,0.8-0.4c0.3,0.6,0.7,1.3,0.9,2C892.4,266.6,892.2,266.6,891.9,266.6 M902.1,705.5c-3.1,1.4-5.2,3.3-8.1,4.8
		c-0.4-4.5,2.7-7.1,5.8-9.6c0.4,0.8,0.6,1.4,0.3,1.4c0.6,0.1,1.3,0.1,2.1,0.1C902.2,703.3,902.1,704.6,902.1,705.5 M907.1,644.7
		c-0.5-0.5-0.9-1-1.1-1.8c-1.7,0.5-1.9,2.7-3.3,3.6c-0.1-0.1-0.2-0.1-0.3-0.2c1.1-2.3,2-4.8,4.5-6.4c0.2,1.2,1,1.2,1.3,2.3
		C908.2,643,907.7,643.9,907.1,644.7 M914.6,662.8c-0.1-1.3-1.8-3.5,0.3-3.5C915.7,659.6,916.4,662.3,914.6,662.8 M916.8,311.3
		c-0.6-0.9-2,0-2.8-0.5c-0.3-0.4-0.5-0.8-0.7-1.3c0.1-1,0.3-2.1,0.8-3.1c-1.4-0.8-2.2-2.4-3.7-3.3c-0.2-0.4-0.4-0.8-0.5-1.2
		c0.5-1.7-0.1-3.6-0.2-5.3c1.3,2.9,3,5.3,4.5,8c-0.3,0.3-0.6,0.6-0.6,1.2c0.8-0.1,1.2,0.2,1.6,0.6
		C915.8,307.8,916.4,309.4,916.8,311.3c0.2,0.2,0.3,0.6,0.3,1.2C917,312,916.8,311.7,916.8,311.3 M918.4,673.9
		c-1.9-2.7-0.5-7.5,1-9.9c0.2-0.1,0.5-0.1,0.7-0.2c-0.7,0.8-1.2,2-1.1,3.6c1.2-0.5,3-0.5,3.3-2.1c0.3-1.4-0.6-1.4-1-2
		c1.7-0.7,3.5-1.4,4.6-0.9C926.4,668,923.8,671.7,918.4,673.9 M954.8,630.6c-0.5-1.7-0.9-3.3-1.4-5l0,0c0.2-0.2,0.4-0.4,0.6-0.6
		c0.1-0.2,0.3-0.3,0.4-0.4l0,0c0.6-0.2,1.1-0.4,1.7-0.6C957.1,627,958,630,954.8,630.6 M962.6,340.3c0.7,3.5,1.8,4.1,1.9,6.9
		C959.5,347.5,962.2,341.6,962.6,340.3 M959,331.9c1.2,0.8,4.1,5,1,5.8C959.1,335.6,957.9,333.8,959,331.9 M962.5,615.6
		c1.8,3.5-0.9,6.6-2.6,6.4c-1.4-2.5,1.4-2.7,0.5-5c-1.6-0.1-1.3,0.2-3.6,0.5c-1.5,1.4-1.5,3.7-3,5.1l0.2,0.3c0,0,0,0-0.1,0
		c-0.3,0.3-0.6,0.6-0.9,1c-0.2,0.2-0.4,0.4-0.6,0.6v0c-1,0.3-1.9,0.7-2.9,1c-1.8-2.3-3-2.7-2.3-6.1c-1.5,0.5-3.1,1-4.6,1.6
		c0-2.5,0.7-4.5,2-6.2c4.1,2,8.9-1.2,13.4-1.8C959.8,613.3,959.6,617.8,962.5,615.6 M947.3,301.5c0.4-0.1,0.8-0.3,1.2-0.4
		c3.7,7.3,7.4,15.1,8.8,22.4c-1.9,0.3-2,1.7-3.1,2.4C952.8,316.7,942.9,308,947.3,301.5 M946,545.7c0.4,2.7-0.6,4.6-2.8,5.8
		c-3.2-2.5-2.4-9.1,0.6-11.2c0.9,2.1-1.6,2.2-0.7,4.4C943.9,545.5,946,543.5,946,545.7 M935.8,377.7c0.6,0.1,1.1,0.4,2-0.2
		c2.5,3.1,3.7,7.4,4.4,12.1c-1,0.5-1.7,1.3-1.8,2.7c1.2-0.3,1.2,0.8,2.2,0.7c0.3,2.4,0.6,4.9,0.8,7.3c0.1,0.6,0.2,1.2,0.3,1.8
		c-0.2,0.2-0.3,0.3-0.6,0.4c0.4,0.4,0.7,1.1,1,1.7c0.9,4.4,1.6,9.2-2,11.7c-3.2-0.8-5.7-5.1-5.5-8.8c0.3,0.1,0.5,0.2,0.9,0.1
		c0.4-2,0.4-2.4,0-3.2c0.5-0.7,1.1-1.3,2-1.7c0.4-1.1,0.5-2.2,0.5-3.3c0.1-0.1,0.2-0.2,0.3-0.2c-0.1-0.2-0.2-0.3-0.3-0.5
		c-0.4-6.1-5.2-12-6-17.5C934.9,379.8,935.5,378.9,935.8,377.7 M928.7,351.4c0.3-0.3,0.6-0.8,0.8-1.3c0.2-0.1,0.3-0.1,0.6-0.1
		c1.3,0.8,2.3,2.4,2.6,4.2c-0.6,0.9-1.3,1.8-1.9,2.6c-1.1-1.1-2.1-2.6-2.7-4.8C928.4,351.8,928.6,351.6,928.7,351.4 M928.2,679.5
		c0.8-1.2,1.1-2.1,1.2-2.7l0.6,0C930.6,678.4,929.7,679.1,928.2,679.5 M930,674.7c-0.1-1.7-0.3-3.5,1.6-4c0.2,0.2,0.4,0.3,0.6,0.5
		l-0.1,0C932.6,673.1,932.3,674.5,930,674.7 M933.1,670.2l0,0.1c-0.4-0.4-0.8-0.7-1.2-1l0.3-0.2c-0.6-0.4-1-1.2-1.3-2.3
		c1.9-4.8,8.4-6.9,9.9-12c1.5,0,2.9-0.1,3.8-0.8c0.8-3.7-1.7-3.5-1.7-6.3c-0.7,0.2-1.6,0.4-2.5,0.9c0.2-1.1,0.6-2.1,0.9-3.1
		c1.1-0.4,2.3-0.8,3.4-1.2c0.6,2.2-1.5,3-0.3,5.6c1.9-0.1,1.4-1.7,3.3-1.8C945.6,657,940.5,664.3,933.1,670.2 M946.9,665.6
		c0-0.2,0.1-0.3,0.1-0.5c0.2,0.2,0.4,0.4,0.6,0.4c0,0,0,0,0,0c0.1,0,0.2,0,0.3,0C947.6,665.5,947.3,665.5,946.9,665.6"/>
	<path class="st0" d="M922.8,256.7c2.1,0.4,2.2-1.5,2.8-2.7c0.9,0.7,1.2,2,2.8,1.8c2.3-5.4-6-6.4-6.7-1.6
		C921.3,256,922.8,255.4,922.8,256.7"/>
	<path class="st0" d="M182.8,492.1c0.4,0.1,0.8-0.3,0.8-0.7c0-0.5-0.2-0.9-0.6-0.9c-0.2,0-0.3,0-0.5,0c-0.1,0-0.2,0-0.3,0
		c0-0.1,0-0.1,0.1-0.2c-0.3-0.6-1.3,0-1.5-0.9c-0.7,0.5-0.4,1.2,0.1,1.5c-0.1,0.3,0,0.6,0.2,0.8c0.5,0.4,1,0.4,1.4,0.4
		C182.6,492.1,182.7,492.1,182.8,492.1"/>
	<path class="st0" d="M907.8,198.2c0.3-0.3,0.4-0.8,0.2-1.2c-0.5-0.8-0.7-1.7-0.7-2.7c0-0.5-0.3-0.8-0.7-0.8l0,0
		c-0.4,0-0.7,0.4-0.7,0.9c0,1.4,0.3,2.6,1,3.6C907,198.4,907.4,198.4,907.8,198.2"/>
	<path class="st0" d="M837.7,119.5c1.6-0.8,2.1-2.8,3.3-4c1.3-0.3,1.2,1.1,2.8,0.5l0.1-0.1c1.6,1.8,3.5,3.2,5.3,4.5
		c2,1.5,3.9,2.8,5.4,4.8c0.3,0.4,0.9,0.5,1.3,0.1c0.4-0.4,0.4-1.1,0.1-1.5c-1.7-2.2-3.8-3.7-5.8-5.1c-1.7-1.3-3.3-2.4-4.7-4l0,0
		c-0.6-1-1.1-2-1.7-3.1c0.6,0.2,1.1,0.4,1.7,0.6c0.7-2.4-2-6.3-4.6-5.3l-0.2,0.2c0,0,0,0,0,0c-0.2-0.2-0.5-0.7-0.9-2.2
		c-0.1-0.2-0.3-0.4-0.5-0.3l0,0c-0.2,0.1-0.3,0.3-0.3,0.6c0.2,0.7,0.4,1.2,0.6,1.6c-0.9-0.4-1.8-0.7-3-0.7
		C837.3,108.3,838,115.7,837.7,119.5"/>
	<path class="st0" d="M756.3,36.7c1.6,0.1,2.7,1.5,4,2.9c0.5,0.6,1.1,1.2,1.6,1.7c0.4,0.4,1,0.3,1.4-0.2c0.3-0.5,0.3-1.2-0.1-1.6
		c-0.5-0.5-1-1-1.5-1.6c-1.4-1.6-2.9-3.4-5.2-3.5c0,0-0.1,0-0.1,0c-0.5,0-0.9,0.5-1,1.1C755.4,36.1,755.8,36.6,756.3,36.7"/>
	<path class="st0" d="M248.9,740C248.9,740,248.9,740,248.9,740c-0.2,0-0.4,0.1-0.4,0.3c0,0.2,0.1,0.4,0.3,0.5
		c0.1,0,0.2,0.1,0.3,0.4c0.1,0.2,0.3,0.3,0.5,0.2c0.2-0.1,0.3-0.4,0.2-0.5C249.6,740.6,249.4,740.1,248.9,740"/>
	<path class="st0" d="M163.4,242.8c2.8-0.6,4.7-2.8,5.5-6.6c0.1-0.4-0.1-0.8-0.5-0.9c-0.1,0-0.1,0-0.2,0c-0.3,0-0.6,0.2-0.6,0.6
		c-0.7,3.1-2.2,4.9-4.5,5.4c-0.4,0.1-0.6,0.5-0.6,0.9C162.7,242.6,163,242.9,163.4,242.8"/>
	<path class="st0" d="M226.2,144.3c-0.5-1.6-2.3-0.6-3.8-0.1C222.5,146.7,224.9,144.4,226.2,144.3"/>
	<path class="st0" d="M142.2,208.5c-0.1-0.4-0.2-0.8-0.4-1.3c-0.4,0.1-0.8,0.3-1.1,0.4c0.1,0.4,0.2,0.8,0.4,1.2
		C141.4,208.8,141.8,208.7,142.2,208.5"/>
	<path class="st0" d="M718.8,26.7C723,27.3,716.3,26.4,718.8,26.7"/>
	<path class="st0" d="M172.9,255.1c1-0.5,1-1.5,0.4-2.9c-1.1,0.4-0.3,2-1.9,2C171.7,254.9,172.7,254.3,172.9,255.1"/>
	<path class="st0" d="M152,270.4c-0.3-0.7-0.2-1.2,0.2-1.4c-1.2-1.3-2.3-0.4-3.6,0.5C149.3,270.6,150.6,270.7,152,270.4"/>
	<path class="st0" d="M806.6,51.9c-0.8-0.8-1.4-1.7-2.8-1.1C804,52.5,805.4,52,806.6,51.9"/>
	<path class="st0" d="M128.1,284c-0.9,0.8,0.2,1.2,0.5,1.9c1.1-0.3,1-1.2,2.1-1.4C130.7,282.7,128.1,285.9,128.1,284"/>
	<path class="st0" d="M105.2,312.4c-0.8-2-5.6-0.1-3.7,2.6C103.4,316.1,104.1,313.4,105.2,312.4"/>
	<path class="st0" d="M130.9,309.9c-1.3-1.4-2.2,1.8-3.1,2.4c0.2,1.5,1.9,0.1,2.3,1.3C131.1,312.8,129.6,310.5,130.9,309.9"/>
	<path class="st0" d="M85.1,332.9c-0.5-1.1-1.4-1.1-2.7-0.5c0.3,0.7,0.2,1.2-0.2,1.4C83.1,335.8,85.1,334.3,85.1,332.9"/>
	<path class="st0" d="M92.9,339.3L92.9,339.3c-1.2,0.4-2.5,0.4-3.9,0.4c-2.1,0-4.3,0.1-6.3,1.6c-4,1.1-8,2.6-12.7,3
		c-4.2,0.3-9.9-1.9-13,3c3.3,3.3,8.8-0.2,13.1-0.3c3.6-0.1,6.3,1.4,9.1,1c1.1-0.3-0.2,2.6,1.4,2.9c3.2-1.5,2.9-5,3.2-8.2
		c1.5-1.1,3.2-1.1,5.1-1.1c1.4,0,2.9,0,4.3-0.5c0,0,0,0,0,0c0.5-0.2,0.7-0.7,0.6-1.2C93.8,339.4,93.3,339.1,92.9,339.3"/>
	<path class="st0" d="M119.4,331.6c0.1,1.9,1.5,0.9,1.9,2.1c1.1-1.3,1.8-2.8,1.1-5.2C121.2,329.5,119.3,330,119.4,331.6"/>
	<path class="st0" d="M99.2,349.4c0.2,3.9,2.7,2.9,3.5,5.7c2.1-1.1,6-3.8,3.8-8.8C104.1,347.4,100.4,347.7,99.2,349.4"/>
	<path class="st0" d="M142.4,348.5c2.2-1.4,0.8-4.8,4.1-5.5c-1.3-0.4-1.9-2-3.2-2.3c-1.3,1.9-3.6,3.2-5.6,4.7
		C139,346.9,141.3,346.5,142.4,348.5"/>
	<path class="st0" d="M853.7,121.1c0.7-0.8,0.8-2,0.3-3.5c-0.9-0.7-2.6,0.1-3-1.7C848.7,117.9,853,119.1,853.7,121.1"/>
	<path class="st0" d="M61,406.4c2.8-1.1,2.4-1.1,4.4-2.2C64.4,402.7,60.2,403.9,61,406.4"/>
	<path class="st0" d="M938.5,110.9c-0.2-1.1-4.1,0-2.7,1.6C937.2,112.2,938,111.6,938.5,110.9"/>
	<path class="st0" d="M2.5,433.7c1.6-1,2.3-2.6,1.8-4.7C-0.1,429.8-1.8,432.8,2.5,433.7"/>
	<path class="st0" d="M131.2,407.3c1.3-0.6-0.4-2.9-0.9-3.1c-1,0.5-1,1.5-0.5,2.9C130.5,406.7,130.9,406.8,131.2,407.3"/>
	<path class="st0" d="M919.2,163.4c-1.3,0.6,0.4,2.9,0.9,3.1C920.7,165.2,919.8,164.5,919.2,163.4"/>
	<path class="st0" d="M891.4,196.9c-1.2,0.1,0,3.1,1.1,1.7c-0.1-0.4-0.2-0.8-0.4-1.3C891.7,197.6,891.6,197.2,891.4,196.9"/>
	<path class="st0" d="M910.5,222c-1.4,1.2,0.9,2.6,1.1,3.8C912.7,225,911.1,222.3,910.5,222"/>
	<path class="st0" d="M906.5,223.3c-1.6,0.4-2.2,1.5-2.7,2.7c-0.3-0.8-0.7-1.4-1.1-1.8c-1.7-0.2-1.2,2.1-1.7,3.3
		c0.7,0,1.1,0.5,1.4,0.9c-0.5,0.5-1.3,0.7-2.6,0.5c3.4,5.2,6.4,11.3,10.9,14.2c3.2-0.4,3.5-1.2,6.9-2.3c-0.2-1.1-0.5-2-0.8-3
		c1.1,1.7,3.1,2,4.2-0.3c-0.6-3.2-2.3-2.9-5-2.4c0,0.3,0.1,0.5,0.1,0.8C913.9,229.9,910.2,226.5,906.5,223.3"/>
	<path class="st0" d="M111.9,497.6c0.4,1.1,1.4,1.1,2.7,0.5C114.1,497,113.1,497,111.9,497.6"/>
	<path class="st0" d="M926.9,231c0,0,0-0.1,0-0.1c-1-1.7-2-3.4-2.4-5.3c-0.1-0.6-0.6-0.9-1.1-0.8c-0.6,0.2-0.8,0.7-0.7,1.2
		c0.4,2.1,1.5,4,2.5,5.8c0,2.6,3.3,5.6,3.6,10.1c3.8-3,5,3.7,7.2,1C934.3,238.4,930.7,233.9,926.9,231"/>
	<path class="st0" d="M109,505.4c0.1,0.4,0.2,0.8,0.3,1.3c0.4-0.1,0.8-0.3,1.1-0.4c-0.1-0.4-0.2-0.8-0.3-1.3
		C109.8,505.2,109.4,505.3,109,505.4"/>
	<path class="st0" d="M172.7,485.2c-0.9,0.7,0.9,4.1,2.6,2.6C175.2,485.2,173.5,486.2,172.7,485.2"/>
	<path class="st0" d="M932.1,260.7c-2.1,3.4-0.5,11.6,3.3,11.9c1.1,0.1,1.5-3,3.3-1.8C937.5,265.3,935.3,261.9,932.1,260.7"/>
	<path class="st0" d="M186.1,523.9c0.5,1.6,1.5,2.1,3,1.7c0.3-0.7,0.2-1.6-0.1-2.7C187.5,523.4,186.8,522.4,186.1,523.9"/>
	<path class="st0" d="M984.8,266.8c-1.4,4.2,2.1,10.1,4.3,13C991.4,277,990.8,265.2,984.8,266.8"/>
	<path class="st0" d="M128.1,560c0.3-0.9,2.1-0.9,1.2-2.5C127.7,557.7,127.3,558.5,128.1,560"/>
	<path class="st0" d="M139.2,565.9c0.5-0.3,0.6,0.1,0.8,0.4c0.4-0.1,0.8-0.3,1.1-0.4c-0.2-0.5,0.1-0.7,0.4-0.8
		c-0.1-0.4-0.2-0.8-0.4-1.2c-0.5,0.3-0.6-0.1-0.8-0.4c-0.4,0.1-0.8,0.3-1.1,0.4c0.3,0.5-0.1,0.7-0.4,0.8
		C139,565.1,139.1,565.5,139.2,565.9"/>
	<path class="st0" d="M985.6,283c0.4,0.4,0.9,0.8,1.1,1.7c1-0.5,1-1.5,0.4-2.9C986.2,281.9,986.4,282.7,985.6,283"/>
	<path class="st0" d="M160.5,567.6C162.9,569.3,161.9,565,160.5,567.6"/>
	<path class="st0" d="M252.1,548.2c-2.3,1.4,2.5,5.9,3.5,3.6C255.2,549.2,253.5,549,252.1,548.2"/>
	<path class="st0" d="M138,595.2c-0.1,2.2,1.3,1.2,1.9,2.1C141.2,596.4,139.3,594,138,595.2"/>
	<path class="st0" d="M271.9,593.7c-0.4,0.3-0.4,0.8-1,1c0.1,0.4,0.2,0.8,0.4,1.3c1-0.4,1.4,0.4,2.5-0.2
		C273.8,593.6,272.4,594.6,271.9,593.7"/>
	<path class="st0" d="M1038.7,337.1c-0.7,0.1-1,0.5-1,1c-1.2,2.2-0.1,5.7,0.4,8.1c0.8,3.6,2.5,7.1,3,10.7c0.6,4.3,1.6,10.6,4.4,15.7
		c1.2-0.4,2.3-0.8,3.5-1.2C1045.1,359.5,1042.3,350.2,1038.7,337.1"/>
	<path class="st0" d="M193.7,625c-0.1-1.3-2.9,0-1.6,1.2c0.4-0.1,0.8-0.3,1.2-0.4C193,625.4,193.3,625.2,193.7,625"/>
	<path class="st0" d="M159.2,636.7c0.5,0.7,1.1,1.1,2.1,0.7C161.1,636,160.1,636.5,159.2,636.7"/>
	<path class="st0" d="M994.6,359.6c1.4-1.3,1.2-3.2-0.1-4.8C991.4,355.4,992.9,359.1,994.6,359.6"/>
	<path class="st0" d="M261.3,616.5c0.7,1.2,1.8,1.6,2.6,2.5C264.9,618.1,262.7,615.6,261.3,616.5"/>
	<path class="st0" d="M1053.9,386.9c-1.3,0.3,0.4,2.3,0.3,3.3C1055.7,389.7,1054.9,387.4,1053.9,386.9"/>
	<path class="st0" d="M222,739c-0.6,0.5-1,1.2-0.6,2.3c0.5-0.3,0.6,0.1,0.8,0.4c0.4-0.5,0.7-1,1.5-1.2
		C223.1,740,222.1,740.3,222,739"/>
	<path class="st0" d="M237.1,750.4c1.5,2.9,3.2,2.2,5.9,0.8C241.9,747.5,237.9,746.7,237.1,750.4"/>
	<path class="st0" d="M253.9,747.4c-0.8-1.6-3.1-0.2-4.6-0.5C250.1,749.5,252.4,749,253.9,747.4"/>
	<path class="st0" d="M247.8,750.2c-2.5,2.1,1.8,5.8,4.7,3.2C252.2,749.8,248.9,752.3,247.8,750.2"/>
	<path class="st0" d="M242.7,756.7c-1.4,0.7,0.6,2.4,1.7,1.5C244.3,756.7,243,757.7,242.7,756.7"/>
	<path class="st0" d="M257.3,752.5c-1,1.9,1.6,4.6,2.7,5.3c1.8-0.4,0.6-2.4,0.8-3.7C259.2,754.4,258.7,752.6,257.3,752.5"/>
	<path class="st0" d="M254.5,771.9c4-1.4,3.4-5.4,6.8-7.1c-1.2-0.9-2.8-0.8-3.7-2.2C256.5,765.7,251.3,768.1,254.5,771.9"/>
	<path class="st0" d="M269.2,763.5L269.2,763.5c-0.3-0.2-0.7-0.5-1-0.7c-0.4-0.3-1-0.1-1.3,0.4c-0.3,0.5-0.1,1.1,0.3,1.4
		c0.4,0.2,0.7,0.5,1,0.7l0.4,0.3c0,0,0,0,0.1,0l-0.1,0.2c1.5,3.4,5.1,7,8.1,4.1C274.8,766.4,271.8,765.4,269.2,763.5"/>
	<path class="st0" d="M272.3,776.9c0.9-2.1,0.2-4.4-1.6-5.6c-2.6,0.5-1.8,2.8-4.1,3.4C267.6,777.4,269.9,777.3,272.3,776.9"/>
	<path class="st0" d="M276.8,779.5c-0.1-1.4-0.9-1.5-1.3-2.3C273.9,777.9,275,780.6,276.8,779.5"/>
	<path class="st0" d="M282.5,788.5c0.9-2.9-1.8-5-3.1-6.5c-1.3,2.2-0.9,3.1-3.2,3.8c-1.3-0.3-2.6-0.5-3.3-1.5
		c-0.3-0.4-0.9-0.5-1.3-0.1c-0.4,0.3-0.5,1-0.1,1.4c1.2,1.6,3,1.9,4.5,2.2l0.1,0l-0.1,0.1C277.6,789.5,279.9,789.3,282.5,788.5"/>
	<path class="st0" d="M292.7,800.2c-2.2-2.3-4.6-4.5-8.1-4.1C286.3,799.6,288.3,802.3,292.7,800.2"/>
	<path class="st0" d="M353.4,827.7c-1.8-2.7-7.1-2.4-7.1,1.7C348.3,831.2,352,829.8,353.4,827.7"/>
	<path class="st0" d="M315.3,844.7c-0.1-2.1-1.2-2.1-1.6-3.6C311.4,841.4,313.6,846.4,315.3,844.7"/>
	<path class="st0" d="M318.9,846.2c0.2,2.5,1.7,2.5,3.6,1.5C322,845.8,320.4,846.1,318.9,846.2"/>
	<path class="st0" d="M333.3,848.2c-0.1,1.7,0.2,1.4,0.5,4c1.7-0.6,1.5-2.3,2.9-3.1C335.9,848.2,335.1,847.3,333.3,848.2"/>
	<path class="st0" d="M309.9,858.9c0.3,2.1,1.3,2.6,3,1.7C312.4,859.1,311.4,858.5,309.9,858.9"/>
	<path class="st0" d="M384.3,848.1c-0.6-3.1-1.9-4.8-4.3-4C381.3,845.8,381.8,849,384.3,848.1"/>
	<path class="st0" d="M373.9,848.9c-4.2,2.3-8.1-0.6-10,2.7c1.9,1.6,4,3.1,6.6,3.3c4.3,7.2,13,5.6,20.2,6.9c1.9,0.7,3.4,2.2,5.3,3
		c4.6-1.2,9.9,3.9,12.6-2.2c-8.1-6-20.4-3.4-27.7-11.2C376.5,853.6,374.5,851.9,373.9,848.9"/>
	<path class="st0" d="M350.8,858.8c0.8,0.4,0.8,2.3,2.3,1.3C352.8,858.7,352,858.2,350.8,858.8"/>
	<path class="st0" d="M360.3,865.8c0.1,0.4,0.2,0.8,0.4,1.2c0.4-0.1,0.8-0.3,1.2-0.4c-0.1-0.4-0.2-0.8-0.3-1.3
		C361.1,865.6,360.7,865.7,360.3,865.8"/>
	<path class="st0" d="M369.6,867.5c-2-0.1-1.6,0.2-2.7,1.6c0.5,1.6,1.5,2.1,3,1.7C369.3,869.4,370.6,869.1,369.6,867.5"/>
	<path class="st0" d="M376.8,870.6C379.2,872.3,378.2,868,376.8,870.6"/>
	<path class="st0" d="M372.7,876.1c2.1-0.2,2.2-1.5,3.1-2.4c-1.2-0.5-2.1-1.6-4-0.7C372.1,874,372.4,875,372.7,876.1"/>
	<path class="st0" d="M408.1,883.3c-3.2-9.2-10.8-9.5-16-14.5c-0.6,0.2-1.1,0.4-1.7,0.6c-0.2,7.6,3.3,10,7.1,14.1
		C401.7,883.6,404.1,882,408.1,883.3"/>
	<path class="st0" d="M383.8,887.6c-0.1,0-0.2-0.1-0.4-0.3c-0.3-1.3-1.3-1-1.4-2.5c0.1-0.1,0.2-0.2,0.3-0.3c0.2-0.1,0.3-0.4,0.2-0.6
		c-0.1-0.2-0.3-0.3-0.5-0.2c-0.3,0.2-0.6,0.4-0.8,0.8l0-0.4c-4-1-8.5-0.9-10.9-5.2c-1.8,0.8-2.7-0.3-4.8,0.9
		c3.6,7.1,10.8,6.8,16.9,8.7v-0.1c0.3,0.2,0.6,0.5,0.8,0.6c0.1,0,0.3,0.1,0.4,0c0.2-0.1,0.4-0.2,0.4-0.5
		C384.3,888.2,384.2,887.7,383.8,887.6"/>
	<path class="st0" d="M408,871.6c1.3,4,3.6,5.9,6.3,6.8c1.9-2.1,3.9-4.1,6.6-5.7C421.3,866,409.6,865.8,408,871.6"/>
	<path class="st0" d="M386.5,889.3c1.5,3.1,5,3.1,7.8,0.8C392.5,887.9,388.8,887.1,386.5,889.3"/>
	<path class="st0" d="M401.1,889.8c1.3,4.9,5.3,4.3,8.4,5.4c1.9-1.2,1.5-3.7,0.7-6.4C406.8,890.3,404,886.2,401.1,889.8"/>
	<path class="st0" d="M919.5,718.1c1,2.7,3.3,0.6,4.2-0.7C922.8,715.5,919.8,716,919.5,718.1"/>
	<path class="st0" d="M447,891.4c1,0.8,2.6,2.6,3.4,0.9C449.5,891.4,448.7,890.5,447,891.4"/>
	<path class="st0" d="M473.8,899.5c0.8,4.4,4.9,3,5.7,0.1C478.6,897.4,476,898.8,473.8,899.5"/>
	<path class="st0" d="M493.8,896.8c1.5,2.1,6.5,3.5,7.6,0.2C499.5,894.5,495.1,892.4,493.8,896.8"/>
	<path class="st0" d="M713.5,25.8c0.5-0.3,0.6,0,0.8,0.4c1.6-1.4-1.2-1.7-1.3-0.2C713.2,26.7,713.6,26.1,713.5,25.8"/>
	<path class="st0" d="M729,29.5c0.9,1.2,2.9-0.1,3.6,1.5c0.5,0,0.5-0.4,0.4-0.8c-0.1-0.4-0.2-0.8-0.4-1.3c-0.5,0.1-0.5,0.4-0.4,0.8
		C730.9,29.9,729.9,27.5,729,29.5"/>
	<path class="st0" d="M111.5,249.8c0.2-1.6-1.2-3.2-0.4-6c-3.3-0.2-5.1,3.7-4.9,7.2C107.6,252.3,111.2,249,111.5,249.8"/>
	<path class="st0" d="M148.1,231.9C145.7,233.8,148.2,235.3,148.1,231.9"/>
	<path class="st0" d="M117.8,301.3c7.6-0.4,9.4-9.8,17-9.2c-0.4-1.3-2.9-3.2-2.2-3.4c-4.7,0.8-12.4,4.1-17.3,7.9
		C115.7,299.8,118.5,298.1,117.8,301.3"/>
	<path class="st0" d="M185,612.2c-0.6,2.8-2.6,4.8-0.6,9.1l0.1-0.1c-0.1,0.3-0.1,0.7-0.1,1c0,0.3,0.3,0.5,0.5,0.5c0,0,0.1,0,0.1,0
		c0.2-0.1,0.4-0.3,0.4-0.6c0-0.2,0-0.5,0.1-0.8l0.2,0.3c1.5-1.4-0.2-4.7,1.5-6C187,613.5,185.1,614.7,185,612.2"/>
	<path class="st0" d="M322.7,818.4c0-0.2,0-0.3-0.1-0.4c-0.2-0.2-0.5-0.5-0.8-0.7c-0.8-0.6-1.4-1.1-1.5-2c0-0.2-0.2-0.4-0.4-0.4
		c-0.2,0-0.4,0.2-0.3,0.4c0.1,1.4,1,2,1.8,2.6c0.2,0.1,0.4,0.3,0.5,0.4l-0.1,0c-3.3,0.4-4.7-2.9-7.7-2.9c-1.6,0.3-2.4,1.1-1.8,2.7
		c-13-4.1-22.5-15.7-34.5-21.9c-2-3.3-5.7-6.8-9.3-3.7c3.1,7.1,8.4,9.8,13.6,12.6c5.4,6.2,11.2,14.9,19.7,11.8
		c5.7,5.5,12.6,8.4,17.9,14.5c2.5-2.4,9.2-2.4,8.9-6.4C327.4,821.4,324.6,820.9,322.7,818.4"/>
	<path class="st0" d="M845.4,138.3c0.4,1.3,0.7,2.5,1.1,3.8c1.5-0.9,1.5-2.7,3.5-3.2C848.7,138,847.6,137,845.4,138.3"/>
	<path class="st0" d="M1019.6,287.3c-0.3-2-2.4-0.4-3-1.7c1-4.8-1.2-9.8-3.5-14.6c-1.8-0.7-2.1,1.3-4.2,0.7c-2.1-1-3.2-4-4-7.6
		c-0.4-1.6,1.6-1.9,3.1-2.4c-3.3-9.1-8.2-11.6-14-13.8c-1-1.8-0.1-2.5-0.5-4c-2.5-3.1-4.6-7-7.2-9.9c-2-0.4-4-1.1-4.9-3.8
		c-0.2-2.2,1.1-3.5,3.1-4.5c-1.1,0-0.8-3-2-2.7c-0.6-2.7-0.9,0.3-1.7,0.6c-3.4-1-6.3-2.9-8.6-6c-0.7,0.4-0.2,1.4,0.4,1.3
		c0.4,1.8-2,2-3.6,2.6c-0.2-0.2-0.4-0.5-0.7-0.7c-1.8-2.1-3.6-4-4.2-6.8c0-0.1-0.1-0.1-0.2-0.2l0.2-0.2c0-0.5,0.4-0.8,0.2-1.4
		c2-0.8,2.5,1.5,4.2,1.3l0.1,0c0.3,0.9,0.6,1.8,1.1,2.9c0.2,0.4,0.6,0.6,1,0.4c0.1,0,0.1,0,0.2-0.1c0.4-0.2,0.6-0.8,0.3-1.3
		c-0.5-0.9-0.8-1.7-1-2.6h0c1-2.3-1.5-3.4-2.2-5.4c-1.4-1.5-2,1.9-3.1,0.3c-2-3.8,4-3,4.1-5.5c-1.3-4.2-3.5-6.7-6.5-7.4
		c1.8-3.4-4.4-3.8-1.6-5.6c-5.5-5.5-9.6-13.9-15.4-18.8c-2,0.8-1.6,3-3.3,3.9c2.2-8.2-3.1-15.8-9.1-18.9
		c-2.8-9.4-8.5-12.9-14.1-16.5c-1.7-5.8-6.9-12.7-11-16.9c-0.3-1.4,2.4-1.1,3.3-1.8l-0.1-0.2l0.1,0c0.4,0,0.8,0,1,0
		c0.1,0,0.1,0,0.2,0c0.3-0.1,0.6-0.5,0.6-0.9c0-0.5-0.4-0.8-0.8-0.8c-0.2,0-0.5,0-0.9,0l-0.1,0l0.1-0.2c-2.9-0.6-5.5-1.9-8.7-1.9
		c-4.8-7.3-10.5-12.6-15.2-20.3c-11.3-6.5-18.1-19.8-29.3-25.8c-0.7-0.4-1.7,0.4-2.5,0.2c-3.8-1.3-7.5-4.3-11.1-5.8
		c-3.9-1.7-7.3-2.4-11.7-3.6c-3.4-0.9-6.3-3.3-10-3.3l-0.7-0.4c-0.3-0.2-0.6,0-0.8,0.3c-0.2,0.3,0,0.7,0.2,0.8l0.9,0.5l-0.3,0.2
		c0.7,2.2,4,2.2,3.1,4.4c-2.1-0.6-3.5-2.6-5.4-3.7c-4.8,0.7-8.2-1.6-11.6-3.7c-1.3-1.2-3-1.9-4.4-2.9c-0.2,0.1-0.5,0.2-0.6,0.3
		c-0.7-0.2-1.4-0.5-2.2-0.6c-1.7-0.6-3.3-1.7-4.2-2.6c-0.1,0-0.1-0.1-0.2-0.1c-2.8-4.1-6.2-7-11.4-6l0,0.1c-0.3-0.2-0.6-0.4-0.8-0.6
		c-0.3-0.2-0.5-0.4-0.6-0.5l-0.2-0.1l-0.8,0.1c-0.4,0-0.6,0.4-0.6,0.8c0,0.4,0.4,0.7,0.8,0.6l0.3,0c0.1,0.1,0.2,0.2,0.3,0.2
		c0.3,0.2,0.6,0.5,1,0.8l-0.2,0.2c1.4,2.1,4.9,1.6,5.8,2.8c0.5,0.7-0.3,1.9-0.8,1.6c2,1.3,3.1,1.6,6.1,1.4l0.1-0.1
		c0,0.1,0,0.2,0.1,0.2c1.1,0.9,2.7,2.2,4.6,2.9l-0.1,0.2c0.5,0.6,1,1.2,1.6,1.7c-0.1,0.8-0.1,1.6-0.1,2.5c0.4-0.1,0.7,0,1.1,0
		c-0.9,1.9-2.7,3.3-6,3.8c0.9,2.8,3,3,4.1,5.5c0.2,1.4-1.8-0.4-2.1,1.4l-0.2,0.2c0,0,0-0.1-0.1-0.1l-0.1-0.1c-0.2-0.1-0.5-0.3-1-0.3
		c-0.5-0.7-1.1-1.3-1.8-1.8c-2.2,1.4-4.4,2.8-7.2,3.5c-2,6.3,8.3,9.8,11.2,4.7c0-0.7-0.1-1.2-0.2-1.8c1.8,2.5,4.5,3,7.7,2.6
		c-0.1-0.5-0.3-1-0.4-1.4c2.2,2.5,4.7,4.7,6.3,7.7c0.3,0,0.7,0,1,0c-0.2,0.1-0.3,0.3-0.3,0.6c0,0.4,0.3,0.7,0.6,0.7
		c0.4,0,0.8,0.4,1.3,1.1c0.6,0.8,1.4,1.8,2.7,1.7c0.1,0,0.1,0,0.2,0c0.3-0.1,0.5-0.4,0.4-0.7c0-0.4-0.3-0.7-0.7-0.7
		c-0.6,0-1.1-0.4-1.6-1.2c-0.5-0.6-1.1-1.3-1.9-1.5c1.2-4.2,0.8-7-0.2-9.6c4.5,1,8.9,2.1,13.3,3.2c1.4-1,2.8-1.4,4.2-1.5
		c1.3,1.1,2.3,2.4,2.8,4.5c1.8-0.2,2.4,1,4.5,0.5c-0.2-1-0.5-1.9-0.8-2.7c2.4,1.7,4.7,4,6.9,6.1c-0.3,0.1-0.7,0.1-1.1,0.2
		c-0.6,3,1.9,2.4,3.5,2.9c0.3,0.2,0.6,0.6,0.9,1.1l0.7-0.4l0.1-0.1c2.1,1.6,4.9,3.7,7.5,5.8c4.3,3.4,7.1,6.8,11.6,9.8
		c2.9,5.7,8.5,9.3,12.6,13.6c12.4,12.7,23.3,28.1,36.2,41.3c0.5,3,2.3,3.2,2.9,5.9c1.2-0.1,1.1,2.3,2.8,1.1
		c5.8,9.9,14.1,14.5,18.8,26.6c8.4,4.9,13.5,16.5,20.7,23.8c0.8,3.1,2.7,5.2,4.5,7.3c0.2,0.3,0.5,0.5,0.7,0.8
		c2,11.5,9.9,11.9,14.4,19.7c1.3,2.3,0.4,5.1,3.1,7c0.1,0.1,0.2,0.3,0.3,0.4c0.6,0.8,1,1.4,1.1,2.1c-1.5,1.9,0.4,2.6,1.3,4.3
		c1.6,12.1,9.7,20.6,13.8,31c0.8,2,0.9,4.4,1.8,6.3c1.1,2.5,3.4,4.4,4.4,6.7c1.8,4.1,1.9,8.5,2.9,12.7c2.9,12.3,5.4,24.4,9.9,35.1
		c0.7,1.8-0.8,2.4-0.1,4.2c3.5,3.5,0.6,7.9,0.7,11.4c0,1,1,3,1.2,4.4c0.3,1.8-0.7,3.7-0.5,5c0.8,4.9,3.5,9.6,2.9,14.8l0.1,0
		c0,0.3,0,0.7,0.1,1l0,0.5c0,0.2,0.1,0.3,0.1,0.4c0.9,7.6,1.7,15.3-0.8,21c1.4,3.9,1.6,4.7,2.5,8.8l0.1,0c0,0.5-0.1,1-0.4,1.5
		c-0.4,1-0.7,2.2-0.2,3.5c-1.3,1.3,0,4.2,0.6,6.6c2.4-1.1,3-5.4,1.1-7.2l0,0c-0.3-0.6-0.2-1.2,0.2-2.2c0.2-0.7,0.5-1.4,0.5-2.3
		c0.2-1.4,1.7-2.5,2-4c0.4-1.7,0.6-5.9,0.4-7.7c-0.1-0.8-1.4-2.1-1.5-2.9c-0.2-4.8,1.4-9.6,0.3-14.5c-0.1-2.5-2.7,0.4-3-1.7
		l-0.1,0.1c0-0.2,0-0.5,0-0.7c1.7-0.6,1.8-2.1,2.9-3c-1.7-4.4,1.8-7.6-0.5-10.8c2.4-6.2,0.6-14.8-2.6-20.4c-1-3.2,1.6-5.4-1-7.9
		c0.6-2.5,2.1-4.4,1.7-7.4c-2.9,2-4.8-5.3-3.1-6.5c2.9-1,4,1.7,5,4.5c2-0.4,1.2-2.5,2.2-3.5c2.3-1.7,3.2,2.2,4.4-0.1
		c-2.2-8.7-6.7-26.8-13.5-34.6C1022.8,294.4,1021.7,290.7,1019.6,287.3 M950.6,183c1.1,1.6,3.1,1.5,3.7,4.2
		C951.8,189,949.6,185.1,950.6,183 M991.2,253.7c-1.1-0.5-2.1-1-3-1.7l-0.1,0.1c0-1.4-0.7-2.4-1.3-3.3c-0.1-0.1-0.2-0.3-0.3-0.4
		l0.1,0C989,244.7,993.6,251,991.2,253.7 M1016.8,304.1c-3-0.1-6.1-5.4-3.6-8.4c1.4,2.4,4.1,2,5.2,5.1
		C1017.7,301.8,1018.4,303.6,1016.8,304.1"/>
	<path class="st0" d="M230.1,732.1c-2.3,0.2-1.9,2.1-2.2,3.5c-1.1-0.4-1.8-1.6-3.4-0.9c-1,6,8,4.4,7.4-0.5
		C231.9,732.4,230.5,733.4,230.1,732.1"/>
	<path class="st0" d="M127.2,252.8c0.1,0,0.2-0.1,0.2-0.1c0.4-0.3,0.7-0.7,1.1-1c2.2-0.8,5.8-1.2,7.8-3.3c1-1.1-0.3-4.3,2.2-3.5
		c-0.1-2.8-1.8-2.1-2.3-3.9c0.3-0.7,0.5-1.2,0.6-1.8c0.1-0.1,0.2-0.1,0.3-0.2c0,0,0,0,0,0c0.2,0.1,0.4,0.2,0.6,0.1
		c0.2,0,0.3,0,0.5-0.1c0.4,0,0.8-0.1,1.2-0.3c0.8-0.3,1.6-0.8,1.8-2.1c0.1-0.6-0.3-1.1-0.8-1.2c-0.5-0.1-1,0.3-1.1,0.9
		c-0.1,0.4-0.2,0.5-1.3,0.6c-0.1,0-0.2,0-0.3,0.1c-0.1-0.1-0.1-0.2-0.2-0.4c-0.2-0.3-0.5-0.5-0.9-0.3c-0.3,0.2-0.5,0.6-0.3,0.9
		c0.1,0.2,0.2,0.4,0.3,0.6c0,0.1,0,0.2,0,0.3c0,0,0,0,0,0c-0.2,0.1-0.4,0.3-0.6,0.4l-0.2,0.2l0,0.3c0,0.5-0.1,0.9-0.4,1.5
		c-0.1-1-0.8-0.9-1.1-1.7c-1.3,1.9-4.3,5.3-1.3,6.6c-2.3-0.3-5.1,1.5-5.6,4.7l0.1,0c-0.3,0.4-0.7,0.7-1,1c-0.4,0.3-0.5,0.9-0.3,1.4
		C126.4,252.8,126.8,252.9,127.2,252.8"/>
	<path class="st0" d="M821.6,88.4c-0.3,0.1-0.5,0.4-0.4,0.7c0.1,0.3,0.4,0.6,0.7,0.5c0.6-0.1,1.1,0.5,1.6,1.3l-0.2,0
		c3.4,4.2,6.8,8.4,11.2,10.6l0-0.1c0.2,0.2,0.4,0.3,0.6,0.5c0.5,0.4,1,0.8,1.5,1.2c0.2,0.1,0.4,0.1,0.6,0.1c0.2-0.1,0.3-0.2,0.4-0.4
		c0.2-0.4,0.1-0.9-0.3-1.1c-0.4-0.3-0.9-0.6-1.3-1c-0.3-0.2-0.6-0.5-0.8-0.7l0.1-0.1c-2.8-5.1-5.8-9.7-11-10
		C823.6,89,822.8,88.1,821.6,88.4"/>
	<path class="st0" d="M823.8,113.3c1.5,0.3,1.1-0.4,2.8-0.3c0.2,0.1,0.5,0.3,0.6,0.4c0.2,0.2,0.5,0.2,0.7,0.1
		c0.1-0.1,0.3-0.2,0.4-0.3c0.3-0.4,0.2-0.9-0.2-1.2c-0.4-0.3-0.9-0.6-1.4-0.8l0.2-0.3c-0.8-0.4-0.8-2.3-2.3-1.3l0,0
		c-0.3-0.2-0.5-0.5-0.8-0.8c-0.5-0.6-1.1-1.3-2-1.7c-0.4-0.2-0.8,0-1,0.4c-0.2,0.4,0,0.9,0.4,1.1c0.6,0.3,1,0.8,1.5,1.3
		c0.4,0.4,0.8,0.8,1.3,1.2l-0.3,0.1C823.2,111.6,823.7,112.6,823.8,113.3"/>
	<path class="st0" d="M849.8,142.3c0.3,0.1,0.6,0.1,1,0.2c0.7,0.1,1.4,0.2,2,0.5c0.1,0,0.1,0,0.2,0c2.1,0.7,3.4,3.1,6.3,2.3
		c-0.8-2-2.4-2.2-2.7-5.3c-2-0.3-2.7,0.6-3.9,2l0.1,0.2c-0.6-0.2-1.3-0.3-1.9-0.5c-0.3,0-0.6-0.1-0.9-0.2c-0.2,0-0.4,0.1-0.4,0.3
		C849.4,142.1,849.6,142.3,849.8,142.3"/>
	<path class="st0" d="M884.6,177.2c-0.5-0.9-1-1.9-1.8-2.6c-0.4-0.4-0.9-0.3-1.3,0.1c-0.3,0.4-0.3,1,0.1,1.4c0.6,0.6,1,1.3,1.4,2.2
		c0.6,1.1,1.2,2.3,2.3,3.2c0.2,0.2,0.5,0.2,0.8,0.1c0.2-0.1,0.3-0.2,0.5-0.4c0.3-0.4,0.2-1.1-0.2-1.4
		C885.6,179.1,885.1,178.2,884.6,177.2"/>
	<path class="st0" d="M947.3,205.3c0.2,0.5,0.7,0.6,1.2,0.5c0.1,0,0.2-0.1,0.2-0.1c0.5-0.3,0.6-1,0.3-1.6c-0.4-0.8-1-1.5-1.5-2.2
		c-0.7-0.9-1.4-1.7-1.7-2.7c-0.2-0.6-0.8-0.9-1.3-0.6c-0.5,0.2-0.8,0.9-0.6,1.4c0.5,1.4,1.3,2.4,2.1,3.4
		C946.5,204.1,946.9,204.7,947.3,205.3"/>
	<path class="st0" d="M968.8,236.1c0,0.3,0.3,0.5,0.6,0.4c0,0,0,0,0.1,0c0.2-0.1,0.4-0.3,0.3-0.6c-0.1-0.9-0.7-1.5-1.1-2
		c-0.3-0.3-0.5-0.6-0.7-1c-0.1-0.3-0.4-0.4-0.7-0.2c-0.2,0.1-0.3,0.5-0.2,0.7c0.2,0.5,0.5,0.8,0.8,1.2
		C968.3,235.1,968.7,235.6,968.8,236.1"/>
	<path class="st0" d="M977.9,250c-0.3-1.1-0.7-2.4-1.5-3.5c-0.4-0.5-1.1-0.6-1.6-0.2c-0.5,0.4-0.6,1.2-0.2,1.7
		c0.6,0.8,0.8,1.7,1.1,2.7c0.3,1.2,0.7,2.5,1.6,3.7c0.3,0.4,0.8,0.5,1.2,0.4c0.2-0.1,0.3-0.1,0.4-0.3c0.5-0.5,0.5-1.2,0.1-1.7
		C978.5,252,978.2,251.1,977.9,250"/>
	<path class="st0" d="M937.9,274.4c0.1,0.5,0.5,0.8,0.9,0.7c0.2,0,0.3-0.1,0.5-0.1c0.2-0.1,0.5-0.1,0.6-0.1c0.2,0.1,0.4,0.1,0.5,0
		c0.2-0.1,0.4-0.3,0.5-0.5c0.2-0.4,0-0.9-0.4-1.1c-0.6-0.2-1.1-0.1-1.6,0c-0.1,0-0.3,0.1-0.4,0.1
		C938.2,273.4,937.9,273.9,937.9,274.4"/>
	<path class="st0" d="M977.2,287.8c-0.2,0.1-0.3,0.4-0.3,0.6c0.4,1.2,1.1,2.3,1.7,3.4c0.5,0.9,0.9,1.7,1.3,2.5
		c0.1,0.2,0.3,0.3,0.5,0.3c0,0,0,0,0.1,0c0.2-0.1,0.3-0.4,0.2-0.6c-0.4-0.9-0.9-1.8-1.3-2.6c-0.6-1-1.2-2.1-1.6-3.3
		C977.6,287.8,977.4,287.7,977.2,287.8"/>
	<path class="st0" d="M994.6,293.3c0.1,0.4,0.2,0.9,0.3,1.3c0.1,0.3,0.4,0.5,0.7,0.5c0,0,0,0,0,0c0.3-0.1,0.5-0.4,0.4-0.8
		c-0.1-0.4-0.2-0.8-0.3-1.3c-0.6-2.7-1.2-5.6-3.5-7.5c-0.3-0.2-0.6-0.2-0.8,0.1c-0.2,0.3-0.1,0.7,0.1,0.9
		C993.5,288.2,994,290.7,994.6,293.3"/>
	<path class="st0" d="M144.6,589.2c0.1,0,0.2,0,0.3,0c0.1,0,0.2-0.1,0.3-0.3c0.1-0.3,0-0.5-0.3-0.6c-0.9-0.4-1.9-0.5-2.8-0.2
		c-0.2,0.1-0.4,0.3-0.3,0.6c0.1,0.3,0.3,0.4,0.6,0.3C143,588.8,143.8,588.9,144.6,589.2"/>
	<path class="st0" d="M271.1,627.2c-2.6-2-4-3.9-4.4-5.9c-0.1-0.7-0.8-1.1-1.4-1c-0.7,0.2-1,0.9-0.9,1.6c0.8,3.6,3.4,6,5.4,7.5
		c0.1,0,0.1,0.1,0.2,0.1c0.3,2,1.3,2.5,3,1.6C273.6,629.6,272.4,627.7,271.1,627.2"/>
	<path class="st0" d="M227.6,686.5c-0.1-0.1-0.2-0.1-0.2-0.2c-0.3-0.3-0.8-0.3-1.1,0.1c-0.3,0.4-0.3,0.9,0,1.2
		c0.1,0.1,0.2,0.2,0.3,0.3c0.3,0.3,0.6,0.5,0.9,1.1c0.2,0.4,0.6,0.5,0.9,0.4c0.1,0,0.1-0.1,0.2-0.1c0.4-0.2,0.5-0.8,0.3-1.2
		C228.5,687.2,228,686.8,227.6,686.5"/>
	<path class="st0" d="M1000.6,454.3c0.1,0.1,0.3,0.1,0.4,0c0.2-0.1,0.3-0.2,0.4-0.4c0.3-0.8,0.2-1.4,0.2-1.8c0-0.1,0-0.3,0-0.4
		c0-0.4-0.2-0.7-0.6-0.7c-0.3,0-0.6,0.3-0.6,0.6c0,0.2,0,0.3,0,0.5c0,0.4,0,0.8-0.1,1.3C1000.1,453.8,1000.3,454.1,1000.6,454.3"/>
	<path class="st0" d="M1008,458.4c-0.1,0.5-0.1,1-0.1,1.4c0,0.5,0,1-0.2,1.4c-0.2,0.3-0.1,0.6,0.1,0.8c0.1,0.1,0.3,0.1,0.4,0.1
		c0.1,0,0.2-0.1,0.3-0.2c0.4-0.7,0.4-1.4,0.4-2c0-0.4,0-0.7,0.1-1.1c0.1-0.3-0.1-0.6-0.3-0.7C1008.4,458,1008.1,458.1,1008,458.4"/>
	<path class="st0" d="M261.8,784.9c-0.3,0.4-0.2,0.9,0.1,1.2c0.7,0.6,1.2,1.4,1.5,2.4c0.1,0.5,0.6,0.7,1,0.6c0,0,0,0,0,0
		c0.4-0.1,0.6-0.6,0.5-1.1c-0.4-1.3-1-2.4-2-3.3C262.6,784.4,262.1,784.5,261.8,784.9"/>
	<path class="st0" d="M304.2,827.3c-0.3-0.3-0.8-0.6-1.2-0.8c-0.5-0.2-1.1,0-1.3,0.6c-0.2,0.5,0,1.2,0.5,1.4
		c0.3,0.2,0.8,0.5,1.2,0.9c0.1,0.1,0.1,0.1,0.2,0.1l-0.1,0.1c1.8,1.9,3.4,4.2,6.6,3.3C309.3,828.5,306.9,827.6,304.2,827.3"/>
	<path class="st0" d="M361.2,853.2c-1.3-1.9-4.1-9-4.9-12.8c-1.4,1.3-1.4,3.4-2.4,4.9c-1.3,0.7-1.6-0.7-3.1,0.3l-0.1,0.1
		c-2.1-1.3-4.5-2.1-6.7-2.8c-2.5-0.8-4.8-1.6-6.9-3c-0.5-0.3-1.1-0.2-1.4,0.4c-0.3,0.5-0.1,1.2,0.3,1.5c2.3,1.6,4.9,2.4,7.4,3.2
		c2.1,0.7,4.1,1.4,6,2.4l0,0C352.9,850.4,355.5,855,361.2,853.2"/>
	<path class="st0" d="M354.9,876.1c-0.4-0.1-0.8-0.4-1.2-0.8L353,876l-0.5,0.8c0.7,0.5,1.3,1,2,1.2l-0.1,0.2c1.6,1.7,3,0.7,4.9-0.3
		C359.1,874.7,356.6,876.1,354.9,876.1"/>
	<path class="st0" d="M463.9,896.5c-1.7,0.4-3.3-0.6-4.9-1.6c-0.7-0.4-1.4-0.9-2.2-1.2c-0.5-0.2-1.2,0-1.4,0.6
		c-0.2,0.6,0,1.3,0.6,1.5c0.6,0.3,1.3,0.7,2,1.1c1.8,1.1,4,2.4,6.4,1.8c0,0,0.1,0,0.1,0c0.5-0.2,0.8-0.8,0.7-1.3
		C465,896.7,464.5,896.3,463.9,896.5"/>
	<path class="st0" d="M339.2,65.5C339.2,65.4,339.3,65.4,339.2,65.5c0.5-0.2,1-0.5,1.4-0.8c0.8-0.5,1.4-0.9,2.4-0.9
		c0.3,0,0.6-0.2,0.6-0.6c0-0.3-0.2-0.6-0.5-0.6c-1.3-0.1-2.2,0.5-3,1c-0.4,0.2-0.8,0.5-1.2,0.7c-0.3,0.1-0.4,0.5-0.3,0.8
		C338.7,65.4,339,65.5,339.2,65.5"/>
	<path class="st0" d="M697.6,23.2c1.3,0.4,2.6,0.6,3.9,0.7c2.2,0.3,4.3,0.5,6.1,1.9c0.2,0.1,0.4,0.2,0.6,0.1c0.1,0,0.2-0.1,0.3-0.3
		c0.2-0.3,0.1-0.8-0.1-1c-2.1-1.6-4.5-1.9-6.7-2.2c-1.2-0.1-2.5-0.3-3.7-0.7c-0.3-0.1-0.7,0.1-0.8,0.5
		C697.1,22.7,697.3,23.1,697.6,23.2"/>
	<path class="st0" d="M735.2,30.8c0.6,0.2,1.2,0.2,1.8,0.3c0.7,0,1.4,0.1,2.1,0.4c0.1,0,0.2,0,0.3,0c0.1,0,0.2-0.1,0.2-0.2
		c0.1-0.2,0-0.5-0.2-0.6c-0.8-0.4-1.6-0.4-2.3-0.5c-0.6,0-1.1-0.1-1.7-0.3c-0.2-0.1-0.4,0.1-0.5,0.3C734.9,30.5,735,30.8,735.2,30.8
		"/>
	<path class="st0" d="M802.1,50.8C802.1,50.8,802.1,50.8,802.1,50.8c0.2-0.1,0.4-0.3,0.4-0.5c0-0.2-0.2-0.4-0.4-0.4
		c-0.1,0-0.2,0-0.4-0.3c-0.1-0.2-0.4-0.2-0.5,0c-0.2,0.1-0.2,0.4,0,0.6C801.2,50.4,801.5,50.8,802.1,50.8"/>
	<path class="st0" d="M845.4,131.9c0,0,0.1,0,0.1-0.1c0.3-0.2,0.5-0.7,0.3-1c-0.5-1-1.2-1.7-1.8-2.4c-0.8-0.9-1.7-1.7-1.9-3
		c-0.1-0.4-0.4-0.7-0.8-0.6c-0.4,0.1-0.6,0.5-0.6,0.9c0.3,1.7,1.3,2.7,2.3,3.8c0.6,0.7,1.2,1.3,1.6,2
		C844.8,131.8,845.1,132,845.4,131.9"/>
	<path class="st0" d="M914.1,213.2c-0.3-0.4-0.6-0.9-0.8-1.3c-0.2-0.3-0.6-0.4-0.8-0.1c-0.3,0.2-0.3,0.6-0.1,0.9
		c0.3,0.4,0.6,0.9,0.8,1.3c1.1,1.8,2.3,3.6,3.9,5.1c0.2,0.2,0.4,0.2,0.6,0.1c0.1,0,0.2-0.1,0.3-0.2c0.2-0.3,0.2-0.7,0-0.9
		C916.4,216.7,915.2,214.9,914.1,213.2"/>
	<path class="st0" d="M954.3,215.1c0.1,0.3,0.4,0.5,0.7,0.4l0,0c0.3-0.1,0.5-0.4,0.4-0.8c-0.4-1.2-0.8-2.6-2-3.2
		c-0.3-0.2-0.6,0-0.7,0.3c-0.1,0.3,0,0.7,0.3,0.8C953.6,213,954,214.1,954.3,215.1"/>
	<path class="st0" d="M1026.8,511.7c-2.8,1.5-4.1,4.2-4,8.1c0,0.4,0.3,0.7,0.7,0.7c0.1,0,0.1,0,0.2,0c0.3-0.1,0.5-0.4,0.5-0.8
		c-0.1-3.3,0.9-5.5,3.2-6.7c0.4-0.2,0.5-0.6,0.3-1C1027.6,511.7,1027.2,511.5,1026.8,511.7"/>
</g>
</svg>
