<?xml version="1.0" encoding="UTF-8"?><!DOCTYPE svg PUBLIC "-//W3C//DTD SVG 1.1//EN" "http://www.w3.org/Graphics/SVG/1.1/DTD/svg11.dtd"><svg xmlns="http://www.w3.org/2000/svg"><symbol id="ico-arrow-left" viewBox="0 0 46 19">
    <path d="M1 8h1V7h1V6h1V5h1V4h1V3h1V2h1V1h1V0h1v8h36v3H10v8H9v-1H8v-1H7v-1H6v-1H5v-1H4v-1H3v-1H2v-1H1v-1H0V9h1z"/>
</symbol><symbol id="ico-arrow-right" viewBox="0 0 46 19">
    <path d="M0 8h36V0h1v1h1v1h1v1h1v1h1v1h1v1h1v1h1v1h1v1h1v1h-1v1h-1v1h-1v1h-1v1h-1v1h-1v1h-1v1h-1v1h-1v1h-1v-8H0z"/>
</symbol></svg>