<svg id="Слой_1" data-name="Слой 1" xmlns="http://www.w3.org/2000/svg" xmlns:xlink="http://www.w3.org/1999/xlink" viewBox="0 0 512 512"><defs><clipPath id="clip-path"><rect width="512" height="512" fill="none"/></clipPath></defs><title>whatsapp</title><g clip-path="url(#clip-path)"><path d="M440.16,71.84A245.28,245.28,0,0,0,51.92,363.67L0,512l148.33-51.92A245.28,245.28,0,0,0,440.16,71.84M388,336.38l-28.32,28.31c-23.46,23.46-90-5.07-148.65-63.71s-87.16-125.19-63.71-148.65L175.62,124a15,15,0,0,1,21.24,0l35.39,35.39a15,15,0,0,1,0,21.24L211,201.88a208.34,208.34,0,0,0,99.1,99.1l21.24-21.24a15,15,0,0,1,21.23,0L388,315.14a15,15,0,0,1,0,21.24"/></g></svg>