<svg id="Слой_1" data-name="Слой 1" xmlns="http://www.w3.org/2000/svg" xmlns:xlink="http://www.w3.org/1999/xlink" viewBox="0 0 492 491.97"><defs><clipPath id="clip-path" transform="translate(0 0)"><rect width="492" height="491.97" fill="none"/></clipPath></defs><title>x</title><g clip-path="url(#clip-path)"><path d="M300.19,246l184-184a27,27,0,0,0,0-38.05L468,7.86a27,27,0,0,0-38.06,0L246,191.8,62,7.86a27,27,0,0,0-38,0L7.87,24A26.93,26.93,0,0,0,7.87,62l184,184-184,184a27,27,0,0,0,0,38.06L24,484.11a27,27,0,0,0,38,0l184-184,184,184A26.7,26.7,0,0,0,449,492h0a26.7,26.7,0,0,0,19-7.86L484.14,468a27,27,0,0,0,0-38.05Z" transform="translate(0 0)"/></g></svg>